<svg xmlns="http://www.w3.org/2000/svg" xmlns:xlink="http://www.w3.org/1999/xlink" width="63.219" height="63.154" viewBox="0 0 63.219 63.154">
  <defs>
    <linearGradient id="linear-gradient" x1="0.5" x2="0.5" y2="1" gradientUnits="objectBoundingBox">
      <stop offset="0" stop-color="#3688e7"/>
      <stop offset="1" stop-color="#e91582"/>
    </linearGradient>
  </defs>
  <path id="beach_access" d="M35.81,1.51c1.04,0,2.111.044,3.181.131A35.557,35.557,0,0,1,51.064,4.633a34.2,34.2,0,0,1,10.082,7.041l1.208,1.208-11.8,11.8-1.207-1.207a37.755,37.755,0,0,0-7.93-6.111,34.9,34.9,0,0,0-9.039-3.594,35.559,35.559,0,0,0-5.739-.921q1.692.567,3.426,1.306A53.91,53.91,0,0,1,46.985,25.825l1.207,1.207-7,7L64.673,57.678l-7.219,6.986L34.007,41.218l-7,7L25.8,47.012A53.908,53.908,0,0,1,14.126,30.088q-.738-1.733-1.3-3.424a35.525,35.525,0,0,0,.921,5.737,34.9,34.9,0,0,0,3.594,9.041,37.718,37.718,0,0,0,6.111,7.928l1.208,1.207-11.8,11.8-1.207-1.207A34.671,34.671,0,0,1,4.007,49.9,34.916,34.916,0,0,1,1.454,36.5,34.916,34.916,0,0,1,4.007,23.1a34.572,34.572,0,0,1,7.4-11.029,1.825,1.825,0,0,1,.628-.628A34.946,34.946,0,0,1,22.876,4.061,32.948,32.948,0,0,1,35.81,1.51Zm21.683,11.4a30.4,30.4,0,0,0-7.837-5.168,32.16,32.16,0,0,0-10.924-2.7H38.72c-.98-.08-1.959-.121-2.909-.121a29.554,29.554,0,0,0-11.6,2.281,29.075,29.075,0,0,0-4.525,2.418,35.343,35.343,0,0,1,4.479-.286A38.77,38.77,0,0,1,43.108,14.4a40.62,40.62,0,0,1,7.42,5.477ZM43.346,27.05A49.809,49.809,0,0,0,28.723,17.3a32.493,32.493,0,0,0-12.6-2.891c-.564,0-1.127.021-1.681.062A30.929,30.929,0,0,0,17.268,28.75a49.808,49.808,0,0,0,9.755,14.623Zm-23.5,23.5a40.581,40.581,0,0,1-5.477-7.418,38.309,38.309,0,0,1-3.946-9.925,36.989,36.989,0,0,1-.832-13.452A29.313,29.313,0,0,0,7.163,24.4,31.522,31.522,0,0,0,4.869,36.5,31.522,31.522,0,0,0,7.163,48.6a30.743,30.743,0,0,0,5.721,8.92ZM59.813,57.63,41.158,38.839l-2.35,2.35L57.493,59.874Z" transform="translate(-1.454 -1.51)" fill="url(#linear-gradient)"/>
</svg>
