<svg id="Group_5066" data-name="Group 5066" xmlns="http://www.w3.org/2000/svg" xmlns:xlink="http://www.w3.org/1999/xlink" width="150.507" height="178.315" viewBox="0 0 150.507 178.315">
  <defs>
    <linearGradient id="linear-gradient" x1="0.816" y1="0.565" x2="0.5" y2="1" gradientUnits="objectBoundingBox">
      <stop offset="0" stop-color="#009677"/>
      <stop offset="1" stop-color="#004b3c"/>
    </linearGradient>
    <linearGradient id="linear-gradient-2" x1="0.636" y1="0.407" x2="0.703" y2="0.25" gradientUnits="objectBoundingBox">
      <stop offset="0" stop-color="#8dba78"/>
      <stop offset="1" stop-color="#648f4f"/>
    </linearGradient>
  </defs>
  <path id="Path_22875" data-name="Path 22875" d="M162.243,49.5,107.211,21.221a1.373,1.373,0,0,0-.277-.03,11.539,11.539,0,0,0-3.148-.531,9.344,9.344,0,0,0-9.4,8.783,1.149,1.149,0,0,0-.072.36V45.324l2.33,58.65a1.247,1.247,0,0,0,.863,1.186l52.7,28.283a1.253,1.253,0,0,0,1.639-1.19V119.038c9.775,3.205,9.809,3.217,10,3.217A1.252,1.252,0,0,0,163.1,121V50.69a1.247,1.247,0,0,0-.86-1.185" transform="translate(-15.636 -3.425)" fill="url(#linear-gradient)"/>
  <path id="Path_22876" data-name="Path 22876" d="M150.435,134.172a2.077,2.077,0,0,1-.647-.1l-.133-.058L97.01,105.761a2.074,2.074,0,0,1-1.361-1.953L93.32,45.191V29.637a1.8,1.8,0,0,1,.082-.519,10.2,10.2,0,0,1,10.22-9.458,12.027,12.027,0,0,1,3.29.537,1.611,1.611,0,0,1,.367.056l.148.06,54.979,28.256a2.072,2.072,0,0,1,1.366,1.955v70.31a2.089,2.089,0,0,1-2.084,2.088c-.313,0-.325,0-9.166-2.9v12.065a2.087,2.087,0,0,1-2.087,2.084m-.076-1.675a.446.446,0,0,0,.319-.07.427.427,0,0,0,.176-.339V117.721l1.18.387c7.654,2.509,9.472,3.106,9.712,3.152a.422.422,0,0,0,.357-.425V50.524a.414.414,0,0,0-.282-.391l-.125-.053L106.778,21.856l-.241-.03a10.594,10.594,0,0,0-2.916-.5,8.543,8.543,0,0,0-8.564,8.009l-.039.2a.607.607,0,0,0-.03.108V45.158l2.329,58.617a.426.426,0,0,0,.287.426l.138.058Z" transform="translate(-15.47 -3.259)" fill="#2c5871"/>
  <path id="Path_22877" data-name="Path 22877" d="M152.356,62.439v63.2a6.961,6.961,0,0,1,6.19-3.69,9.323,9.323,0,0,1,2.558.445v-70.3L107.647,24.326c-.023-.006-.051,0-.073-.011a9.771,9.771,0,0,0-3.286-.657,6.893,6.893,0,0,0-6.941,6.722c.113.819.487,1.923,4.761,4.509l49.379,26.358a1.261,1.261,0,0,1,.868,1.19" transform="translate(-16.138 -3.922)" fill="#fff"/>
  <path id="Path_22878" data-name="Path 22878" d="M152.924,125.864l-1.569-.395v-63.2a.429.429,0,0,0-.3-.4l-.13-.056L101.55,35.46c-4.521-2.734-5.036-3.985-5.195-5.129l-.011-.074,0-.074a7.693,7.693,0,0,1,7.775-7.524,10.473,10.473,0,0,1,3.485.677l.258.085,53.906,28v71.916l-1.068-.312a8.432,8.432,0,0,0-2.324-.411,6.1,6.1,0,0,0-5.455,3.251m-1.266-65.547a2.089,2.089,0,0,1,1.365,1.955v60.754a7.764,7.764,0,0,1,5.356-2.082,8.159,8.159,0,0,1,1.724.2V52.434l-52.9-27.476-.071-.02a8.983,8.983,0,0,0-3.013-.611,6.046,6.046,0,0,0-6.1,5.846c.077.476.4,1.441,4.356,3.837Z" transform="translate(-15.971 -3.756)" fill="#2c5871"/>
  <path id="Path_22879" data-name="Path 22879" d="M160.933,66.65a8.342,8.342,0,0,1,2.133-6.513c2.285-2.437,6-3.3,8.722-3.3V58.5c-2.368,0-5.584.729-7.5,2.778a6.741,6.741,0,0,0-1.686,5.264Z" transform="translate(-26.675 -9.421)" fill="#2c5871"/>
  <path id="Path_22880" data-name="Path 22880" d="M133.718,147.431a3.349,3.349,0,0,0-2.4-.02,15.515,15.515,0,0,0-2.034,1.3L69.808,192.369a.967.967,0,0,1-1,.129l-48.77-26.97a4.1,4.1,0,0,1-.8,4.4,8.2,8.2,0,0,1-1.357,1.256l52.463,29,61.995-45.454a.493.493,0,0,1,.039-.036,8.593,8.593,0,0,0,1.786-1.588c1.678-2.056,1.465-4.506-.44-5.672" transform="translate(-2.963 -24.4)" fill="#fff"/>
  <path id="Path_22881" data-name="Path 22881" d="M70.1,201,16.059,171.13l1.007-.776a7.318,7.318,0,0,0,1.219-1.12,3.279,3.279,0,0,0,.7-3.5l-1.165-2.379L68.91,191.6c-.016-.018.043-.03.106-.075l59.471-43.651h0a15.7,15.7,0,0,1,2.148-1.378,3.156,3.156,0,0,1,1.427-.311,5.02,5.02,0,0,1,1.638.292l.151.073a4.026,4.026,0,0,1,1.915,2.779,5.18,5.18,0,0,1-1.263,4.132,9.391,9.391,0,0,1-1.907,1.71l-.044.037ZM19.036,170.87l50.939,28.158,61.633-45.2a7.808,7.808,0,0,0,1.6-1.42,3.6,3.6,0,0,0,.911-2.8,2.335,2.335,0,0,0-1.068-1.591,2.7,2.7,0,0,0-1.665-.032,14.758,14.758,0,0,0-1.858,1.188l-.057.043L70,192.875a1.823,1.823,0,0,1-1.9.189l-47.2-26.1a5.567,5.567,0,0,1-1.323,3.328,6.4,6.4,0,0,1-.541.581" transform="translate(-2.662 -24.234)" fill="#2c5871"/>
  <path id="Path_22882" data-name="Path 22882" d="M134.664,140.015a.538.538,0,0,0-.158-.142l-.189-.106-54.285-30a.955.955,0,0,0-1,.129L43.6,135.85a1.116,1.116,0,0,0-.2.189v0L16.077,156.05a1.146,1.146,0,0,0-.2.192.878.878,0,0,0-.2.465.583.583,0,0,0,.3.568l6.87,3.779,45.6,25.227a.969.969,0,0,0,1-.13L89.6,171.357h0l1.522-1.116h0l5.835-4.285,0,0,8.879-6.518,23.08-16.94a15.679,15.679,0,0,1,2.035-1.306,3.349,3.349,0,0,1,2.4.022c1.905,1.165,2.118,3.616.44,5.671a8.67,8.67,0,0,1-1.787,1.588.481.481,0,0,0-.038.036L95.987,174.89,96,174.9,69.974,193.963l-52.464-29c.009-.005.015-.011.023-.016a5.14,5.14,0,0,0-.762.591.655.655,0,0,0,.1,1.031l52.468,29a.957.957,0,0,0,1-.128l35.438-25.955a1.316,1.316,0,0,0,.139-.144.014.014,0,0,0,.008-.008L133.3,149.291a1.4,1.4,0,0,0,.139-.143A10.178,10.178,0,0,0,135.1,147.6c2.225-2.731,1.994-5.966-.433-7.585" transform="translate(-2.598 -18.181)" fill="#cceef5"/>
  <path id="Path_22883" data-name="Path 22883" d="M69.544,196.332h0a1.616,1.616,0,0,1-.77-.192L16.3,167.134a1.409,1.409,0,0,1-.706-.968,1.618,1.618,0,0,1,.361-1.321,4.235,4.235,0,0,1,.834-.677l.1-.077.383-.282,52.464,29,61.633-45.2a7.814,7.814,0,0,0,1.6-1.42,3.6,3.6,0,0,0,.91-2.8,2.331,2.331,0,0,0-1.068-1.589,2.7,2.7,0,0,0-1.665-.032,14.753,14.753,0,0,0-1.857,1.187l-.058.045-31.8,23.337-.14.281h-.245L69.77,186.658a1.823,1.823,0,0,1-1.9.187l-45.6-25.226-6.868-3.777a1.421,1.421,0,0,1-.731-1.356,1.728,1.728,0,0,1,.383-.934,1.979,1.979,0,0,1,.36-.34l27.236-19.949a1.911,1.911,0,0,1,.289-.255l35.433-25.952a1.814,1.814,0,0,1,1.893-.187l54.48,30.112a1.148,1.148,0,0,1,.3.239,5.137,5.137,0,0,1,2.188,3.482,6.781,6.781,0,0,1-1.663,5.261,10.664,10.664,0,0,1-1.74,1.636,1.413,1.413,0,0,1-.19.184l-27.153,19.887-.032.122-.227.093c-.036.035-.073.068-.113.1L70.665,195.953a1.9,1.9,0,0,1-1.121.379M17.37,165.817l52.181,28.846a.268.268,0,0,0,.066-.018l-.212-.118-51.994-28.74-.041.03m-.91-9.3,6.62,3.642,45.6,25.227c-.017-.017.043-.029.106-.074l59.472-43.652,0,0a15.52,15.52,0,0,1,2.148-1.378,3.139,3.139,0,0,1,1.426-.312,5.019,5.019,0,0,1,1.638.293l.151.072a4.029,4.029,0,0,1,1.915,2.78,4.435,4.435,0,0,1,.05,1.036,4.1,4.1,0,0,0,.006-1.2,3.467,3.467,0,0,0-1.557-2.4l-.291-.214-54.281-30c.013.015-.039.027-.093.067L44.062,136.257v.04l-.341.254Z" transform="translate(-2.432 -18.017)" fill="#2c5871"/>
  <path id="Path_22884" data-name="Path 22884" d="M136.453,135.473a3.333,3.333,0,0,0-2.4-.019,15.562,15.562,0,0,0-2.034,1.3L86.3,170.278a.961.961,0,0,1-1,.127l-48.77-26.967a4.1,4.1,0,0,1-.806,4.4,8.18,8.18,0,0,1-1.355,1.255l52.462,29,48.235-35.322c.016-.012.024-.03.039-.038a8.661,8.661,0,0,0,1.786-1.585c1.678-2.056,1.465-4.508-.44-5.672" transform="translate(-5.698 -22.418)" fill="#fff"/>
  <path id="Path_22885" data-name="Path 22885" d="M86.594,178.912l-.466-.259L32.554,149.038l1.007-.775a7.443,7.443,0,0,0,1.216-1.12,3.282,3.282,0,0,0,.7-3.5l-1.167-2.381,51.09,28.25c-.013-.014.045-.026.1-.069l45.714-33.522a16.2,16.2,0,0,1,2.151-1.374,3.14,3.14,0,0,1,1.426-.311,5.057,5.057,0,0,1,1.638.291l.151.073a4.026,4.026,0,0,1,1.915,2.777,5.18,5.18,0,0,1-1.263,4.134,9.388,9.388,0,0,1-1.877,1.688l-.117.092ZM35.531,148.777l50.939,28.158L134.2,141.98l.138-.109a7.879,7.879,0,0,0,1.606-1.421,3.6,3.6,0,0,0,.909-2.8,2.335,2.335,0,0,0-1.068-1.588,2.69,2.69,0,0,0-1.663-.032,14.712,14.712,0,0,0-1.9,1.215L86.5,170.784a1.824,1.824,0,0,1-1.9.182l-47.2-26.1a5.571,5.571,0,0,1-1.323,3.329,6.518,6.518,0,0,1-.541.581" transform="translate(-5.397 -22.252)" fill="#2c5871"/>
  <path id="Path_22886" data-name="Path 22886" d="M137.4,128.052a.571.571,0,0,0-.158-.14l-.189-.1-54.285-30a.957.957,0,0,0-1,.126L68.079,107.959c-.021.014-.047.023-.068.04L32.57,133.957a1.2,1.2,0,0,0-.2.191.883.883,0,0,0-.2.464.578.578,0,0,0,.3.569l6.871,3.78,45.6,25.224a.961.961,0,0,0,1-.128l6.368-4.674h0l1.523-1.115,0,0,5.678-4.168.061-.034,32.084-23.528a15.63,15.63,0,0,1,2.035-1.3,3.333,3.333,0,0,1,2.4.019c1.905,1.164,2.118,3.616.44,5.672a8.716,8.716,0,0,1-1.787,1.586c-.014.008-.023.026-.038.038l-9.373,6.866v0L86.467,171.87l-52.461-29a.3.3,0,0,1,.028-.024,5.815,5.815,0,0,0-.768.6.657.657,0,0,0,.1,1.033l52.467,29a.96.96,0,0,0,1-.123l13.69-10.029a.474.474,0,0,0,.069-.039l35.439-25.959a1.237,1.237,0,0,0,.139-.142,10.245,10.245,0,0,0,1.661-1.546c2.225-2.731,1.994-5.966-.433-7.588" transform="translate(-5.332 -16.199)" fill="#f0edda"/>
  <path id="Path_22887" data-name="Path 22887" d="M86.039,174.238h0a1.585,1.585,0,0,1-.774-.2l-52.465-29a1.409,1.409,0,0,1-.707-.968,1.594,1.594,0,0,1,.286-1.224l-.143-.079,1.08-.718.036-.028.055-.039.465.662.372-.673,52,28.742L126,141.6v0l8.114-5.951a7.879,7.879,0,0,0,1.606-1.421,3.6,3.6,0,0,0,.908-2.8,2.331,2.331,0,0,0-1.068-1.588,2.69,2.69,0,0,0-1.663-.032,14.676,14.676,0,0,0-1.9,1.215l-36.965,27.1h0l-8.771,6.435a1.821,1.821,0,0,1-1.9.183L38.769,139.526l-6.87-3.779a1.4,1.4,0,0,1-.728-1.364,1.71,1.71,0,0,1,.375-.917,2.039,2.039,0,0,1,.366-.347l49.2-36.026a1.814,1.814,0,0,1,1.9-.182l54.471,30.106a1.187,1.187,0,0,1,.3.236,5.15,5.15,0,0,1,2.194,3.491A6.788,6.788,0,0,1,138.312,136a10.857,10.857,0,0,1-1.741,1.636,1.379,1.379,0,0,1-.2.189L87.16,173.863a1.914,1.914,0,0,1-1.121.375M33.864,143.724,86.047,172.57a.238.238,0,0,0,.063-.017l-.212-.118L33.9,143.694l-.041.03m-.909-9.3,6.621,3.642,45.6,25.225c-.013-.015.044-.027.1-.07L130.992,129.7a16.076,16.076,0,0,1,2.151-1.374,3.137,3.137,0,0,1,1.426-.311,5.062,5.062,0,0,1,1.638.291l.15.073a4.023,4.023,0,0,1,1.915,2.777,4.4,4.4,0,0,1,.051,1.038,4.023,4.023,0,0,0,0-1.2,3.46,3.46,0,0,0-1.557-2.41l-.15-.128-.008-.008-.128-.07L82.2,98.37c.013.015-.042.025-.1.067Z" transform="translate(-5.167 -16.034)" fill="#2c5871"/>
  <path id="Path_22888" data-name="Path 22888" d="M101.8,147.927,53.024,120.958a4.1,4.1,0,0,1-.806,4.4,8.192,8.192,0,0,1-1.356,1.255l52.465,29L137.8,130.356c.017-.013.024-.028.039-.034a8.651,8.651,0,0,0,1.787-1.59c1.677-2.056,1.464-4.5-.441-5.67a3.341,3.341,0,0,0-2.4-.019,15.849,15.849,0,0,0-2.034,1.3L102.8,147.8a.969.969,0,0,1-1,.125" transform="translate(-8.432 -20.052)" fill="#fff"/>
  <path id="Path_22889" data-name="Path 22889" d="M103.09,156.2l-.466-.259L49.048,126.328l1-.776a7.35,7.35,0,0,0,1.217-1.12,3.281,3.281,0,0,0,.7-3.506l-1.167-2.381L101.9,146.8c-.012-.015.047-.028.109-.072l31.947-23.453a16.034,16.034,0,0,1,2.151-1.375,3.139,3.139,0,0,1,1.427-.312,5.017,5.017,0,0,1,1.637.291l.15.073a4.021,4.021,0,0,1,1.915,2.777,5.178,5.178,0,0,1-1.262,4.132,9.418,9.418,0,0,1-1.918,1.72l-.033.028ZM52.023,126.066l50.941,28.158,33.989-24.9.155-.117a7.79,7.79,0,0,0,1.571-1.4,3.6,3.6,0,0,0,.912-2.8,2.332,2.332,0,0,0-1.069-1.59,2.713,2.713,0,0,0-1.664-.031,15.008,15.008,0,0,0-1.9,1.215L102.99,148.074a1.819,1.819,0,0,1-1.9.182l-47.2-26.1a5.566,5.566,0,0,1-1.325,3.329,6.244,6.244,0,0,1-.541.581" transform="translate(-8.131 -19.652)" fill="#2c5871"/>
  <path id="Path_22890" data-name="Path 22890" d="M140.133,116.015a.516.516,0,0,0-.158-.142l-.189-.106-54.285-30a.952.952,0,0,0-1,.128L49.064,111.85a1.156,1.156,0,0,0-.2.19.851.851,0,0,0-.2.465.574.574,0,0,0,.3.568l6.871,3.782,45.6,25.222a.969.969,0,0,0,1-.125L134.385,118.5a15.751,15.751,0,0,1,2.035-1.3,3.341,3.341,0,0,1,2.4.02c1.905,1.165,2.118,3.614.44,5.669a8.676,8.676,0,0,1-1.787,1.591c-.014.006-.023.021-.038.034l-34.474,25.256-52.464-29c.014-.009.023-.019.038-.031a5.777,5.777,0,0,0-.776.6.655.655,0,0,0,.1,1.033l52.468,29a.961.961,0,0,0,1-.126l35.439-25.957a1.329,1.329,0,0,0,.139-.145,10.166,10.166,0,0,0,1.661-1.544c2.225-2.733,1.994-5.969-.433-7.586" transform="translate(-8.067 -14.203)" fill="url(#linear-gradient-2)"/>
  <path id="Path_22891" data-name="Path 22891" d="M102.531,152.132h0a1.59,1.59,0,0,1-.772-.194l-52.465-29a1.41,1.41,0,0,1-.707-.966,1.6,1.6,0,0,1,.286-1.225l-.144-.08,1.083-.72.063-.048.49.646.372-.674,52,28.742,33.988-24.9.156-.118a7.839,7.839,0,0,0,1.571-1.4,3.6,3.6,0,0,0,.911-2.8,2.331,2.331,0,0,0-1.068-1.59,2.713,2.713,0,0,0-1.664-.032,14.945,14.945,0,0,0-1.9,1.215L102.76,142.46a1.818,1.818,0,0,1-1.9.182l-45.6-25.22-6.87-3.782a1.4,1.4,0,0,1-.727-1.362,1.683,1.683,0,0,1,.381-.926,1.993,1.993,0,0,1,.365-.344L83.846,85.054a1.815,1.815,0,0,1,1.9-.183l54.476,30.11a1.156,1.156,0,0,1,.306.239,5.142,5.142,0,0,1,2.187,3.478,6.792,6.792,0,0,1-1.664,5.265,10.657,10.657,0,0,1-1.738,1.632,1.5,1.5,0,0,1-.181.177l-35.474,25.984a1.923,1.923,0,0,1-1.124.375M50.358,121.617l52.182,28.845a.206.206,0,0,0,.065-.017l-.21-.117-52-28.742c-.015.01-.028.02-.04.03m-.909-9.3,6.621,3.644,45.6,25.223c-.013-.015.046-.027.109-.072l31.947-23.452a15.851,15.851,0,0,1,2.151-1.376,3.142,3.142,0,0,1,1.427-.312,5.011,5.011,0,0,1,1.636.291l.151.073a4.025,4.025,0,0,1,1.915,2.778,4.328,4.328,0,0,1,.05,1.039,4,4,0,0,0,0-1.205,3.448,3.448,0,0,0-1.556-2.4l-.291-.214-54.281-30c.013.014-.04.025-.094.066Z" transform="translate(-7.901 -14.038)" fill="#2c5871"/>
  <path id="Path_22892" data-name="Path 22892" d="M114.123,161.129l-1.111-1.245a5.38,5.38,0,0,0,1.747-4.116,3.131,3.131,0,0,0-1.638-2.448l.863-1.427a4.775,4.775,0,0,1,2.435,3.722,7.081,7.081,0,0,1-2.3,5.514" transform="translate(-18.735 -25.18)" fill="#2c5871"/>
  <path id="Path_22893" data-name="Path 22893" d="M97.521,185.375,96.41,184.13a5.38,5.38,0,0,0,1.747-4.116,3.129,3.129,0,0,0-1.638-2.448l.863-1.427a4.775,4.775,0,0,1,2.435,3.722,7.08,7.08,0,0,1-2.3,5.514" transform="translate(-15.982 -29.199)" fill="#2c5871"/>
  <path id="Path_22894" data-name="Path 22894" d="M81.357,209.186l-1.111-1.245a5.382,5.382,0,0,0,1.746-4.117,3.131,3.131,0,0,0-1.638-2.448l.863-1.427a4.775,4.775,0,0,1,2.435,3.721,7.083,7.083,0,0,1-2.3,5.515" transform="translate(-13.303 -33.147)" fill="#2c5871"/>
  <path id="Path_22895" data-name="Path 22895" d="M9.906,205.919a9.906,9.906,0,1,1,9.907-9.906,9.918,9.918,0,0,1-9.907,9.906m0-18.144a8.238,8.238,0,1,0,8.239,8.238,8.247,8.247,0,0,0-8.239-8.238" transform="translate(0 -30.852)" fill="#2c5871"/>
  <path id="Path_22896" data-name="Path 22896" d="M10.749,205.585c-3.123,0-5.665-4.256-5.665-9.489s2.542-9.489,5.665-9.489,5.664,4.257,5.664,9.489-2.541,9.489-5.664,9.489m0-18.144c-2.664,0-4.831,3.882-4.831,8.655s2.167,8.655,4.831,8.655,4.829-3.882,4.829-8.655-2.166-8.655-4.829-8.655" transform="translate(-0.843 -30.935)" fill="#2c5871"/>
  <path id="Path_22897" data-name="Path 22897" d="M11.792,205.585a.417.417,0,0,1-.417-.417V187.023a.417.417,0,0,1,.417-.417,9.489,9.489,0,1,1,0,18.979m.417-18.134v17.291a8.656,8.656,0,0,0,0-17.291" transform="translate(-1.886 -30.935)" fill="#2c5871"/>
  <path id="Path_22898" data-name="Path 22898" d="M18.471,200.878H1.508a.417.417,0,0,1-.39-.27,9.363,9.363,0,0,1,0-6.691.416.416,0,0,1,.39-.269H18.471a.417.417,0,0,1,.39.269,9.365,9.365,0,0,1,0,6.692.417.417,0,0,1-.39.269M1.8,200.044H18.178a8.513,8.513,0,0,0,0-5.563H1.8a8.513,8.513,0,0,0,0,5.563" transform="translate(-0.083 -32.102)" fill="#2c5871"/>
  <path id="Path_22899" data-name="Path 22899" d="M159.915,15.228a.834.834,0,0,1-.586-1.428,4.851,4.851,0,0,0,1.34-4.325c-.213-.117-.412-.238-.6-.364a.835.835,0,0,1-.355-.858c.044-.219.1-.445.169-.682A4.853,4.853,0,0,0,155.9,5.45a.852.852,0,0,1-.785-.518.83.83,0,0,1,.174-.91,6.314,6.314,0,0,1,2.033-1.351,6.439,6.439,0,0,1,5.469.287A11.108,11.108,0,0,1,166.1.853a10.523,10.523,0,0,1,9.745.736.832.832,0,0,1,.354.855,10.49,10.49,0,0,1-6.382,7.4,11.085,11.085,0,0,1-3.826.838,6.376,6.376,0,0,1-3.674,4.065,6.247,6.247,0,0,1-2.394.478Zm1.573-7.207c.091.05.185.1.284.148a.834.834,0,0,1,.435.536,6.571,6.571,0,0,1-.411,4.452A4.733,4.733,0,0,0,164.513,9.7a.861.861,0,0,1,.837-.677l.2,0a9.436,9.436,0,0,0,3.626-.72,8.929,8.929,0,0,0,5.249-5.631,8.964,8.964,0,0,0-7.691-.279,9.454,9.454,0,0,0-3.218,2.191.835.835,0,0,1-1.069.111,4.781,4.781,0,0,0-4.37-.529,6.571,6.571,0,0,1,3.437,2.863.831.831,0,0,1,.072.684c-.036.106-.068.208-.1.307" transform="translate(-25.704 0)" fill="#2c5871"/>
  <path id="Path_22900" data-name="Path 22900" d="M172.17,7.228a2.086,2.086,0,0,1-.8-4.013,2.121,2.121,0,0,1,2.725,1.13,2.087,2.087,0,0,1-1.927,2.883m0-3.338a1.252,1.252,0,0,0-1.156,1.732,1.271,1.271,0,0,0,1.633.677,1.251,1.251,0,0,0-.477-2.408" transform="translate(-28.196 -0.508)" fill="#2c5871"/>
  <path id="Path_22901" data-name="Path 22901" d="M159.055,12.543a5.314,5.314,0,0,1-2.826-.788.416.416,0,0,1-.185-.447,5.625,5.625,0,0,1,3.4-3.853.417.417,0,0,1,.318.771,4.841,4.841,0,0,0-2.827,2.975,4.853,4.853,0,0,0,4.1.109.417.417,0,0,1,.318.771,6.051,6.051,0,0,1-2.3.463" transform="translate(-25.866 -1.231)" fill="#2c5871"/>
  <path id="Path_22902" data-name="Path 22902" d="M109.245,134.433h0a1.785,1.785,0,0,1-1.269-.526L100,125.93a1.79,1.79,0,0,1,0-2.539l2.505-2.506a.835.835,0,0,1,1.407.416,1.886,1.886,0,0,0,.506.943,1.93,1.93,0,0,0,2.667,0,1.88,1.88,0,0,0-.943-3.174.834.834,0,0,1-.415-1.407l2.25-2.25a1.836,1.836,0,0,1,2.537,0l1.633,1.633a3.492,3.492,0,0,1,.709-1.024,3.555,3.555,0,1,1,4,5.738l1.633,1.633a1.791,1.791,0,0,1,0,2.539l-2.249,2.248a.835.835,0,0,1-1.407-.419,1.857,1.857,0,0,0-.506-.94,1.931,1.931,0,0,0-2.667,0A1.881,1.881,0,0,0,112.6,130a.834.834,0,0,1,.416,1.406l-2.506,2.506a1.779,1.779,0,0,1-1.268.526m-6.421-11.507-1.646,1.647a.121.121,0,0,0,0,.176l7.979,7.979a.109.109,0,0,0,.176,0l1.647-1.647a3.554,3.554,0,1,1,4.528-5.44,3.45,3.45,0,0,1,.414.5l1.39-1.39a.122.122,0,0,0,.038-.088.121.121,0,0,0-.037-.087l-2.748-2.75a.835.835,0,0,1,.656-1.422,1.875,1.875,0,0,0,1.485-3.2,1.935,1.935,0,0,0-2.67,0,1.88,1.88,0,0,0-.533,1.482.834.834,0,0,1-1.422.655l-2.747-2.745a.109.109,0,0,0-.178,0l-1.39,1.39a3.468,3.468,0,0,1,.5.414,3.555,3.555,0,1,1-5.44,4.529" transform="translate(-16.49 -19.048)" fill="#2c5871"/>
  <path id="Path_22903" data-name="Path 22903" d="M43.839,86.707H37.56a.833.833,0,0,1-.833-.884,4.078,4.078,0,0,0-.4-2.167,11.816,11.816,0,0,1-2.64-6.549,7.005,7.005,0,0,1,14.011,0,11.836,11.836,0,0,1-2.649,6.56,4.166,4.166,0,0,0-.374,2.149.835.835,0,0,1-.833.892m-5.456-1.668h4.624a4.585,4.585,0,0,1,.712-2.383A10.526,10.526,0,0,0,46.025,77.1a5.337,5.337,0,0,0-10.674,0,10.514,10.514,0,0,0,2.3,5.536,4.669,4.669,0,0,1,.733,2.4" transform="translate(-5.584 -11.621)" fill="#2c5871"/>
  <path id="Path_22904" data-name="Path 22904" d="M44.535,91.9H38a.834.834,0,1,1,0-1.668h6.539a.834.834,0,1,1,0,1.668" transform="translate(-6.161 -14.959)" fill="#2c5871"/>
  <path id="Path_22905" data-name="Path 22905" d="M43.9,94.1H38.946a.834.834,0,0,1,0-1.668H43.9a.834.834,0,0,1,0,1.668" transform="translate(-6.318 -15.323)" fill="#2c5871"/>
  <rect id="Rectangle_2221" data-name="Rectangle 2221" width="0.834" height="8.78" transform="translate(32.556 65.425) rotate(-6.909)" fill="#2c5871"/>
  <rect id="Rectangle_2222" data-name="Rectangle 2222" width="8.78" height="0.834" transform="translate(35.771 74.041) rotate(-83.103)" fill="#2c5871"/>
  <path id="Path_22906" data-name="Path 22906" d="M43.11,80.655a.6.6,0,0,1-.515-.3.591.591,0,0,1-1.027,0,.588.588,0,0,1-1.021,0,.6.6,0,0,1-.51.3c-.4,0-.56-.362-.637-.536a1.271,1.271,0,0,0-.058-.12.242.242,0,0,0,.183.079v-.834a.6.6,0,0,1,.511.3.588.588,0,0,1,1.021,0,.589.589,0,0,1,1.024,0,.591.591,0,0,1,1.029,0,.6.6,0,0,1,.515-.3v.834A.242.242,0,0,0,43.807,80a1.017,1.017,0,0,0-.058.119c-.078.174-.239.536-.639.536" transform="translate(-6.522 -13.137)" fill="#2c5871"/>
  <path id="Path_22907" data-name="Path 22907" d="M30.23,143.6a.833.833,0,0,1-.717-.408,44.847,44.847,0,0,1-2.7-5.3.834.834,0,1,1,1.535-.655,43.326,43.326,0,0,0,2.6,5.1.834.834,0,0,1-.716,1.261M25.689,132.88a.833.833,0,0,1-.806-.626,37.15,37.15,0,0,1-1.026-5.879.834.834,0,0,1,1.662-.154,35.548,35.548,0,0,0,.979,5.615.832.832,0,0,1-.6,1.016.824.824,0,0,1-.209.027M24.633,121.3l-.059,0a.833.833,0,0,1-.773-.89,38.936,38.936,0,0,1,.881-5.893.834.834,0,0,1,1.627.371,37.421,37.421,0,0,0-.844,5.639.834.834,0,0,1-.831.776m2.553-11.355a.835.835,0,0,1-.78-1.13,49.462,49.462,0,0,1,2.438-5.415.834.834,0,1,1,1.477.774,47.728,47.728,0,0,0-2.355,5.231.834.834,0,0,1-.781.54m47.771-7.413a13.169,13.169,0,0,1-1.8-.122.834.834,0,1,1,.226-1.653,13.385,13.385,0,0,0,5.249-.4l.194-.053a.835.835,0,0,1,.441,1.61l-.209.056a16.094,16.094,0,0,1-4.1.561m-7.016-2.323a.832.832,0,0,1-.5-.17,15.1,15.1,0,0,1-3.972-4.674.834.834,0,1,1,1.453-.819,13.473,13.473,0,0,0,3.527,4.164.834.834,0,0,1-.5,1.5M32.564,99.6a.834.834,0,0,1-.693-1.3c1.074-1.613,2.257-3.214,3.516-4.763A.834.834,0,1,1,36.681,94.6c-1.226,1.507-2.377,3.067-3.422,4.636a.834.834,0,0,1-.695.371m51.682-.219a.834.834,0,0,1-.537-1.473,6.611,6.611,0,0,0,2.479-4.421.834.834,0,1,1,1.658.18,8.331,8.331,0,0,1-3.066,5.518.828.828,0,0,1-.535.2m-44.33-8.848a.835.835,0,0,1-.6-1.416c1.387-1.429,2.837-2.8,4.307-4.061a.834.834,0,1,1,1.088,1.264c-1.432,1.234-2.844,2.566-4.2,3.96a.832.832,0,0,1-.6.253m22.17-.173a.833.833,0,0,1-.808-.632,32.029,32.029,0,0,1-.88-5.922.834.834,0,1,1,1.665-.1,30.479,30.479,0,0,0,.833,5.614.833.833,0,0,1-.606,1.012.822.822,0,0,1-.2.026m23.576-1.524a.831.831,0,0,1-.721-.414,14.835,14.835,0,0,0-3.666-4.094.834.834,0,1,1,1.035-1.308,16.461,16.461,0,0,1,4.071,4.561.834.834,0,0,1-.719,1.255m-36.877-5.9a.835.835,0,0,1-.474-1.522,26.715,26.715,0,0,1,5.265-2.95.834.834,0,1,1,.595,1.558,25.552,25.552,0,0,0-4.914,2.765.831.831,0,0,1-.472.148m28-1.4a.834.834,0,0,1-.335-.071,28.707,28.707,0,0,0-5.393-1.731.834.834,0,0,1,.357-1.63,30.3,30.3,0,0,1,5.706,1.834.834.834,0,0,1-.335,1.6M59.617,79.115a.834.834,0,0,1-.071-1.665q.5-.044,1-.076a49.136,49.136,0,0,1,.837-5.389.834.834,0,0,1,1.633.345,47.9,47.9,0,0,0-.786,4.967c1.118-.032,2.211-.018,3.269.038A.834.834,0,1,1,65.408,79a41.8,41.8,0,0,0-5.719.111.7.7,0,0,1-.073,0m4.1-11.758a.835.835,0,0,1-.793-1.094c.6-1.844,1.315-3.7,2.117-5.528a.834.834,0,0,1,1.527.672c-.781,1.774-1.473,3.582-2.059,5.374a.835.835,0,0,1-.793.576M68.4,56.678a.834.834,0,0,1-.728-1.24c.608-1.095,1.258-2.189,1.934-3.255.365-.576.768-1.175,1.2-1.78a.834.834,0,1,1,1.357.97c-.415.581-.8,1.153-1.149,1.7-.658,1.039-1.292,2.108-1.885,3.174a.834.834,0,0,1-.73.429m6.761-9.5a.834.834,0,0,1-.621-1.391c1.24-1.386,2.623-2.813,4.105-4.243a.834.834,0,0,1,1.159,1.2c-1.454,1.4-2.807,2.8-4.021,4.155a.829.829,0,0,1-.621.278m8.386-8.13A.834.834,0,0,1,83,37.585c1.447-1.245,2.979-2.5,4.554-3.725a.834.834,0,1,1,1.024,1.316c-1.552,1.21-3.063,2.446-4.491,3.674a.828.828,0,0,1-.544.2m9.211-7.188a.834.834,0,0,1-.484-1.514c1.584-1.126,3.22-2.237,4.863-3.3a.834.834,0,1,1,.908,1.4C96.42,29.5,94.8,30.6,93.237,31.71a.83.83,0,0,1-.482.154m9.8-6.358a.834.834,0,0,1-.425-1.552c1.7-1,3.423-1.969,5.13-2.876a.834.834,0,0,1,.783,1.473c-1.685.9-3.389,1.851-5.065,2.84a.821.821,0,0,1-.423.116m10.319-5.477a.835.835,0,0,1-.356-1.589c1.8-.851,3.616-1.648,5.388-2.37a.834.834,0,1,1,.629,1.545c-1.744.711-3.529,1.5-5.306,2.334a.832.832,0,0,1-.355.08m10.819-4.395a.834.834,0,0,1-.266-1.625c1.911-.646,3.813-1.213,5.654-1.688a.834.834,0,1,1,.417,1.615c-1.8.465-3.665,1.022-5.538,1.654a.824.824,0,0,1-.266.044" transform="translate(-3.945 -2.038)" fill="#2c5871"/>
  <rect id="Rectangle_2223" data-name="Rectangle 2223" width="150.507" height="178.314" transform="translate(0 0)" fill="none"/>
</svg>
