<svg xmlns="http://www.w3.org/2000/svg" width="35.439" height="51.547" viewBox="0 0 35.439 51.547">
  <path id="bulb" d="M22.719,0A17.718,17.718,0,0,0,5,17.719c0,6.493,5.941,13.375,8.1,19.419,3.227,9.013,2.869,14.409,9.615,14.409,6.846,0,6.387-5.371,9.615-14.372,2.17-6.057,8.1-13.012,8.1-19.456A17.72,17.72,0,0,0,22.719,0Zm4.175,43.776-7.987,1c-.285-.825-.591-1.79-.963-3.049,0-.016-.011-.034-.014-.05L27.9,40.429c-.142.475-.293.975-.425,1.422-.211.723-.4,1.352-.578,1.925Zm-9.433-3.653c-.293-.97-.623-1.991-.991-3.074h12.51c-.2.578-.4,1.158-.567,1.706L17.462,40.123Zm5.258,8.2c-1.632,0-2.382-.188-3.217-2.014l6.827-.855c-.989,2.664-1.709,2.869-3.61,2.869Zm7.526-14.5H15.211c-.8-1.74-1.765-3.479-2.716-5.182-2.1-3.761-4.274-7.652-4.274-10.926a14.5,14.5,0,0,1,29,0c0,3.251-2.175,7.162-4.278,10.946-.941,1.7-1.9,3.433-2.693,5.163ZM22.719,8.054a.805.805,0,0,1,0,1.611,8.063,8.063,0,0,0-8.054,8.054.805.805,0,1,1-1.611,0A9.675,9.675,0,0,1,22.719,8.054Z" transform="translate(-5)" fill="#fff"/>
</svg>
