<svg xmlns="http://www.w3.org/2000/svg" xmlns:xlink="http://www.w3.org/1999/xlink" width="78.707" height="78.707" viewBox="0 0 78.707 78.707">
  <defs>
    <linearGradient id="linear-gradient" x1="0.5" x2="0.5" y2="1" gradientUnits="objectBoundingBox">
      <stop offset="0" stop-color="#f4da80"/>
      <stop offset="1" stop-color="#b29636"/>
    </linearGradient>
    <filter id="Ellipse_177" x="0" y="0" width="78.707" height="78.707" filterUnits="userSpaceOnUse">
      <feOffset dx="2" dy="2" input="SourceAlpha"/>
      <feGaussianBlur stdDeviation="5" result="blur"/>
      <feFlood flood-opacity="0.161"/>
      <feComposite operator="in" in2="blur"/>
      <feComposite in="SourceGraphic"/>
    </filter>
    <clipPath id="clip-path">
      <circle id="Ellipse_179" data-name="Ellipse 179" cx="24.354" cy="24.354" r="24.354" transform="translate(0.001 0)" fill="#fff"/>
    </clipPath>
  </defs>
  <g id="Group_5348" data-name="Group 5348" transform="translate(-102.889 -1418.646)">
    <g id="Group_5289" data-name="Group 5289" transform="translate(27 -3.354)">
      <g transform="matrix(1, 0, 0, 1, 75.89, 1422)" filter="url(#Ellipse_177)">
        <circle id="Ellipse_177-2" data-name="Ellipse 177" cx="24.354" cy="24.354" r="24.354" transform="translate(13 13)" fill="url(#linear-gradient)"/>
      </g>
      <g id="Mask_Group_131" data-name="Mask Group 131" transform="translate(88.889 1435)" clip-path="url(#clip-path)">
        <g id="Group_5123" data-name="Group 5123" transform="translate(9.742 2.196)">
          <path id="Path_23311" data-name="Path 23311" d="M43.787,241.546l9.382.112,0,.077,1.523-.192-1.75,14.221H49.3v0l-3.935.032Z" transform="translate(-39.079 -210.637)" fill="#c7d866" fill-rule="evenodd"/>
          <path id="Path_23312" data-name="Path 23312" d="M43.784,254.62a.4.4,0,0,1-.4-.36l-1.576-14.25a.4.4,0,0,1,.1-.316.375.375,0,0,1,.3-.133l9.382.112a.405.405,0,0,1,.188.049l1.277-.161a.4.4,0,0,1,.452.451l-1.75,14.221a.4.4,0,0,1-.4.355h-3.64l-3.933.033ZM42.66,240.375l1.486,13.433,3.168-.026v-8.752a.4.4,0,0,1,.809,0v8.749H51l1.643-13.35-1.007.127a.4.4,0,0,1-.292-.077Z" transform="translate(-33.278 -190.702)" fill="#4d607a"/>
          <path id="Path_23313" data-name="Path 23313" d="M2.142,18.817C1.955,12.705,7.881,6.84,14.406,6.231A18.285,18.285,0,0,1,17.1,6.206c6.65.442,13.189,6.4,13,12.612,0,18.549.016,33.535-27.925,33.435-.346-14.139-.132-16.716-.03-33.435" transform="translate(-1.578 -4.91)" fill="#c9a088" fill-rule="evenodd"/>
          <path id="Path_23314" data-name="Path 23314" d="M.868,51.078H.592a.405.405,0,0,1-.4-.395C-.062,40.434-.018,36.15.063,28.373c.032-3.059.068-6.527.1-11.131A12.092,12.092,0,0,1,3.891,8.6a14.686,14.686,0,0,1,8.9-4.348,18.707,18.707,0,0,1,2.755-.026c7.066.469,13.567,6.8,13.377,13.028v.02c0,11.367,0,21.184-6.205,27.367-4.348,4.333-11.5,6.441-21.849,6.441M14.328,4.993c-.516,0-1.027.021-1.463.061-6.4.6-12.074,6.4-11.9,12.171,0,0,0,.01,0,.015C.94,21.849.9,25.32.872,28.382.793,36.049.749,40.317.988,50.269c10.062-.016,16.985-2.047,21.158-6.2,5.967-5.945,5.967-15.607,5.967-26.794v-.032C28.291,11.4,22.158,5.473,15.492,5.03c-.369-.024-.768-.037-1.163-.037" transform="translate(0 -3.331)" fill="#4d607a"/>
          <path id="Path_23315" data-name="Path 23315" d="M29.841,202.674a2.932,2.932,0,0,1-2.627-3.339l-.1-9.674,7.826-.939Z" transform="translate(-21.585 -150.234)" fill="#f0e1ca" fill-rule="evenodd"/>
          <path id="Path_23316" data-name="Path 23316" d="M28.262,201.5a.415.415,0,0,1-.085-.009,3.348,3.348,0,0,1-2.947-3.746l-.1-9.658a.4.4,0,0,1,.356-.406l7.826-.939a.4.4,0,0,1,.428.541l-5.1,13.952a.4.4,0,0,1-.38.266m-2.318-13.059.1,9.311c0,.011,0,.022,0,.032a2.464,2.464,0,0,0,1.968,2.83l4.748-12.991Z" transform="translate(-20.006 -148.654)" fill="#4d607a"/>
          <path id="Path_23317" data-name="Path 23317" d="M84.235,203.32a2.932,2.932,0,0,0,2.627-3.339l.1-9.674-6.865-.588Z" transform="translate(-63.761 -151.028)" fill="#f0e1ca" fill-rule="evenodd"/>
          <path id="Path_23318" data-name="Path 23318" d="M82.654,202.145a.4.4,0,0,1-.387-.287l-4.138-13.6a.4.4,0,0,1,.422-.521l6.865.588a.4.4,0,0,1,.37.407l-.1,9.658a3.348,3.348,0,0,1-2.947,3.746.4.4,0,0,1-.085.009m-3.577-13.551,3.852,12.66a2.461,2.461,0,0,0,1.949-2.824c0-.011,0-.021,0-.032l.095-9.3Z" transform="translate(-62.181 -149.449)" fill="#4d607a"/>
          <path id="Path_23319" data-name="Path 23319" d="M30.016,150.023c-4.76.8-7.284,4.46-7,8.992h3.057v9.574c.04,1.115.176,1.757,1.965,1.73l4.638,0,4.638,0c1.789.027,1.925-.616,1.965-1.731v-9.574h3.057c0-4.559-2.2-8.3-7.13-9.112Z" transform="translate(-18.308 -119.329)" fill="#fff" fill-rule="evenodd"/>
          <path id="Path_23320" data-name="Path 23320" d="M26.359,169.143c-2.025,0-2.222-.921-2.265-2.121v-9.184H21.44a.4.4,0,0,1-.4-.379c-.313-4.918,2.565-8.615,7.332-9.417a.387.387,0,0,1,.058-.006l5.194-.124a.309.309,0,0,1,.076.005c4.746.786,7.468,4.253,7.469,9.511a.4.4,0,0,1-.4.4H38.107V167c-.044,1.236-.246,2.157-2.375,2.135l-9.27,0h-.1m-4.532-12.115H24.5a.4.4,0,0,1,.4.4v9.574c.035.949.048,1.346,1.554,1.326l9.282,0c1.51.025,1.526-.376,1.56-1.34v-9.559a.4.4,0,0,1,.4-.4h2.646c-.136-4.581-2.577-7.6-6.748-8.3l-5.126.123a7.591,7.591,0,0,0-6.648,8.184" transform="translate(-16.728 -117.747)" fill="#4d607a"/>
          <path id="Path_23321" data-name="Path 23321" d="M33.34,242.648h-.024c-1.186-.068-1.769-.6-1.78-1.632a.4.4,0,0,1,.4-.409h0a.4.4,0,0,1,.4.4c.006.514.165.784,1.018.833a.4.4,0,0,1-.023.809m12.373-.119a.4.4,0,0,1-.023-.809c.853-.049,1.012-.319,1.017-.833a.4.4,0,0,1,.4-.4h0a.405.405,0,0,1,.4.409c-.012,1.03-.594,1.564-1.78,1.632h-.024" transform="translate(-25.104 -191.443)" fill="#4d607a"/>
          <path id="Path_23322" data-name="Path 23322" d="M58.312,145.118l-.035,2,2.552.8,2.327-.8,0-1.9Z" transform="translate(-46.392 -115.523)" fill="#e8cfaa" fill-rule="evenodd"/>
          <path id="Path_23323" data-name="Path 23323" d="M58.477,144.005l.019,1.11a7.31,7.31,0,0,0,4.838.053l-.035-1.1Z" transform="translate(-46.551 -114.637)" fill="#c9a088" fill-rule="evenodd"/>
          <path id="Path_23324" data-name="Path 23324" d="M58.9,141.843a4.6,4.6,0,0,1-2.886-.958.406.406,0,0,1-.145-.314l.02-2.428a.4.4,0,0,1,.4-.4h0a.4.4,0,0,1,.4.408l-.018,2.227a4.041,4.041,0,0,0,2.822.611,2.163,2.163,0,0,0,1.4-.687l-.07-2.91a.4.4,0,0,1,.395-.414h.01a.4.4,0,0,1,.4.395l.073,3.045a.4.4,0,0,1-.064.229,2.836,2.836,0,0,1-2.026,1.142,4.84,4.84,0,0,1-.723.054" transform="translate(-44.475 -109.042)" fill="#4d607a"/>
          <path id="Path_23325" data-name="Path 23325" d="M17.387,52.576v1.948a1.757,1.757,0,1,0,0,3.436V58.6c-.124,4.066,3.818,7.968,8.159,8.372a12.189,12.189,0,0,0,1.79.017c4.424-.294,8.5-4.257,8.372-8.39v-.8a1.756,1.756,0,1,0,0-3.315v-1.79a9.808,9.808,0,0,1-4.9-5.777c-3.167,4.911-8.6,5.63-13.424,5.659" transform="translate(-12.149 -37.349)" fill="#f0e1ca" fill-rule="evenodd"/>
          <path id="Path_23326" data-name="Path 23326" d="M24.963,65.837c-.365,0-.727-.015-1.036-.043-4.671-.436-8.655-4.542-8.526-8.788v-.182a2.161,2.161,0,0,1,0-4.321V51a.4.4,0,0,1,.4-.4c4.744-.029,10.008-.7,13.086-5.473a.4.4,0,0,1,.718.075c1.19,3.12,2.3,4.052,4.734,5.578a.4.4,0,0,1,.189.343v1.293c.059-.005.119-.007.178-.007a2.161,2.161,0,1,1,0,4.322q-.09,0-.178-.007v.3c.131,4.283-4.04,8.48-8.75,8.793-.259.017-.54.026-.818.026m-9.157-9.861a.4.4,0,0,1,.4.4v.637C16.1,60.8,19.809,64.6,24,64.988A11.773,11.773,0,0,0,25.728,65c4.3-.286,8.113-4.086,7.995-7.974v-.811a.4.4,0,0,1,.539-.382,1.352,1.352,0,1,0,0-2.551.4.4,0,0,1-.539-.382V51.338a9.918,9.918,0,0,1-4.587-5.151c-3.261,4.418-8.529,5.146-12.925,5.21v1.548a.4.4,0,0,1-.489.4,1.352,1.352,0,1,0,0,2.644.41.41,0,0,1,.084-.009" transform="translate(-10.569 -35.77)" fill="#4d607a"/>
          <path id="Path_23327" data-name="Path 23327" d="M53.4,87.277a.4.4,0,0,1-.366-.233,1.015,1.015,0,0,0-.8-.57,1.63,1.63,0,0,0-1.4.54.4.4,0,0,1-.6-.539,2.427,2.427,0,0,1,2.126-.8A1.815,1.815,0,0,1,53.762,86.7a.4.4,0,0,1-.366.577m-8.111-.1a.4.4,0,0,1-.367-.233,1.015,1.015,0,0,0-.8-.57,1.631,1.631,0,0,0-1.4.54.4.4,0,1,1-.6-.539,2.424,2.424,0,0,1,2.126-.8A1.815,1.815,0,0,1,45.651,86.6a.4.4,0,0,1-.366.576" transform="translate(-33.443 -68.106)" fill="#4d607a"/>
          <path id="Path_23328" data-name="Path 23328" d="M60.335,119.274c0,.016,0,.033,0,.049,0,1.632-1.623,2.955-3.624,2.955s-3.624-1.323-3.624-2.955c0-.017,0-.033,0-.049Z" transform="translate(-42.261 -94.949)" fill="#fff" fill-rule="evenodd"/>
          <path id="Path_23329" data-name="Path 23329" d="M55.132,121.1c-2.221,0-4.029-1.507-4.029-3.36v-.059a.4.4,0,0,1,.4-.395h7.247a.4.4,0,0,1,.4.395v.059c0,1.853-1.808,3.36-4.029,3.36m-3.188-3a3.413,3.413,0,0,0,6.377,0Z" transform="translate(-40.681 -93.37)" fill="#4d607a"/>
          <path id="Path_23330" data-name="Path 23330" d="M66.617,92.95a1.156,1.156,0,0,1-1.156-1.156V88.977a1.156,1.156,0,1,1,2.312,0v2.817a1.156,1.156,0,0,1-1.156,1.156" transform="translate(-52.111 -69.911)" fill="#e3c9a2"/>
          <path id="Path_23331" data-name="Path 23331" d="M38.186,72.258a.4.4,0,0,1-.156-.032,16.727,16.727,0,0,1-2.157-1.088.4.4,0,0,1,.417-.694,15.985,15.985,0,0,0,2.053,1.035.4.4,0,0,1-.157.778m-18.771-.606a16.611,16.611,0,0,1-2.175-.14.4.4,0,1,1,.106-.8,16.189,16.189,0,0,0,2.3.131.4.4,0,0,1,.41.4.4.4,0,0,1-.4.41h-.237" transform="translate(-13.444 -56.033)" fill="#4d607a"/>
          <path id="Path_23332" data-name="Path 23332" d="M70.276,308.177c0-.027,0-.054,0-.082a2.934,2.934,0,0,1,5.846,0c0,.027,0,.054,0,.082Z" transform="translate(-55.942 -243.133)" fill="#e8cfaa" fill-rule="evenodd"/>
          <path id="Path_23333" data-name="Path 23333" d="M74.539,307H68.7a.4.4,0,0,1-.4-.39c0-.032,0-.065,0-.1a3.338,3.338,0,0,1,6.655,0c0,.031,0,.063,0,.094a.4.4,0,0,1-.4.393m-5.414-.809h4.986a2.569,2.569,0,0,0-4.986,0" transform="translate(-54.363 -241.553)" fill="#4d607a"/>
          <path id="Path_23334" data-name="Path 23334" d="M42.316,308.4c0-.027,0-.054,0-.082a2.934,2.934,0,0,1,5.846,0c0,.027,0,.054,0,.082Z" transform="translate(-33.685 -243.313)" fill="#e8cfaa" fill-rule="evenodd"/>
          <path id="Path_23335" data-name="Path 23335" d="M46.58,307.229H40.737a.4.4,0,0,1-.4-.391c0-.031,0-.063,0-.1a3.337,3.337,0,0,1,6.655,0q0,.048,0,.1a.4.4,0,0,1-.4.39m-5.414-.809h4.986a2.569,2.569,0,0,0-4.986,0" transform="translate(-32.106 -241.733)" fill="#4d607a"/>
          <path id="Path_23336" data-name="Path 23336" d="M29.592,150.429c-4.76.8-7.284,4.46-7,8.992h3.057l.015-.184c-.169-3.518.888-6,4.037-8.816l-.025.006Zm9.267,8.988h3.057c0-4.537-2.184-8.261-7.061-9.1a11.818,11.818,0,0,1,4,9.1" transform="translate(-17.97 -119.662)" fill="#dd806a" fill-rule="evenodd"/>
          <path id="Path_23337" data-name="Path 23337" d="M24.073,158.247H21.015a.4.4,0,0,1-.4-.379c-.313-4.918,2.565-8.614,7.332-9.417a.381.381,0,0,1,.057-.005h.05a.4.4,0,0,1,.344.7c-2.975,2.658-4.069,5.04-3.9,8.5a.415.415,0,0,1,0,.053l-.015.184a.4.4,0,0,1-.4.371m-2.671-.809h2.272a9.915,9.915,0,0,1,3.125-7.886,7.522,7.522,0,0,0-5.4,7.886m18.934.8H37.278a.4.4,0,0,1-.4-.393,11.439,11.439,0,0,0-3.861-8.8.4.4,0,0,1,.331-.707c4.7.809,7.4,4.271,7.4,9.5a.4.4,0,0,1-.4.4m-2.669-.809h2.258c-.119-4.015-2.012-6.83-5.289-7.937a12.445,12.445,0,0,1,3.031,7.937" transform="translate(-16.39 -118.083)" fill="#4d607a"/>
          <path id="Path_23338" data-name="Path 23338" d="M55.116,159.939q-.278,0-.568-.024a4.836,4.836,0,0,1-3.491-1.635.4.4,0,1,1,.668-.457,4.012,4.012,0,0,0,2.891,1.285,3.384,3.384,0,0,0,2.583-.6.4.4,0,0,1,.582.563,3.727,3.727,0,0,1-2.665.871" transform="translate(-40.588 -125.497)" fill="#4d607a"/>
          <path id="Path_23339" data-name="Path 23339" d="M46.647,259.474h-.764a.4.4,0,0,1,0-.809h.746c.576-.053.89-.277.9-1.281a.4.4,0,0,1,.4-.4h0a.4.4,0,0,1,.4.408c-.01,1.307-.551,1.988-1.654,2.082l-.034,0m8.279-.222h-.764l-.034,0c-1.1-.094-1.644-.776-1.654-2.082a.4.4,0,0,1,.4-.408h0a.4.4,0,0,1,.4.4c.008,1,.321,1.228.9,1.281h.746a.4.4,0,0,1,0,.809" transform="translate(-36.204 -204.397)" fill="#4d607a"/>
          <path id="Path_23341" data-name="Path 23341" d="M81.446,5.255,77.5,7.378a8.1,8.1,0,0,1,0-5.393l3.949,2.038Z" transform="translate(-61.325 -1.58)" fill="#fff" fill-rule="evenodd"/>
          <path id="Path_23342" data-name="Path 23342" d="M75.912,6.2a.405.405,0,0,1-.389-.294,8.465,8.465,0,0,1,0-5.608A.4.4,0,0,1,76.1.045l3.949,2.038a.405.405,0,0,1,.219.36V3.674a.4.4,0,0,1-.213.356L76.1,6.154a.405.405,0,0,1-.192.048M76.177,1a7.139,7.139,0,0,0-.008,4.2l3.288-1.768V2.689Zm3.685,2.678h0Z" transform="translate(-59.74 0)" fill="#4d607a"/>
          <path id="Path_23343" data-name="Path 23343" d="M102.554,6.019,106.5,8.142a8.1,8.1,0,0,0,0-5.393l-3.949,2.038Z" transform="translate(-81.639 -2.188)" fill="#fff" fill-rule="evenodd"/>
          <path id="Path_23344" data-name="Path 23344" d="M104.923,6.968a.4.4,0,0,1-.192-.048L100.782,4.8a.406.406,0,0,1-.213-.357V3.209a.4.4,0,0,1,.219-.36L104.737.811a.4.4,0,0,1,.576.255,8.467,8.467,0,0,1,0,5.608.4.4,0,0,1-.389.294M101.378,4.2l3.288,1.768a7.143,7.143,0,0,0-.008-4.2l-3.28,1.693Z" transform="translate(-80.059 -0.61)" fill="#4d607a"/>
          <path id="Path_23345" data-name="Path 23345" d="M94.219,7.844a1.72,1.72,0,1,1-1.72,1.72,1.72,1.72,0,0,1,1.72-1.72" transform="translate(-73.635 -6.244)" fill="#fff" fill-rule="evenodd"/>
          <path id="Path_23346" data-name="Path 23346" d="M92.639,10.109a2.124,2.124,0,1,1,2.124-2.124,2.127,2.127,0,0,1-2.124,2.124m0-3.439a1.315,1.315,0,1,0,1.315,1.315,1.317,1.317,0,0,0-1.315-1.315" transform="translate(-72.055 -4.665)" fill="#4d607a"/>
        </g>
      </g>
    </g>
  </g>
</svg>
