<svg xmlns="http://www.w3.org/2000/svg" xmlns:xlink="http://www.w3.org/1999/xlink" width="82" height="82" viewBox="0 0 82 82">
  <defs>
    <linearGradient id="linear-gradient" x1="0.5" x2="0.5" y2="1" gradientUnits="objectBoundingBox">
      <stop offset="0" stop-color="#009677"/>
      <stop offset="1" stop-color="#004b3c"/>
    </linearGradient>
    <filter id="Ellipse_171" x="0" y="0" width="82" height="82" filterUnits="userSpaceOnUse">
      <feOffset dx="2" dy="2" input="SourceAlpha"/>
      <feGaussianBlur stdDeviation="5" result="blur"/>
      <feFlood flood-opacity="0.161"/>
      <feComposite operator="in" in2="blur"/>
      <feComposite in="SourceGraphic"/>
    </filter>
    <clipPath id="clip-path">
      <circle id="Ellipse_185" data-name="Ellipse 185" cx="26" cy="26" r="26" fill="#fff" stroke="#707070" stroke-width="1"/>
    </clipPath>
  </defs>
  <g id="Group_5353" data-name="Group 5353" transform="translate(-1136 -1478)">
    <g transform="matrix(1, 0, 0, 1, 1136, 1478)" filter="url(#Ellipse_171)">
      <circle id="Ellipse_171-2" data-name="Ellipse 171" cx="26" cy="26" r="26" transform="translate(13 13)" fill="url(#linear-gradient)"/>
    </g>
    <g id="Mask_Group_137" data-name="Mask Group 137" transform="translate(1149 1491)" clip-path="url(#clip-path)">
      <g id="Group_5132" data-name="Group 5132" transform="translate(7.534 3.312)">
        <path id="Path_23587" data-name="Path 23587" d="M381.917,20.628c0,3.263.035,6.908,3.3,8.654-5.382,11.049-29.414,11.371-34.846.217,3.262-1.746,3.3-5.39,3.3-8.654h.029a9.623,9.623,0,0,1-.09-1.615c0-4.55.061.087.061-4.412-.19-6.2,5.823-12.152,12.443-12.769a18.451,18.451,0,0,1,2.73-.026c6.748.448,13.38,6.493,13.188,12.795,0,1.482-.034,2.939-.039,4.412a8.984,8.984,0,0,1-.068,1.4Z" transform="translate(-349.747 -1.515)" fill="#e5a18c" fill-rule="evenodd"/>
        <path id="Path_23588" data-name="Path 23588" d="M365.541,36.672h0c-6.509,0-14.55-2.229-17.6-8.483l-.2-.406.4-.213c3.054-1.635,3.051-5.144,3.049-8.24v-.2a10.1,10.1,0,0,1-.061-1.43,16.789,16.789,0,0,1,.066-2.369.38.38,0,0,0-.021.089c.011-.107.016-.82.016-2.118A12.313,12.313,0,0,1,355,4.495,14.959,14.959,0,0,1,364.062.066a18.9,18.9,0,0,1,2.8-.027c7.2.478,13.82,6.93,13.626,13.277,0,.783-.01,1.573-.02,2.363-.009.678-.017,1.356-.019,2.037a9.465,9.465,0,0,1-.068,1.424c0,3.089,0,6.583,3.048,8.213l.4.213-.2.406c-2.574,5.285-9.677,8.7-18.094,8.7m-16.552-8.506c2.509,4.611,8.94,7.568,16.552,7.568,7.849,0,14.476-3.041,17.051-7.785-3.15-1.977-3.147-5.767-3.144-8.836l0-.058a8.6,8.6,0,0,0,.064-1.326c0-.7.01-1.38.019-2.061.01-.786.02-1.572.02-2.365.18-5.9-6.016-11.879-12.75-12.326A17.944,17.944,0,0,0,364.15,1c-6.469.6-12.2,6.459-12.018,12.287a16.732,16.732,0,0,1-.065,2.36.364.364,0,0,0,.021-.088c-.011.108-.016.833-.016,2.155a9.238,9.238,0,0,0,.086,1.551l.073.529h-.1c0,2.978-.152,6.492-3.144,8.37" transform="translate(-347.747 0)" fill="#4d607a"/>
        <path id="Path_23589" data-name="Path 23589" d="M437.086,199.008c2.578-.554,3.162-2.243,3.047-3.873l.114-11.221-7.962-.682Z" transform="translate(-412.289 -139.891)" fill="#f0e1ca" fill-rule="evenodd"/>
        <path id="Path_23590" data-name="Path 23590" d="M435.571,197.963a.47.47,0,0,1-.449-.333l-4.8-15.775a.469.469,0,0,1,.489-.6l7.962.682a.469.469,0,0,1,.429.472l-.114,11.2a3.883,3.883,0,0,1-3.418,4.345.49.49,0,0,1-.1.01m-4.149-15.718,4.469,14.684a2.854,2.854,0,0,0,2.26-3.276c0-.013,0-.025,0-.038l.11-10.785Z" transform="translate(-410.774 -138.376)" fill="#4d607a"/>
        <path id="Path_23591" data-name="Path 23591" d="M382.469,198.417c-2.578-.554-3.162-2.243-3.047-3.873l-.115-11.221,9.077-1.089Z" transform="translate(-371.842 -139.129)" fill="#f0e1ca" fill-rule="evenodd"/>
        <path id="Path_23592" data-name="Path 23592" d="M380.954,197.373a.491.491,0,0,1-.1-.01,3.884,3.884,0,0,1-3.418-4.346l-.114-11.2a.47.47,0,0,1,.413-.471l9.077-1.089a.469.469,0,0,1,.5.627l-5.915,16.182a.469.469,0,0,1-.44.308m-2.688-15.147.111,10.8c0,.013,0,.025,0,.038a2.858,2.858,0,0,0,2.283,3.282l5.508-15.068Z" transform="translate(-370.327 -137.615)" fill="#4d607a"/>
        <path id="Path_23593" data-name="Path 23593" d="M410.41,262.128h-2.931l-.076,10.387h3.007Z" transform="translate(-393.292 -200.124)" fill="#f0e1ca" fill-rule="evenodd"/>
        <path id="Path_23594" data-name="Path 23594" d="M409.353,271.469H405.4l.083-11.325h3.867Zm-3-.939h2.065v-9.448h-2Z" transform="translate(-391.765 -198.609)" fill="#4d607a"/>
        <path id="Path_23595" data-name="Path 23595" d="M430.753,259.885h-2.931l-.076,10.387h3.007Z" transform="translate(-408.822 -198.411)" fill="#f0e1ca" fill-rule="evenodd"/>
        <path id="Path_23596" data-name="Path 23596" d="M429.7,269.226h-3.95l.083-11.326H429.7Zm-3-.939h2.065v-9.448h-2Z" transform="translate(-407.296 -196.896)" fill="#4d607a"/>
        <path id="Path_23597" data-name="Path 23597" d="M392.776,227.389l10.693.494,0,.089,2.7-.589c.707,6.722,2.052,12.746-6.376,12.906-8.9.169-7.753-5.757-7.017-12.9" transform="translate(-381.75 -173.598)" fill="#f1ccbd" fill-rule="evenodd"/>
        <path id="Path_23598" data-name="Path 23598" d="M397.91,239.248c-2.854,0-4.837-.649-6.057-1.98-2.048-2.237-1.649-5.969-1.186-10.291q.061-.569.122-1.15a.47.47,0,0,1,.489-.421l10.693.494a.47.47,0,0,1,.163.037l2.417-.526a.469.469,0,0,1,.566.409c.051.489.106.975.16,1.455.444,3.935.864,7.651-1.092,9.883-1.184,1.351-3.115,2.033-5.9,2.087-.126,0-.25,0-.372,0m-6.233-12.884q-.038.359-.076.713c-.439,4.1-.817,7.633.945,9.557,1.079,1.178,2.952,1.725,5.719,1.672,2.509-.048,4.215-.625,5.215-1.766,1.682-1.92,1.3-5.275.865-9.159q-.053-.468-.105-.941l-2.193.478a.465.465,0,0,1-.392-.091Z" transform="translate(-380.23 -172.083)" fill="#4d607a"/>
        <path id="Path_23599" data-name="Path 23599" d="M383.329,143.556c-5.521.929-8.449,5.173-8.114,10.43h3.546v10.742c.047,1.293.2,2.038,2.279,2.007l5.379,0,5.379,0c2.074.031,2.232-.714,2.279-2.007V153.981h3.546c0-5.287-2.557-9.623-8.27-10.569Z" transform="translate(-368.698 -109.489)" fill="#fffbd2" fill-rule="evenodd"/>
        <path id="Path_23600" data-name="Path 23600" d="M379.4,165.69c-2.349,0-2.578-1.068-2.628-2.46v-10.29H373.7a.47.47,0,0,1-.468-.44c-.363-5.7,2.975-9.992,8.5-10.922a.448.448,0,0,1,.066-.006l6.024-.144a.371.371,0,0,1,.088.006c5.5.912,8.661,4.932,8.662,11.032a.469.469,0,0,1-.469.469H393.03v10.273c-.051,1.433-.283,2.509-2.755,2.477l-10.752.005h-.12M374.147,152h3.1a.47.47,0,0,1,.469.469v10.743c.04,1.1.053,1.567,1.8,1.538l10.765-.005c1.749.023,1.769-.437,1.81-1.555V152.465a.47.47,0,0,1,.47-.47h3.07c-.157-5.314-2.989-8.81-7.827-9.629l-5.946.142c-4.937.845-7.859,4.46-7.711,9.492" transform="translate(-367.182 -107.973)" fill="#4d607a"/>
        <path id="Path_23601" data-name="Path 23601" d="M404.175,162.678a.469.469,0,0,1-.469-.469l-.006-10.555a.47.47,0,0,1,.469-.47h0a.469.469,0,0,1,.469.469l.006,10.555a.47.47,0,0,1-.469.47Zm-15.295-.105a.469.469,0,0,1-.469-.469l-.006-10.312a.469.469,0,0,1,.469-.47h0a.469.469,0,0,1,.469.469l.006,10.312a.47.47,0,0,1-.469.47Z" transform="translate(-378.788 -115.423)" fill="#4d607a"/>
        <path id="Path_23602" data-name="Path 23602" d="M424,302.131c0-.031,0-.063,0-.095a3.4,3.4,0,0,1,6.781,0c0,.032,0,.063,0,.095Z" transform="translate(-405.96 -228.222)" fill="#fff" fill-rule="evenodd"/>
        <path id="Path_23603" data-name="Path 23603" d="M429.259,301.086h-6.777a.469.469,0,0,1-.469-.452c0-.037,0-.075,0-.112a3.871,3.871,0,0,1,7.719,0c0,.037,0,.075,0,.112a.47.47,0,0,1-.469.452m-6.28-.939h5.783a2.98,2.98,0,0,0-5.783,0" transform="translate(-404.444 -226.708)" fill="#4d607a"/>
        <path id="Path_23604" data-name="Path 23604" d="M396.039,302.358c0-.031,0-.063,0-.095a3.4,3.4,0,0,1,6.78,0c0,.031,0,.063,0,.095Z" transform="translate(-384.614 -228.396)" fill="#fff" fill-rule="evenodd"/>
        <path id="Path_23605" data-name="Path 23605" d="M401.3,301.313h-6.777a.469.469,0,0,1-.469-.449c0-.038,0-.077,0-.115a3.871,3.871,0,0,1,7.719,0c0,.036,0,.073,0,.109a.469.469,0,0,1-.469.456m-6.28-.939H400.8a2.979,2.979,0,0,0-5.783,0" transform="translate(-383.098 -226.881)" fill="#4d607a"/>
        <path id="Path_23606" data-name="Path 23606" d="M410.849,135.9l-.04,2.319,2.96.927,2.7-.924,0-2.206Z" transform="translate(-395.892 -103.752)" fill="#e8cfaa" fill-rule="evenodd"/>
        <path id="Path_23607" data-name="Path 23607" d="M411.009,134.784l.022,1.288a8.477,8.477,0,0,0,5.611.062l-.04-1.274Z" transform="translate(-396.045 -102.902)" fill="#c9a088" fill-rule="evenodd"/>
        <path id="Path_23608" data-name="Path 23608" d="M385.443,154.947h-.028c-1.375-.079-2.051-.7-2.065-1.893a.469.469,0,0,1,.464-.475h.005a.47.47,0,0,1,.47.464c.007.6.191.909,1.18.966a.469.469,0,0,1-.026.938m14.505-.021a.469.469,0,0,1-.026-.938c.989-.057,1.173-.37,1.18-.966a.469.469,0,0,1,.469-.464h.006a.47.47,0,0,1,.464.475c-.014,1.194-.69,1.813-2.065,1.893h-.027M392.792,133.4a5.333,5.333,0,0,1-3.347-1.111.47.47,0,0,1-.168-.364l.022-2.816a.47.47,0,0,1,.47-.466h0a.469.469,0,0,1,.466.473l-.021,2.584a4.68,4.68,0,0,0,3.274.709,2.507,2.507,0,0,0,1.623-.8l-.081-3.375a.469.469,0,1,1,.938-.023l.085,3.532a.468.468,0,0,1-.075.266,3.288,3.288,0,0,1-2.35,1.325,5.593,5.593,0,0,1-.84.062" transform="translate(-374.929 -97.535)" fill="#4d607a"/>
        <path id="Path_23609" data-name="Path 23609" d="M370.627,45.759v2.26a2.037,2.037,0,1,0,0,3.985v.739c-.144,4.716,4.429,9.241,9.463,9.711a14.14,14.14,0,0,0,2.076.02c5.131-.341,9.857-4.938,9.711-9.731v-.926a2.037,2.037,0,1,0,0-3.845V45.9c-2.784-1.746-4.232-2.907-5.68-6.7-3.674,5.7-9.978,6.529-15.569,6.563" transform="translate(-363.333 -29.924)" fill="#f0e1ca" fill-rule="evenodd"/>
        <path id="Path_23610" data-name="Path 23610" d="M379.734,61.456c-.424,0-.844-.017-1.2-.05-5.418-.505-10.039-5.268-9.888-10.193V51a2.507,2.507,0,0,1,0-5.013V44.244a.469.469,0,0,1,.466-.469c5.5-.033,11.608-.813,15.178-6.348a.469.469,0,0,1,.833.087c1.38,3.618,2.667,4.7,5.491,6.47a.469.469,0,0,1,.22.4v1.5c.069-.006.138-.009.207-.009a2.507,2.507,0,1,1,0,5.013c-.069,0-.138,0-.207-.009v.35c.152,4.968-4.685,9.836-10.149,10.2-.3.02-.625.03-.948.03M369.112,50.019a.469.469,0,0,1,.469.469v.739c-.134,4.391,4.174,8.79,9.037,9.244a13.731,13.731,0,0,0,2,.019c4.99-.332,9.41-4.74,9.272-9.248V50.3a.469.469,0,0,1,.625-.443,1.568,1.568,0,1,0,0-2.959.469.469,0,0,1-.625-.443V44.64a11.5,11.5,0,0,1-5.32-5.975c-3.782,5.125-9.893,5.969-14.991,6.043v1.8a.469.469,0,0,1-.567.459,1.6,1.6,0,0,0-.329-.034,1.568,1.568,0,1,0,.329,3.1.472.472,0,0,1,.1-.01" transform="translate(-361.818 -28.409)" fill="#4d607a"/>
        <path id="Path_23611" data-name="Path 23611" d="M414.394,111.552c0,.019,0,.038,0,.057,0,1.893-1.882,3.427-4.2,3.427s-4.2-1.535-4.2-3.427c0-.019,0-.038,0-.057Z" transform="translate(-392.212 -85.165)" fill="#fff" fill-rule="evenodd"/>
        <path id="Path_23612" data-name="Path 23612" d="M408.677,113.991c-2.577,0-4.673-1.748-4.673-3.9v-.045a.489.489,0,0,1,.47-.482h8.405a.47.47,0,0,1,.469.458v.069c0,2.149-2.1,3.9-4.673,3.9m-3.7-3.485a3.959,3.959,0,0,0,7.4,0Z" transform="translate(-390.697 -83.65)" fill="#4d607a"/>
        <path id="Path_23613" data-name="Path 23613" d="M419.7,86.049a1.341,1.341,0,0,1-1.341-1.341V81.441a1.341,1.341,0,1,1,2.682,0v3.267a1.341,1.341,0,0,1-1.341,1.341" transform="translate(-401.659 -61.153)" fill="#e3c9a2"/>
        <path id="Path_23614" data-name="Path 23614" d="M406.959,79.637a.469.469,0,0,1-.425-.27,1.177,1.177,0,0,0-.923-.662,1.891,1.891,0,0,0-1.629.627.469.469,0,1,1-.7-.625,2.813,2.813,0,0,1,2.466-.93,2.1,2.1,0,0,1,1.637,1.192.47.47,0,0,1-.425.668m-10.531-.089a.47.47,0,0,1-.425-.27,1.176,1.176,0,0,0-.923-.661,1.892,1.892,0,0,0-1.629.626.469.469,0,1,1-.7-.625,2.812,2.812,0,0,1,2.466-.93,2.105,2.105,0,0,1,1.637,1.192.469.469,0,0,1-.425.668" transform="translate(-382.014 -59.291)" fill="#4d607a"/>
        <path id="Path_23615" data-name="Path 23615" d="M421.68,155.66h0a.469.469,0,0,1-.467-.471l.03-7.084a.469.469,0,0,1,.469-.467h0a.469.469,0,0,1,.467.471l-.03,7.084a.469.469,0,0,1-.469.467" transform="translate(-403.834 -112.715)" fill="#4d607a"/>
        <path id="Path_23616" data-name="Path 23616" d="M439.674,18.191l-.75-.564a13.258,13.258,0,0,0,2.939-7.953l.939-.016a14.19,14.19,0,0,1-3.128,8.533" transform="translate(-417.357 -7.373)" fill="#4d607a"/>
      </g>
    </g>
  </g>
</svg>
