<svg xmlns="http://www.w3.org/2000/svg" xmlns:xlink="http://www.w3.org/1999/xlink" width="99" height="99" viewBox="0 0 99 99">
  <defs>
    <linearGradient id="linear-gradient" x1="0.5" x2="0.5" y2="1" gradientUnits="objectBoundingBox">
      <stop offset="0" stop-color="#39d0ac"/>
      <stop offset="1" stop-color="#149173"/>
    </linearGradient>
    <filter id="Ellipse_174" x="0" y="0" width="99" height="99" filterUnits="userSpaceOnUse">
      <feOffset dx="2" dy="2" input="SourceAlpha"/>
      <feGaussianBlur stdDeviation="5" result="blur"/>
      <feFlood flood-opacity="0.161"/>
      <feComposite operator="in" in2="blur"/>
      <feComposite in="SourceGraphic"/>
    </filter>
    <clipPath id="clip-path">
      <circle id="Ellipse_184" data-name="Ellipse 184" cx="34.5" cy="34.5" r="34.5" fill="#fff" stroke="#707070" stroke-width="1"/>
    </clipPath>
  </defs>
  <g id="Group_5351" data-name="Group 5351" transform="translate(-1016 -1277)">
    <g transform="matrix(1, 0, 0, 1, 1016, 1277)" filter="url(#Ellipse_174)">
      <circle id="Ellipse_174-2" data-name="Ellipse 174" cx="34.5" cy="34.5" r="34.5" transform="translate(13 13)" fill="url(#linear-gradient)"/>
    </g>
    <g id="Mask_Group_136" data-name="Mask Group 136" transform="translate(1029 1290)" clip-path="url(#clip-path)">
      <g id="Group_5129" data-name="Group 5129" transform="translate(14.129 3.638)">
        <path id="Path_23377" data-name="Path 23377" d="M22.415,222.262c-3.57-.767-4.379-3.107-4.22-5.364l-.159-15.542,12.572-1.508Z" transform="translate(-12.127 -134.375)" fill="#f0e1ca" fill-rule="evenodd"/>
        <path id="Path_23378" data-name="Path 23378" d="M21.486,221.432l-.553-.119c-3.267-.7-4.948-2.838-4.734-6.018l-.164-16.1,14.2-1.7Zm-4.139-21.084.153,14.985,0,.026a3.959,3.959,0,0,0,3.162,4.546l7.629-20.87Z" transform="translate(-10.781 -132.791)" fill="#4d607a"/>
        <path id="Path_23379" data-name="Path 23379" d="M77.666,222.7c3.571-.767,4.379-3.107,4.221-5.364l.159-15.542-11.028-.944Z" transform="translate(-47.751 -135.045)" fill="#f0e1ca" fill-rule="evenodd"/>
        <path id="Path_23380" data-name="Path 23380" d="M75.366,221.959l-7.1-23.34L80.85,199.7l-.164,16.119c.213,3.18-1.467,5.317-4.734,6.018Zm-5.3-21.881,6.189,20.339a3.953,3.953,0,0,0,3.13-4.537l0-.026v-.026l.152-14.939Z" transform="translate(-45.899 -133.548)" fill="#4d607a"/>
        <path id="Path_23381" data-name="Path 23381" d="M32.422,251.224l15.781.365,0,.124h3.31V274.25H45.494v-14.62l-7-.022v14.7H32.422Z" transform="translate(-21.8 -168.919)" fill="#a0d4f7" fill-rule="evenodd"/>
        <path id="Path_23382" data-name="Path 23382" d="M37.159,273.628H31.087a.65.65,0,0,1-.65-.65V249.89a.65.65,0,0,1,.2-.465.67.67,0,0,1,.469-.185l15.781.364a.652.652,0,0,1,.367.124h2.924a.65.65,0,0,1,.65.65v22.537a.65.65,0,0,1-.65.65H44.16a.65.65,0,0,1-.65-.65V258.943l-5.7-.018v14.052a.65.65,0,0,1-.65.65m-5.421-1.3h4.771V258.273a.65.65,0,0,1,.65-.65h0l7,.022a.65.65,0,0,1,.648.65v13.97h4.714V251.028H46.865a.651.651,0,0,1-.394-.133l-14.734-.34Z" transform="translate(-20.465 -167.585)" fill="#4d607a"/>
        <path id="Path_23383" data-name="Path 23383" d="M25.193,161.226c-7.647,1.287-11.7,7.165-11.238,14.446h4.911v15.38c.065,1.791.283,2.823,3.156,2.78l7.451,0,7.451,0c2.874.043,3.091-.989,3.156-2.78v-15.38h4.912c0-7.323-3.542-13.328-11.454-14.638Z" transform="translate(-9.359 -108.271)" fill="#c7d866" fill-rule="evenodd"/>
        <path id="Path_23384" data-name="Path 23384" d="M20.521,193.149c-3.253,0-3.569-1.479-3.639-3.408V174.987H12.62a.651.651,0,0,1-.649-.609c-.5-7.9,4.121-13.839,11.779-15.128a.676.676,0,0,1,.092-.009l8.344-.2a.721.721,0,0,1,.122.009c7.624,1.263,12,6.831,12,15.279a.65.65,0,0,1-.65.65H39.4v14.73c-.071,1.985-.406,3.487-3.816,3.43l-14.891.007h-.167m-7.28-19.461h4.291a.65.65,0,0,1,.65.65v15.38c.055,1.525.079,2.165,2.5,2.13l14.911-.007c2.428.032,2.451-.6,2.507-2.154V174.33a.65.65,0,0,1,.65-.65H43c-.218-7.36-4.14-12.2-10.841-13.336l-8.235.2c-6.838,1.17-10.884,6.178-10.68,13.147" transform="translate(-8.024 -106.937)" fill="#4d607a"/>
        <path id="Path_23385" data-name="Path 23385" d="M25.356,213.02h-.038c-1.905-.11-2.841-.967-2.86-2.622a.65.65,0,0,1,.643-.657h.007a.651.651,0,0,1,.65.643c.009.826.264,1.26,1.634,1.338a.65.65,0,0,1-.037,1.3m19.877-.191a.65.65,0,0,1-.037-1.3c1.37-.079,1.626-.512,1.635-1.338a.65.65,0,1,1,1.3.015c-.019,1.654-.954,2.512-2.86,2.621h-.038m.6-14.493a.65.65,0,0,1-.65-.649l-.008-7.837a.65.65,0,0,1,.65-.651h0a.65.65,0,0,1,.65.649l.007,7.837a.649.649,0,0,1-.649.651Zm-21.183-.146a.65.65,0,0,1-.65-.649l-.008-7.837a.65.65,0,0,1,.649-.651h0a.65.65,0,0,1,.65.65l.008,7.837a.65.65,0,0,1-.649.651Z" transform="translate(-15.1 -127.115)" fill="#4d607a"/>
        <path id="Path_23386" data-name="Path 23386" d="M66.917,318.79c0-.044,0-.087,0-.131a4.714,4.714,0,0,1,9.391,0c0,.044,0,.087,0,.131Z" transform="translate(-44.993 -211.369)" fill="#dc9249" fill-rule="evenodd"/>
        <path id="Path_23387" data-name="Path 23387" d="M74.969,318.105H65.582a.65.65,0,0,1-.65-.629c0-.05,0-.1,0-.153a5.361,5.361,0,0,1,10.691,0c0,.051,0,.1,0,.153a.65.65,0,0,1-.65.629m-8.7-1.3H74.28a4.127,4.127,0,0,0-8.009,0" transform="translate(-43.658 -210.035)" fill="#4d607a"/>
        <path id="Path_23388" data-name="Path 23388" d="M27.109,318.6c0-.044,0-.088,0-.131a4.511,4.511,0,0,1,4.7-4.3,4.511,4.511,0,0,1,4.7,4.3c0,.044,0,.088,0,.131Z" transform="translate(-18.226 -211.242)" fill="#dc9249" fill-rule="evenodd"/>
        <path id="Path_23389" data-name="Path 23389" d="M35.161,317.917H25.774a.65.65,0,0,1-.65-.629c0-.051,0-.1,0-.153a5.165,5.165,0,0,1,5.346-4.95,5.165,5.165,0,0,1,5.345,4.95c0,.051,0,.1,0,.153a.65.65,0,0,1-.65.629m-8.7-1.3h8.009a4.127,4.127,0,0,0-8.009,0" transform="translate(-16.892 -209.908)" fill="#4d607a"/>
        <path id="Path_23390" data-name="Path 23390" d="M49.2,157.468l-.056,3.212,3.944,3.26,3.893-3.256-.007-3.055Z" transform="translate(-33.045 -105.878)" fill="#a1532d" fill-rule="evenodd"/>
        <path id="Path_23391" data-name="Path 23391" d="M49.347,156.355l.03,1.784a11.741,11.741,0,0,0,7.772.085l-.056-1.765Z" transform="translate(-33.18 -105.13)" fill="#914824" fill-rule="evenodd"/>
        <path id="Path_23392" data-name="Path 23392" d="M51.506,159.116h-.049c-1.318-.027-2.467-1.319-3.48-2.459a11.29,11.29,0,0,0-1.007-1.052.65.65,0,0,1-.233-.5l.031-3.9a.65.65,0,0,1,.65-.645h.006a.65.65,0,0,1,.645.655l-.029,3.607c.288.275.592.617.91.974.753.847,1.784,2.008,2.534,2.023,1.216.034,2.639-2.088,3.317-3.1l.023-.034-.112-4.686a.65.65,0,0,1,.635-.665.663.663,0,0,1,.665.634l.117,4.892a.651.651,0,0,1-.11.378l-.135.2c-.921,1.38-2.458,3.682-4.376,3.682" transform="translate(-31.426 -100.405)" fill="#4d607a"/>
        <path id="Path_23393" data-name="Path 23393" d="M5.814,94.339a3.829,3.829,0,1,1-3.829,3.829,3.83,3.83,0,0,1,3.829-3.829" transform="translate(-1.335 -63.432)" fill="#803d13" fill-rule="evenodd"/>
        <path id="Path_23394" data-name="Path 23394" d="M4.479,101.312a4.479,4.479,0,1,1,4.479-4.479,4.484,4.484,0,0,1-4.479,4.479m0-7.658a3.179,3.179,0,1,0,3.179,3.179,3.182,3.182,0,0,0-3.179-3.179" transform="translate(0 -62.097)" fill="#803d13"/>
        <path id="Path_23395" data-name="Path 23395" d="M101.385,94.34a3.829,3.829,0,1,1-3.829,3.829,3.83,3.83,0,0,1,3.829-3.829" transform="translate(-65.595 -63.433)" fill="#803d13" fill-rule="evenodd"/>
        <path id="Path_23396" data-name="Path 23396" d="M100.051,101.314a4.479,4.479,0,1,1,4.479-4.479,4.484,4.484,0,0,1-4.479,4.479m0-7.658a3.179,3.179,0,1,0,3.179,3.179,3.183,3.183,0,0,0-3.179-3.179" transform="translate(-64.261 -62.099)" fill="#803c13"/>
        <path id="Path_23397" data-name="Path 23397" d="M16.541,50.822v21.53c-.2,6.531,6.134,12.8,13.106,13.45a19.587,19.587,0,0,0,2.875.027c7.107-.472,13.652-6.839,13.45-13.477V50.822Z" transform="translate(-11.119 -34.172)" fill="#a1532d" fill-rule="evenodd"/>
        <path id="Path_23398" data-name="Path 23398" d="M29.916,85.185c-.587,0-1.169-.023-1.664-.07-7.5-.7-13.9-7.3-13.7-14.117V48.838H45.287v22.18C45.5,77.9,38.8,84.64,31.23,85.144c-.417.028-.867.041-1.314.041M15.856,50.138V71.018c-.185,6.082,5.78,12.175,12.517,12.8a18.872,18.872,0,0,0,2.772.026c6.912-.46,13.033-6.564,12.843-12.809v-20.9Z" transform="translate(-9.784 -32.838)" fill="#803c13"/>
        <path id="Path_23399" data-name="Path 23399" d="M51.17,100.673a.651.651,0,0,1-.589-.374,1.628,1.628,0,0,0-1.279-.916,2.613,2.613,0,0,0-2.257.868.65.65,0,1,1-.97-.866A3.894,3.894,0,0,1,49.491,98.1a2.915,2.915,0,0,1,2.268,1.651.65.65,0,0,1-.588.926m-13.03-.154a.65.65,0,0,1-.589-.374,1.629,1.629,0,0,0-1.279-.916,2.618,2.618,0,0,0-2.257.868.65.65,0,1,1-.97-.866,3.9,3.9,0,0,1,3.415-1.288,2.914,2.914,0,0,1,2.267,1.651.65.65,0,0,1-.588.926" transform="translate(-22.108 -65.83)" fill="#2f180c"/>
        <path id="Path_23400" data-name="Path 23400" d="M55.6,131.624c0,.027,0,.053,0,.079,0,2.622-2.607,4.747-5.822,4.747s-5.822-2.126-5.822-4.747c0-.027,0-.053,0-.079Z" transform="translate(-29.556 -88.501)" fill="#fff" stroke="#833e16" stroke-width="1.4" fill-rule="evenodd"/>
        <path id="Path_23402" data-name="Path 23402" d="M58.187,108.412a1.857,1.857,0,0,1-1.857-1.858v-4.525a1.857,1.857,0,1,1,3.715,0v4.525a1.858,1.858,0,0,1-1.857,1.858" transform="translate(-37.875 -67.353)" fill="#813c14"/>
        <path id="Path_23403" data-name="Path 23403" d="M35.824,11.657a5.8,5.8,0,0,1,3.119,10.684,3.16,3.16,0,0,1,.018.336v8.316A2.573,2.573,0,0,1,36.6,33.72a2.573,2.573,0,0,1-2.365-2.727V27.3a60.94,60.94,0,0,1-23.658,0v3.962a2.573,2.573,0,0,1-2.365,2.727,2.574,2.574,0,0,1-2.365-2.727V22.942a3.065,3.065,0,0,1,.178-1.034,5.8,5.8,0,0,1,4.492-10.216,5.8,5.8,0,0,1,6.6-5.61,5.944,5.944,0,0,1,11.3.021,5.8,5.8,0,0,1,6.6,5.61,5.881,5.881,0,0,1,.809-.056" transform="translate(-2.627 -1.334)" fill="#4c1f09" fill-rule="evenodd"/>
        <path id="Path_23404" data-name="Path 23404" d="M6.874,33.3a3.215,3.215,0,0,1-3.015-3.378V21.607a3.746,3.746,0,0,1,.09-.818A6.446,6.446,0,0,1,8.581,9.654a6.488,6.488,0,0,1,6.755-5.6A6.41,6.41,0,0,1,21.324,0a6.782,6.782,0,0,1,6.2,4.072,6.487,6.487,0,0,1,6.756,5.6,6.447,6.447,0,0,1,4,11.662v8.321a3.216,3.216,0,0,1-3.015,3.378,3.216,3.216,0,0,1-3.015-3.378V26.736a60.811,60.811,0,0,1-22.357.007v3.181A3.215,3.215,0,0,1,6.874,33.3m1.5-22.35A5.146,5.146,0,0,0,5.1,20.072a.65.65,0,0,1,.2.721,2.412,2.412,0,0,0-.14.815v8.316A1.925,1.925,0,0,0,6.874,32a1.925,1.925,0,0,0,1.715-2.077V25.961a.65.65,0,0,1,.771-.639,60.125,60.125,0,0,0,23.421,0,.65.65,0,0,1,.765.64v3.7a1.925,1.925,0,0,0,1.715,2.077,1.925,1.925,0,0,0,1.715-2.077V21.342a2.472,2.472,0,0,0-.014-.267.651.651,0,0,1,.3-.617,5.147,5.147,0,0,0-2.768-9.486,5.2,5.2,0,0,0-.719.05.651.651,0,0,1-.74-.629,5.176,5.176,0,0,0-5.146-5.031,5.257,5.257,0,0,0-.717.05.651.651,0,0,1-.711-.453,5.183,5.183,0,0,0-4.5-3.621,5.456,5.456,0,0,0-.629-.038A5.12,5.12,0,0,0,16.4,4.938a.652.652,0,0,1-.711.453,5.241,5.241,0,0,0-.717-.05,5.176,5.176,0,0,0-5.146,5.03.65.65,0,0,1-.74.629,5.206,5.206,0,0,0-.719-.05" transform="translate(-1.292)" fill="#2e180d"/>
        <path id="Path_23405" data-name="Path 23405" d="M86.253,164.426h0a1.523,1.523,0,0,0-1.519,1.519v15.487a1.523,1.523,0,0,0,1.519,1.519h0a1.523,1.523,0,0,0,1.518-1.519V165.945a1.523,1.523,0,0,0-1.518-1.519" transform="translate(-56.974 -110.557)" fill="#dc9249" fill-rule="evenodd"/>
        <path id="Path_23406" data-name="Path 23406" d="M84.918,182.265a2.171,2.171,0,0,1-2.169-2.169V164.609a2.169,2.169,0,0,1,4.337,0V180.1a2.171,2.171,0,0,1-2.168,2.169m0-18.524a.869.869,0,0,0-.869.868V180.1a.868.868,0,1,0,1.737,0V164.609a.869.869,0,0,0-.868-.868" transform="translate(-55.639 -109.222)" fill="#4d607a"/>
        <path id="Path_23407" data-name="Path 23407" d="M28.861,164.048h0a1.523,1.523,0,0,0-1.519,1.519v15.487a1.523,1.523,0,0,0,1.519,1.519h0a1.523,1.523,0,0,0,1.519-1.519V165.567a1.523,1.523,0,0,0-1.519-1.519" transform="translate(-18.385 -110.303)" fill="#dc9249" fill-rule="evenodd"/>
        <path id="Path_23408" data-name="Path 23408" d="M27.526,181.888a2.171,2.171,0,0,1-2.168-2.169V164.232a2.169,2.169,0,0,1,4.337,0v15.487a2.171,2.171,0,0,1-2.169,2.169m0-18.524a.869.869,0,0,0-.868.868v15.487a.868.868,0,1,0,1.736,0V164.232a.869.869,0,0,0-.869-.868" transform="translate(-17.05 -108.969)" fill="#4d607a"/>
        <path id="Path_23409" data-name="Path 23409" d="M82.423,181.854H85.21a1.544,1.544,0,0,1,0,3.072H82.423a1.544,1.544,0,0,1,0-3.072" transform="translate(-54.483 -122.275)" fill="#f4df5c" fill-rule="evenodd"/>
        <path id="Path_23410" data-name="Path 23410" d="M83.876,184.242H81.089a2.191,2.191,0,0,1,0-4.373h2.786a2.191,2.191,0,0,1,0,4.373m-2.786-3.072a.9.9,0,0,0,0,1.772h2.786a.9.9,0,0,0,0-1.772Z" transform="translate(-53.149 -120.94)" fill="#4d607a"/>
        <path id="Path_23411" data-name="Path 23411" d="M24.575,180.98h2.786a1.544,1.544,0,0,1,0,3.072H24.575a1.544,1.544,0,0,1,0-3.072" transform="translate(-15.587 -121.688)" fill="#f4df5c" fill-rule="evenodd"/>
        <path id="Path_23412" data-name="Path 23412" d="M26.027,183.368H23.24a2.191,2.191,0,0,1,0-4.373h2.786a2.191,2.191,0,0,1,0,4.373M23.24,180.3a.9.9,0,0,0,0,1.772h2.786a.9.9,0,0,0,0-1.772Z" transform="translate(-14.253 -120.353)" fill="#4d607a"/>
        <rect id="Rectangle_2339" data-name="Rectangle 2339" width="1.3" height="27.495" transform="matrix(1, -0.003, 0.003, 1, 19.395, 58.063)" fill="#4d607a"/>
        <path id="Path_23413" data-name="Path 23413" d="M56.845,164.035l-.011,5.776-.677.382-3.294-1.975-3.017,1.95-1.159-.446.06-5.811,3.929,4.1.551-.133Z" transform="translate(-32.737 -110.21)" fill="#fff" fill-rule="evenodd"/>
        <path id="Path_23414" data-name="Path 23414" d="M47.734,164.631a1.437,1.437,0,0,1-.466-.073c-.475-.162-1.031-.631-.991-1.948l-.322-7.882,1.3-.053.08,1.945a34.863,34.863,0,0,0,3.807,4.4,28.455,28.455,0,0,0,3.217-3.676l-.006-2.655,1.3,0,.017,7.925c.046,1.253-.485,1.7-.938,1.858-.913.31-2.249-.5-3.6-1.686a6.242,6.242,0,0,1-3.4,1.846m-.311-5.8.155,3.78v.025c-.02.565.105.694.107.7.314.164,1.283-.4,2.5-1.434a40.47,40.47,0,0,1-2.756-3.066M52.09,161.9c1.047.91,1.878,1.435,2.219,1.343a1.676,1.676,0,0,0,.059-.6l-.007-3.215c-.637.761-1.429,1.649-2.271,2.474" transform="translate(-30.899 -104.001)" fill="#4d607a"/>
        <path id="Path_23415" data-name="Path 23415" d="M80.331,271.368a1.03,1.03,0,1,1-1.03,1.03,1.03,1.03,0,0,1,1.03-1.03" transform="translate(-53.32 -182.463)" fill="#4d607a" fill-rule="evenodd"/>
        <path id="Path_23416" data-name="Path 23416" d="M41.169,33.441a.65.65,0,0,1-.057-1.3,1.409,1.409,0,0,0,1.11-1.534c0-.224-.045-1.347-1.113-1.458a.65.65,0,0,1,.134-1.293,2.578,2.578,0,0,1,2.279,2.761,2.687,2.687,0,0,1-2.293,2.819c-.02,0-.039,0-.059,0m-22.214-.075c-.02,0-.039,0-.059,0a2.687,2.687,0,0,1-2.293-2.82,2.578,2.578,0,0,1,2.278-2.76.65.65,0,1,1,.134,1.293c-1.067.111-1.114,1.234-1.112,1.458a1.409,1.409,0,0,0,1.11,1.534.65.65,0,0,1-.057,1.3m-.415-9.954A.65.65,0,0,1,18.2,22.2a2.638,2.638,0,0,0,1.313-3.138c-.4-1.087-1.525-1.586-2.995-1.334a.65.65,0,0,1-.219-1.282c2.073-.353,3.812.5,4.432,2.163a3.927,3.927,0,0,1-1.861,4.7.644.644,0,0,1-.335.094m22.9-4.209a.65.65,0,0,1-.529-1.028A3.975,3.975,0,0,1,45.3,16.515a.65.65,0,0,1-.38,1.243,2.683,2.683,0,0,0-2.954,1.172.649.649,0,0,1-.529.272m-9.7-1.925a4.377,4.377,0,0,1-4.367-2.6.65.65,0,0,1,1.229-.425c.561,1.622,2.936,2.079,4.717,1.474.8-.271,3.31-1.43,2.13-4.973a.65.65,0,1,1,1.233-.411c1.241,3.723-.811,5.891-2.945,6.615a6.244,6.244,0,0,1-2,.324" transform="translate(-10.598 -6.653)" fill="#2e180d"/>
        <rect id="Rectangle_2340" data-name="Rectangle 2340" width="40.269" height="108.07" fill="none"/>
      </g>
    </g>
  </g>
</svg>
