<svg xmlns="http://www.w3.org/2000/svg" xmlns:xlink="http://www.w3.org/1999/xlink" width="83" height="83" viewBox="0 0 83 83">
  <defs>
    <linearGradient id="linear-gradient" x1="0.5" x2="0.5" y2="1" gradientUnits="objectBoundingBox">
      <stop offset="0" stop-color="#f27b33"/>
      <stop offset="1" stop-color="#a24c18"/>
    </linearGradient>
    <filter id="Ellipse_173" x="0" y="0" width="83" height="83" filterUnits="userSpaceOnUse">
      <feOffset dx="2" dy="2" input="SourceAlpha"/>
      <feGaussianBlur stdDeviation="5" result="blur"/>
      <feFlood flood-opacity="0.161"/>
      <feComposite operator="in" in2="blur"/>
      <feComposite in="SourceGraphic"/>
    </filter>
    <clipPath id="clip-path">
      <circle id="Ellipse_183" data-name="Ellipse 183" cx="26.5" cy="26.5" r="26.5" transform="translate(-0.001)" fill="#fff"/>
    </clipPath>
  </defs>
  <g id="Group_5352" data-name="Group 5352" transform="translate(-1285 -1364)">
    <g id="Group_5288" data-name="Group 5288" transform="translate(-38 -5)">
      <g transform="matrix(1, 0, 0, 1, 1323, 1369)" filter="url(#Ellipse_173)">
        <circle id="Ellipse_173-2" data-name="Ellipse 173" cx="26.5" cy="26.5" r="26.5" transform="translate(13 13)" fill="url(#linear-gradient)"/>
      </g>
      <g id="Mask_Group_135" data-name="Mask Group 135" transform="translate(1336.002 1382)" clip-path="url(#clip-path)">
        <g id="Group_5128" data-name="Group 5128" transform="translate(9.225 4.809)">
          <path id="Path_23459" data-name="Path 23459" d="M447.293,198c-3.147-.676-3.86-2.739-3.721-4.728l-.14-13.7,9.721-.832Z" transform="translate(-438.104 -127.118)" fill="#f0e1ca" fill-rule="evenodd"/>
          <path id="Path_23460" data-name="Path 23460" d="M446.262,197.09l-.515-.111c-2.88-.619-4.361-2.5-4.174-5.305l-.145-14.21,11.095-.95Zm-3.677-18.575.135,13.192,0,.023a3.485,3.485,0,0,0,2.76,4l5.456-17.929Z" transform="translate(-436.679 -125.534)" fill="#4d607a"/>
          <path id="Path_23461" data-name="Path 23461" d="M497.24,198.094c3.148-.676,3.86-2.739,3.721-4.728l.14-13.7-9.721-.832Z" transform="translate(-472.203 -127.184)" fill="#f0e1ca" fill-rule="evenodd"/>
          <path id="Path_23462" data-name="Path 23462" d="M494.887,197.181l-6.261-20.575,11.095.95-.145,14.209c.188,2.8-1.293,4.687-4.174,5.305Zm-4.671-19.289,5.456,17.929a3.485,3.485,0,0,0,2.759-4v-.046l.135-13.169Z" transform="translate(-470.245 -125.6)" fill="#4d607a"/>
          <path id="Path_23463" data-name="Path 23463" d="M455.568,223.835l13.911.321,0,.109h2.918v19.868h-5.3V231.245l-6.171-.019v12.963h-5.352Z" transform="translate(-446.734 -159.189)" fill="#c7d866" fill-rule="evenodd"/>
          <path id="Path_23464" data-name="Path 23464" d="M459.509,243.35h-5.352a.573.573,0,0,1-.573-.573V222.424a.573.573,0,0,1,.173-.41.591.591,0,0,1,.414-.163l13.911.321a.576.576,0,0,1,.323.109h2.578a.573.573,0,0,1,.573.573v19.868a.573.573,0,0,1-.573.573h-5.3a.573.573,0,0,1-.573-.573V230.405l-5.025-.016v12.388a.573.573,0,0,1-.573.573m-4.779-1.146h4.206v-12.39a.573.573,0,0,1,.573-.573h0l6.171.019a.573.573,0,0,1,.571.573v12.316h4.156V223.427h-2.345a.574.574,0,0,1-.347-.117l-12.988-.3Z" transform="translate(-445.323 -157.778)" fill="#4d607a"/>
          <path id="Path_23465" data-name="Path 23465" d="M490.063,290.876c0-.038,0-.077,0-.116a4.155,4.155,0,0,1,8.279,0c0,.039,0,.077,0,.116Z" transform="translate(-471.266 -204.089)" fill="#fff" fill-rule="evenodd"/>
          <path id="Path_23466" data-name="Path 23466" d="M496.926,290.037h-8.274a.573.573,0,0,1-.572-.552c0-.045,0-.091,0-.137a4.726,4.726,0,0,1,9.425,0c0,.046,0,.092,0,.137a.573.573,0,0,1-.573.552m-7.668-1.146h7.061a3.638,3.638,0,0,0-7.061,0" transform="translate(-469.854 -202.678)" fill="#4d607a"/>
          <path id="Path_23467" data-name="Path 23467" d="M450.255,290.687c0-.038,0-.077,0-.116a4.155,4.155,0,0,1,8.279,0c0,.038,0,.077,0,.116Z" transform="translate(-442.954 -203.955)" fill="#fff" fill-rule="evenodd"/>
          <path id="Path_23468" data-name="Path 23468" d="M457.118,289.849h-8.274a.573.573,0,0,1-.573-.552c0-.045,0-.091,0-.137a4.726,4.726,0,0,1,9.425,0c0,.046,0,.091,0,.137a.573.573,0,0,1-.573.552M449.45,288.7h7.061a3.638,3.638,0,0,0-7.061,0" transform="translate(-441.543 -202.544)" fill="#4d607a"/>
          <path id="Path_23469" data-name="Path 23469" d="M503.356,243.979a.908.908,0,1,1-.908.908.908.908,0,0,1,.908-.908" transform="translate(-480.075 -173.515)" fill="#4d607a" fill-rule="evenodd"/>
          <path id="Path_23470" data-name="Path 23470" d="M456.261,134.029l-6.885.262-3.327,1.879a13.522,13.522,0,0,0-5.1,3.7c-.894,1.19-.776,9.048-.565,13.076l3.981.158v7.259c.085,2.285.628,2.541,2.314,2.7l12.334-.012c1.422.079,2.644-.244,2.549-2.427V153.1h3.981c.2-1.407-.163-8.185,0-9.23.784-5.044-3.828-6.787-5.21-7.491Z" transform="translate(-435.832 -95.319)" fill="#f2c99a" fill-rule="evenodd"/>
          <path id="Path_23471" data-name="Path 23471" d="M472.483,127.221l.224,3.2,3.216,1.007,3.08-1.205L479,127.356Z" transform="translate(-458.764 -90.478)" fill="#e8cfaa" fill-rule="evenodd"/>
          <path id="Path_23472" data-name="Path 23472" d="M472.511,126.088l.025,1.494a9.838,9.838,0,0,0,6.511.072L479,126.175Z" transform="translate(-458.784 -89.672)" fill="#c9a088" fill-rule="evenodd"/>
          <path id="Path_23473" data-name="Path 23473" d="M445.747,162.226c-2.677,0-2.944-1.272-3-2.807v-8.079h-3.408a.573.573,0,0,1-.573-.573v-9.92c-.1-3.7,3.081-5.2,5.885-6.522a15.317,15.317,0,0,0,3.305-1.88.573.573,0,0,1,.743.872,16.074,16.074,0,0,1-3.56,2.044c-2.729,1.287-5.307,2.5-5.228,5.47v9.362h2.834l0-8.272a.574.574,0,0,1,.573-.574h0a.573.573,0,0,1,.573.573l0,8.815c0,.011,0,.021,0,.031V159.4c.045,1.238.063,1.711,1.977,1.68l5.37,0-.006-26.522a.573.573,0,1,1,1.146,0l.005,26.522,5.572,0c1.926.031,1.941-.442,1.986-1.7V152.16a.642.642,0,0,1,0-.071l.005-10.287a.573.573,0,0,1,.573-.573h0a.573.573,0,0,1,.573.573l0,8.384h2.838V140.84c.079-2.991-2.552-4.244-5.338-5.57a15.055,15.055,0,0,1-3.764-2.232.573.573,0,1,1,.78-.839,14.335,14.335,0,0,0,3.477,2.036c2.854,1.359,6.089,2.9,5.991,6.62v9.905a.573.573,0,0,1-.573.573h-3.408v8.059c-.057,1.581-.343,2.87-3.14,2.827l-12.071.006h-.131" transform="translate(-434.783 -93.909)" fill="#4d607a"/>
          <path id="Path_23474" data-name="Path 23474" d="M517.918,191.3h-3.862v3.868h3.862c.287,0,.522-.435.522-.967v-1.934c0-.532-.235-.967-.522-.967" transform="translate(-488.331 -136.053)" fill="#fff" fill-rule="evenodd"/>
          <path id="Path_23475" data-name="Path 23475" d="M516.506,194.335H512.62l-.549-.023v-4.98l.561-.012h3.873c.624,0,1.1.662,1.1,1.541v1.934c0,.878-.471,1.541-1.1,1.541m-3.289-3.869v2.723h3.162a.949.949,0,0,0,.076-.394V190.86a.949.949,0,0,0-.076-.394Z" transform="translate(-486.919 -134.641)" fill="#4d607a"/>
          <path id="Path_23476" data-name="Path 23476" d="M439.748,190.808h3.862v4.019h-3.862c-.287,0-.522-.452-.522-1.005v-2.01c0-.553.235-1.005.522-1.005" transform="translate(-435.112 -135.7)" fill="#fff" fill-rule="evenodd"/>
          <path id="Path_23477" data-name="Path 23477" d="M442.192,193.99h-3.855c-.635,0-1.1-.664-1.1-1.578V190.4c0-.914.461-1.578,1.1-1.578h3.886l.549.023v5.119Zm-3.722-1.146h3.156V189.97H438.47a1.05,1.05,0,0,0-.081.432v2.01a1.05,1.05,0,0,0,.081.432" transform="translate(-433.701 -134.289)" fill="#4d607a"/>
          <path id="Path_23478" data-name="Path 23478" d="M474.137,131.9h-.017c-.769,0-3.107,0-3.815-1.612l-.052-.118.079-2.614,1.146.035-.071,2.339c.324.545,1.229.822,2.7.824,1.6-.1,2.521-.405,2.739-.915l0-1.872,1.146,0,0,2.055-.024.081c-.423,1.417-2.258,1.706-3.81,1.8Z" transform="translate(-457.178 -90.717)" fill="#4d607a"/>
          <path id="Path_23479" data-name="Path 23479" d="M484.009,136.849h0a1.355,1.355,0,0,1-.059-.233l3.562-1.247,1.275.695c-.637,1.812-2.646,6.878-4.779.786" transform="translate(-466.92 -96.273)" fill="#fff" fill-rule="evenodd"/>
          <path id="Path_23480" data-name="Path 23480" d="M484.592,138.8h0c-1.056,0-1.915-1.049-2.7-3.3h0a1.953,1.953,0,0,1-.083-.332l-.075-.473,4.254-1.49,1.927,1.05-.162.46c-.965,2.748-2,4.084-3.157,4.084m-1.508-3.363c.788,2.106,1.391,2.217,1.508,2.217h0c.393,0,1.114-.76,1.909-2.86l-.619-.337Z" transform="translate(-465.34 -94.734)" fill="#4d607a"/>
          <path id="Path_23481" data-name="Path 23481" d="M463.829,155.036h0l-3.326-.006a.573.573,0,0,1,0-1.146h0l3.326.006a.573.573,0,0,1,0,1.146m2.436-4.863a.63.63,0,0,1-.066,0,.573.573,0,0,1-.5-.635,3.3,3.3,0,0,1,1.985-2.507.573.573,0,1,1,.445,1.056,2.173,2.173,0,0,0-1.291,1.581.573.573,0,0,1-.569.508m-17.459-.038a.573.573,0,0,1-.569-.508,2.172,2.172,0,0,0-1.291-1.581.573.573,0,0,1,.445-1.056,3.3,3.3,0,0,1,1.985,2.507.573.573,0,0,1-.5.634.559.559,0,0,1-.066,0" transform="translate(-440.353 -104.506)" fill="#4d607a"/>
          <path id="Path_23482" data-name="Path 23482" d="M430.341,61.934a3.375,3.375,0,1,1-3.375,3.375,3.376,3.376,0,0,1,3.375-3.375" transform="translate(-426.393 -44.047)" fill="#f2c99a" fill-rule="evenodd"/>
          <path id="Path_23483" data-name="Path 23483" d="M428.929,67.846a3.948,3.948,0,1,1,3.948-3.948,3.953,3.953,0,0,1-3.948,3.948m0-6.751a2.8,2.8,0,1,0,2.8,2.8,2.805,2.805,0,0,0-2.8-2.8" transform="translate(-424.981 -42.635)" fill="#4d607a"/>
          <path id="Path_23484" data-name="Path 23484" d="M522.164,62.409a3.375,3.375,0,1,1-3.375,3.375,3.376,3.376,0,0,1,3.375-3.375" transform="translate(-491.697 -44.384)" fill="#f2c99a" fill-rule="evenodd"/>
          <path id="Path_23485" data-name="Path 23485" d="M520.753,68.321a3.949,3.949,0,1,1,3.948-3.949,3.953,3.953,0,0,1-3.948,3.949m0-6.751a2.8,2.8,0,1,0,2.8,2.8,2.805,2.805,0,0,0-2.8-2.8" transform="translate(-490.285 -42.973)" fill="#4d607a"/>
          <path id="Path_23486" data-name="Path 23486" d="M439.99,34.148V46.054c-.176,5.758,5.407,11.284,11.554,11.857a17.226,17.226,0,0,0,2.535.024c6.265-.416,12.035-6.029,11.856-11.881l-.121-11.471-10.571-4.3-12.458-.936Z" transform="translate(-435.652 -20.871)" fill="#f0e1ca" fill-rule="evenodd"/>
          <path id="Path_23487" data-name="Path 23487" d="M451.547,57.069c-.517,0-1.03-.021-1.468-.062-6.615-.617-12.257-6.432-12.073-12.445V32.519l3.053-5.245,12.905.97,11.007,4.477.126,11.853c.185,6.071-5.721,12.015-12.391,12.459-.367.024-.764.036-1.158.036M439.152,32.828V44.58c-.163,5.361,5.1,10.732,11.034,11.286a16.635,16.635,0,0,0,2.443.023c6.093-.405,11.489-5.787,11.321-11.292l-.117-11.1L453.7,29.373l-12.011-.9Z" transform="translate(-434.241 -19.397)" fill="#4d607a"/>
          <path id="Path_23488" data-name="Path 23488" d="M481.418,78.091a1.637,1.637,0,0,1-1.637-1.637v-3.99a1.637,1.637,0,1,1,3.274,0v3.99a1.637,1.637,0,0,1-1.637,1.637" transform="translate(-463.954 -50.371)" fill="#e3c9a2"/>
          <path id="Path_23489" data-name="Path 23489" d="M477.6,70.475l-.752-.865a3.716,3.716,0,0,1,4.865.008l-.769.849a2.586,2.586,0,0,0-3.344.008" transform="translate(-461.867 -48.863)" fill="#4d607a"/>
          <path id="Path_23490" data-name="Path 23490" d="M464.6,70.225h-1.88a4.073,4.073,0,0,1-4.075-4.062V61.352a.573.573,0,0,1,.573-.573H468.1a.573.573,0,0,1,.573.573v4.811a4.073,4.073,0,0,1-4.075,4.062m-4.808-8.3v4.238a2.926,2.926,0,0,0,2.929,2.916h1.88a2.926,2.926,0,0,0,2.929-2.916V61.925Zm-8.049,8.3h-1.88a4.073,4.073,0,0,1-4.075-4.062V61.352a.573.573,0,0,1,.573-.573h8.883a.573.573,0,0,1,.573.573v4.811a4.073,4.073,0,0,1-4.075,4.062m-4.809-8.3v4.238a2.926,2.926,0,0,0,2.929,2.916h1.88a2.926,2.926,0,0,0,2.929-2.916V61.925Zm18.61,3.551a.572.572,0,0,1-.519-.33,1.438,1.438,0,0,0-1.128-.808,2.307,2.307,0,0,0-1.989.765.573.573,0,1,1-.855-.763,3.434,3.434,0,0,1,3.01-1.136,2.569,2.569,0,0,1,2,1.456.573.573,0,0,1-.519.816m-12.858-.109a.573.573,0,0,1-.519-.33,1.437,1.437,0,0,0-1.127-.808,2.306,2.306,0,0,0-1.99.765.573.573,0,1,1-.855-.763,3.436,3.436,0,0,1,3.01-1.136,2.57,2.57,0,0,1,2,1.455.573.573,0,0,1-.519.816" transform="translate(-439.778 -43.225)" fill="#4d607a"/>
          <path id="Path_23491" data-name="Path 23491" d="M459.3,15.5c-3.979,2.918-15.01,1.09-19.953-2.842-1.774-1.411-4.145,3.632-5.73,4.027v4.449c0,.831,0,.924-.79.8-1.285-.209-1.908-4.285-1.9-7.722.012-4.4,2.064-8.88,6.81-8.246.5-.7-.509.62,0,0a11.582,11.582,0,0,1,9.186-3.972c6.851.189,12.544,4.938,13.98,8.6,1.568,3.69-.864,13.508-1.605,10.468Z" transform="translate(-429.21 -1.41)" fill="#cfa17b" fill-rule="evenodd"/>
          <path id="Path_23492" data-name="Path 23492" d="M431.835,21.139a3.26,3.26,0,0,1-.514-.055c-2.333-.379-2.382-7.481-2.379-8.289.009-3.242,1.021-5.98,2.778-7.514a5.6,5.6,0,0,1,4.349-1.336c.022-.02.045-.039.07-.057A12.291,12.291,0,0,1,445.527,0c6.857.189,12.864,4.8,14.5,8.961,1.3,3.071.034,10.135-1.083,11.462a.842.842,0,0,1-.86.344c-.542-.127-.695-.756-.753-.993a.582.582,0,0,1-.016-.136V15.1c-4.894,2.4-15.124.266-19.737-3.4-.594-.473-1.572.578-2.787,2a8.682,8.682,0,0,1-2.013,1.956v4.067c0,.546,0,.941-.322,1.215a.914.914,0,0,1-.619.2m3.613-16.077a4.383,4.383,0,0,0-2.975,1.081c-1.486,1.3-2.378,3.785-2.386,6.653-.011,4.161.846,7.062,1.417,7.155l.124.019c0-.078,0-.166,0-.25V15.273a.573.573,0,0,1,.435-.556c.445-.111,1.225-1.026,1.852-1.762,1.276-1.5,2.865-3.358,4.373-2.157,4.87,3.874,15.668,5.459,19.258,2.828a.573.573,0,0,1,.912.462v4.76c.687-2.049,1.514-7.073.5-9.45-1.314-3.347-6.72-8.063-13.469-8.248a11.061,11.061,0,0,0-8.727,3.763h0c-.137.168-.5.61-.946.256a.7.7,0,0,1-.1-.1c-.091,0-.18-.007-.269-.007" transform="translate(-427.798 0)" fill="#4d607a"/>
          <path id="Path_23493" data-name="Path 23493" d="M454.187,20.116c-1.981-1.5-3.048-3.028-3.261-4.672a6.2,6.2,0,0,1,1.58-4.613l.9.708a5.053,5.053,0,0,0-1.345,3.759c.171,1.323,1.092,2.6,2.816,3.906Z" transform="translate(-443.406 -7.702)" fill="#4d607a"/>
          <path id="Path_23494" data-name="Path 23494" d="M472.334,137.816h0a1.329,1.329,0,0,0,.059-.233l-3.562-1.247-1.275.695c.636,1.812,2.646,6.878,4.779.786" transform="translate(-455.259 -96.96)" fill="#fff" fill-rule="evenodd"/>
          <path id="Path_23495" data-name="Path 23495" d="M468.441,139.764c-1.159,0-2.192-1.335-3.157-4.083l-.162-.46,1.927-1.05,4.254,1.49-.075.473a1.942,1.942,0,0,1-.084.333c-.788,2.249-1.646,3.3-2.7,3.3Zm-1.909-4.006c.795,2.1,1.516,2.86,1.909,2.86.118,0,.72-.112,1.508-2.218l-2.8-.98Z" transform="translate(-453.53 -95.421)" fill="#4d607a"/>
          <path id="Path_23496" data-name="Path 23496" d="M466.463,229.371a.573.573,0,0,1-.086-1.14c.735-.112.961-.463,1.1-1.7a.573.573,0,0,1,1.139.13c-.1.91-.279,2.434-2.069,2.708a.555.555,0,0,1-.087.007m-17.083-.345a.563.563,0,0,1-.087-.007c-1.79-.274-1.964-1.8-2.069-2.707a.573.573,0,0,1,1.139-.131c.142,1.242.369,1.592,1.1,1.7a.573.573,0,0,1-.086,1.14" transform="translate(-440.797 -160.496)" fill="#4d607a"/>
          <path id="Path_23497" data-name="Path 23497" d="M476.562,109.873a4.98,4.98,0,0,1-1.033-.109.573.573,0,1,1,.236-1.121,3.786,3.786,0,0,0,1.608-.005.573.573,0,1,1,.248,1.119,4.9,4.9,0,0,1-1.059.116m.2-2.037a7.347,7.347,0,0,1-3.457-.843.573.573,0,0,1,.543-1.009,6.286,6.286,0,0,0,5.76,0,.573.573,0,1,1,.561,1,7,7,0,0,1-3.407.848" transform="translate(-459.137 -75.325)" fill="#4d607a"/>
        </g>
      </g>
    </g>
  </g>
</svg>
