<svg xmlns="http://www.w3.org/2000/svg" xmlns:xlink="http://www.w3.org/1999/xlink" width="96.077" height="96.079" viewBox="0 0 96.077 96.079">
  <defs>
    <linearGradient id="linear-gradient" x1="0.5" x2="0.5" y2="1" gradientUnits="objectBoundingBox">
      <stop offset="0" stop-color="#b2f295"/>
      <stop offset="1" stop-color="#8dba78"/>
    </linearGradient>
    <filter id="Path_23618" x="0" y="0" width="96.077" height="96.079" filterUnits="userSpaceOnUse">
      <feOffset dx="2" dy="2" input="SourceAlpha"/>
      <feGaussianBlur stdDeviation="5" result="blur"/>
      <feFlood flood-opacity="0.161"/>
      <feComposite operator="in" in2="blur"/>
      <feComposite in="SourceGraphic"/>
    </filter>
    <clipPath id="clip-path">
      <ellipse id="Ellipse_186" data-name="Ellipse 186" cx="32.991" cy="32.992" rx="32.991" ry="32.992" transform="translate(0.001 0)" fill="#fff" stroke="#707070" stroke-width="1"/>
    </clipPath>
  </defs>
  <g id="Group_5350" data-name="Group 5350" transform="translate(-361.926 -1518.921)">
    <g transform="matrix(1, 0, 0, 1, 361.93, 1518.92)" filter="url(#Path_23618)">
      <path id="Path_23618-2" data-name="Path 23618" d="M33.039,0A33.039,33.039,0,1,1,0,33.039,33.039,33.039,0,0,1,33.039,0Z" transform="translate(13 13)" fill="url(#linear-gradient)"/>
    </g>
    <g id="Mask_Group_138" data-name="Mask Group 138" transform="translate(374.889 1532.016)" clip-path="url(#clip-path)">
      <g id="Group_5131" data-name="Group 5131" transform="translate(3.031 5.636)">
        <path id="Path_23586" data-name="Path 23586" d="M4307.532,8014.552s1.076-6.3-3.187-4.819c-.044.019.33-3.9-3.413-3.711a3.129,3.129,0,0,0-3.176,3.711s-3.391-.736-4.569,2.057.187,4.5,1.711,5.235a2.626,2.626,0,0,0,0,3.979c2.057,2.2,4.525,0,4.525,0s1.587,1.469,2.91.307S4307.532,8014.552,4307.532,8014.552Z" transform="translate(-4292.743 -8005.261)" fill="#4d1e08" stroke="#2e180d" stroke-width="3"/>
        <path id="Path_23585" data-name="Path 23585" d="M4292.864,8014.552s-1.075-6.3,3.187-4.819c.044.019-.329-3.9,3.413-3.711a3.13,3.13,0,0,1,3.176,3.711s3.391-.736,4.569,2.057-.187,4.5-1.712,5.235a2.626,2.626,0,0,1,0,3.979c-2.058,2.2-4.525,0-4.525,0s-1.588,1.469-2.911.307S4292.864,8014.552,4292.864,8014.552Z" transform="translate(-4247.515 -8006.015)" fill="#4d1e08" stroke="#2e180d" stroke-width="3"/>
        <path id="Path_23498" data-name="Path 23498" d="M116.621,613.875c3.642-.782,4.467-3.169,4.305-5.471l.162-15.852-11.248-.964Z" transform="translate(-76.522 -529.545)" fill="#a1532d" fill-rule="evenodd"/>
        <path id="Path_23499" data-name="Path 23499" d="M115.3,613.217a.663.663,0,0,1-.634-.47l-6.782-22.287a.663.663,0,0,1,.691-.854l11.249.963a.663.663,0,0,1,.606.667l-.161,15.826c.218,3.244-1.5,5.423-4.829,6.139a.659.659,0,0,1-.14.015m-5.862-22.205,6.313,20.745a4.033,4.033,0,0,0,3.193-4.628c0-.017,0-.035,0-.053l.155-15.237Z" transform="translate(-75.201 -528.224)" fill="#4d607a"/>
        <path id="Path_23500" data-name="Path 23500" d="M61.326,613.452c-3.642-.782-4.467-3.169-4.305-5.471l-.162-15.852,12.823-1.538Z" transform="translate(-41.246 -528.881)" fill="#a1532d" fill-rule="evenodd"/>
        <path id="Path_23501" data-name="Path 23501" d="M60,612.793a.662.662,0,0,1-.139-.015c-3.333-.716-5.047-2.9-4.829-6.139l-.162-15.826a.663.663,0,0,1,.584-.665l12.823-1.538a.663.663,0,0,1,.7.886l-8.356,22.861a.663.663,0,0,1-.623.435m-3.8-21.4.156,15.258c0,.018,0,.036,0,.053a4.037,4.037,0,0,0,3.225,4.637l7.78-21.287Z" transform="translate(-39.925 -527.559)" fill="#4d607a"/>
        <path id="Path_23502" data-name="Path 23502" d="M87.673,670.483H83.532l-.108,14.674h4.249Z" transform="translate(-58.935 -582.075)" fill="#f0e1ca" fill-rule="evenodd"/>
        <path id="Path_23503" data-name="Path 23503" d="M87.006,684.5h-5.58l.118-16h5.462Zm-4.244-1.326h2.917V669.825H82.86Z" transform="translate(-57.604 -580.754)" fill="#4d607a"/>
        <path id="Path_23504" data-name="Path 23504" d="M109.546,666.71h-4.141l-.108,14.674h4.249Z" transform="translate(-73.499 -579.563)" fill="#f0e1ca" fill-rule="evenodd"/>
        <path id="Path_23505" data-name="Path 23505" d="M108.879,680.725H103.3l.118-16h5.462Zm-4.244-1.326h2.918V666.051h-2.82Z" transform="translate(-72.168 -578.241)" fill="#4d607a"/>
        <path id="Path_23506" data-name="Path 23506" d="M69.051,640.339l15.106.7,0,.126,3.819-.832,1.465,15.645c-14.741-.009-6.28-.012-21.823-.009Z" transform="translate(-48.408 -562)" fill="#d34d60" fill-rule="evenodd"/>
        <path id="Path_23507" data-name="Path 23507" d="M88.115,655.317h0l-9.272-.008c-2.5,0-2.82,0-12.55,0a.663.663,0,0,1-.661-.724l1.436-15.628a.661.661,0,0,1,.691-.6l15.106.7a.674.674,0,0,1,.23.052l3.414-.743a.663.663,0,0,1,.8.586l1.465,15.645a.663.663,0,0,1-.66.725m-14.241-1.336c2.7,0,3.407,0,4.97,0,1.424,0,3.556,0,8.544.007L86.06,639.817l-3.088.672a.659.659,0,0,1-.554-.129l-14.087-.651L67.02,653.981h6.855" transform="translate(-47.086 -560.678)" fill="#4d607a"/>
        <path id="Path_23508" data-name="Path 23508" d="M64.241,551.971c-7.8,1.313-11.935,7.308-11.463,14.735h5.01v15.176c.066,1.826.288,2.88,3.219,2.835l7.6,0,7.6,0c2.931.044,3.153-1.009,3.219-2.836V566.7h5.009c0-7.47-3.612-13.594-11.683-14.931Z" transform="translate(-38.505 -503.032)" fill="#f2c99a" fill-rule="evenodd"/>
        <path id="Path_23509" data-name="Path 23509" d="M59.515,584.06c-3.317,0-3.64-1.509-3.711-3.476V566.047H51.457a.663.663,0,0,1-.662-.621C50.283,557.367,55,551.31,62.81,550a.608.608,0,0,1,.094-.009l8.511-.2a.6.6,0,0,1,.124.008c7.776,1.288,12.236,6.969,12.238,15.585a.663.663,0,0,1-.663.663H78.767v14.513c-.073,2.024-.4,3.545-3.892,3.5l-15.189.007h-.171M52.09,564.721h4.377a.663.663,0,0,1,.663.663V580.56c.056,1.556.086,2.208,2.546,2.172l15.208-.007c2.476.043,2.5-.617,2.557-2.2V565.377a.663.663,0,0,1,.663-.663h4.337c-.222-7.507-4.223-12.446-11.057-13.6l-8.4.2c-6.974,1.193-11.1,6.3-10.894,13.41" transform="translate(-37.184 -501.71)" fill="#4d607a"/>
        <path id="Path_23510" data-name="Path 23510" d="M88.237,575.776a.663.663,0,0,1-.663-.663L87.566,560.2a.664.664,0,0,1,.663-.664h0a.663.663,0,0,1,.663.663l.008,14.912a.663.663,0,0,1-.663.663Zm-21.607-.149a.663.663,0,0,1-.663-.663L65.959,560.4a.663.663,0,0,1,.663-.663h0a.663.663,0,0,1,.663.663l.008,14.569a.663.663,0,0,1-.663.663Z" transform="translate(-47.305 -508.205)" fill="#4d607a"/>
        <path id="Path_23511" data-name="Path 23511" d="M100.021,711.807c0-.044,0-.089,0-.134a4.808,4.808,0,0,1,9.578,0c0,.045,0,.089,0,.134Z" transform="translate(-69.984 -606.581)" fill="#d2e088" fill-rule="evenodd"/>
        <path id="Path_23512" data-name="Path 23512" d="M108.273,711.149H98.7a.663.663,0,0,1-.662-.639c0-.053,0-.106,0-.158a5.469,5.469,0,0,1,10.9,0c0,.052,0,.1,0,.156a.663.663,0,0,1-.663.641M99.4,709.823h8.169a4.209,4.209,0,0,0-8.169,0" transform="translate(-68.662 -605.26)" fill="#4d607a"/>
        <path id="Path_23513" data-name="Path 23513" d="M72.062,712.034c0-.044,0-.089,0-.134a4.808,4.808,0,0,1,9.578,0c0,.044,0,.089,0,.134Z" transform="translate(-51.368 -606.732)" fill="#d2e088" fill-rule="evenodd"/>
        <path id="Path_23514" data-name="Path 23514" d="M80.314,711.375H70.74a.663.663,0,0,1-.663-.641c0-.052,0-.1,0-.156a5.469,5.469,0,0,1,10.9,0c0,.052,0,.1,0,.156a.663.663,0,0,1-.663.641m-8.871-1.326h8.169a4.209,4.209,0,0,0-8.169,0" transform="translate(-50.046 -605.411)" fill="#4d607a"/>
        <path id="Path_23517" data-name="Path 23517" d="M45.551,434.3a5.871,5.871,0,1,0,5.48,5.858,5.68,5.68,0,0,0-5.48-5.858" transform="translate(-30.068 -424.821)" fill="#f4da80" fill-rule="evenodd"/>
        <path id="Path_23518" data-name="Path 23518" d="M44.23,445.363a6.533,6.533,0,1,1,6.143-6.522,6.348,6.348,0,0,1-6.143,6.522m0-11.717a5.21,5.21,0,1,0,4.817,5.2,5.023,5.023,0,0,0-4.817-5.2" transform="translate(-28.747 -423.5)" fill="#2e180d"/>
        <path id="Path_23521" data-name="Path 23521" d="M134.281,434.7a5.871,5.871,0,1,1-5.48,5.858,5.68,5.68,0,0,1,5.48-5.858" transform="translate(-89.148 -425.086)" fill="#f4da80" fill-rule="evenodd"/>
        <path id="Path_23522" data-name="Path 23522" d="M132.96,445.762a6.533,6.533,0,1,1,6.143-6.521,6.348,6.348,0,0,1-6.143,6.521m0-11.716a5.21,5.21,0,1,0,4.817,5.2,5.023,5.023,0,0,0-4.817-5.2" transform="translate(-87.826 -423.765)" fill="#2e180d"/>
        <path id="Path_23523" data-name="Path 23523" d="M47.122,436.185c-.244-8,7.513-15.679,16.054-16.475a23.957,23.957,0,0,1,3.522-.033c8.7.579,17.264,8.378,17.015,16.509,0,1.81-.04,19.2-11.358,17.789l-10.884.706c-15.69-.436-14.349-12.836-14.349-18.5" transform="translate(-34.744 -415.049)" fill="#4d1e08" fill-rule="evenodd"/>
        <path id="Path_23524" data-name="Path 23524" d="M60.15,454.023h-.018c-15.269-.424-15.1-11.8-15.006-17.915.007-.438.013-.851.013-1.233a15.96,15.96,0,0,1,4.923-11.414,19.357,19.357,0,0,1,11.732-5.731,24.581,24.581,0,0,1,3.627-.034c9.315.619,17.885,8.974,17.634,17.19,0,2.774-.37,12.219-5.143,16.435a8.475,8.475,0,0,1-6.9,2l-10.823.7H60.15m3.669-35.054c-.672,0-1.336.027-1.9.08-8.316.776-15.682,8.3-15.453,15.795v.02c0,.391-.006.814-.013,1.263-.091,6.048-.243,16.167,13.687,16.569l10.853-.7a.756.756,0,0,1,.125,0,7.212,7.212,0,0,0,5.918-1.67c4.357-3.848,4.7-12.807,4.7-15.461.231-7.58-7.737-15.271-16.4-15.847-.481-.032-1-.048-1.514-.048" transform="translate(-33.423 -413.728)" fill="#2e180d"/>
        <path id="Path_23525" data-name="Path 23525" d="M88.42,544.253l-.057,3.277,4.181,1.31,3.812-1.306-.007-3.117Z" transform="translate(-62.222 -498.028)" fill="#a1532d" fill-rule="evenodd"/>
        <path id="Path_23526" data-name="Path 23526" d="M88.562,543.14l.03,1.819a11.975,11.975,0,0,0,7.927.087l-.057-1.8Z" transform="translate(-62.355 -497.287)" fill="#8e4624" fill-rule="evenodd"/>
        <path id="Path_23527" data-name="Path 23527" d="M90.92,544.084a7.537,7.537,0,0,1-4.728-1.569.663.663,0,0,1-.238-.514l.032-3.979a.663.663,0,0,1,.663-.658h.005a.663.663,0,0,1,.658.668l-.03,3.65a6.619,6.619,0,0,0,4.625,1,3.541,3.541,0,0,0,2.293-1.125l-.114-4.769a.663.663,0,0,1,.647-.679h.016a.663.663,0,0,1,.663.647l.119,4.99a.665.665,0,0,1-.106.376A4.646,4.646,0,0,1,92.107,544a7.888,7.888,0,0,1-1.186.088" transform="translate(-60.619 -492.607)" fill="#803b14"/>
        <path id="Path_23528" data-name="Path 23528" d="M48.828,446.635v3.192a2.878,2.878,0,1,0,0,5.629V456.5c-.2,6.662,6.256,13.056,13.368,13.719a19.939,19.939,0,0,0,2.933.027c7.249-.482,13.925-6.976,13.718-13.747v-1.308a2.878,2.878,0,1,0,0-5.431v-2.932c-3.933-2.467-6.118-8.467-8.162-13.827-5.19,8.048-13.6,6.967-21.5,7.015" transform="translate(-33.581 -423.954)" fill="#a1532d" fill-rule="evenodd"/>
        <path id="Path_23529" data-name="Path 23529" d="M62.511,470.33c-.6,0-1.191-.024-1.7-.071-7.654-.714-14.182-7.443-13.969-14.4v-.3a3.541,3.541,0,0,1,0-7.081v-9.15a.663.663,0,0,1,.659-.663c7.773-.047,16.4,1.524,21.442-6.3a.663.663,0,0,1,1.177.123c1.95,5.112,3.768,3.966,7.757,6.467a.663.663,0,0,1,.311.562v8.8c.1-.008.195-.012.293-.012a3.541,3.541,0,1,1,0,7.083q-.147,0-.293-.012v.494c.215,7.018-6.619,13.9-14.337,14.408-.425.028-.884.042-1.341.042m-15-16.158a.663.663,0,0,1,.663.663v1.045c-.189,6.2,5.9,12.418,12.767,13.059a19.293,19.293,0,0,0,2.827.026c7.05-.469,13.294-6.7,13.1-13.065V454.57a.663.663,0,0,1,.884-.625,2.215,2.215,0,1,0,0-4.18.663.663,0,0,1-.884-.625v-9.25c-3.575-2.265-5.63-1.337-7.516-5.767-5.343,7.24-13.975,5.759-21.177,5.864v9.219a.663.663,0,0,1-.8.648,2.215,2.215,0,1,0,0,4.333.671.671,0,0,1,.138-.015" transform="translate(-32.259 -423.332)" fill="#803b14"/>
        <path id="Path_23530" data-name="Path 23530" d="M90.751,487.513a.663.663,0,0,1-.6-.382,1.662,1.662,0,0,0-1.3-.935,2.67,2.67,0,0,0-2.3.885.663.663,0,0,1-.989-.883,3.976,3.976,0,0,1,3.483-1.314,2.973,2.973,0,0,1,2.313,1.685.663.663,0,0,1-.6.944m-13.29-.157a.662.662,0,0,1-.6-.382,1.663,1.663,0,0,0-1.3-.934,2.671,2.671,0,0,0-2.3.885.663.663,0,1,1-.989-.883,3.972,3.972,0,0,1,3.483-1.314,2.973,2.973,0,0,1,2.313,1.684.663.663,0,0,1-.6.944" transform="translate(-51.391 -458.369)" fill="#4c1d08"/>
        <path id="Path_23531" data-name="Path 23531" d="M95.049,518.409c0,.027,0,.054,0,.081,0,2.674-2.659,4.842-5.938,4.842s-5.938-2.169-5.938-4.842c0-.027,0-.054,0-.081Z" transform="translate(-58.768 -480.82)" fill="#fff" fill-rule="evenodd"/>
        <path id="Path_23532" data-name="Path 23532" d="M87.79,522.673c-3.64,0-6.6-2.47-6.6-5.505v-.079a.677.677,0,0,1,.663-.666H93.727a.663.663,0,0,1,.663.647l0,.1c0,3.036-2.962,5.505-6.6,5.505m-5.224-4.923c.359,2.03,2.565,3.6,5.224,3.6s4.865-1.567,5.224-3.6Z" transform="translate(-57.446 -479.499)" fill="#803b14"/>
        <path id="Path_23533" data-name="Path 23533" d="M97.44,495.362a1.894,1.894,0,0,1-1.894-1.894v-4.616a1.894,1.894,0,1,1,3.789,0v4.616a1.894,1.894,0,0,1-1.894,1.894" transform="translate(-67.006 -459.879)" fill="#803b14"/>
        <path id="Path_23574" data-name="Path 23574" d="M125.49,555.063h0a1.553,1.553,0,0,0-1.549,1.549v15.8a1.549,1.549,0,1,0,3.1,0v-15.8a1.553,1.553,0,0,0-1.549-1.549" transform="translate(-85.912 -505.226)" fill="#d2e088" fill-rule="evenodd"/>
        <path id="Path_23575" data-name="Path 23575" d="M124.169,573.3a2.214,2.214,0,0,1-2.212-2.212v-15.8a2.212,2.212,0,1,1,4.424,0v15.8a2.214,2.214,0,0,1-2.212,2.212m0-18.894a.887.887,0,0,0-.886.886v15.8a.886.886,0,1,0,1.771,0v-15.8a.886.886,0,0,0-.886-.886" transform="translate(-84.591 -503.904)" fill="#4d607a"/>
        <path id="Path_23576" data-name="Path 23576" d="M121.658,572.491H124.5a1.574,1.574,0,0,1,0,3.134h-2.842a1.574,1.574,0,0,1,0-3.134" transform="translate(-83.446 -516.83)" fill="#fff" fill-rule="evenodd"/>
        <path id="Path_23577" data-name="Path 23577" d="M123.179,574.966h-2.842a2.235,2.235,0,0,1,0-4.461h2.842a2.235,2.235,0,0,1,0,4.461m-2.842-3.134a.918.918,0,0,0,0,1.808h2.842a.918.918,0,0,0,0-1.808Z" transform="translate(-82.125 -515.508)" fill="#4d607a"/>
        <path id="Path_23578" data-name="Path 23578" d="M68.519,556.8h0a1.553,1.553,0,0,0-1.549,1.549v15.8a1.553,1.553,0,0,0,1.549,1.549h0a1.553,1.553,0,0,0,1.549-1.549v-15.8a1.553,1.553,0,0,0-1.549-1.549" transform="translate(-47.979 -506.383)" fill="#d2e088" fill-rule="evenodd"/>
        <path id="Path_23579" data-name="Path 23579" d="M67.2,575.039a2.215,2.215,0,0,1-2.212-2.212v-15.8a2.212,2.212,0,0,1,4.424,0v15.8a2.215,2.215,0,0,1-2.212,2.212m0-18.894a.886.886,0,0,0-.886.885v15.8a.886.886,0,1,0,1.771,0v-15.8a.886.886,0,0,0-.886-.885" transform="translate(-46.657 -505.062)" fill="#4d607a"/>
        <path id="Path_23580" data-name="Path 23580" d="M64.687,574.23h2.842a1.574,1.574,0,0,1,0,3.134H64.687a1.574,1.574,0,0,1,0-3.134" transform="translate(-45.512 -517.987)" fill="#fff" fill-rule="evenodd"/>
        <path id="Path_23581" data-name="Path 23581" d="M66.207,576.705H63.366a2.235,2.235,0,0,1,0-4.46h2.842a2.235,2.235,0,0,1,0,4.46m-2.842-3.134a.918.918,0,0,0,0,1.808h2.842a.918.918,0,0,0,0-1.808Z" transform="translate(-44.191 -516.666)" fill="#4d607a"/>
        <path id="Path_23583" data-name="Path 23583" d="M4199.083,8045.734s3.954.259,5.256-3.222c.23-.292,3.852,2,6.587-1.53.4-.387,4.176,3.823,7.673.257.54-.439,1.74,3,5.707,1.461.592-.168,1.442,4.535,5.446,3.9s-1.862-9.962-1.862-9.962-5.319-4.406-12.048-4.711c-11.852,2.358-15.148,2.667-17.142,7.312-.557,1.3-.551,3.124-1.226,5.455C4197.545,8046.36,4199.083,8045.734,4199.083,8045.734Z" transform="translate(-4184.005 -8024.578)" fill="#4d1e08"/>
      </g>
    </g>
  </g>
</svg>
