<svg width="254" height="77" viewBox="0 0 254 77" fill="none" xmlns="http://www.w3.org/2000/svg">
<path d="M15.8094 65V46.1H20.1834V65H15.8094ZM30.8787 65.324C29.3667 65.324 27.9177 65.126 26.5317 64.73C25.1457 64.316 24.0297 63.785 23.1837 63.137L24.6687 59.843C25.4787 60.419 26.4327 60.896 27.5307 61.274C28.6467 61.634 29.7717 61.814 30.9057 61.814C31.7697 61.814 32.4627 61.733 32.9847 61.571C33.5247 61.391 33.9207 61.148 34.1727 60.842C34.4247 60.536 34.5507 60.185 34.5507 59.789C34.5507 59.285 34.3527 58.889 33.9567 58.601C33.5607 58.295 33.0387 58.052 32.3907 57.872C31.7427 57.674 31.0227 57.494 30.2307 57.332C29.4567 57.152 28.6737 56.936 27.8817 56.684C27.1077 56.432 26.3967 56.108 25.7487 55.712C25.1007 55.316 24.5697 54.794 24.1557 54.146C23.7597 53.498 23.5617 52.67 23.5617 51.662C23.5617 50.582 23.8497 49.601 24.4257 48.719C25.0197 47.819 25.9017 47.108 27.0717 46.586C28.2597 46.046 29.7447 45.776 31.5267 45.776C32.7147 45.776 33.8847 45.92 35.0367 46.208C36.1887 46.478 37.2057 46.892 38.0877 47.45L36.7377 50.771C35.8557 50.267 34.9737 49.898 34.0917 49.664C33.2097 49.412 32.3457 49.286 31.4997 49.286C30.6537 49.286 29.9607 49.385 29.4207 49.583C28.8807 49.781 28.4937 50.042 28.2597 50.366C28.0257 50.672 27.9087 51.032 27.9087 51.446C27.9087 51.932 28.1067 52.328 28.5027 52.634C28.8987 52.922 29.4207 53.156 30.0687 53.336C30.7167 53.516 31.4277 53.696 32.2017 53.876C32.9937 54.056 33.7767 54.263 34.5507 54.497C35.3427 54.731 36.0627 55.046 36.7107 55.442C37.3587 55.838 37.8807 56.36 38.2767 57.008C38.6907 57.656 38.8977 58.475 38.8977 59.465C38.8977 60.527 38.6007 61.499 38.0067 62.381C37.4127 63.263 36.5217 63.974 35.3337 64.514C34.1637 65.054 32.6787 65.324 30.8787 65.324ZM54.231 65V57.278L55.23 59.924L46.914 46.1H51.558L57.93 56.711H55.257L61.656 46.1H65.949L57.633 59.924L58.605 57.278V65H54.231ZM76.1417 65.324C74.6477 65.324 73.2617 65.081 71.9837 64.595C70.7237 64.109 69.6257 63.425 68.6897 62.543C67.7717 61.661 67.0517 60.626 66.5297 59.438C66.0257 58.25 65.7737 56.954 65.7737 55.55C65.7737 54.146 66.0257 52.85 66.5297 51.662C67.0517 50.474 67.7807 49.439 68.7167 48.557C69.6527 47.675 70.7507 46.991 72.0107 46.505C73.2707 46.019 74.6387 45.776 76.1147 45.776C77.6087 45.776 78.9767 46.019 80.2187 46.505C81.4787 46.991 82.5677 47.675 83.4857 48.557C84.4217 49.439 85.1507 50.474 85.6727 51.662C86.1947 52.832 86.4557 54.128 86.4557 55.55C86.4557 56.954 86.1947 58.259 85.6727 59.465C85.1507 60.653 84.4217 61.688 83.4857 62.57C82.5677 63.434 81.4787 64.109 80.2187 64.595C78.9767 65.081 77.6177 65.324 76.1417 65.324ZM76.1147 61.598C76.9607 61.598 77.7347 61.454 78.4367 61.166C79.1567 60.878 79.7867 60.464 80.3267 59.924C80.8667 59.384 81.2807 58.745 81.5687 58.007C81.8747 57.269 82.0277 56.45 82.0277 55.55C82.0277 54.65 81.8747 53.831 81.5687 53.093C81.2807 52.355 80.8667 51.716 80.3267 51.176C79.8047 50.636 79.1837 50.222 78.4637 49.934C77.7437 49.646 76.9607 49.502 76.1147 49.502C75.2687 49.502 74.4857 49.646 73.7657 49.934C73.0637 50.222 72.4427 50.636 71.9027 51.176C71.3627 51.716 70.9397 52.355 70.6337 53.093C70.3457 53.831 70.2017 54.65 70.2017 55.55C70.2017 56.432 70.3457 57.251 70.6337 58.007C70.9397 58.745 71.3537 59.384 71.8757 59.924C72.4157 60.464 73.0457 60.878 73.7657 61.166C74.4857 61.454 75.2687 61.598 76.1147 61.598ZM98.14 65.324C95.458 65.324 93.361 64.577 91.849 63.083C90.337 61.589 89.581 59.456 89.581 56.684V46.1H93.955V56.522C93.955 58.322 94.324 59.618 95.062 60.41C95.8 61.202 96.835 61.598 98.167 61.598C99.499 61.598 100.534 61.202 101.272 60.41C102.01 59.618 102.379 58.322 102.379 56.522V46.1H106.699V56.684C106.699 59.456 105.943 61.589 104.431 63.083C102.919 64.577 100.822 65.324 98.14 65.324ZM111.021 65V46.1H119.202C120.894 46.1 122.352 46.379 123.576 46.937C124.8 47.477 125.745 48.26 126.411 49.286C127.077 50.312 127.41 51.536 127.41 52.958C127.41 54.362 127.077 55.577 126.411 56.603C125.745 57.611 124.8 58.385 123.576 58.925C122.352 59.465 120.894 59.735 119.202 59.735H113.451L115.395 57.818V65H111.021ZM123.036 65L118.311 58.142H122.982L127.761 65H123.036ZM115.395 58.304L113.451 56.252H118.959C120.309 56.252 121.317 55.964 121.983 55.388C122.649 54.794 122.982 53.984 122.982 52.958C122.982 51.914 122.649 51.104 121.983 50.528C121.317 49.952 120.309 49.664 118.959 49.664H113.451L115.395 47.585V58.304ZM147.567 65.324C146.109 65.324 144.75 65.09 143.49 64.622C142.248 64.136 141.168 63.452 140.25 62.57C139.332 61.688 138.612 60.653 138.09 59.465C137.586 58.277 137.334 56.972 137.334 55.55C137.334 54.128 137.586 52.823 138.09 51.635C138.612 50.447 139.332 49.412 140.25 48.53C141.186 47.648 142.275 46.973 143.517 46.505C144.759 46.019 146.118 45.776 147.594 45.776C149.232 45.776 150.708 46.064 152.022 46.64C153.354 47.198 154.47 48.026 155.37 49.124L152.562 51.716C151.914 50.978 151.194 50.429 150.402 50.069C149.61 49.691 148.746 49.502 147.81 49.502C146.928 49.502 146.118 49.646 145.38 49.934C144.642 50.222 144.003 50.636 143.463 51.176C142.923 51.716 142.5 52.355 142.194 53.093C141.906 53.831 141.762 54.65 141.762 55.55C141.762 56.45 141.906 57.269 142.194 58.007C142.5 58.745 142.923 59.384 143.463 59.924C144.003 60.464 144.642 60.878 145.38 61.166C146.118 61.454 146.928 61.598 147.81 61.598C148.746 61.598 149.61 61.418 150.402 61.058C151.194 60.68 151.914 60.113 152.562 59.357L155.37 61.949C154.47 63.047 153.354 63.884 152.022 64.46C150.708 65.036 149.223 65.324 147.567 65.324ZM171.284 46.1H175.658V65H171.284V46.1ZM162.698 65H158.324V46.1H162.698V65ZM171.608 57.251H162.374V53.552H171.608V57.251ZM180.13 65V46.1H184.504V65H180.13ZM188.989 65V46.1H193.363V61.436H202.84V65H188.989ZM205.284 65V46.1H213.87C215.922 46.1 217.731 46.496 219.297 47.288C220.863 48.062 222.087 49.151 222.969 50.555C223.851 51.959 224.292 53.624 224.292 55.55C224.292 57.458 223.851 59.123 222.969 60.545C222.087 61.949 220.863 63.047 219.297 63.839C217.731 64.613 215.922 65 213.87 65H205.284ZM209.658 61.409H213.654C214.914 61.409 216.003 61.175 216.921 60.707C217.857 60.221 218.577 59.537 219.081 58.655C219.603 57.773 219.864 56.738 219.864 55.55C219.864 54.344 219.603 53.309 219.081 52.445C218.577 51.563 217.857 50.888 216.921 50.42C216.003 49.934 214.914 49.691 213.654 49.691H209.658V61.409ZM230.391 58.439C230.391 57.809 230.49 57.251 230.688 56.765C230.904 56.279 231.165 55.847 231.471 55.469C231.795 55.091 232.137 54.74 232.497 54.416C232.857 54.092 233.19 53.786 233.496 53.498C233.82 53.192 234.081 52.877 234.279 52.553C234.495 52.229 234.603 51.869 234.603 51.473C234.603 50.825 234.333 50.303 233.793 49.907C233.271 49.511 232.569 49.313 231.687 49.313C230.841 49.313 230.085 49.493 229.419 49.853C228.753 50.195 228.204 50.681 227.772 51.311L224.505 49.394C225.225 48.296 226.224 47.423 227.502 46.775C228.78 46.109 230.328 45.776 232.146 45.776C233.496 45.776 234.684 45.974 235.71 46.37C236.736 46.748 237.537 47.306 238.113 48.044C238.707 48.782 239.004 49.691 239.004 50.771C239.004 51.473 238.896 52.094 238.68 52.634C238.464 53.174 238.185 53.642 237.843 54.038C237.501 54.434 237.132 54.803 236.736 55.145C236.358 55.487 235.998 55.82 235.656 56.144C235.314 56.468 235.026 56.81 234.792 57.17C234.576 57.53 234.468 57.953 234.468 58.439H230.391ZM232.443 65.216C231.687 65.216 231.066 64.973 230.58 64.487C230.094 64.001 229.851 63.425 229.851 62.759C229.851 62.075 230.094 61.508 230.58 61.058C231.066 60.59 231.687 60.356 232.443 60.356C233.217 60.356 233.838 60.59 234.306 61.058C234.792 61.508 235.035 62.075 235.035 62.759C235.035 63.425 234.792 64.001 234.306 64.487C233.838 64.973 233.217 65.216 232.443 65.216Z" fill="white"/>
<path d="M74.1298 12.1H75.5068V31H74.1298V12.1ZM61.4938 31H60.1168V12.1H61.4938V31ZM74.2918 22.009H61.3318V20.794H74.2918V22.009ZM90.126 31.135C88.722 31.135 87.417 30.901 86.211 30.433C85.023 29.947 83.979 29.272 83.079 28.408C82.197 27.526 81.513 26.509 81.027 25.357C80.541 24.187 80.298 22.918 80.298 21.55C80.298 20.182 80.541 18.922 81.027 17.77C81.513 16.6 82.197 15.583 83.079 14.719C83.979 13.837 85.023 13.162 86.211 12.694C87.417 12.208 88.722 11.965 90.126 11.965C91.53 11.965 92.826 12.208 94.014 12.694C95.22 13.162 96.264 13.828 97.146 14.692C98.028 15.556 98.712 16.573 99.198 17.743C99.702 18.895 99.954 20.164 99.954 21.55C99.954 22.936 99.702 24.214 99.198 25.384C98.712 26.536 98.028 27.544 97.146 28.408C96.264 29.272 95.22 29.947 94.014 30.433C92.826 30.901 91.53 31.135 90.126 31.135ZM90.126 29.866C91.332 29.866 92.448 29.659 93.474 29.245C94.5 28.831 95.391 28.246 96.147 27.49C96.903 26.734 97.488 25.852 97.902 24.844C98.334 23.836 98.55 22.738 98.55 21.55C98.55 20.344 98.334 19.246 97.902 18.256C97.488 17.248 96.903 16.366 96.147 15.61C95.391 14.854 94.5 14.269 93.474 13.855C92.448 13.441 91.332 13.234 90.126 13.234C88.92 13.234 87.804 13.441 86.778 13.855C85.752 14.269 84.852 14.854 84.078 15.61C83.322 16.366 82.728 17.248 82.296 18.256C81.882 19.246 81.675 20.344 81.675 21.55C81.675 22.738 81.882 23.836 82.296 24.844C82.728 25.852 83.322 26.734 84.078 27.49C84.852 28.246 85.752 28.831 86.778 29.245C87.804 29.659 88.92 29.866 90.126 29.866ZM108.388 31L101.962 12.1H103.42L109.522 30.163H108.793L115.084 12.1H116.407L122.644 30.163H121.942L128.098 12.1H129.448L123.049 31H121.591L115.543 13.531H115.894L109.846 31H108.388ZM148.767 31.135C147.363 31.135 146.058 30.901 144.852 30.433C143.664 29.947 142.62 29.272 141.72 28.408C140.838 27.526 140.154 26.509 139.668 25.357C139.182 24.187 138.939 22.918 138.939 21.55C138.939 20.182 139.182 18.922 139.668 17.77C140.154 16.6 140.838 15.583 141.72 14.719C142.62 13.837 143.664 13.162 144.852 12.694C146.058 12.208 147.363 11.965 148.767 11.965C150.171 11.965 151.467 12.208 152.655 12.694C153.861 13.162 154.905 13.828 155.787 14.692C156.669 15.556 157.353 16.573 157.839 17.743C158.343 18.895 158.595 20.164 158.595 21.55C158.595 22.936 158.343 24.214 157.839 25.384C157.353 26.536 156.669 27.544 155.787 28.408C154.905 29.272 153.861 29.947 152.655 30.433C151.467 30.901 150.171 31.135 148.767 31.135ZM148.767 29.866C149.973 29.866 151.089 29.659 152.115 29.245C153.141 28.831 154.032 28.246 154.788 27.49C155.544 26.734 156.129 25.852 156.543 24.844C156.975 23.836 157.191 22.738 157.191 21.55C157.191 20.344 156.975 19.246 156.543 18.256C156.129 17.248 155.544 16.366 154.788 15.61C154.032 14.854 153.141 14.269 152.115 13.855C151.089 13.441 149.973 13.234 148.767 13.234C147.561 13.234 146.445 13.441 145.419 13.855C144.393 14.269 143.493 14.854 142.719 15.61C141.963 16.366 141.369 17.248 140.937 18.256C140.523 19.246 140.316 20.344 140.316 21.55C140.316 22.738 140.523 23.836 140.937 24.844C141.369 25.852 141.963 26.734 142.719 27.49C143.493 28.246 144.393 28.831 145.419 29.245C146.445 29.659 147.561 29.866 148.767 29.866ZM163.371 31V12.1H164.748V29.758H175.629V31H163.371ZM179.165 31V12.1H186.644C188.642 12.1 190.397 12.505 191.909 13.315C193.421 14.125 194.591 15.241 195.419 16.663C196.265 18.085 196.688 19.714 196.688 21.55C196.688 23.386 196.265 25.015 195.419 26.437C194.591 27.859 193.421 28.975 191.909 29.785C190.397 30.595 188.642 31 186.644 31H179.165ZM180.542 29.758H186.536C188.318 29.758 189.866 29.407 191.18 28.705C192.494 28.003 193.511 27.04 194.231 25.816C194.951 24.574 195.311 23.152 195.311 21.55C195.311 19.948 194.951 18.535 194.231 17.311C193.511 16.069 192.494 15.097 191.18 14.395C189.866 13.693 188.318 13.342 186.536 13.342H180.542V29.758Z" fill="white"/>
</svg>
