<svg xmlns="http://www.w3.org/2000/svg" width="59.768" height="51.799" viewBox="0 0 59.768 51.799">
  <path id="film" d="M11.954,47.822V43.838a2.006,2.006,0,0,0-1.992-1.992H5.977a2.006,2.006,0,0,0-1.992,1.992v3.985a2.006,2.006,0,0,0,1.992,1.992H9.961A2.006,2.006,0,0,0,11.954,47.822Zm0-11.954V31.884a2.006,2.006,0,0,0-1.992-1.992H5.977a2.006,2.006,0,0,0-1.992,1.992v3.985a2.006,2.006,0,0,0,1.992,1.992H9.961A2.006,2.006,0,0,0,11.954,35.869Zm0-11.954V19.931a2.006,2.006,0,0,0-1.992-1.992H5.977a2.006,2.006,0,0,0-1.992,1.992v3.985a2.006,2.006,0,0,0,1.992,1.992H9.961A2.006,2.006,0,0,0,11.954,23.915ZM43.83,47.822V31.884a2.006,2.006,0,0,0-1.992-1.992H17.931a2.006,2.006,0,0,0-1.992,1.992V47.822a2.006,2.006,0,0,0,1.992,1.992H41.838A2.006,2.006,0,0,0,43.83,47.822ZM11.954,11.961V7.977A2.006,2.006,0,0,0,9.961,5.985H5.977A2.006,2.006,0,0,0,3.985,7.977v3.985a2.006,2.006,0,0,0,1.992,1.992H9.961A2.006,2.006,0,0,0,11.954,11.961Zm43.83,35.861V43.838a2.006,2.006,0,0,0-1.992-1.992H49.807a2.006,2.006,0,0,0-1.992,1.992v3.985a2.006,2.006,0,0,0,1.992,1.992h3.985A2.006,2.006,0,0,0,55.784,47.822ZM43.83,23.915V7.977a2.006,2.006,0,0,0-1.992-1.992H17.931a2.006,2.006,0,0,0-1.992,1.992V23.915a2.006,2.006,0,0,0,1.992,1.992H41.838A2.006,2.006,0,0,0,43.83,23.915ZM55.784,35.869V31.884a2.006,2.006,0,0,0-1.992-1.992H49.807a2.006,2.006,0,0,0-1.992,1.992v3.985a2.006,2.006,0,0,0,1.992,1.992h3.985A2.006,2.006,0,0,0,55.784,35.869Zm0-11.954V19.931a2.006,2.006,0,0,0-1.992-1.992H49.807a2.006,2.006,0,0,0-1.992,1.992v3.985a2.006,2.006,0,0,0,1.992,1.992h3.985A2.006,2.006,0,0,0,55.784,23.915Zm0-11.954V7.977a2.006,2.006,0,0,0-1.992-1.992H49.807a2.006,2.006,0,0,0-1.992,1.992v3.985a2.006,2.006,0,0,0,1.992,1.992h3.985A2.006,2.006,0,0,0,55.784,11.961Zm3.985-4.981V48.819A5,5,0,0,1,54.788,53.8H4.981A5,5,0,0,1,0,48.819V6.981A5,5,0,0,1,4.981,2H54.788A5,5,0,0,1,59.768,6.981Z" transform="translate(0 -2)" fill="#fff"/>
</svg>
