<svg xmlns="http://www.w3.org/2000/svg" width="63.754" height="63.753" viewBox="0 0 63.754 63.753">
  <path id="food" d="M58.772,41.838H53.411c-.09-.476-.2-.942-.319-1.407l9.561-4.78a1.993,1.993,0,0,0-1.783-3.564l-9.121,4.558a21.885,21.885,0,0,0-41.408,5.192H4.981A4.986,4.986,0,0,0,0,46.819a3.989,3.989,0,0,0,1.006,2.648L7.969,57.3v1.472a4.986,4.986,0,0,0,4.981,4.981H50.8a4.985,4.985,0,0,0,4.981-4.981V57.3l6.961-7.834a3.981,3.981,0,0,0,1.008-2.648A4.985,4.985,0,0,0,58.772,41.838Zm-7.373,0h-1.12l.992-.5c.038.167.092.329.128.5ZM31.876,25.9A19.932,19.932,0,0,1,49.97,37.537l-1.775.887A17.914,17.914,0,0,0,14.4,41.838H12.356A19.955,19.955,0,0,1,31.876,25.9Zm9.117,15.938a9.941,9.941,0,0,0-18.233,0H20.62a11.94,11.94,0,0,1,22.23-.743Zm-9.117-1.992a5.946,5.946,0,0,0-4.423,1.992H25.015a7.9,7.9,0,0,1,13.721,0H36.3A5.931,5.931,0,0,0,31.876,39.846Zm0-7.969a13.964,13.964,0,0,0-13.358,9.961H16.462A15.915,15.915,0,0,1,46.41,39.316l-1.779.889A13.968,13.968,0,0,0,31.876,31.877ZM51.8,55.784v2.988a1,1,0,0,1-1,1H12.95a1,1,0,0,1-1-1V55.784L3.985,46.819a1,1,0,0,1,1-1H58.772a1,1,0,0,1,1,1ZM15.892,23.334c-.014-.028-.024-.054-.036-.084-1.034-2.5-.006-4.945.922-7.154.879-2.1,1.658-3.953.853-5.764,0-.008-.006-.016-.01-.024l-.006-.018a.025.025,0,0,1,0-.012.945.945,0,0,1-.064-.337.975.975,0,0,1,1.885-.353c1.112,2.532.1,5.023-.841,7.266-.873,2.076-1.582,4-.835,5.762a.068.068,0,0,1,0,.04.94.94,0,0,1,.036.249,1,1,0,0,1-1,1,.992.992,0,0,1-.883-.538h0c-.006-.012-.01-.024-.016-.036Zm24.26-.291c-.012-.026-.022-.054-.032-.08-1.034-2.5-.008-4.947.918-7.156.881-2.1,1.658-3.953.853-5.764a.057.057,0,0,0-.008-.024A.157.157,0,0,0,41.876,10V9.989a.992.992,0,0,1-.066-.337A.976.976,0,0,1,43.7,9.3c1.112,2.532.1,5.023-.841,7.266-.873,2.076-1.58,4-.837,5.762a.047.047,0,0,1,0,.04,1.029,1.029,0,0,1,.036.249,1,1,0,0,1-1.887.462h0a.142.142,0,0,0-.016-.036Zm-10.23-8.674c-.014-.028-.024-.054-.038-.082-1.036-2.5-.008-4.947.92-7.156.879-2.1,1.658-3.953.853-5.764,0-.008-.006-.016-.008-.024l-.006-.018a.025.025,0,0,1,0-.012.945.945,0,0,1-.064-.337A.976.976,0,0,1,33.464.626c1.112,2.532.1,5.023-.841,7.266-.873,2.076-1.582,4-.835,5.762a.068.068,0,0,1,0,.04.94.94,0,0,1,.036.249,1,1,0,0,1-1.883.462h0c-.006-.012-.01-.024-.016-.036Z" fill="#fff"/>
</svg>
