<svg xmlns="http://www.w3.org/2000/svg" width="64.895" height="56.399" viewBox="0 0 64.895 56.399">
  <path id="Union_11" data-name="Union 11" d="M4232.25,16236.4a2.249,2.249,0,0,1,0-4.5h4.254v-44.966a6.946,6.946,0,0,1,6.939-6.936h23.43a6.946,6.946,0,0,1,6.936,6.936v14.151h4.78a6.946,6.946,0,0,1,6.935,6.936v11.72a2.437,2.437,0,0,0,4.874,0V16195.9a2.442,2.442,0,0,0-.721-1.724l-5.652-5.652a2.25,2.25,0,0,1,3.183-3.182l5.652,5.651a6.914,6.914,0,0,1,2.037,4.89v23.854a6.935,6.935,0,0,1-13.871,0v-11.72a2.44,2.44,0,0,0-2.437-2.433h-4.78v26.312h5.44a2.249,2.249,0,0,1,0,4.5Zm37.061-4.5v-44.966a2.44,2.44,0,0,0-2.437-2.433h-23.43a2.437,2.437,0,0,0-2.437,2.433v44.966Zm-22.061-26.5a2.25,2.25,0,1,1,0-4.5h15a2.25,2.25,0,1,1,0,4.5Z" transform="translate(-4230.001 -16179.999)" fill="#fff"/>
</svg>
