<svg xmlns="http://www.w3.org/2000/svg" xmlns:xlink="http://www.w3.org/1999/xlink" width="98.971" height="98.971" viewBox="0 0 98.971 98.971">
  <defs>
    <linearGradient id="linear-gradient" x1="0.5" x2="0.5" y2="1" gradientUnits="objectBoundingBox">
      <stop offset="0" stop-color="#3688e7"/>
      <stop offset="1" stop-color="#e91582"/>
    </linearGradient>
  </defs>
  <path id="plane" d="M36.035,1.91A6.173,6.173,0,0,1,42.2,8.076V28.492L69.974,45.85v11.36L42.2,47.836V58.8l5.663,5.636,0,9.391L36.041,69.9,24.331,73.86l.067-9.722,5.3-5.177.036-11.1L1.957,57.405,2.046,45.85,29.832,28.321l.042-20.25a6.159,6.159,0,0,1,6.16-6.16ZM65.974,48.067,38.2,30.709V8.076a2.165,2.165,0,0,0-3.7-1.53,2.135,2.135,0,0,0-.629,1.523v.009L33.828,30.53,6.029,48.067,6,51.786l27.752-9.539-.059,18.4-5.308,5.183-.017,2.437,7.66-2.592,7.833,2.6V66.1L38.2,60.462v-18.2l27.773,9.373Z" transform="translate(-2.735 48.128) rotate(-45)" fill="url(#linear-gradient)"/>
</svg>
