<svg xmlns="http://www.w3.org/2000/svg" xmlns:xlink="http://www.w3.org/1999/xlink" width="79" height="146" viewBox="0 0 79 146">
  <defs>
    <linearGradient id="linear-gradient" x1="0.186" y1="0.204" x2="0.651" y2="0.799" gradientUnits="objectBoundingBox">
      <stop offset="0" stop-color="#60b849"/>
      <stop offset="1" stop-color="#159778"/>
    </linearGradient>
    <clipPath id="clip-path">
      <rect id="Rectangle_1" data-name="Rectangle 1" width="59.035" height="63.14" fill="#fff"/>
    </clipPath>
  </defs>
  <g id="Group_4572" data-name="Group 4572" transform="translate(-168)">
    <rect id="Rectangle_1675" data-name="Rectangle 1675" width="146" height="79" transform="translate(247) rotate(90)" fill="url(#linear-gradient)"/>
    <g id="Group_4537" data-name="Group 4537" transform="translate(178 69.639)">
      <g id="Group_1" data-name="Group 1" transform="translate(0 0)" clip-path="url(#clip-path)">
        <path id="Path_1" data-name="Path 1" d="M58.389,34.838a21.42,21.42,0,0,1,6.341,4.5,22.551,22.551,0,0,1,4.391,5.927c-.746,3-5.715,7.3-11.315,11.091-.013.752-.019,1.452-.019,2.033,0,.711.006,1.384.022,2.1,6.642-3.411,13.851-6.089,17.124-5.147a22.494,22.494,0,0,1,2.936,6.767A21.313,21.313,0,0,1,78.6,69.86a16.6,16.6,0,0,0,4.148,3.933,71.236,71.236,0,0,0,1.289-13.381,70.307,70.307,0,0,0-1.8-16,70.073,70.073,0,0,0-12.951-9.566,71.176,71.176,0,0,0-12.224-5.568,16.586,16.586,0,0,0,1.331,5.557m-18.636.011A70.091,70.091,0,0,0,26.8,44.415a70.462,70.462,0,0,0-1.8,16,71.234,71.234,0,0,0,1.289,13.381,16.592,16.592,0,0,0,4.147-3.933,21.386,21.386,0,0,1,.729-7.746A22.576,22.576,0,0,1,34.1,55.347c3.276-.942,10.485,1.736,17.126,5.147.017-.717.023-1.39.023-2.1,0-.58-.007-1.28-.02-2.033-5.6-3.795-10.568-8.089-11.314-11.091a22.573,22.573,0,0,1,4.391-5.927,21.431,21.431,0,0,1,6.342-4.5,16.529,16.529,0,0,0,1.33-5.557,71.218,71.218,0,0,0-12.225,5.568m9.782,7.077a4.987,4.987,0,0,0,2.436,4.288c-2.8.213-1.426,3.757.594,3.719.213,1.859.324,6.121.324,8.467,0,8.7-1.2,19.342-4.189,22.222a22.33,22.33,0,0,1-7.325-.84,21.345,21.345,0,0,1-7.069-3.236,16.485,16.485,0,0,0-5.477,1.623,70.859,70.859,0,0,0,10.932,7.806,72.922,72.922,0,0,0,14.756,6.447,74.2,74.2,0,0,0,14.757-6.447,71,71,0,0,0,10.932-7.806,16.5,16.5,0,0,0-5.477-1.623,21.349,21.349,0,0,1-7.069,3.24,22.5,22.5,0,0,1-7.326.839C57.345,77.742,56.146,67.1,56.146,58.4c0-2.345.11-6.6.325-8.467,2.018.039,3.391-3.506.593-3.719a4.985,4.985,0,1,0-7.529-4.288m2.682,0a2.3,2.3,0,1,1,2.3,2.3,2.295,2.295,0,0,1-2.3-2.3m5.756,22.422c1.758,1.074,3.648,2.275,4.629,3.007-1.044,1.728,1.34,4.686,2.922,2.373a4.986,4.986,0,1,0,2.545-4.411c1.215-2.531-2.539-3.116-3.514-1.347-1.525-.66-4.644-2.281-6.745-3.469.027,1.307.082,2.561.163,3.847m11.385,7.309a2.3,2.3,0,1,1,1.152.308,2.305,2.305,0,0,1-1.152-.308M44.482,63.97c-.976-1.77-4.73-1.185-3.515,1.347a4.984,4.984,0,1,0,2.545,4.411c1.585,2.314,3.969-.645,2.924-2.373.98-.731,2.87-1.933,4.629-3.007.081-1.286.136-2.541.163-3.847-2.1,1.188-5.221,2.809-6.745,3.469m-7.946,6.845a2.3,2.3,0,1,1,1.99,1.151,2.294,2.294,0,0,1-1.99-1.151" transform="translate(-25 -29.281)" fill="#fff"/>
      </g>
    </g>
  </g>
</svg>
