<svg xmlns="http://www.w3.org/2000/svg" xmlns:xlink="http://www.w3.org/1999/xlink" width="134.718" height="133.734" viewBox="0 0 134.718 133.734">
  <defs>
    <linearGradient id="linear-gradient" x1="0.5" x2="0.5" y2="0.752" gradientUnits="objectBoundingBox">
      <stop offset="0" stop-color="#f0edda"/>
      <stop offset="1" stop-color="#fff"/>
    </linearGradient>
  </defs>
  <g id="Group_5328" data-name="Group 5328" transform="translate(-254.315 -1494.39)">
    <path id="Path_24542" data-name="Path 24542" d="M65.169,100.859a9.449,9.449,0,0,1-9.439-9.344V90.027L54.4,89.686a6.57,6.57,0,0,1-4.943-6.359,6.5,6.5,0,0,1,1.454-4.111l1.36-1.693-1.937-.987a6.108,6.108,0,0,1-3.365-5.459,6.323,6.323,0,0,1,3.287-5.437l1.958-1.109-1.541-1.64a7.176,7.176,0,0,1,3.542-11.908l2.361-.574-1.273-2.07a6.329,6.329,0,0,1-.945-3.318,6.409,6.409,0,0,1,5.8-6.339l1.379-.124.211-1.369A9.431,9.431,0,0,1,80.5,38.628V91.42a9.449,9.449,0,0,1-9.439,9.438Z" transform="translate(239.689 1485.301)" fill="#a9d893"/>
    <path id="Path_24543" data-name="Path 24543" d="M70.754,101.235h-5.9A10.161,10.161,0,0,1,54.73,91.209v-.961l-.809-.208a7.26,7.26,0,0,1-5.46-7.026,7.186,7.186,0,0,1,1.605-4.542l.83-1.033-1.183-.6a6.791,6.791,0,0,1-3.741-6.073,7.013,7.013,0,0,1,3.636-6.036l1.2-.677-.941-1A7.866,7.866,0,0,1,53.745,50l1.441-.35-.777-1.264a7.02,7.02,0,0,1-1.048-3.679,7.1,7.1,0,0,1,6.43-7.025l.841-.076.129-.836a10.119,10.119,0,0,1,20.121,1.543V91.108a10.139,10.139,0,0,1-10.128,10.127m0-71.669a8.8,8.8,0,0,0-8.632,7.415l-.293,1.9-1.915.172a5.717,5.717,0,0,0-5.176,5.654,5.639,5.639,0,0,0,.844,2.957l1.77,2.877-3.281.8a6.488,6.488,0,0,0-3.2,10.767l2.142,2.279-2.721,1.54a5.635,5.635,0,0,0-2.937,4.838,5.419,5.419,0,0,0,2.989,4.845l2.693,1.373L51.14,79.335a5.818,5.818,0,0,0-1.3,3.679,5.882,5.882,0,0,0,4.426,5.692l1.843.474V91.2a8.777,8.777,0,0,0,8.75,8.655h5.9a8.76,8.76,0,0,0,8.75-8.75V38.315a8.76,8.76,0,0,0-8.75-8.749" transform="translate(240 1485.613)" fill="#2c5871"/>
    <path id="Path_24544" data-name="Path 24544" d="M78.756,49.743a.688.688,0,0,1-.689-.689A5.46,5.46,0,0,0,72.613,43.6H66.638a.689.689,0,1,1,0-1.377h5.976a6.839,6.839,0,0,1,6.831,6.83.688.688,0,0,1-.689.689" transform="translate(233.78 1481.243)" fill="#2c5871"/>
    <path id="Path_24545" data-name="Path 24545" d="M74.816,101.11h-5.9c-5.645,0-9.9-4.631-9.9-10.771a.689.689,0,1,1,1.377,0c0,5.355,3.665,9.394,8.524,9.394h5.9a8.534,8.534,0,0,0,8.526-8.524V38.416a8.525,8.525,0,1,0-17.05,0,.689.689,0,1,1-1.377,0,9.9,9.9,0,1,1,19.8,0V91.209a9.913,9.913,0,0,1-9.9,9.9" transform="translate(235.938 1485.512)" fill="#2c5871"/>
    <path id="Path_24546" data-name="Path 24546" d="M63.859,55.92a6.831,6.831,0,1,1,0-13.662h1.286a.689.689,0,0,1,0,1.377H63.859a5.454,5.454,0,1,0,0,10.907.689.689,0,1,1,0,1.377" transform="translate(236.558 1481.232)" fill="#2c5871"/>
    <path id="Path_24547" data-name="Path 24547" d="M56.49,75.178h-.161a7.661,7.661,0,0,1,.161-15.32h2.99a.689.689,0,0,1,0,1.377H56.49a6.283,6.283,0,0,0,0,12.567.689.689,0,1,1,0,1.377" transform="translate(239.11 1475.752)" fill="#2c5871"/>
    <path id="Path_24548" data-name="Path 24548" d="M67.412,111.662H56.953a7.039,7.039,0,0,1,0-14.078.689.689,0,0,1,0,1.377,5.662,5.662,0,0,0,0,11.324H67.412a.689.689,0,1,1,0,1.377" transform="translate(238.772 1464.005)" fill="#2c5871"/>
    <path id="Path_24549" data-name="Path 24549" d="M59.016,93.557H52.89A6.6,6.6,0,0,1,46.3,86.968a6.988,6.988,0,0,1,6.877-6.74H56.2a.689.689,0,1,1,0,1.377H53.176a5.575,5.575,0,0,0-5.5,5.363A5.219,5.219,0,0,0,52.89,92.18h6.125a.689.689,0,0,1,0,1.377" transform="translate(239.898 1469.409)" fill="#2c5871"/>
    <path id="Path_24550" data-name="Path 24550" d="M73.316,99.045H60.37a.689.689,0,0,1,0-1.377H73.316a3.3,3.3,0,0,0,3.3-3.294V82.007a3.3,3.3,0,0,0-3.3-3.3.689.689,0,0,1,0-1.377,4.679,4.679,0,0,1,4.672,4.674V94.374a4.677,4.677,0,0,1-4.672,4.671" transform="translate(235.731 1470.311)" fill="#2c5871"/>
    <path id="Path_24551" data-name="Path 24551" d="M79.353,116.922a.689.689,0,0,1,0-1.377,3.175,3.175,0,0,0,3.17-3.171v-13.2a.689.689,0,0,1,1.377,0v13.2a4.553,4.553,0,0,1-4.548,4.548" transform="translate(229.82 1463.723)" fill="#2c5871"/>
    <path id="Path_24552" data-name="Path 24552" d="M67.3,65.537H59.165a.689.689,0,0,1,0-1.377H67.3a2.3,2.3,0,0,0,2.3-2.3V53.891a2.3,2.3,0,0,0-2.3-2.3H65.14a.689.689,0,0,1,0-1.377H67.3a3.681,3.681,0,0,1,3.677,3.677v7.969A3.682,3.682,0,0,1,67.3,65.537" transform="translate(236.106 1478.755)" fill="#2c5871"/>
    <path id="Path_24553" data-name="Path 24553" d="M82.128,64.8a.688.688,0,0,1-.689-.689,2.3,2.3,0,0,0-2.3-2.3H76.064a.689.689,0,1,1,0-1.377h3.075a3.683,3.683,0,0,1,3.679,3.679.688.688,0,0,1-.689.689" transform="translate(230.845 1475.573)" fill="#2c5871"/>
    <path id="Path_24554" data-name="Path 24554" d="M73.939,89.084H59.166a.689.689,0,1,1,0-1.377H73.939a2.3,2.3,0,0,0,2.3-2.3v-1a.689.689,0,1,1,1.377,0v1a3.683,3.683,0,0,1-3.679,3.679" transform="translate(236.106 1468.321)" fill="#2c5871"/>
    <path id="Path_24555" data-name="Path 24555" d="M75.169,104.869a.688.688,0,0,1-.689-.689V101.11a2.3,2.3,0,0,0-2.3-2.3.689.689,0,0,1,0-1.377,3.681,3.681,0,0,1,3.677,3.677v3.071a.688.688,0,0,1-.689.689" transform="translate(232.054 1464.052)" fill="#2c5871"/>
    <path id="Path_24556" data-name="Path 24556" d="M71.314,87.752a.688.688,0,0,1-.689-.689V83.995a2.3,2.3,0,0,0-2.3-2.3.689.689,0,0,1,0-1.377A3.684,3.684,0,0,1,72,83.995v3.069a.689.689,0,0,1-.689.689" transform="translate(233.255 1469.382)" fill="#2c5871"/>
    <path id="Path_24557" data-name="Path 24557" d="M66.88,129.047a.688.688,0,0,1-.689-.689,3.681,3.681,0,0,1,3.677-3.677.689.689,0,1,1,0,1.377,2.3,2.3,0,0,0-2.3,2.3.688.688,0,0,1-.689.689" transform="translate(233.704 1455.567)" fill="#2c5871"/>
    <path id="Path_24558" data-name="Path 24558" d="M115.207,100.859a9.448,9.448,0,0,0,9.439-9.344V90.027l1.326-.341a6.556,6.556,0,0,0,3.491-10.47L128.1,77.523l1.937-.987a6.107,6.107,0,0,0,3.364-5.459,6.32,6.32,0,0,0-3.287-5.437l-1.957-1.109,1.542-1.64a7.176,7.176,0,0,0-3.543-11.908l-2.36-.574,1.272-2.07a6.329,6.329,0,0,0,.945-3.318,6.408,6.408,0,0,0-5.8-6.339l-1.378-.124-.211-1.369a9.431,9.431,0,0,0-18.752,1.439V91.42a9.449,9.449,0,0,0,9.438,9.438Z" transform="translate(223.216 1485.301)" fill="#a9d893"/>
    <path id="Path_24559" data-name="Path 24559" d="M114.9,101.235H109A10.138,10.138,0,0,1,98.873,91.108V38.315a10.119,10.119,0,0,1,20.121-1.543l.129.836.842.076a7.1,7.1,0,0,1,6.428,7.025,7.019,7.019,0,0,1-1.048,3.679l-.777,1.264,1.441.35A7.865,7.865,0,0,1,129.89,63.05l-.941,1,1.193.676a7.01,7.01,0,0,1,3.637,6.036,6.789,6.789,0,0,1-3.74,6.073l-1.182.6.83,1.034a7.244,7.244,0,0,1-3.856,11.568l-.809.208V91.2A10.16,10.16,0,0,1,114.9,101.235M109,29.566a8.759,8.759,0,0,0-8.749,8.749V91.108A8.759,8.759,0,0,0,109,99.858h5.9a8.777,8.777,0,0,0,8.75-8.662V89.181l1.843-.474a5.867,5.867,0,0,0,3.125-9.372l-1.891-2.352,2.692-1.373a5.419,5.419,0,0,0,2.988-4.846,5.634,5.634,0,0,0-2.938-4.838l-2.721-1.54,2.144-2.279a6.487,6.487,0,0,0-3.2-10.767l-3.28-.8,1.768-2.876a5.643,5.643,0,0,0,.844-2.958,5.716,5.716,0,0,0-5.174-5.654l-1.916-.172-.293-1.9A8.8,8.8,0,0,0,109,29.566" transform="translate(223.528 1485.613)" fill="#2c5871"/>
    <path id="Path_24560" data-name="Path 24560" d="M110.68,49.9a.688.688,0,0,1-.689-.689,6.839,6.839,0,0,1,6.831-6.83H122.8a.689.689,0,1,1,0,1.377h-5.976a5.46,5.46,0,0,0-5.454,5.453.688.688,0,0,1-.689.689" transform="translate(220.066 1481.195)" fill="#2c5871"/>
    <path id="Path_24561" data-name="Path 24561" d="M115,101.11h-5.9a9.913,9.913,0,0,1-9.9-9.9V38.416a9.9,9.9,0,1,1,19.8,0,.689.689,0,1,1-1.377,0,8.525,8.525,0,1,0-17.05,0V91.209a8.534,8.534,0,0,0,8.525,8.524H115c4.86,0,8.525-4.039,8.525-9.394a.689.689,0,1,1,1.377,0c0,6.14-4.257,10.771-9.9,10.771" transform="translate(223.427 1485.512)" fill="#2c5871"/>
    <path id="Path_24562" data-name="Path 24562" d="M127.7,55.92a.689.689,0,1,1,0-1.377,5.454,5.454,0,1,0,0-10.907h-1.285a.689.689,0,1,1,0-1.377H127.7a6.831,6.831,0,1,1,0,13.662" transform="translate(215.167 1481.232)" fill="#2c5871"/>
    <path id="Path_24563" data-name="Path 24563" d="M134.036,75.178h-.114a.689.689,0,1,1,0-1.377,6.283,6.283,0,1,0,0-12.567h-2.989a.689.689,0,0,1,0-1.377h2.989a7.661,7.661,0,0,1,.163,15.32h-.049" transform="translate(213.759 1475.752)" fill="#2c5871"/>
    <path id="Path_24564" data-name="Path 24564" d="M130.361,111.662H119.9a.689.689,0,1,1,0-1.377h10.458a5.662,5.662,0,0,0,0-11.324.689.689,0,0,1,0-1.377,7.039,7.039,0,1,1,0,14.078" transform="translate(217.194 1464.005)" fill="#2c5871"/>
    <path id="Path_24565" data-name="Path 24565" d="M136.587,93.557h-6.125a.689.689,0,0,1,0-1.377h6.125a5.218,5.218,0,0,0,5.214-5.211,5.574,5.574,0,0,0-5.5-5.363h-3.026a.689.689,0,0,1,0-1.377H136.3a6.988,6.988,0,0,1,6.877,6.74,6.6,6.6,0,0,1-6.591,6.589" transform="translate(213.906 1469.409)" fill="#2c5871"/>
    <path id="Path_24566" data-name="Path 24566" d="M126.889,99.045H113.943a4.678,4.678,0,0,1-4.674-4.671V82.007a4.679,4.679,0,0,1,4.674-4.674.689.689,0,1,1,0,1.377,3.3,3.3,0,0,0-3.3,3.3V94.374a3.3,3.3,0,0,0,3.3,3.294h12.946a.689.689,0,1,1,0,1.377" transform="translate(220.291 1470.311)" fill="#2c5871"/>
    <path id="Path_24567" data-name="Path 24567" d="M113.817,116.922a4.553,4.553,0,0,1-4.548-4.548v-13.2a.689.689,0,0,1,1.377,0v13.2a3.175,3.175,0,0,0,3.17,3.171.689.689,0,1,1,0,1.377" transform="translate(220.291 1463.723)" fill="#2c5871"/>
    <path id="Path_24568" data-name="Path 24568" d="M130.722,65.537h-8.134a3.682,3.682,0,0,1-3.677-3.678V53.891a3.681,3.681,0,0,1,3.677-3.677h2.156a.689.689,0,0,1,0,1.377h-2.156a2.3,2.3,0,0,0-2.3,2.3v7.969a2.3,2.3,0,0,0,2.3,2.3h8.134a.689.689,0,0,1,0,1.377" transform="translate(217.288 1478.755)" fill="#2c5871"/>
    <path id="Path_24569" data-name="Path 24569" d="M110.046,64.8a.688.688,0,0,1-.689-.689,3.682,3.682,0,0,1,3.678-3.679h3.075a.689.689,0,1,1,0,1.377h-3.075a2.3,2.3,0,0,0-2.3,2.3.688.688,0,0,1-.689.689" transform="translate(220.263 1475.573)" fill="#2c5871"/>
    <path id="Path_24570" data-name="Path 24570" d="M127.719,89.084H112.944a3.682,3.682,0,0,1-3.677-3.679v-1a.689.689,0,0,1,1.377,0v1a2.3,2.3,0,0,0,2.3,2.3h14.775a.689.689,0,1,1,0,1.377" transform="translate(220.291 1468.321)" fill="#2c5871"/>
    <path id="Path_24571" data-name="Path 24571" d="M118.394,104.869a.688.688,0,0,1-.689-.689V101.11a3.682,3.682,0,0,1,3.678-3.677.689.689,0,0,1,0,1.377,2.3,2.3,0,0,0-2.3,2.3v3.071a.688.688,0,0,1-.689.689" transform="translate(217.664 1464.052)" fill="#2c5871"/>
    <path id="Path_24572" data-name="Path 24572" d="M122.25,87.752a.688.688,0,0,1-.689-.689V83.995a3.683,3.683,0,0,1,3.679-3.679.689.689,0,0,1,0,1.377,2.3,2.3,0,0,0-2.3,2.3v3.069a.689.689,0,0,1-.689.689" transform="translate(216.463 1469.382)" fill="#2c5871"/>
    <path id="Path_24573" data-name="Path 24573" d="M126.684,129.047a.688.688,0,0,1-.689-.689,2.3,2.3,0,0,0-2.3-2.3.689.689,0,1,1,0-1.377,3.682,3.682,0,0,1,3.678,3.677.688.688,0,0,1-.689.689" transform="translate(216.013 1455.567)" fill="#2c5871"/>
    <path id="Path_24574" data-name="Path 24574" d="M47.6,90.385c-.069.9-.116,1.8-.116,2.71,0,1.133.828,17.156,13.884,33.968,3.825,5.076,3.2,15.278,3.162,15.278H99.843c-.036,0-.733-10.2,3.075-15.278C115.993,110.23,116.8,94.229,116.8,93.1c0-.914-.045-1.814-.115-2.71Z" transform="translate(239.53 1466.246)" fill="url(#linear-gradient)"/>
    <path id="Path_24575" data-name="Path 24575" d="M99.531,142.719H64.217v-.689l-.68-.1c.01-.094.636-9.9-3.033-14.763C46.864,109.6,46.482,92.947,46.482,92.783c0-.835.039-1.738.118-2.763l.049-.636h70.367l.049.636c.078,1.018.117,1.922.117,2.763,0,.164-.382,16.818-14.032,34.391-3.323,4.43-3.09,13.529-2.94,14.749l-.679.107Zm-34.6-1.377H98.814c-.147-2.777-.031-10.642,3.241-15,13.376-17.219,13.75-33.4,13.75-33.555,0-.627-.022-1.293-.068-2.021H47.928c-.047.734-.069,1.388-.069,2.021,0,.158.374,16.335,13.739,33.546,3.305,4.386,3.463,12.24,3.331,15.013" transform="translate(239.841 1466.558)" fill="#0a5d49"/>
    <path id="Path_24576" data-name="Path 24576" d="M107.563,172.922H70.843a.689.689,0,1,1,0-1.377h36.72a.689.689,0,1,1,0,1.377" transform="translate(232.47 1440.975)" fill="#0a5d49"/>
    <path id="Path_24577" data-name="Path 24577" d="M107.563,179.52H70.843a.689.689,0,1,1,0-1.377h36.72a.689.689,0,1,1,0,1.377" transform="translate(232.47 1438.92)" fill="#0a5d49"/>
    <path id="Path_24578" data-name="Path 24578" d="M107.563,186.123H70.843a.689.689,0,1,1,0-1.377h36.72a.689.689,0,1,1,0,1.377" transform="translate(232.47 1436.864)" fill="#0a5d49"/>
    <path id="Path_24579" data-name="Path 24579" d="M105.128,193.582H77.292a.689.689,0,0,1,0-1.377h27.837a.689.689,0,1,1,0,1.377" transform="translate(230.462 1434.542)" fill="#0a5d49"/>
    <rect id="Rectangle_2664" data-name="Rectangle 2664" width="1.377" height="36.318" transform="translate(309 1571.956) rotate(-9.389)" fill="#0a5d49"/>
    <rect id="Rectangle_2665" data-name="Rectangle 2665" width="36.318" height="1.377" transform="matrix(0.163, -0.987, 0.987, 0.163, 327.066, 1607.563)" fill="#0a5d49"/>
    <path id="Path_24580" data-name="Path 24580" d="M100.827,120.8c-1.169,0-1.67-1.124-2.072-2.027-.228-.511-.538-1.21-.813-1.21s-.583.7-.809,1.209c-.4.9-.9,2.028-2.069,2.028s-1.666-1.125-2.069-2.028c-.227-.51-.538-1.209-.81-1.209s-.583.7-.809,1.209c-.4.9-.9,2.027-2.068,2.027s-1.666-1.125-2.067-2.028c-.227-.51-.537-1.209-.807-1.209s-.581.7-.806,1.209c-.4.9-.9,2.028-2.064,2.028s-1.666-1.124-2.068-2.027c-.226-.51-.537-1.209-.808-1.209v-1.377c1.167,0,1.665,1.124,2.067,2.027.227.51.537,1.209.809,1.209s.578-.7.806-1.209c.4-.9.9-2.028,2.064-2.028s1.665,1.124,2.067,2.027c.226.51.537,1.21.808,1.21s.583-.7.81-1.209c.4-.9.9-2.027,2.067-2.027s1.666,1.124,2.068,2.027c.227.51.538,1.21.811,1.21s.584-.7.811-1.21c.4-.9.9-2.027,2.067-2.027s1.669,1.124,2.071,2.027c.229.51.54,1.21.815,1.21s.585-.7.813-1.21c.4-.9.9-2.027,2.069-2.027v1.377c-.273,0-.585.7-.813,1.209-.4.9-.9,2.027-2.07,2.027" transform="translate(229.19 1458.212)" fill="#0a5d49"/>
    <path id="Path_24581" data-name="Path 24581" d="M97.507,14.5a.688.688,0,0,1-.689-.689V.688a.689.689,0,0,1,1.377,0V13.811a.688.688,0,0,1-.689.689" transform="translate(224.167 1494.391)" fill="#0a5d49"/>
    <path id="Path_24582" data-name="Path 24582" d="M188.39,98.194H175.265a.689.689,0,0,1,0-1.377H188.39a.689.689,0,0,1,0,1.377" transform="translate(199.955 1464.244)" fill="#0a5d49"/>
    <path id="Path_24583" data-name="Path 24583" d="M13.813,98.194H.689a.689.689,0,1,1,0-1.377H13.813a.689.689,0,1,1,0,1.377" transform="translate(254.315 1464.244)" fill="#0a5d49"/>
    <path id="Path_24584" data-name="Path 24584" d="M152.492,39.013A.689.689,0,0,1,152,37.837l9.281-9.279a.689.689,0,1,1,.974.974l-9.281,9.279a.687.687,0,0,1-.487.2" transform="translate(207.046 1485.561)" fill="#0a5d49"/>
    <path id="Path_24585" data-name="Path 24585" d="M29.046,162.459a.689.689,0,0,1-.487-1.175L37.839,152a.689.689,0,0,1,.974.974l-9.281,9.279a.687.687,0,0,1-.487.2" transform="translate(245.485 1447.122)" fill="#0a5d49"/>
    <path id="Path_24586" data-name="Path 24586" d="M161.771,162.459a.687.687,0,0,1-.487-.2L152,152.978a.689.689,0,0,1,.974-.974l9.281,9.279a.689.689,0,0,1-.487,1.175" transform="translate(207.046 1447.122)" fill="#0a5d49"/>
    <path id="Path_24587" data-name="Path 24587" d="M38.326,39.013a.687.687,0,0,1-.487-.2l-9.281-9.279a.689.689,0,0,1,.974-.974l9.281,9.279a.689.689,0,0,1-.487,1.175" transform="translate(245.485 1485.561)" fill="#0a5d49"/>
  </g>
</svg>
