<svg width="76" height="76" viewBox="0 0 76 76" fill="none" xmlns="http://www.w3.org/2000/svg">
<circle cx="38" cy="38" r="38" fill="url(#paint0_linear_140_2)"/>
<path d="M46.6569 31.973C45.9029 31.973 45.3036 32.1567 44.8589 32.524C44.4336 32.872 44.2209 33.3457 44.2209 33.945C44.2209 34.525 44.4819 34.989 45.0039 35.337C45.5452 35.685 46.7729 36.1007 48.6869 36.584C50.6202 37.048 52.1186 37.7537 53.1819 38.701C54.2452 39.6483 54.7769 41.0307 54.7769 42.848C54.7769 44.6653 54.0906 46.1443 52.7179 47.285C51.3646 48.4063 49.5762 48.967 47.3529 48.967C44.1436 48.967 41.2532 47.778 38.6819 45.4L41.3789 42.094C43.5636 44.008 45.5839 44.965 47.4399 44.965C48.2712 44.965 48.9189 44.791 49.3829 44.443C49.8662 44.0757 50.1079 43.5923 50.1079 42.993C50.1079 42.3743 49.8566 41.891 49.3539 41.543C48.8512 41.1757 47.8556 40.8083 46.3669 40.441C44.0082 39.8803 42.2779 39.1553 41.1759 38.266C40.0932 37.3573 39.5519 35.946 39.5519 34.032C39.5519 32.0987 40.2382 30.61 41.6109 29.566C43.0029 28.522 44.7332 28 46.8019 28C48.1552 28 49.5086 28.232 50.8619 28.696C52.2152 29.16 53.3946 29.8173 54.3999 30.668L52.1089 33.974C50.3495 32.64 48.5322 31.973 46.6569 31.973Z" fill="#F7F7F7"/>
<path d="M29.063 41.3689L34.225 28.4639H39.126L30.977 48.7349H27.149L19 28.4639H23.901L29.063 41.3689Z" fill="#F7F7F7"/>
<defs>
<linearGradient id="paint0_linear_140_2" x1="16.5" y1="38" x2="62" y2="38" gradientUnits="userSpaceOnUse">
<stop stop-color="#019778"/>
<stop offset="1" stop-color="#51B949"/>
</linearGradient>
</defs>
</svg>
