<svg xmlns="http://www.w3.org/2000/svg" width="143.348" height="116.448" viewBox="0 0 143.348 116.448">
  <g id="Group_5281" data-name="Group 5281" transform="translate(-5725.279 955)">
    <path id="Subtraction_36" data-name="Subtraction 36" d="M124.385,16.888H.833A.795.795,0,0,1,.045,16a4.818,4.818,0,0,1,1.574-3.085A4.97,4.97,0,0,1,0,9.148,4.962,4.962,0,0,1,1.619,5.379,4.818,4.818,0,0,1,.045,2.3a.795.795,0,0,1,.788-.892H31.959a2.711,2.711,0,0,0-.349,1.33v.258H1.84A2.351,2.351,0,0,0,3.455,4.577H31.611V6.166H3.55l-.033.006C2.438,6.34,1.59,7.646,1.588,9.147s.85,2.8,1.928,2.973l.037.006H32.9a2.8,2.8,0,0,0,2.971,0H38.15a2.808,2.808,0,0,0,2.973,0h2.282a2.8,2.8,0,0,0,2.971,0H76.1a2.806,2.806,0,0,0,2.969,0h2.285a2.8,2.8,0,0,0,2.968,0H86.6a2.806,2.806,0,0,0,2.969,0h34.019l0-5.961H90.86V4.577h32.729l0-1.585H90.86V2.736a2.719,2.719,0,0,0-.35-1.331h33.876a.8.8,0,0,1,.795.8l0,3.119c0,.017,0,.035,0,.052v7.55c0,.013,0,.025,0,.037v3.136a.8.8,0,0,1-.232.561A.789.789,0,0,1,124.385,16.888ZM3.455,13.714A2.351,2.351,0,0,0,1.839,15.3H123.591V13.715H3.455ZM74.806,6.166H47.664V4.577H74.806V6.165Zm0-3.172H47.665V2.736a2.706,2.706,0,0,0-.349-1.33H75.155a2.707,2.707,0,0,0-.349,1.331v.257ZM42.263,1.86v0a2.7,2.7,0,0,0-.2-.452h.408a2.7,2.7,0,0,0-.2.452Zm43.2,0v0a2.7,2.7,0,0,0-.2-.453h.409a2.756,2.756,0,0,0-.2.453Zm-48.451,0v0a2.713,2.713,0,0,0-.2-.45h.407a2.693,2.693,0,0,0-.2.45Zm43.2,0v0A2.77,2.77,0,0,0,80,1.4h.408a2.8,2.8,0,0,0-.2.451Z" transform="translate(5740.146 -855.939)" fill="#fff" stroke="rgba(0,0,0,0)" stroke-miterlimit="10" stroke-width="1"/>
    <path id="Path_24453" data-name="Path 24453" d="M15.7,148.9a.791.791,0,0,1-.336-.075L.458,141.872a.795.795,0,0,1,0-1.44l14.9-6.955a.795.795,0,0,1,1.125.624,2.671,2.671,0,0,0,1.88,2.49.8.8,0,0,1,.016,1.586c-1.08.168-1.927,1.475-1.929,2.975s.849,2.8,1.926,2.972a.8.8,0,0,1-.044,1.592,2.685,2.685,0,0,0-1.849,2.484.794.794,0,0,1-.788.7M2.673,141.152l12.469,5.817a4.563,4.563,0,0,1,1.343-2.052,5.189,5.189,0,0,1,0-7.532,4.573,4.573,0,0,1-1.343-2.053Z" transform="translate(5725.279 -987.945)" fill="#fff"/>
    <path id="Path_24454" data-name="Path 24454" d="M7.881,146.448a.794.794,0,0,1-.336-.075L.459,143.068a.794.794,0,0,1,0-1.44l7.086-3.307a.792.792,0,0,1,1.078.438,10.072,10.072,0,0,1,.683,3.59,10.088,10.088,0,0,1-.683,3.588.794.794,0,0,1-.443.454.8.8,0,0,1-.3.058m-5.209-4.1,4.734,2.209a8.212,8.212,0,0,0,.31-2.209,8.219,8.219,0,0,0-.31-2.209Z" transform="translate(5725.279 -989.141)" fill="#fff"/>
    <path id="Path_24455" data-name="Path 24455" d="M187.972,138.176h0l-3.262,0a.794.794,0,0,1-.794-.794v-3.174a.793.793,0,0,1,.794-.794h0l3.259,0a.8.8,0,0,1,.794.793l0,3.173a.794.794,0,0,1-.794.8m-2.468-1.59h1.673l0-1.585H185.5Z" transform="translate(5679.861 -987.947)" fill="#fff"/>
    <path id="Path_24456" data-name="Path 24456" d="M187.969,146.763H184.71a.794.794,0,0,1-.794-.794V138.42a.794.794,0,0,1,.794-.794h3.262a.8.8,0,0,1,.794.794l0,7.548a.794.794,0,0,1-.794.794m-2.465-1.589h1.672l0-5.959H185.5Z" transform="translate(5679.861 -988.988)" fill="#fff"/>
    <path id="Path_24457" data-name="Path 24457" d="M187.972,152.411H184.71a.794.794,0,0,1-.794-.794v-3.173a.794.794,0,0,1,.794-.794h3.259a.8.8,0,0,1,.794.794l0,3.172a.794.794,0,0,1-.794.794m-2.468-1.588h1.673l0-1.584H185.5Z" transform="translate(5679.861 -991.463)" fill="#fff"/>
    <path id="Subtraction_29" data-name="Subtraction 29" d="M44.329,84.959A44.347,44.347,0,0,1,1.091,30.895a22.047,22.047,0,0,0,1.028,2.579,42.813,42.813,0,1,0,85.021,7.17,43.06,43.06,0,0,0-.6-7.171,22.125,22.125,0,0,0,1.029-2.58,44.348,44.348,0,0,1-43.24,54.067ZM60.241.9h0c-.8-.32-1.62-.622-2.447-.9H62c.182.079.376.166.652.291-.816.173-1.626.376-2.407.606ZM28.42.9h0C27.655.67,26.845.466,26.014.291l.054-.026.6-.264h4.2c-.8.265-1.62.565-2.446.9Z" transform="translate(5757.052 -941.594)" fill="#fff" stroke="rgba(0,0,0,0)" stroke-miterlimit="10" stroke-width="1"/>
    <path id="Subtraction_28" data-name="Subtraction 28" d="M31,81.026h0l-.762-.254A44.365,44.365,0,0,1,1.092,29,22.058,22.058,0,0,0,2.12,31.576,43.073,43.073,0,0,0,3.566,51.856,42.734,42.734,0,0,0,29.951,79.078a43.079,43.079,0,0,0,1.211-10.156A42.856,42.856,0,0,0,29.113,55.8a42.725,42.725,0,0,0-5.79-11.6c.568-.031,1.147-.084,1.72-.16a44.18,44.18,0,0,1,7.625,24.882,44.482,44.482,0,0,1-1.462,11.326l-.2.777Z" transform="translate(5757.052 -939.696)" fill="#fff" stroke="rgba(0,0,0,0)" stroke-miterlimit="10" stroke-width="1"/>
    <path id="Subtraction_25" data-name="Subtraction 25" d="M13.23,81.026h0l-.2-.777A44.471,44.471,0,0,1,19.189,44.04c.566.075,1.145.129,1.721.16a42.968,42.968,0,0,0-6.627,34.878A42.746,42.746,0,0,0,25.914,72.77a42.7,42.7,0,0,0,8.975-9.324,42.719,42.719,0,0,0,5.78-11.591,42.852,42.852,0,0,0,2.046-13.11,43.14,43.14,0,0,0-.6-7.165A22.055,22.055,0,0,0,43.141,29a44.577,44.577,0,0,1,1.079,9.741A44.269,44.269,0,0,1,13.993,80.771l-.762.254Z" transform="translate(5801.476 -939.696)" fill="#fff" stroke="rgba(0,0,0,0)" stroke-miterlimit="10" stroke-width="1"/>
    <path id="Path_24465" data-name="Path 24465" d="M26.611,22.539l-1.484-.222,1.133-17.4h2.392l1.13,17.4-1.484.222-.843-3.551Zm.465-6.984h.759l-.379-5.841Z" transform="translate(5719.074 -956.215)" fill="#fff"/>
    <path id="Path_24466" data-name="Path 24466" d="M140.164,5.4H23.788V0H140.164ZM25.294,3.894H138.658V1.506H25.294Z" transform="translate(5719.405 -955)" fill="#fff"/>
    <path id="Path_24468" data-name="Path 24468" d="M116.816,15.437H69.924L72.435,5.17H114.3l.14.574q1.075,4.378,2.144,8.762ZM71.843,13.931H114.9q-.886-3.628-1.775-7.255H73.617Z" transform="translate(5708.011 -956.277)" fill="#fff"/>
    <path id="Path_24470" data-name="Path 24470" d="M64.244,144.6a3.511,3.511,0,0,1-3.525-3.488v-7.08a3.526,3.526,0,0,1,7.051,0v7.08a3.511,3.511,0,0,1-3.526,3.488m0-12.551a2,2,0,0,0-2.019,1.983v7.08a2.02,2.02,0,0,0,4.039,0v-7.08a2,2,0,0,0-2.02-1.983" transform="translate(5710.284 -987.24)" fill="#fff"/>
    <path id="Path_24472" data-name="Path 24472" d="M71.221,144.6a3.512,3.512,0,0,1-3.527-3.488v-7.08a3.526,3.526,0,0,1,7.052,0v7.08a3.511,3.511,0,0,1-3.525,3.488m0-12.551a2,2,0,0,0-2.02,1.983v7.08a2.02,2.02,0,0,0,4.039,0v-7.08a2,2,0,0,0-2.019-1.983" transform="translate(5708.562 -987.24)" fill="#fff"/>
    <path id="Path_24474" data-name="Path 24474" d="M78.2,144.6a3.512,3.512,0,0,1-3.527-3.488v-7.08a3.527,3.527,0,0,1,7.053,0v7.08A3.512,3.512,0,0,1,78.2,144.6m0-12.551a2,2,0,0,0-2.02,1.983v7.08a2.021,2.021,0,0,0,4.041,0v-7.08a2,2,0,0,0-2.02-1.983" transform="translate(5706.839 -987.24)" fill="#fff"/>
    <path id="Path_24476" data-name="Path 24476" d="M121.607,144.6a3.512,3.512,0,0,1-3.527-3.488v-7.08a3.527,3.527,0,0,1,7.053,0v7.08a3.512,3.512,0,0,1-3.527,3.488m0-12.551a2,2,0,0,0-2.02,1.983v7.08a2.021,2.021,0,0,0,4.041,0v-7.08a2,2,0,0,0-2.02-1.983" transform="translate(5696.12 -987.24)" fill="#fff"/>
    <path id="Path_24478" data-name="Path 24478" d="M128.583,144.6a3.512,3.512,0,0,1-3.527-3.488v-7.08a3.526,3.526,0,0,1,7.052,0v7.08a3.511,3.511,0,0,1-3.524,3.488m0-12.551a2,2,0,0,0-2.021,1.983v7.08a2.02,2.02,0,0,0,4.039,0v-7.08a2,2,0,0,0-2.018-1.983" transform="translate(5694.397 -987.24)" fill="#fff"/>
    <path id="Path_24480" data-name="Path 24480" d="M135.559,144.6a3.511,3.511,0,0,1-3.525-3.488v-7.08a3.526,3.526,0,0,1,7.051,0v7.08a3.511,3.511,0,0,1-3.526,3.488m0-12.551a2,2,0,0,0-2.019,1.983v7.08a2.02,2.02,0,0,0,4.039,0v-7.08a2,2,0,0,0-2.02-1.983" transform="translate(5692.672 -987.24)" fill="#fff"/>
    <path id="Subtraction_30" data-name="Subtraction 30" d="M44.33,46.772h0l-.519-.495a45.576,45.576,0,0,0-6.258-4.986c.359-.35.715-.721,1.057-1.1A47.277,47.277,0,0,1,44.33,44.7a47.19,47.19,0,0,1,5.719-4.51c.332.371.688.742,1.058,1.1a45.492,45.492,0,0,0-6.257,4.985l-.519.495Zm0-28.254v0l-.693-1.635c-3.024-7.139-7.866-11.6-14.8-13.631a45.68,45.68,0,0,0-13.85-1.743c-3.669,0-7.795.22-13.377.713a73.812,73.812,0,0,0,.68,13.426,22.065,22.065,0,0,0-1.129,2.722A78.21,78.21,0,0,1,.142,1.478L.183.833.826.776C6.771.239,11.138,0,14.985,0A47.078,47.078,0,0,1,29.277,1.81,23.307,23.307,0,0,1,44.33,14.762,23.32,23.32,0,0,1,59.4,1.8,46.984,46.984,0,0,1,73.675,0c3.846,0,8.213.239,14.159.776l.644.058.041.645A78.357,78.357,0,0,1,87.5,18.366a22.193,22.193,0,0,0-1.129-2.723,73.954,73.954,0,0,0,.681-13.425c-5.583-.492-9.708-.712-13.377-.712A45.592,45.592,0,0,0,59.846,3.244c-6.953,2.038-11.8,6.5-14.822,13.637l-.692,1.635Z" transform="translate(5757.052 -943.031)" fill="#fff" stroke="rgba(0,0,0,0)" stroke-miterlimit="10" stroke-width="1"/>
    <path id="Path_24484" data-name="Path 24484" d="M64.062,65.063A22.869,22.869,0,1,1,86.931,42.193,22.9,22.9,0,0,1,64.062,65.063m0-44.232A21.363,21.363,0,1,0,85.425,42.193,21.388,21.388,0,0,0,64.062,20.83" transform="translate(5715.107 -959.773)" fill="#fff"/>
    <path id="Path_24486" data-name="Path 24486" d="M68.939,55.065a8,8,0,1,1,8-8,8.006,8.006,0,0,1-8,8m0-14.489a6.492,6.492,0,1,0,6.489,6.494,6.5,6.5,0,0,0-6.489-6.494" transform="translate(5710.23 -964.649)" fill="#fff"/>
    <path id="Path_24488" data-name="Path 24488" d="M68.635,49.627A3.431,3.431,0,1,1,72.066,46.2a3.435,3.435,0,0,1-3.432,3.431m0-5.356A1.925,1.925,0,1,0,70.56,46.2a1.927,1.927,0,0,0-1.926-1.925" transform="translate(5709.178 -965.561)" fill="#fff"/>
    <path id="Path_24490" data-name="Path 24490" d="M123.056,65.063a22.869,22.869,0,1,1,22.869-22.869,22.9,22.9,0,0,1-22.869,22.869m0-44.232a21.363,21.363,0,1,0,21.363,21.363A21.389,21.389,0,0,0,123.056,20.83" transform="translate(5700.539 -959.773)" fill="#fff"/>
    <path id="Path_24492" data-name="Path 24492" d="M127.932,55.065a8,8,0,1,1,8-8,8.007,8.007,0,0,1-8,8m0-14.489a6.492,6.492,0,1,0,6.49,6.494,6.5,6.5,0,0,0-6.49-6.494" transform="translate(5695.663 -964.649)" fill="#fff"/>
    <path id="Path_24494" data-name="Path 24494" d="M126.809,49.627a3.431,3.431,0,1,1,3.43-3.431,3.435,3.435,0,0,1-3.43,3.431m0-5.356a1.925,1.925,0,1,0,1.924,1.925,1.927,1.927,0,0,0-1.924-1.925" transform="translate(5694.811 -965.561)" fill="#fff"/>
  </g>
</svg>
