<svg xmlns="http://www.w3.org/2000/svg" xmlns:xlink="http://www.w3.org/1999/xlink" width="112.402" height="128.925" viewBox="0 0 112.402 128.925">
  <defs>
    <linearGradient id="linear-gradient" x1="0.5" y1="0.885" x2="0.5" y2="0.565" gradientUnits="objectBoundingBox">
      <stop offset="0" stop-color="#8dba78"/>
      <stop offset="1" stop-color="#648f4f"/>
    </linearGradient>
    <linearGradient id="linear-gradient-3" x1="0.5" y1="0" x2="0.5" y2="1.778" xlink:href="#linear-gradient"/>
  </defs>
  <g id="Group_5223" data-name="Group 5223" transform="translate(-737.998 -285.281)">
    <g id="Group_5222" data-name="Group 5222" transform="translate(737.998 306.888)">
      <path id="Path_23734" data-name="Path 23734" d="M668.086,357.981,757.5,447.389a2.729,2.729,0,0,0,.346-3.214L669.869,356.2Z" transform="translate(-660.598 -345.357)" fill="#f0edda"/>
      <path id="Path_23735" data-name="Path 23735" d="M757.073,447.6a.631.631,0,0,1-.446-.185L667.216,358a.63.63,0,0,1,0-.892L669,355.33a.631.631,0,0,1,.891,0l87.975,87.975a.653.653,0,0,1,.064.076,3.359,3.359,0,0,1-.359,3.971.631.631,0,0,1-.458.242h-.039m-88.519-90.039,88.4,88.4a1.868,1.868,0,0,0-.018-1.795l-87.491-87.49Z" transform="translate(-660.174 -344.933)" fill="#2c5871"/>
      <path id="Path_23736" data-name="Path 23736" d="M675.306,349.111l-4.238,4.239,87.975,87.975h0a.268.268,0,0,0,.026.012.232.232,0,0,1-.021-.025,3.189,3.189,0,0,0,4.222-4.219.1.1,0,0,1,.024.018c0-.007-.008-.017-.014-.026h0Z" transform="translate(-661.797 -342.506)" fill="#fbfbfb"/>
      <path id="Path_23737" data-name="Path 23737" d="M759.879,441.909a2.765,2.765,0,0,1-1.5-.417l-.02-.01a.566.566,0,0,1-.072-.038h-.012a.6.6,0,0,1-.1-.081h0l0,0L670.2,353.377a.63.63,0,0,1,0-.891l4.238-4.239a.651.651,0,0,1,.893,0L763.3,436.222l.02.021a.62.62,0,0,1,.154.245,3.552,3.552,0,0,1-.836,4.2,3.988,3.988,0,0,1-2.762,1.221m-.906-1.541.023.016a2.321,2.321,0,0,0,2.753-.587,2.269,2.269,0,0,0,.587-2.751.183.183,0,0,1-.017-.024l-87.436-87.437-3.347,3.347Z" transform="translate(-661.373 -342.087)" fill="#2c5871"/>
      <path id="Path_23738" data-name="Path 23738" d="M766.132,435.889a2.726,2.726,0,0,0,3.214-.348l-89.408-89.408-1.78,1.78Z" transform="translate(-664.648 -341.308)" fill="#f0edda"/>
      <path id="Path_23739" data-name="Path 23739" d="M766.953,436.482h0a2.727,2.727,0,0,1-1.615-.5.7.7,0,0,1-.076-.064L677.287,347.94a.631.631,0,0,1,0-.891l1.78-1.78a.65.65,0,0,1,.893,0l89.407,89.408a.631.631,0,0,1-.057.943,3.878,3.878,0,0,1-2.357.863m-.839-1.5a1.49,1.49,0,0,0,.838.236h0a2.351,2.351,0,0,0,.958-.218l-88.4-88.4-.889.89Z" transform="translate(-664.223 -340.889)" fill="#2c5871"/>
      <path id="Path_23740" data-name="Path 23740" d="M825.436,495.673a2.727,2.727,0,0,1-3.22.352h0c.006.008.009.018.014.026a.094.094,0,0,0-.024-.019,3.189,3.189,0,0,1-4.222,4.219c.006.008.014.018.02.025s-.018-.007-.026-.013h0a2.725,2.725,0,0,1-.351,3.219l12.271,4.463Z" transform="translate(-720.732 -401.443)" fill="#fff"/>
      <path id="Path_23741" data-name="Path 23741" d="M829.475,508.15a.629.629,0,0,1-.216-.038l-12.271-4.463a.631.631,0,0,1-.281-.982,2.116,2.116,0,0,0,.342-2.452.635.635,0,0,1-.072-.631.614.614,0,0,1,.139-.206.628.628,0,0,1,.816-.062,2.32,2.32,0,0,0,2.752-.587,2.269,2.269,0,0,0,.588-2.751.63.63,0,0,1,.015-.764.656.656,0,0,1,.148-.135.633.633,0,0,1,.706,0,2.119,2.119,0,0,0,2.48-.322.637.637,0,0,1,.563-.11.629.629,0,0,1,.42.39l4.463,12.271a.63.63,0,0,1-.592.846m-11.321-5.418,10.267,3.734L824.687,496.2a3.574,3.574,0,0,1-1.907.4,4.127,4.127,0,0,1-4.228,4.229,3.626,3.626,0,0,1-.4,1.9" transform="translate(-720.309 -401.019)" fill="#2c5871"/>
      <path id="Path_23742" data-name="Path 23742" d="M832.106,506.438a7.142,7.142,0,0,0-3.714,3.713l5.835,2.122Z" transform="translate(-725.061 -405.772)" fill="#f0edda"/>
      <path id="Path_23743" data-name="Path 23743" d="M833.8,512.479a.626.626,0,0,1-.215-.038l-5.835-2.122a.632.632,0,0,1-.36-.851,7.771,7.771,0,0,1,4.03-4.03.63.63,0,0,1,.851.36l2.122,5.834a.63.63,0,0,1-.593.846m-4.953-3.1,3.9,1.417-1.417-3.9a6.373,6.373,0,0,0-2.481,2.481" transform="translate(-724.636 -405.348)" fill="#2c5871"/>
      <rect id="Rectangle_2428" data-name="Rectangle 2428" width="2.519" height="2.589" transform="matrix(0.707, -0.707, 0.707, 0.707, 5.636, 10.77)" fill="#f0edda"/>
      <path id="Path_23744" data-name="Path 23744" d="M666.4,356.921h0a.631.631,0,0,1-.447-.185l-1.828-1.831a.63.63,0,0,1,0-.891l1.779-1.783a.649.649,0,0,1,.892,0l1.831,1.832a.631.631,0,0,1,0,.892l-1.782,1.781a.63.63,0,0,1-.445.185m-.937-2.461.938.939.891-.89-.941-.94Z" transform="translate(-658.929 -343.689)" fill="#2c5871"/>
      <rect id="Rectangle_2429" data-name="Rectangle 2429" width="5.993" height="2.589" transform="translate(7.419 8.99) rotate(-45)" fill="#f0edda"/>
      <path id="Path_23745" data-name="Path 23745" d="M669.373,352.286h0a.633.633,0,0,1-.446-.185l-1.831-1.833a.63.63,0,0,1,0-.892l4.239-4.236a.631.631,0,0,1,.892,0l1.829,1.83a.632.632,0,0,1,0,.892l-4.238,4.238a.633.633,0,0,1-.446.185m-.939-2.463.939.94,3.346-3.346-.938-.939Z" transform="translate(-660.126 -340.835)" fill="#2c5871"/>
      <rect id="Rectangle_2430" data-name="Rectangle 2430" width="2.519" height="2.589" transform="translate(11.655 4.752) rotate(-45)" fill="#f0edda"/>
      <path id="Path_23746" data-name="Path 23746" d="M676.463,346.85h0a.633.633,0,0,1-.446-.185l-1.829-1.831a.63.63,0,0,1,0-.891l1.779-1.782a.63.63,0,0,1,.892,0l1.831,1.832a.631.631,0,0,1,0,.891l-1.781,1.781a.633.633,0,0,1-.446.185m-.938-2.461.938.939.89-.889-.939-.939Z" transform="translate(-662.978 -339.637)" fill="#2c5871"/>
      <path id="Path_23810" data-name="Path 23810" d="M664.205,485.724c1.627,3.12-.015,8.441-4.082,13.069l.564.569.057-.053,9.4-9.342a1.273,1.273,0,1,1,.529.537l-9.4,9.336-.057.057.567.567c4.654-4.034,9.989-5.636,13.1-3.992a45.216,45.216,0,0,1,8.725-10.586,38.835,38.835,0,0,1-4.713-4.073,39.5,39.5,0,0,1-4.04-4.74,45.33,45.33,0,0,1-10.647,8.649" transform="translate(-657.395 -393.964)" fill="#fff"/>
      <path id="Path_23811" data-name="Path 23811" d="M661.205,500.641l-1.38-1.382v0l-1.07-1.08.368-.419c3.867-4.4,5.512-9.5,4-12.4l-.264-.507.495-.286a44.725,44.725,0,0,0,10.5-8.531l.5-.554.435.6a38.824,38.824,0,0,0,3.978,4.667,38.262,38.262,0,0,0,4.641,4.011l.6.438-.557.493a44.629,44.629,0,0,0-8.606,10.442l-.291.493-.5-.267a5.448,5.448,0,0,0-2.568-.569c-2.933,0-6.618,1.676-9.857,4.484Zm9.073-10.085-7.03,6.981a15.618,15.618,0,0,1,8.236-2.94,6.94,6.94,0,0,1,2.61.468,46.082,46.082,0,0,1,8.02-9.773,40,40,0,0,1-4.2-3.7,40.641,40.641,0,0,1-3.666-4.219,46.243,46.243,0,0,1-9.83,7.95c1.121,2.824.138,6.889-2.531,10.815l7.014-6.968a1.862,1.862,0,0,1,.494-1.764,1.922,1.922,0,0,1,2.653.009,1.875,1.875,0,0,1-.005,2.652,1.891,1.891,0,0,1-1.769.487m-.051-1.316.179.094a.691.691,0,0,0,.8-.114.678.678,0,0,0,.2-.483.668.668,0,0,0-.2-.476.7.7,0,0,0-.964-.007.678.678,0,0,0-.115.795Z" transform="translate(-656.845 -393.323)" fill="#2c5871"/>
      <path id="Path_23812" data-name="Path 23812" d="M752.673,383.816c8.358-8.3.874-15.836-7.486-7.534-14.241,13.763-46.072,45.121-60.31,58.883q4.3,4.337,8.613,8.674c14.022-14.3,45.43-45.994,59.183-60.023" transform="translate(-667.35 -351.982)" fill="#f0edda"/>
      <path id="Path_23813" data-name="Path 23813" d="M692.92,444.288l-9.467-9.534.436-.421c7.1-6.864,18.778-18.3,30.071-29.36,11.358-11.123,23.1-22.625,30.24-29.524,2.448-2.43,5.09-3.772,7.434-3.772a4.485,4.485,0,0,1,4.342,2.721c1.1,2.669-.19,6.2-3.452,9.44-6.832,6.968-18.248,18.526-29.289,29.7-11.228,11.367-22.839,23.12-29.89,30.313Zm-7.764-9.516,7.759,7.814c7.089-7.228,18.462-18.741,29.468-29.884,11.04-11.176,22.455-22.733,29.291-29.706,3.428-3.406,3.9-6.438,3.2-8.141a3.287,3.287,0,0,0-3.237-1.982c-2.026,0-4.369,1.218-6.6,3.431-7.141,6.9-18.884,18.4-30.24,29.524-11.065,10.838-22.5,22.036-29.64,28.943" transform="translate(-666.777 -351.58)" fill="#2c5871"/>
      <rect id="Rectangle_2434" data-name="Rectangle 2434" width="1.857" height="12.648" transform="translate(16.071 84.328) rotate(-44.782)" fill="#cceef5"/>
      <path id="Path_23814" data-name="Path 23814" d="M690.776,487.488l-9.755-9.829,2.171-2.147,9.75,9.824Zm-8.063-9.82,8.069,8.128.469-.466-8.067-8.128Z" transform="translate(-665.799 -393.335)" fill="#2c5871"/>
      <path id="Path_23815" data-name="Path 23815" d="M768.022,387.165l36.048-35.833c2.4-2.386,2.645-6.042.539-8.163l-2.625-2.644c-2.109-2.121-5.763-1.907-8.169.481l-36.049,35.832Z" transform="translate(-696.662 -338.465)" fill="#f0edda"/>
      <path id="Path_23816" data-name="Path 23816" d="M767.45,387.608l-11.1-11.177,36.473-36.253a7.135,7.135,0,0,1,4.959-2.115,5.659,5.659,0,0,1,4.056,1.637l2.626,2.645c2.334,2.352,2.091,6.394-.542,9.009Zm-9.407-11.172,9.413,9.48,35.624-35.411c2.165-2.151,2.406-5.433.536-7.318l-2.625-2.644a4.47,4.47,0,0,0-3.208-1.284,5.93,5.93,0,0,0-4.116,1.768Z" transform="translate(-696.092 -338.063)" fill="#2c5871"/>
      <path id="Path_23817" data-name="Path 23817" d="M767.9,369.266l-.842-.85L791.709,344a9.7,9.7,0,0,1,2.811-2.217,2.706,2.706,0,0,1,3.134.838l10.712,10.517-.838.853-10.717-10.522c-.824-.829-1.372-.768-1.843-.577a8.978,8.978,0,0,0-2.417,1.957Z" transform="translate(-700.399 -339.477)" fill="#2c5871"/>
      <path id="Path_23818" data-name="Path 23818" d="M729.8,391.45l-16.681.139c-7.145.188-12.891,4.3-12.822,9.108q.062,7.4.123,14.8c.068,4.791,2.46,8.408,12.518,13.066a79.982,79.982,0,0,0,17.222,5.967Z" transform="translate(-673.549 -359.531)" fill="url(#linear-gradient)"/>
      <path id="Path_23819" data-name="Path 23819" d="M729.755,434.728a.584.584,0,0,1-.121-.013,80.014,80.014,0,0,1-17.353-6.01c-10.622-4.919-12.8-8.851-12.864-13.6l-.123-14.8c-.074-5.157,5.939-9.515,13.4-9.71l16.691-.14a.6.6,0,0,1,.6.592l.361,43.081a.6.6,0,0,1-.6.6m-.953-43.077-16.083.134c-6.8.178-12.294,3.992-12.229,8.5l.123,14.8c.061,4.392,2.072,7.852,12.171,12.529a80.2,80.2,0,0,0,16.367,5.769Z" transform="translate(-673.147 -359.13)" fill="#2c5871"/>
      <path id="Path_23820" data-name="Path 23820" d="M749.58,391.356l16.682-.139c7.146.068,12.959,4.079,12.97,8.892q.063,7.4.125,14.8c.015,4.792-2.319,8.447-12.3,13.271a79.8,79.8,0,0,1-17.121,6.258Z" transform="translate(-693.37 -359.438)" fill="url(#linear-gradient)"/>
      <path id="Path_23821" data-name="Path 23821" d="M749.539,434.633a.6.6,0,0,1-.6-.593l-.361-43.081a.6.6,0,0,1,.593-.6l16.682-.139c7.477.071,13.561,4.327,13.573,9.488l.125,14.8c.015,4.751-2.093,8.718-12.632,13.815a79.823,79.823,0,0,1-17.251,6.3.571.571,0,0,1-.13.014m.242-43.086.349,41.738a80,80,0,0,0,16.269-6.046c10.019-4.845,11.971-8.337,11.957-12.732l-.125-14.8c-.011-4.513-5.563-8.234-12.378-8.3Z" transform="translate(-692.967 -359.036)" fill="#2c5871"/>
      <path id="Path_23822" data-name="Path 23822" d="M712.274,423.992l-55.713-20.965.409-3.411,110.8-.816-.137,3.3Z" transform="translate(-655.964 -362.487)" fill="#8dba78"/>
      <path id="Path_23823" data-name="Path 23823" d="M711.872,424.189a.613.613,0,0,1-.212-.038l-55.713-20.966a.6.6,0,0,1-.383-.631l.408-3.41a.6.6,0,0,1,.589-.527l110.8-.815a.568.568,0,0,1,.435.182.594.594,0,0,1,.167.441l-.137,3.3a.6.6,0,0,1-.376.531l-55.357,21.9a.6.6,0,0,1-.22.042m-55.063-21.958,55.057,20.719,54.781-21.669.094-2.28-109.642.807Z" transform="translate(-655.561 -362.085)" fill="#2c5871"/>
      <path id="Path_23824" data-name="Path 23824" d="M712.5,406.6l-55.713-20.966,55.353-21.9L767.858,384.7Z" transform="translate(-656.054 -348.384)" fill="url(#linear-gradient-3)"/>
      <path id="Path_23825" data-name="Path 23825" d="M712.1,406.792a.611.611,0,0,1-.211-.038l-55.712-20.966a.6.6,0,0,1-.01-1.116l55.353-21.9a.6.6,0,0,1,.431,0l55.717,20.968a.6.6,0,0,1,.009,1.116l-55.358,21.9a.593.593,0,0,1-.22.042m-54.052-21.578,54.046,20.339,53.7-21.244-54.052-20.342Z" transform="translate(-655.653 -347.982)" fill="#2c5871"/>
      <path id="Path_23826" data-name="Path 23826" d="M783.964,417.93a.6.6,0,0,1-.6-.593l-.111-13.243-35.11-13.216a.6.6,0,0,1,.422-1.119l35.494,13.361a.6.6,0,0,1,.387.555l.115,13.653a.6.6,0,0,1-.593.6Z" transform="translate(-692.638 -358.836)" fill="#2c5871"/>
      <path id="Path_23827" data-name="Path 23827" d="M751.65,387.974c.014,1.705-2.7,3.1-6.058,3.134s-6.091-1.329-6.107-3.031,2.695-3.1,6.056-3.127,6.1,1.326,6.108,3.024" transform="translate(-689.309 -356.917)" fill="#78a463"/>
      <path id="Path_23828" data-name="Path 23828" d="M745.091,391.3c-3.746,0-6.586-1.558-6.6-3.624s2.9-3.7,6.649-3.73h.11c3.747,0,6.586,1.556,6.6,3.618s-2.9,3.7-6.65,3.737Zm.154-6.159h-.1c-3.232.027-5.473,1.352-5.463,2.524.011,1.153,2.234,2.439,5.409,2.439h.1c3.232-.028,5.475-1.357,5.464-2.531-.009-1.15-2.231-2.432-5.406-2.432" transform="translate(-688.907 -356.515)" fill="#2c5871"/>
      <path id="Path_23829" data-name="Path 23829" d="M808.869,435.972a1.79,1.79,0,1,1-3.579.03l-.054-6.382a1.79,1.79,0,1,1,3.579-.029Z" transform="translate(-715.751 -374.155)" fill="#66cde1"/>
      <path id="Path_23830" data-name="Path 23830" d="M806.676,437.975a2.394,2.394,0,0,1-2.385-2.369l-.054-6.382a2.387,2.387,0,1,1,4.774-.039l.054,6.38a2.389,2.389,0,0,1-2.368,2.409Zm-.054-9.964a1.2,1.2,0,0,0-1.19,1.2l.054,6.382a1.2,1.2,0,0,0,1.19,1.183v.6l.011-.6a1.192,1.192,0,0,0,1.183-1.2l-.054-6.381a1.2,1.2,0,0,0-1.193-1.184" transform="translate(-715.349 -373.753)" fill="#2c5871"/>
      <path id="Path_23831" data-name="Path 23831" d="M810.379,452.818c-1.405-1.235-1.752-4.006-2.607-11.484a3.586,3.586,0,0,0-3.328-3.236.159.159,0,0,0-.04,0c-.014,0-.023-.005-.038-.005a3.586,3.586,0,0,0-3.269,3.29c-.734,7.5-1.029,10.273-2.414,11.526-.458,1.736,2.137,3.707,5.837,3.7.017,0,.034,0,.053,0l.029,0c3.7-.051,6.26-2.069,5.776-3.792" transform="translate(-713.093 -378.29)" fill="#8dba78"/>
      <path id="Path_23832" data-name="Path 23832" d="M804.172,456.806l-.027,0h-.059c-2.491,0-4.789-.9-5.856-2.279a2.49,2.49,0,0,1-.527-2.167l.045-.172.132-.119c1.239-1.122,1.546-4.262,2.22-11.141a4.2,4.2,0,0,1,3.859-3.83h.078a4.206,4.206,0,0,1,3.923,3.741c.852,7.449,1.207,10.07,2.411,11.128l.133.117.048.17a2.491,2.491,0,0,1-.5,2.177c-1.051,1.407-3.347,2.339-5.849,2.375Zm-5.339-4a1.436,1.436,0,0,0,.344.986,6.374,6.374,0,0,0,4.9,1.813h.171a6.375,6.375,0,0,0,4.852-1.894,1.435,1.435,0,0,0,.331-.992c-1.483-1.476-1.837-4.571-2.655-11.724a3,3,0,0,0-2.708-2.706h-.157a3.019,3.019,0,0,0-2.624,2.775c-.719,7.354-1,10.264-2.454,11.742" transform="translate(-712.691 -377.887)" fill="#2c5871"/>
      <path id="Path_23833" data-name="Path 23833" d="M809.3,428.49a3.274,3.274,0,1,1-3.3-3.246,3.276,3.276,0,0,1,3.3,3.246" transform="translate(-714.752 -373.121)" fill="#8dba78"/>
      <path id="Path_23834" data-name="Path 23834" d="M805.625,431.986a3.856,3.856,0,1,1,.032,0Zm0-6.547a2.675,2.675,0,0,0,0,5.351v.6l.022-.6a2.675,2.675,0,0,0-.025-5.351" transform="translate(-714.35 -372.719)" fill="#2c5871"/>
    </g>
    <g id="Group_5223-2" data-name="Group 5223" transform="translate(778.588 285.281)">
      <path id="Path_24376" data-name="Path 24376" d="M103.143,75.877A15.278,15.278,0,1,1,87.868,60.6a15.276,15.276,0,0,1,15.275,15.276" transform="translate(-72.255 -60.268)" fill="#ffe9b0"/>
      <path id="Path_24377" data-name="Path 24377" d="M87.451,91.069a15.609,15.609,0,1,1,15.608-15.61,15.629,15.629,0,0,1-15.608,15.61m0-30.553a14.943,14.943,0,1,0,14.942,14.943A14.962,14.962,0,0,0,87.451,60.516" transform="translate(-71.838 -59.85)" fill="#0a5d49"/>
      <path id="Path_24378" data-name="Path 24378" d="M103.266,76.463A14.811,14.811,0,1,1,88.455,61.655a14.811,14.811,0,0,1,14.811,14.808" transform="translate(-72.843 -60.853)" fill="#f4da80"/>
      <path id="Path_24379" data-name="Path 24379" d="M88.038,91.19a15.143,15.143,0,1,1,15.144-15.145A15.161,15.161,0,0,1,88.038,91.19m0-29.619a14.477,14.477,0,1,0,14.478,14.475A14.492,14.492,0,0,0,88.038,61.571" transform="translate(-72.426 -60.437)" fill="#0a5d49"/>
      <path id="Path_24380" data-name="Path 24380" d="M104.058,80.4A11.664,11.664,0,1,1,92.395,68.735,11.663,11.663,0,0,1,104.058,80.4" transform="translate(-76.782 -64.79)" fill="#f4da80"/>
      <path id="Path_24381" data-name="Path 24381" d="M91.977,91.977a12,12,0,1,1,12-12,12.01,12.01,0,0,1-12,12m0-23.326a11.33,11.33,0,1,0,11.33,11.331,11.344,11.344,0,0,0-11.33-11.331" transform="translate(-76.365 -64.373)" fill="#0a5d49"/>
      <path id="Path_24394" data-name="Path 24394" d="M11.072-7.454,8.454-11.407q-.555.035-.849.035H4.276v3.918H3.08V-19.572H7.6a5.282,5.282,0,0,1,3.511,1.049,3.68,3.68,0,0,1,1.24,2.973,4.174,4.174,0,0,1-.728,2.514,3.8,3.8,0,0,1-2.08,1.4l2.912,4.178ZM7.6-12.447a4.032,4.032,0,0,0,2.67-.789,2.814,2.814,0,0,0,.936-2.28,2.7,2.7,0,0,0-.936-2.219A4.127,4.127,0,0,0,7.6-18.5H4.276v6.05Z" transform="translate(8.223 29.122)" fill="#0a5d49"/>
    </g>
  </g>
</svg>
