<svg xmlns="http://www.w3.org/2000/svg" width="122.197" height="118.54" viewBox="0 0 122.197 118.54">
  <g id="Group_5283" data-name="Group 5283" transform="translate(-874.641 -513.955)">
    <path id="Path_24405" data-name="Path 24405" d="M14.654,69.428l2.985-1.987a1.364,1.364,0,0,0,.4-1.86L5.835,46.051a1.367,1.367,0,0,0-1.914-.412L1,47.581Z" transform="translate(903.177 562.317)" fill="none" stroke="#fff" stroke-linecap="round" stroke-linejoin="round" stroke-width="1.5"/>
    <path id="Path_24407" data-name="Path 24407" d="M46.138,49.249l23.445-8.808a5.462,5.462,0,1,1,4.18,10.092L49.647,60.754a13.641,13.641,0,0,1-5.329,1.083H23.055a8.2,8.2,0,0,0-4.5,1.349l-5.433,3.575" transform="translate(907.606 560.35)" fill="none" stroke="#fff" stroke-linecap="round" stroke-linejoin="round" stroke-width="1.5"/>
    <path id="Path_24408" data-name="Path 24408" d="M73.521,4.731H68.742L45.53,2H33.174a8.193,8.193,0,0,0-4.819,1.568L23,7.462" transform="translate(911.217 546.453)" fill="none" stroke="#fff" stroke-linecap="round" stroke-linejoin="round" stroke-width="1.5"/>
    <path id="Path_24410" data-name="Path 24410" d="M65.462,29.674h-4.1A1.366,1.366,0,0,1,60,28.309V2.365A1.366,1.366,0,0,1,61.365,1h4.1Z" transform="translate(924.738 546.088)" fill="none" stroke="#fff" stroke-linecap="round" stroke-linejoin="round" stroke-width="1.5"/>
    <path id="Path_24411" data-name="Path 24411" d="M31.252,50.3C14.208,41.428,3,21.809,3,21.809L26.83,1a27.945,27.945,0,0,0,7.992,13.654" transform="translate(903.908 546.088)" fill="none" stroke="#fff" stroke-linecap="round" stroke-linejoin="round" stroke-width="1.5"/>
    <path id="Path_24412" data-name="Path 24412" d="M41.339,20.264c8.193,6.827,11.1,18.081,11.1,18.081l-6.1,5.167" transform="translate(917.919 553.128)" fill="none" stroke="#fff" stroke-linecap="round" stroke-linejoin="round" stroke-width="1.5"/>
    <path id="Path_24413" data-name="Path 24413" d="M38.615,38.654l3.665-3s-1.09-3.455.093-5.728L37.173,25" transform="translate(916.396 554.859)" fill="none" stroke="#fff" stroke-linecap="round" stroke-linejoin="round" stroke-width="1.5"/>
    <path id="Path_24414" data-name="Path 24414" d="M18.131,11.418,12.31,17.053a6.435,6.435,0,0,1-1.821,6.273s3.362,4.637,5.634,5.821" transform="translate(906.645 549.895)" fill="none" stroke="#fff" stroke-linecap="round" stroke-linejoin="round" stroke-width="1.5"/>
    <path id="Path_24415" data-name="Path 24415" d="M25.61,19c-6.827,4.1-7.07,10.827-4.533,14.024s7.937,2.929,12.064-.6C36.678,29.4,37.9,23.1,36.533,20.365" transform="translate(909.973 552.666)" fill="none" stroke="#fff" stroke-linecap="round" stroke-linejoin="round" stroke-width="1.5"/>
    <path id="Path_24432" data-name="Path 24432" d="M44.212,11H26.462a5.462,5.462,0,0,0,0,10.924h19.8s6.1,5.241,12.972,4.1c8.193-1.365,10.241-4.1,10.241-4.1h4.779" transform="translate(910.486 549.742)" fill="none" stroke="#fff" stroke-linecap="round" stroke-linejoin="round" stroke-width="1.5"/>
    <path id="Path_24434" data-name="Path 24434" d="M33.5,49.924H47.159a5.462,5.462,0,0,0,0-10.924h-22.1a8.2,8.2,0,0,0-4.546,1.376L5.464,50.411" transform="translate(904.809 559.975)" fill="none" stroke="#fff" stroke-linecap="round" stroke-linejoin="round" stroke-width="1.5"/>
    <path id="Subtraction_71" data-name="Subtraction 71" d="M-5599.733,1867.607a.694.694,0,0,1-.171-.021.7.7,0,0,1-.432-.32.692.692,0,0,1-.078-.528,47.781,47.781,0,0,1,1.588-4.819.7.7,0,0,1,.656-.453.694.694,0,0,1,.246.045.7.7,0,0,1,.408.9,47.885,47.885,0,0,0-1.539,4.663A.7.7,0,0,1-5599.733,1867.607Zm3.479-9.363a.7.7,0,0,1-.287-.062.7.7,0,0,1-.35-.927c.685-1.517,1.424-3.042,2.2-4.531a.7.7,0,0,1,.623-.377.7.7,0,0,1,.321.078.7.7,0,0,1,.3.943c-.765,1.469-1.493,2.97-2.165,4.461A.7.7,0,0,1-5596.254,1858.244Zm4.6-8.869a.689.689,0,0,1-.354-.1.692.692,0,0,1-.322-.427.693.693,0,0,1,.075-.53c.843-1.431,1.741-2.868,2.668-4.271a.7.7,0,0,1,.585-.314.706.706,0,0,1,.386.115.7.7,0,0,1,.2.971c-.907,1.37-1.792,2.786-2.63,4.208A.7.7,0,0,1-5591.65,1849.375Zm5.517-8.336a.692.692,0,0,1-.416-.138.7.7,0,0,1-.276-.459.7.7,0,0,1,.13-.52c.428-.58.882-1.18,1.35-1.784a13.62,13.62,0,0,0,2.394-.768c-.885,1.093-1.766,2.231-2.618,3.384A.7.7,0,0,1-5586.133,1841.04Zm13.449-14.756a.7.7,0,0,1-.523-.235.7.7,0,0,1-.176-.506.694.694,0,0,1,.233-.482c1.24-1.109,2.533-2.2,3.841-3.256a.7.7,0,0,1,.438-.155.693.693,0,0,1,.544.26.693.693,0,0,1,.151.514.7.7,0,0,1-.257.47c-1.292,1.04-2.565,2.12-3.786,3.211A.7.7,0,0,1-5572.684,1826.283Zm7.787-6.27a.7.7,0,0,1-.568-.29.694.694,0,0,1-.125-.521.7.7,0,0,1,.28-.456c1.344-.975,2.74-1.934,4.148-2.851a.7.7,0,0,1,.383-.114.7.7,0,0,1,.586.318.7.7,0,0,1-.2.969c-1.382.9-2.759,1.846-4.091,2.812A.7.7,0,0,1-5564.9,1820.013Zm8.374-5.455a.7.7,0,0,1-.606-.347.7.7,0,0,1,.252-.957c1.434-.836,2.918-1.654,4.41-2.431a.7.7,0,0,1,.323-.079.692.692,0,0,1,.62.377.7.7,0,0,1,.047.533.694.694,0,0,1-.345.41c-1.47.766-2.934,1.573-4.35,2.4A.7.7,0,0,1-5556.523,1814.558Zm8.866-4.617a.7.7,0,0,1-.637-.406.7.7,0,0,1,.342-.929c1.5-.7,3.056-1.37,4.614-2.006a.7.7,0,0,1,.266-.052.7.7,0,0,1,.646.435.7.7,0,0,1-.382.914c-1.54.628-3.072,1.294-4.555,1.981A.707.707,0,0,1-5547.658,1809.941Zm9.257-3.782a.7.7,0,0,1-.66-.465.694.694,0,0,1,.026-.534.7.7,0,0,1,.4-.36c1.585-.567,3.189-1.1,4.768-1.593a.7.7,0,0,1,.207-.031.7.7,0,0,1,.669.491.7.7,0,0,1-.46.877c-1.561.485-3.146,1.014-4.711,1.573A.7.7,0,0,1-5538.4,1806.159Zm9.542-2.971a.7.7,0,0,1-.676-.519.7.7,0,0,1,.495-.858c1.585-.423,3.228-.827,4.881-1.2a.661.661,0,0,1,.155-.018.7.7,0,0,1,.682.547.693.693,0,0,1-.09.527.7.7,0,0,1-.438.309c-1.591.359-3.215.758-4.828,1.188A.669.669,0,0,1-5528.859,1803.188Zm9.75-2.2a.7.7,0,0,1-.687-.571.7.7,0,0,1,.56-.817c1.619-.3,3.286-.585,4.954-.837a.663.663,0,0,1,.105-.008.7.7,0,0,1,.69.6.7.7,0,0,1-.586.8c-1.645.247-3.295.525-4.906.827A.689.689,0,0,1-5519.109,1800.984Zm9.888-1.493a.7.7,0,0,1-.694-.62.7.7,0,0,1,.145-.514.7.7,0,0,1,.469-.262c1.652-.193,3.334-.361,5-.5l.062,0a.7.7,0,0,1,.695.641.7.7,0,0,1-.64.756c-1.7.144-3.366.311-4.955.5A.519.519,0,0,1-5509.221,1799.49Zm10-.842h-.038a.7.7,0,0,1-.7-.662.693.693,0,0,1,.176-.5.7.7,0,0,1,.485-.233c1.659-.088,3.346-.153,5.015-.2h.017a.7.7,0,0,1,.7.683.7.7,0,0,1-.683.717C-5495.932,1798.5-5497.605,1798.561-5499.222,1798.648Zm14.956-.169h-.02c-1.659-.047-3.333-.074-4.977-.08a.7.7,0,0,1-.7-.7.7.7,0,0,1,.7-.7c1.642,0,3.329.031,5.016.079a.7.7,0,0,1,.488.219.7.7,0,0,1,.191.5A.7.7,0,0,1-5484.266,1798.48Z" transform="translate(6480.403 -1280.221)" fill="#fff"/>
    <path id="Path_24423" data-name="Path 24423" d="M38.41,29.641a14.82,14.82,0,1,1,14.819-14.82A14.838,14.838,0,0,1,38.41,29.641m0-28.229a13.409,13.409,0,1,0,13.407,13.41A13.426,13.426,0,0,0,38.41,1.411" transform="translate(853.68 529.736)" fill="#fff"/>
    <path id="Path_24425" data-name="Path 24425" d="M38.437,29.237a14.388,14.388,0,1,1,14.391-14.39,14.406,14.406,0,0,1-14.391,14.39m0-27.365A12.977,12.977,0,1,0,51.415,14.848,12.991,12.991,0,0,0,38.437,1.872" transform="translate(853.651 529.709)" fill="#fff"/>
    <path id="Path_24427" data-name="Path 24427" d="M38.617,26.511A11.481,11.481,0,1,1,50.1,15.028,11.5,11.5,0,0,1,38.617,26.511m0-21.552A10.07,10.07,0,1,0,48.686,15.028,10.082,10.082,0,0,0,38.617,4.959" transform="translate(853.471 529.528)" fill="#fff"/>
    <path id="Path_24428" data-name="Path 24428" d="M8.234.364,6.041-2.947q-.465.029-.712.029H2.542V.364h-1V-9.786H5.33a4.424,4.424,0,0,1,2.94.878,3.082,3.082,0,0,1,1.038,2.49A3.5,3.5,0,0,1,8.7-4.312,3.182,3.182,0,0,1,6.956-3.136L9.4.364ZM5.33-3.818a3.377,3.377,0,0,0,2.236-.661A2.357,2.357,0,0,0,8.35-6.388a2.258,2.258,0,0,0-.784-1.859A3.457,3.457,0,0,0,5.33-8.886H2.542v5.068Z" transform="translate(886.62 549.27)" fill="#fff"/>
    <line id="Line_207" data-name="Line 207" y1="3.09" x2="4.499" transform="translate(910.551 529.736)" fill="none" stroke="#fff" stroke-linecap="round" stroke-width="1.5"/>
    <line id="Line_208" data-name="Line 208" y1="8.299" x2="11.816" transform="translate(909.141 515)" fill="none" stroke="#fff" stroke-linecap="round" stroke-width="1.5"/>
    <line id="Line_209" data-name="Line 209" y1="3.09" x2="4.499" transform="translate(880.67 584.962)" fill="none" stroke="#fff" stroke-linecap="round" stroke-width="1.5"/>
    <line id="Line_210" data-name="Line 210" x1="4.499" y1="3.09" transform="translate(878.139 582.32) rotate(41)" fill="none" stroke="#fff" stroke-linecap="round" stroke-width="1.5"/>
  </g>
</svg>
