<svg xmlns="http://www.w3.org/2000/svg" width="80.563" height="139.796" viewBox="0 0 80.563 139.796">
  <g id="Group_5280" data-name="Group 5280" transform="translate(-6285.019 1014.398)">
    <path id="Path_24398" data-name="Path 24398" d="M34.594,11H68.708l1.851,1.388A23.721,23.721,0,0,1,80.03,32.407L77.977,79.618a8.9,8.9,0,0,1-8.891,8.512H11.967a8.9,8.9,0,0,1-8.892-8.512L1.023,32.405a23.725,23.725,0,0,1,9.468-20.017L12.345,11h5.933" transform="translate(6284.774 -963.482)" fill="none" stroke="#fff" stroke-linecap="round" stroke-linejoin="round" stroke-width="1.5"/>
    <path id="Path_24423" data-name="Path 24423" d="M39.689,32.2a16.1,16.1,0,1,1,16.1-16.1,16.119,16.119,0,0,1-16.1,16.1m0-30.666A14.566,14.566,0,1,0,54.253,16.1,14.585,14.585,0,0,0,39.689,1.533" transform="translate(6282.339 -992.097)" fill="#fff"/>
    <path id="Path_24424" data-name="Path 24424" d="M54.527,16.072A14.865,14.865,0,1,1,39.661,1.211,14.867,14.867,0,0,1,54.527,16.072" transform="translate(6282.365 -992.07)" fill="none"/>
    <path id="Path_24425" data-name="Path 24425" d="M39.678,31.721A15.63,15.63,0,1,1,55.311,16.089,15.649,15.649,0,0,1,39.678,31.721m0-29.727a14.1,14.1,0,1,0,14.1,14.1,14.112,14.112,0,0,0-14.1-14.1" transform="translate(6282.348 -992.087)" fill="#fff"/>
    <path id="Path_24427" data-name="Path 24427" d="M39.608,28.492A12.472,12.472,0,1,1,52.08,16.019,12.488,12.488,0,0,1,39.608,28.492m0-23.411A10.939,10.939,0,1,0,50.546,16.019,10.952,10.952,0,0,0,39.608,5.081" transform="translate(6282.419 -992.017)" fill="#fff"/>
    <path id="Path_24428" data-name="Path 24428" d="M8.812,1.24,6.43-2.357q-.5.032-.773.032H2.628V1.24H1.54V-9.786H5.657a4.806,4.806,0,0,1,3.194.954A3.348,3.348,0,0,1,9.979-6.127a3.8,3.8,0,0,1-.662,2.287A3.456,3.456,0,0,1,7.423-2.562l2.65,3.8ZM5.657-3.3a3.669,3.669,0,0,0,2.429-.718A2.56,2.56,0,0,0,8.938-6.1a2.453,2.453,0,0,0-.852-2.019,3.755,3.755,0,0,0-2.429-.694H2.628v5.5Z" transform="translate(6316.22 -971.722)" fill="#fff"/>
    <path id="Path_24404" data-name="Path 24404" d="M44.4,43.044C52,47.21,55.943,54.7,53.213,60.033,50.6,65.139,42.8,66.444,35.268,63.264" transform="translate(6301.334 -947.996)" fill="none" stroke="#fff" stroke-linecap="round" stroke-linejoin="round" stroke-width="1.5"/>
    <path id="Path_24399" data-name="Path 24399" d="M65.013,15.833V1H8.648V15.833" transform="translate(6288.47 -968.315)" fill="none" stroke="#fff" stroke-linecap="round" stroke-linejoin="round" stroke-width="1.5"/>
    <line id="Line_203" data-name="Line 203" x2="16.316" transform="translate(6294.152 -959.898)" fill="none" stroke="#fff" stroke-linecap="round" stroke-linejoin="round" stroke-width="1.5"/>
    <line id="Line_204" data-name="Line 204" x2="20.766" transform="translate(6335.684 -959.898)" fill="none" stroke="#fff" stroke-linecap="round" stroke-linejoin="round" stroke-width="1.5"/>
    <path id="Subtraction_21" data-name="Subtraction 21" d="M31,39.407v0A20.984,20.984,0,0,0,41.954,20.975a20.746,20.746,0,0,0-2.326-9.609,21.165,21.165,0,0,0-6.208-7.28,14.55,14.55,0,0,1,1.676.2,15.556,15.556,0,0,1,10.281,7.388,18.531,18.531,0,0,1,2.2,13.281,17.463,17.463,0,0,1-5.963,10.135A19.761,19.761,0,0,1,31,39.407Z" transform="translate(6298.167 -922.3)" fill="none" stroke="#fff" stroke-linecap="round" stroke-linejoin="round" stroke-width="1.5"/>
    <path id="Subtraction_22" data-name="Subtraction 22" d="M16.259,39.533a20.51,20.51,0,0,1-11.5-3.258C1.691,34.173,0,31.379,0,28.408a8.21,8.21,0,0,1,1.491-4.654,12.634,12.634,0,0,1,4.028-3.686c-.012.292-.019.6-.019.908A20.975,20.975,0,0,0,16.686,39.529l-.14,0Z" transform="translate(6292.668 -922.3)" fill="none" stroke="#fff" stroke-linecap="round" stroke-linejoin="round" stroke-width="1.5"/>
    <path id="Path_24417" data-name="Path 24417" d="M45.615,44.048A22.024,22.024,0,1,1,67.637,22.025,22.051,22.051,0,0,1,45.615,44.048m0-41.95A19.927,19.927,0,1,0,65.538,22.025,19.952,19.952,0,0,0,45.615,2.1" transform="translate(6273.533 -923.35)" fill="#fff"/>
    <path id="Path_24419" data-name="Path 24419" d="M45.431,43.224A21.382,21.382,0,1,1,66.816,21.841,21.408,21.408,0,0,1,45.431,43.224m0-40.666A19.284,19.284,0,1,0,64.718,21.841,19.306,19.306,0,0,0,45.431,2.558" transform="translate(6273.716 -923.166)" fill="#fff"/>
    <path id="Path_24421" data-name="Path 24421" d="M44.2,37.672A17.062,17.062,0,1,1,61.261,20.609,17.084,17.084,0,0,1,44.2,37.672m0-32.027A14.965,14.965,0,1,0,59.162,20.609,14.982,14.982,0,0,0,44.2,5.645" transform="translate(6274.949 -921.934)" fill="#fff"/>
    <path id="Path_24422" data-name="Path 24422" d="M11.488,5.3,8.229.377Q7.539.42,7.172.42H3.029V5.3H1.54V-9.786H7.172a6.574,6.574,0,0,1,4.37,1.305,4.58,4.58,0,0,1,1.543,3.7,5.2,5.2,0,0,1-.906,3.129A4.728,4.728,0,0,1,9.589.1l3.625,5.2ZM7.172-.917A5.019,5.019,0,0,0,10.495-1.9,3.5,3.5,0,0,0,11.66-4.737,3.356,3.356,0,0,0,10.495-7.5a5.138,5.138,0,0,0-3.323-.949H3.029V-.917Z" transform="translate(6311.77 -899.078)" fill="#fff"/>
    <line id="Line_205" data-name="Line 205" y1="7.416" transform="translate(6336.946 -1003.265)" fill="none" stroke="#fff" stroke-linecap="round" stroke-width="1.5"/>
    <line id="Line_206" data-name="Line 206" y1="10.383" transform="translate(6314.697 -1013.648)" fill="none" stroke="#fff" stroke-linecap="round" stroke-width="1.5"/>
  </g>
</svg>
