<svg xmlns="http://www.w3.org/2000/svg" width="113.848" height="129.609" viewBox="0 0 113.848 129.609">
  <g id="Group_5282" data-name="Group 5282" transform="translate(-5997.345 985)">
    <path id="Subtraction_63" data-name="Subtraction 63" d="M108.433,102.93a.663.663,0,0,1-.155-.019l-.062-.019L95.945,98.429a.626.626,0,0,1-.3-.222L65.319,67.877c.394-.152.825-.321,1.279-.5L96.045,96.819a1.868,1.868,0,0,0-.019-1.795L67.856,66.854c.417-.176.825-.35,1.248-.535l27.76,27.76.011.007.005,0,.008.005a1.45,1.45,0,0,0,.858.249,2.275,2.275,0,0,0,.543-.068l.008,0,.017,0,.012,0,.012,0a2.972,2.972,0,0,0,1.047-.528l0,0,.016-.013a2.623,2.623,0,0,0,.236-.211,2.575,2.575,0,0,0,.8-2.3,1.322,1.322,0,0,0-.211-.455l0,0a.085.085,0,0,1-.011-.016L84.453,74.974,73.67,64.192c.358-.178.756-.38,1.184-.6l26.3,26.3a1.54,1.54,0,0,0,.844.234,2.356,2.356,0,0,0,.952-.217L76.013,62.97c.377-.208.76-.425,1.138-.646l27.206,27.207a.63.63,0,0,1,.2.282l2.326,6.4.016.04,2.121,5.834a.637.637,0,0,1-.147.662A.626.626,0,0,1,108.433,102.93Zm-2.473-5.582a6.39,6.39,0,0,0-2.48,2.479l1.725.627,2.173.79ZM97.51,95.61a3.617,3.617,0,0,1-.4,1.9l5.17,1.88a7.954,7.954,0,0,1,1.374-1.87,7.847,7.847,0,0,1,1.869-1.372l-1.88-5.169a3.874,3.874,0,0,1-.709.278l-.006,0-.039.011-.005,0-.008,0-.02.005-.01,0-.016,0-.008,0-.019.005a3.442,3.442,0,0,1-.8.1c-.074,0-.155,0-.24-.01l-.024,0a3.877,3.877,0,0,1-.986,2.784l-.024.027-.022.026,0,0h0l0,0-.006.007-.005.006-.006.007-.009.009-.008.009-.014.016-.032.034-.009.01-.013.014-.013.014-.01.011-.036.036-.084.081a3.981,3.981,0,0,1-2.678,1.14c-.054,0-.116,0-.207-.007ZM21.843,24.4,6.308,8.868a.629.629,0,0,1,0-.892L8.091,6.2l.034-.032,4.2-4.206.027-.025L14.111.177a.651.651,0,0,1,.893,0l19.3,19.3-1.278.506L14.557,1.515l-.888.889L31.747,20.483l-1.277.506L12.776,3.3,9.429,6.643,25.673,22.887l-1.279.506L8.536,7.534l-.89.888L23.121,23.9l-1.277.505Z" transform="translate(5998.734 -959.192)" fill="#fff" stroke="rgba(0,0,0,0)" stroke-miterlimit="10" stroke-width="1"/>
    <path id="Path_23744" data-name="Path 23744" d="M666.4,356.921h0a.631.631,0,0,1-.447-.185l-1.828-1.831a.63.63,0,0,1,0-.891l1.779-1.783a.649.649,0,0,1,.892,0l1.831,1.832a.631.631,0,0,1,0,.892l-1.782,1.781a.63.63,0,0,1-.445.185m-.937-2.461.938.939.891-.89-.941-.94Z" transform="translate(5339.071 -1307.082)" fill="#fff"/>
    <path id="Path_23745" data-name="Path 23745" d="M669.373,352.286h0a.633.633,0,0,1-.446-.185l-1.831-1.833a.63.63,0,0,1,0-.892l4.239-4.236a.631.631,0,0,1,.892,0l1.829,1.83a.632.632,0,0,1,0,.892l-4.238,4.238a.633.633,0,0,1-.446.185m-.939-2.463.939.94,3.346-3.346-.938-.939Z" transform="translate(5337.874 -1304.228)" fill="#fff"/>
    <path id="Path_23746" data-name="Path 23746" d="M676.463,346.85h0a.633.633,0,0,1-.446-.185l-1.829-1.831a.63.63,0,0,1,0-.891l1.779-1.782a.63.63,0,0,1,.892,0l1.831,1.832a.631.631,0,0,1,0,.891l-1.781,1.781a.633.633,0,0,1-.446.185m-.938-2.461.938.939.89-.889-.939-.939Z" transform="translate(5335.022 -1303.03)" fill="#fff"/>
    <path id="Subtraction_70" data-name="Subtraction 70" d="M2.45,25.16h0l-1.38-1.382L0,22.7l.368-.419c3.867-4.4,5.513-9.5,4-12.4L4.1,9.371,4.6,9.085A43.4,43.4,0,0,0,10.2,5.2,43.131,43.131,0,0,0,15.1.554L15.6,0l.435.6a38.837,38.837,0,0,0,3.978,4.667,38.4,38.4,0,0,0,4.64,4.011l.6.437-.557.493A44.671,44.671,0,0,0,16.09,20.655l-.29.493-.5-.267a5.447,5.447,0,0,0-2.568-.57c-2.933,0-6.618,1.676-9.858,4.484l-.42.365Zm9.072-10.085-7.03,6.981a15.56,15.56,0,0,1,8.236-2.94,6.935,6.935,0,0,1,2.609.468,45,45,0,0,1,3.753-5.259A45.907,45.907,0,0,1,22.523,10.6l.546.55L24.387,9.84,15.478.862,14.16,2.17l.546.551a45.72,45.72,0,0,1-3.754,3.408A44.932,44.932,0,0,1,5.666,9.844c1.113,2.8.167,6.847-2.531,10.815l7.014-6.969a1.851,1.851,0,0,1,.494-1.763,1.921,1.921,0,0,1,2.653.009,1.848,1.848,0,0,1,.546,1.32,1.867,1.867,0,0,1-.552,1.331,1.894,1.894,0,0,1-1.325.54,1.873,1.873,0,0,1-.445-.053Zm.442-2.49h0a.662.662,0,0,0-.592.984l.1.19.18.095a.674.674,0,0,0,1-.6.669.669,0,0,0-.2-.476.69.69,0,0,0-.487-.2Z" transform="translate(5999.911 -881.235)" fill="#fff" stroke="rgba(0,0,0,0)" stroke-miterlimit="10" stroke-width="1"/>
    <path id="Subtraction_62" data-name="Subtraction 62" d="M9.467,72.61h0L0,63.076l.436-.42c3.827-3.7,9.211-8.946,16.945-16.511.332.2.692.413,1.069.626C10.806,54.249,5.484,59.435,1.7,63.095l7.759,7.813c5.255-5.359,12.633-12.835,19.156-19.442.4.157.811.315,1.219.467-9.364,9.483-15.7,15.915-19.946,20.245l-.423.432ZM72.28,7.617h0L71.15,7.193a5.334,5.334,0,0,0,.266-4.015A3.287,3.287,0,0,0,68.18,1.2c-1.8,0-3.8.931-5.809,2.693l-1.256-.473C63.456,1.212,65.965,0,68.18,0a4.486,4.486,0,0,1,4.342,2.722,6.344,6.344,0,0,1-.242,4.894Z" transform="translate(6014.676 -943.296)" fill="#fff" stroke="rgba(0,0,0,0)" stroke-miterlimit="10" stroke-width="1"/>
    <path id="Path_23814" data-name="Path 23814" d="M690.776,487.488l-9.755-9.829,2.171-2.147,9.75,9.824Zm-8.063-9.82,8.069,8.128.469-.466-8.067-8.128Z" transform="translate(5332.202 -1356.729)" fill="#fff"/>
    <path id="Subtraction_37" data-name="Subtraction 37" d="M91.387,28.906h0l-1.229-.461,16.1-16c2.165-2.151,2.406-5.434.536-7.318L104.165,2.48A4.473,4.473,0,0,0,100.957,1.2a5.93,5.93,0,0,0-4.116,1.768L76.411,23.27l-1.23-.463L96,2.115A7.134,7.134,0,0,1,100.957,0a5.659,5.659,0,0,1,4.056,1.637l2.626,2.645c2.334,2.352,2.091,6.393-.543,9.008Z" transform="translate(5998.734 -963.393)" fill="#fff" stroke="rgba(0,0,0,0)" stroke-miterlimit="10" stroke-width="1"/>
    <path id="Subtraction_38" data-name="Subtraction 38" d="M74.2,20.334h0l-1.231-.463L90.576,2.425A9.675,9.675,0,0,1,93.388.208a2.673,2.673,0,0,1,1-.208,3,3,0,0,1,2.131,1.045l10.712,10.517-.838.853L95.678,1.893a1.915,1.915,0,0,0-1.3-.7,1.43,1.43,0,0,0-.545.12,8.992,8.992,0,0,0-2.417,1.958L74.2,20.334Z" transform="translate(5998.734 -961.291)" fill="#fff" stroke="rgba(0,0,0,0)" stroke-miterlimit="10" stroke-width="1"/>
    <path id="Subtraction_68" data-name="Subtraction 68" d="M31.627,29.084a.572.572,0,0,1-.122-.013,80.03,80.03,0,0,1-17.352-6.009C3.53,18.142,1.355,14.211,1.29,9.462l-.05-6,1.2.386.047,5.6c.061,4.394,2.072,7.853,12.171,12.529a80.2,80.2,0,0,0,16.367,5.769L30.887,11.48l.578.218.617-.245.143,17.028a.6.6,0,0,1-.6.6ZM2.413.835h0L1.214.42V.314l1.2.451V.834Z" transform="translate(6022.982 -916.88)" fill="#fff" stroke="rgba(0,0,0,0)" stroke-miterlimit="10" stroke-width="1"/>
    <path id="Subtraction_67" data-name="Subtraction 67" d="M.74,29.634a.608.608,0,0,1-.372-.13.6.6,0,0,1-.226-.463L0,12.016l.615.232.581-.23.136,16.268A80.032,80.032,0,0,0,17.6,22.24C27.62,17.4,29.572,13.9,29.558,9.509l-.049-5.79L30.7,3.274,30.754,9.5c.015,4.749-2.093,8.717-12.632,13.815A79.88,79.88,0,0,1,.87,29.62.613.613,0,0,1,.74,29.634ZM29.485.887h0V.827L30.677.356V.444L29.487.887Z" transform="translate(6053.832 -917.429)" fill="#fff" stroke="rgba(0,0,0,0)" stroke-miterlimit="10" stroke-width="1"/>
    <path id="Subtraction_47" data-name="Subtraction 47" d="M56.311,46.759a.612.612,0,0,1-.212-.039L.387,25.754A.6.6,0,0,1,0,25.124l.408-3.411A.6.6,0,0,1,1,21.186l1.569-.012L.734,21.9l1.259.474-.455,0L1.247,24.8,56.3,45.519l54.781-21.668.094-2.28-.917.007,1.541-.61-1.558-.586,1.552-.011a.566.566,0,0,1,.435.183.6.6,0,0,1,.167.44l-.138,3.3a.6.6,0,0,1-.375.531l-55.357,21.9A.592.592,0,0,1,56.311,46.759Z" transform="translate(5998 -948.048)" fill="#fff" stroke="rgba(0,0,0,0)" stroke-miterlimit="10" stroke-width="1"/>
    <path id="Path_23825" data-name="Path 23825" d="M712.1,406.792a.611.611,0,0,1-.211-.038l-55.712-20.966a.6.6,0,0,1-.01-1.116l55.353-21.9a.6.6,0,0,1,.431,0l55.717,20.968a.6.6,0,0,1,.009,1.116l-55.358,21.9a.593.593,0,0,1-.22.042m-54.052-21.578,54.046,20.339,53.7-21.244-54.052-20.342Z" transform="translate(5342.347 -1311.375)" fill="#fff"/>
    <path id="Subtraction_69" data-name="Subtraction 69" d="M41.155,31.062H41.15a.6.6,0,0,1-.583-.466,3.323,3.323,0,0,0,.531.043h.027a3.324,3.324,0,0,0,.613-.063A.6.6,0,0,1,41.155,31.062Zm.539-6.916h0a3.306,3.306,0,0,0-.6-.054h-.027a3.338,3.338,0,0,0-.57.054l-.059-6.919L9.534,5.593a6.154,6.154,0,0,0,1.46-.729L41.245,16.251a.6.6,0,0,1,.388.555l.061,7.338Z" transform="translate(6048.177 -935.361)" fill="#fff" stroke="rgba(0,0,0,0)" stroke-miterlimit="10" stroke-width="1"/>
    <path id="Path_23828" data-name="Path 23828" d="M745.091,391.3c-3.746,0-6.586-1.558-6.6-3.624s2.9-3.7,6.649-3.73h.11c3.747,0,6.586,1.556,6.6,3.618s-2.9,3.7-6.65,3.737Zm.154-6.159h-.1c-3.232.027-5.473,1.352-5.463,2.524.011,1.153,2.234,2.439,5.409,2.439h.1c3.232-.028,5.475-1.357,5.464-2.531-.009-1.15-2.231-2.432-5.406-2.432" transform="translate(5309.093 -1319.908)" fill="#fff"/>
    <path id="Subtraction_66" data-name="Subtraction 66" d="M.932,8.851v0L.9,5.534a3.3,3.3,0,0,0,1.2.8l.014,1.6a3.378,3.378,0,0,0-1.187.911Zm4.774-.043,0,0a3.392,3.392,0,0,0-1.2-.887L4.491,6.313a3.3,3.3,0,0,0,1.188-.819L5.707,8.8Z" transform="translate(6086.002 -911.27)" fill="#fff" stroke="rgba(0,0,0,0)" stroke-miterlimit="10" stroke-width="1"/>
    <path id="Path_23832" data-name="Path 23832" d="M804.172,456.806l-.027,0h-.059c-2.491,0-4.789-.9-5.856-2.279a2.49,2.49,0,0,1-.527-2.167l.045-.172.132-.119c1.239-1.122,1.546-4.262,2.22-11.141a4.2,4.2,0,0,1,3.859-3.83h.078a4.206,4.206,0,0,1,3.923,3.741c.852,7.449,1.207,10.07,2.411,11.128l.133.117.048.17a2.491,2.491,0,0,1-.5,2.177c-1.051,1.407-3.347,2.339-5.849,2.375Zm-5.339-4a1.436,1.436,0,0,0,.344.986,6.374,6.374,0,0,0,4.9,1.813h.171a6.375,6.375,0,0,0,4.852-1.894,1.435,1.435,0,0,0,.331-.992c-1.483-1.476-1.837-4.571-2.655-11.724a3,3,0,0,0-2.708-2.706h-.157a3.019,3.019,0,0,0-2.624,2.775c-.719,7.354-1,10.264-2.454,11.742" transform="translate(5285.309 -1341.28)" fill="#fff"/>
    <path id="Path_23834" data-name="Path 23834" d="M805.625,431.986a3.856,3.856,0,1,1,.032,0Zm0-6.547a2.675,2.675,0,0,0,0,5.351v.6l.022-.6a2.675,2.675,0,0,0-.025-5.351" transform="translate(5283.65 -1336.112)" fill="#fff"/>
    <path id="Path_24377" data-name="Path 24377" d="M87.451,91.069a15.609,15.609,0,1,1,15.608-15.61,15.629,15.629,0,0,1-15.608,15.61m0-30.553a14.943,14.943,0,1,0,14.942,14.943A14.962,14.962,0,0,0,87.451,60.516" transform="translate(5966.752 -1044.85)" fill="#fff"/>
    <path id="Path_24379" data-name="Path 24379" d="M88.038,91.19a15.143,15.143,0,1,1,15.144-15.145A15.161,15.161,0,0,1,88.038,91.19m0-29.619a14.477,14.477,0,1,0,14.478,14.475A14.492,14.492,0,0,0,88.038,61.571" transform="translate(5966.165 -1045.437)" fill="#fff"/>
    <path id="Path_24381" data-name="Path 24381" d="M91.977,91.977a12,12,0,1,1,12-12,12.01,12.01,0,0,1-12,12m0-23.326a11.33,11.33,0,1,0,11.33,11.331,11.344,11.344,0,0,0-11.33-11.331" transform="translate(5962.226 -1049.373)" fill="#fff"/>
    <path id="Path_24394" data-name="Path 24394" d="M11.072-7.454,8.454-11.407q-.555.035-.849.035H4.276v3.918H3.08V-19.572H7.6a5.282,5.282,0,0,1,3.511,1.049,3.68,3.68,0,0,1,1.24,2.973,4.174,4.174,0,0,1-.728,2.514,3.8,3.8,0,0,1-2.08,1.4l2.912,4.178ZM7.6-12.447a4.032,4.032,0,0,0,2.67-.789,2.814,2.814,0,0,0,.936-2.28,2.7,2.7,0,0,0-.936-2.219A4.127,4.127,0,0,0,7.6-18.5H4.276v6.05Z" transform="translate(6046.813 -955.878)" fill="#fff"/>
  </g>
</svg>
