<svg xmlns="http://www.w3.org/2000/svg" xmlns:xlink="http://www.w3.org/1999/xlink" width="143.348" height="115.956" viewBox="0 0 143.348 115.956">
  <defs>
    <linearGradient id="linear-gradient" x1="0.5" y1="0.5" x2="0.5" y2="1" gradientUnits="objectBoundingBox">
      <stop offset="0" stop-color="#8dba78"/>
      <stop offset="1" stop-color="#648f4f"/>
    </linearGradient>
  </defs>
  <g id="Group_4908" data-name="Group 4908" transform="translate(-604.088 -1224.1)">
    <path id="Path_23871" data-name="Path 23871" d="M144.137,138.174h-121a.777.777,0,0,1-.125-.01,4.232,4.232,0,0,1-3.216-3.857.795.795,0,0,1,.788-.892l123.552,0a.8.8,0,0,1,.794.8l0,3.173a.794.794,0,0,1-.794.793M23.21,136.585H143.343l0-1.585-121.75,0a2.355,2.355,0,0,0,1.615,1.582" transform="translate(599.2 1191.152)" fill="#2c5871"/>
    <path id="Path_23872" data-name="Path 23872" d="M144.125,146.763h-121a.8.8,0,0,1-.291-.055l-.021-.008a4.839,4.839,0,0,1,0-9.012l.02-.008a1.732,1.732,0,0,1,.29-.054h121a.794.794,0,0,1,.794.794v7.55a.794.794,0,0,1-.794.794M23.292,145.175H143.331l0-5.961H23.291l-.033.006c-1.08.168-1.927,1.475-1.929,2.975s.849,2.8,1.927,2.972l.037.007" transform="translate(599.214 1190.112)" fill="#2c5871"/>
    <path id="Path_23873" data-name="Path 23873" d="M144.138,152.412H20.588a.794.794,0,0,1-.788-.89,4.227,4.227,0,0,1,3.218-3.861.755.755,0,0,1,.124-.01h121a.8.8,0,0,1,.794.794v3.173a.794.794,0,0,1-.794.794M21.593,150.823H143.345v-1.584H23.21a2.358,2.358,0,0,0-1.617,1.584" transform="translate(599.2 1187.636)" fill="#2c5871"/>
    <path id="Path_23915" data-name="Path 23915" d="M15.959,148.366a3.434,3.434,0,0,1,2.554-3.18h0c-.013,0-.025-.009-.035-.011a.121.121,0,0,0,.037,0c-1.462-.229-2.593-1.82-2.6-3.758s1.136-3.531,2.6-3.76l-.039,0c.011,0,.022-.01.035-.012h0a3.435,3.435,0,0,1-2.555-3.181l-14.9,6.956Z" transform="translate(603.828 1190.895)" fill="#fff"/>
    <path id="Path_23914" data-name="Path 23914" d="M15.7,148.9a.791.791,0,0,1-.336-.075L.458,141.872a.795.795,0,0,1,0-1.44l14.9-6.955a.795.795,0,0,1,1.125.624,2.671,2.671,0,0,0,1.88,2.49.8.8,0,0,1,.016,1.586c-1.08.168-1.927,1.475-1.929,2.975s.849,2.8,1.926,2.972a.8.8,0,0,1-.044,1.592,2.685,2.685,0,0,0-1.849,2.484.794.794,0,0,1-.788.7M2.673,141.152l12.469,5.817a4.563,4.563,0,0,1,1.343-2.052,5.189,5.189,0,0,1,0-7.532,4.573,4.573,0,0,1-1.343-2.053Z" transform="translate(604.088 1191.155)" fill="#2c5871"/>
    <path id="Path_23916" data-name="Path 23916" d="M7.881,146.448a.794.794,0,0,1-.336-.075L.459,143.068a.794.794,0,0,1,0-1.44l7.086-3.307a.792.792,0,0,1,1.078.438,10.072,10.072,0,0,1,.683,3.59,10.088,10.088,0,0,1-.683,3.588.794.794,0,0,1-.443.454.8.8,0,0,1-.3.058m-5.209-4.1,4.734,2.209a8.212,8.212,0,0,0,.31-2.209,8.219,8.219,0,0,0-.31-2.209Z" transform="translate(604.088 1189.959)" fill="#2c5871"/>
    <path id="Path_23874" data-name="Path 23874" d="M187.972,138.176h0l-3.262,0a.794.794,0,0,1-.794-.794v-3.174a.793.793,0,0,1,.794-.794h0l3.259,0a.8.8,0,0,1,.794.793l0,3.173a.794.794,0,0,1-.794.8m-2.468-1.59h1.673l0-1.585H185.5Z" transform="translate(558.67 1191.152)" fill="#2c5871"/>
    <path id="Path_23875" data-name="Path 23875" d="M187.969,146.763H184.71a.794.794,0,0,1-.794-.794V138.42a.794.794,0,0,1,.794-.794h3.262a.8.8,0,0,1,.794.794l0,7.548a.794.794,0,0,1-.794.794m-2.465-1.589h1.672l0-5.959H185.5Z" transform="translate(558.67 1190.112)" fill="#2c5871"/>
    <path id="Path_23876" data-name="Path 23876" d="M187.972,152.411H184.71a.794.794,0,0,1-.794-.794v-3.173a.794.794,0,0,1,.794-.794h3.259a.8.8,0,0,1,.794.794l0,3.172a.794.794,0,0,1-.794.794m-2.468-1.588h1.673l0-1.584H185.5Z" transform="translate(558.67 1187.636)" fill="#2c5871"/>
    <path id="Path_23877" data-name="Path 23877" d="M130.336,57.489A43.563,43.563,0,1,1,86.771,13.924a43.565,43.565,0,0,1,43.565,43.565" transform="translate(593.418 1220.661)" fill="#f0edda"/>
    <path id="Path_23878" data-name="Path 23878" d="M86.525,101.557a44.316,44.316,0,1,1,44.318-44.315,44.366,44.366,0,0,1-44.318,44.315m0-87.127a42.81,42.81,0,1,0,42.811,42.811A42.859,42.859,0,0,0,86.525,14.43" transform="translate(593.665 1220.908)" fill="#2c5871"/>
    <path id="Path_23893" data-name="Path 23893" d="M44.647,56.986a43.615,43.615,0,0,0,28.275,52.448A43.626,43.626,0,0,0,44.647,56.986" transform="translate(593.418 1210.026)" fill="url(#linear-gradient)"/>
    <path id="Path_23894" data-name="Path 23894" d="M73.2,110.086l-.763-.255A44.368,44.368,0,0,1,43.672,56.477l.2-.778.762.255A44.375,44.375,0,0,1,73.4,109.308ZM44.929,57.648a42.863,42.863,0,0,0,27.217,50.49,42.876,42.876,0,0,0-27.217-50.49" transform="translate(593.665 1210.344)" fill="#2c5871"/>
    <path id="Path_23879" data-name="Path 23879" d="M117.541,98.3a43.659,43.659,0,0,0,1.437,11.135,43.6,43.6,0,0,0,28.273-52.448A43.581,43.581,0,0,0,117.541,98.3" transform="translate(575.062 1210.026)" fill="url(#linear-gradient)"/>
    <path id="Path_23880" data-name="Path 23880" d="M118.207,110.086l-.2-.778a44.375,44.375,0,0,1,28.763-53.354l.762-.255.2.778a44.354,44.354,0,0,1-28.762,53.354Zm28.268-52.438a42.872,42.872,0,0,0-27.216,50.49,42.848,42.848,0,0,0,27.216-50.49" transform="translate(575.307 1210.344)" fill="#2c5871"/>
    <path id="Path_23912" data-name="Path 23912" d="M28.193,5.917h-.981l-.3,4.572-.788,12.124L27.7,15.976l1.575,6.637-.786-12.124Z" transform="translate(597.637 1222.638)" fill="#66cde1"/>
    <path id="Path_23913" data-name="Path 23913" d="M26.611,22.539l-1.484-.222,1.133-17.4h2.392l1.13,17.4-1.484.222-.843-3.551Zm.465-6.984h.759l-.379-5.841Z" transform="translate(597.882 1222.884)" fill="#2c5871"/>
    <rect id="Rectangle_2589" data-name="Rectangle 2589" width="114.87" height="3.894" transform="translate(622.755 1224.852)" fill="#009677"/>
    <path id="Path_23911" data-name="Path 23911" d="M140.164,5.4H23.788V0H140.164ZM25.294,3.894H138.658V1.506H25.294Z" transform="translate(598.213 1224.1)" fill="#2c5871"/>
    <path id="Path_23895" data-name="Path 23895" d="M116.171,14.931H71.2q1.071-4.383,2.143-8.761h40.688q1.074,4.378,2.143,8.761" transform="translate(586.505 1222.575)" fill="#009677"/>
    <path id="Path_23896" data-name="Path 23896" d="M116.816,15.437H69.924L72.435,5.17H114.3l.14.574q1.075,4.378,2.144,8.762ZM71.843,13.931H114.9q-.886-3.628-1.775-7.255H73.617Z" transform="translate(586.82 1222.823)" fill="#2c5871"/>
    <path id="Path_23897" data-name="Path 23897" d="M67.264,141.364a2.772,2.772,0,0,1-5.544,0v-7.08a2.772,2.772,0,0,1,5.544,0Z" transform="translate(588.845 1191.612)" fill="#f0edda"/>
    <path id="Path_23898" data-name="Path 23898" d="M64.244,144.6a3.511,3.511,0,0,1-3.525-3.488v-7.08a3.526,3.526,0,0,1,7.051,0v7.08a3.511,3.511,0,0,1-3.526,3.488m0-12.551a2,2,0,0,0-2.019,1.983v7.08a2.02,2.02,0,0,0,4.039,0v-7.08a2,2,0,0,0-2.02-1.983" transform="translate(589.092 1191.86)" fill="#2c5871"/>
    <path id="Path_23899" data-name="Path 23899" d="M74.24,141.364a2.773,2.773,0,0,1-5.545,0v-7.08a2.773,2.773,0,0,1,5.545,0Z" transform="translate(587.123 1191.612)" fill="#f0edda"/>
    <path id="Path_23900" data-name="Path 23900" d="M71.221,144.6a3.512,3.512,0,0,1-3.527-3.488v-7.08a3.526,3.526,0,0,1,7.052,0v7.08a3.511,3.511,0,0,1-3.525,3.488m0-12.551a2,2,0,0,0-2.02,1.983v7.08a2.02,2.02,0,0,0,4.039,0v-7.08a2,2,0,0,0-2.019-1.983" transform="translate(587.37 1191.86)" fill="#2c5871"/>
    <path id="Path_23901" data-name="Path 23901" d="M81.218,141.364a2.773,2.773,0,0,1-5.546,0v-7.08a2.773,2.773,0,0,1,5.546,0Z" transform="translate(585.4 1191.612)" fill="#f0edda"/>
    <path id="Path_23902" data-name="Path 23902" d="M78.2,144.6a3.512,3.512,0,0,1-3.527-3.488v-7.08a3.527,3.527,0,0,1,7.053,0v7.08A3.512,3.512,0,0,1,78.2,144.6m0-12.551a2,2,0,0,0-2.02,1.983v7.08a2.021,2.021,0,0,0,4.041,0v-7.08a2,2,0,0,0-2.02-1.983" transform="translate(585.647 1191.86)" fill="#2c5871"/>
    <path id="Path_23881" data-name="Path 23881" d="M124.626,141.364a2.773,2.773,0,0,1-5.546,0v-7.08a2.773,2.773,0,0,1,5.546,0Z" transform="translate(574.681 1191.612)" fill="#f0edda"/>
    <path id="Path_23882" data-name="Path 23882" d="M121.607,144.6a3.512,3.512,0,0,1-3.527-3.488v-7.08a3.527,3.527,0,0,1,7.053,0v7.08a3.512,3.512,0,0,1-3.527,3.488m0-12.551a2,2,0,0,0-2.02,1.983v7.08a2.021,2.021,0,0,0,4.041,0v-7.08a2,2,0,0,0-2.02-1.983" transform="translate(574.928 1191.86)" fill="#2c5871"/>
    <path id="Path_23883" data-name="Path 23883" d="M131.6,141.364a2.773,2.773,0,0,1-5.545,0v-7.08a2.773,2.773,0,0,1,5.545,0Z" transform="translate(572.958 1191.612)" fill="#f0edda"/>
    <path id="Path_23884" data-name="Path 23884" d="M128.583,144.6a3.512,3.512,0,0,1-3.527-3.488v-7.08a3.526,3.526,0,0,1,7.052,0v7.08a3.511,3.511,0,0,1-3.524,3.488m0-12.551a2,2,0,0,0-2.021,1.983v7.08a2.02,2.02,0,0,0,4.039,0v-7.08a2,2,0,0,0-2.018-1.983" transform="translate(573.206 1191.86)" fill="#2c5871"/>
    <path id="Path_23885" data-name="Path 23885" d="M138.578,141.364a2.772,2.772,0,0,1-5.544,0v-7.08a2.772,2.772,0,0,1,5.544,0Z" transform="translate(571.236 1191.612)" fill="#f0edda"/>
    <path id="Path_23886" data-name="Path 23886" d="M135.559,144.6a3.511,3.511,0,0,1-3.525-3.488v-7.08a3.526,3.526,0,0,1,7.051,0v7.08a3.511,3.511,0,0,1-3.526,3.488m0-12.551a2,2,0,0,0-2.019,1.983v7.08a2.02,2.02,0,0,0,4.039,0v-7.08a2,2,0,0,0-2.02-1.983" transform="translate(571.481 1191.86)" fill="#2c5871"/>
    <path id="Path_23887" data-name="Path 23887" d="M47.056,47.559c.34-.006.683-.01,1.026-.01,15.614,0,29.548,5.583,38.7,14.324,9.148-8.741,23.083-14.324,38.694-14.324.343,0,.688,0,1.029.01.123-.475.242-.949.36-1.427,2.684-11.286,3.837-20.761,3.353-28.464-11.348-1.025-20.9-1.334-28.151,1-7.223,2.118-12.213,6.8-15.285,14.059C83.7,25.471,78.718,20.786,71.494,18.668c-7.254-2.334-16.805-2.026-28.153-1-.484,7.7.668,17.179,3.356,28.464.116.478.236.952.359,1.427" transform="translate(593.412 1219.927)" fill="#8dba78"/>
    <path id="Path_23888" data-name="Path 23888" d="M86.531,62.666l-.52-.5c-9.389-8.97-23.3-14.115-38.176-14.115q-.507,0-1.013.01l-.593.01L46.08,47.5c-.124-.478-.245-.956-.363-1.438C42.96,34.483,41.856,25.1,42.342,17.372l.041-.645.643-.058c5.943-.536,10.31-.776,14.16-.776A47.061,47.061,0,0,1,71.477,17.7,23.337,23.337,0,0,1,86.531,30.656,23.348,23.348,0,0,1,101.6,17.7a47.012,47.012,0,0,1,14.272-1.8c3.85,0,8.217.239,14.159.776l.644.058.04.645c.486,7.722-.618,17.105-3.372,28.686-.118.486-.239.963-.363,1.441l-.149.575-.593-.01c-.337-.006-.677-.01-1.016-.01-14.872,0-28.785,5.145-38.174,14.115Zm-38.7-16.117c14.985,0,29.04,5.109,38.7,14.043,9.75-9.022,24.006-14.149,39.14-14.041.072-.282.142-.563.211-.846,2.641-11.107,3.746-20.144,3.37-27.594-5.567-.491-9.714-.712-13.376-.712a45.59,45.59,0,0,0-13.829,1.737c-6.958,2.041-11.8,6.5-14.822,13.637l-.694,1.637-.694-1.637c-3.023-7.138-7.866-11.6-14.8-13.631A45.62,45.62,0,0,0,57.186,17.4c-3.662,0-7.81.221-13.377.712-.377,7.453.728,16.491,3.373,27.6q.1.42.209.841l.444,0" transform="translate(593.66 1220.175)" fill="#2c5871"/>
    <path id="Path_23889" data-name="Path 23889" d="M86.426,42.44A22.117,22.117,0,1,1,64.309,20.324,22.117,22.117,0,0,1,86.426,42.44" transform="translate(593.669 1219.08)" fill="#fff"/>
    <path id="Path_23890" data-name="Path 23890" d="M64.062,65.063A22.869,22.869,0,1,1,86.931,42.193,22.9,22.9,0,0,1,64.062,65.063m0-44.232A21.363,21.363,0,1,0,85.425,42.193,21.388,21.388,0,0,0,64.062,20.83" transform="translate(593.916 1219.327)" fill="#2c5871"/>
    <path id="Path_23903" data-name="Path 23903" d="M76.429,47.317a7.244,7.244,0,1,1-7.243-7.247,7.243,7.243,0,0,1,7.243,7.247" transform="translate(588.792 1214.204)" fill="#00c0e8"/>
    <path id="Path_23904" data-name="Path 23904" d="M68.939,55.065a8,8,0,1,1,8-8,8.006,8.006,0,0,1-8,8m0-14.489a6.492,6.492,0,1,0,6.489,6.494,6.5,6.5,0,0,0-6.489-6.494" transform="translate(589.039 1214.451)" fill="#2c5871"/>
    <path id="Path_23905" data-name="Path 23905" d="M71.559,46.443a2.678,2.678,0,1,1-2.679-2.678,2.677,2.677,0,0,1,2.679,2.678" transform="translate(587.739 1213.291)" fill="#fff"/>
    <path id="Path_23906" data-name="Path 23906" d="M68.635,49.627A3.431,3.431,0,1,1,72.066,46.2a3.435,3.435,0,0,1-3.432,3.431m0-5.356A1.925,1.925,0,1,0,70.56,46.2a1.927,1.927,0,0,0-1.926-1.925" transform="translate(587.986 1213.538)" fill="#2c5871"/>
    <path id="Path_23891" data-name="Path 23891" d="M145.419,42.44A22.117,22.117,0,1,1,123.3,20.324,22.116,22.116,0,0,1,145.419,42.44" transform="translate(579.1 1219.08)" fill="#fff"/>
    <path id="Path_23892" data-name="Path 23892" d="M123.056,65.063a22.869,22.869,0,1,1,22.869-22.869,22.9,22.9,0,0,1-22.869,22.869m0-44.232a21.363,21.363,0,1,0,21.363,21.363A21.389,21.389,0,0,0,123.056,20.83" transform="translate(579.348 1219.327)" fill="#2c5871"/>
    <path id="Path_23907" data-name="Path 23907" d="M135.422,47.317a7.245,7.245,0,1,1-7.243-7.247,7.243,7.243,0,0,1,7.243,7.247" transform="translate(574.224 1214.204)" fill="#00c0e8"/>
    <path id="Path_23908" data-name="Path 23908" d="M127.932,55.065a8,8,0,1,1,8-8,8.007,8.007,0,0,1-8,8m0-14.489a6.492,6.492,0,1,0,6.49,6.494,6.5,6.5,0,0,0-6.49-6.494" transform="translate(574.471 1214.451)" fill="#2c5871"/>
    <path id="Path_23909" data-name="Path 23909" d="M129.732,46.443a2.677,2.677,0,1,1-2.677-2.678,2.678,2.678,0,0,1,2.677,2.678" transform="translate(573.372 1213.291)" fill="#fff"/>
    <path id="Path_23910" data-name="Path 23910" d="M126.809,49.627a3.431,3.431,0,1,1,3.43-3.431,3.435,3.435,0,0,1-3.43,3.431m0-5.356a1.925,1.925,0,1,0,1.924,1.925,1.927,1.927,0,0,0-1.924-1.925" transform="translate(573.619 1213.538)" fill="#2c5871"/>
    <rect id="Rectangle_2588" data-name="Rectangle 2588" width="143.348" height="115.956" transform="translate(604.088 1224.1)" fill="none"/>
  </g>
</svg>
