<svg xmlns="http://www.w3.org/2000/svg" xmlns:xlink="http://www.w3.org/1999/xlink" width="126.381" height="118.54" viewBox="0 0 126.381 118.54">
  <defs>
    <linearGradient id="linear-gradient" x1="0.5" y1="0.604" x2="0.5" y2="1" gradientUnits="objectBoundingBox">
      <stop offset="0" stop-color="#8dba78"/>
      <stop offset="1" stop-color="#648f4f"/>
    </linearGradient>
  </defs>
  <g id="Group_5222" data-name="Group 5222" transform="translate(-64.975 -626.455)">
    <g id="Group_5221" data-name="Group 5221" transform="translate(66.446 627.5)">
      <path id="Path_24429" data-name="Path 24429" d="M11761.494,215.6a57.965,57.965,0,0,0,30.7,30.128c3.469,1.47,7.373,1.8,12.063,2.749.078-.112,6.986,2.48,6.986,2.48l12.822-11.742s-4.209-15.46-13.889-20.6-20.785-6.461-25.738-22.979C11784.574,195.425,11761.494,215.6,11761.494,215.6Z" transform="translate(-11730.023 -162.679)" fill="url(#linear-gradient)"/>
      <path id="Path_24405" data-name="Path 24405" d="M14.654,69.428l2.985-1.987a1.364,1.364,0,0,0,.4-1.86L5.835,46.051a1.367,1.367,0,0,0-1.914-.412L1,47.581Z" transform="translate(27.065 47.317)" fill="#cceef5" stroke="#0a5d49" stroke-linecap="round" stroke-linejoin="round" stroke-width="1.5"/>
      <path id="Path_24407" data-name="Path 24407" d="M46.138,49.249l23.445-8.808a5.462,5.462,0,1,1,4.18,10.092L49.647,60.754a13.641,13.641,0,0,1-5.329,1.083H23.055a8.2,8.2,0,0,0-4.5,1.349l-5.433,3.575" transform="translate(31.494 45.35)" fill="none" stroke="#0a5d49" stroke-linecap="round" stroke-linejoin="round" stroke-width="1.5"/>
      <path id="Path_24408" data-name="Path 24408" d="M73.521,4.731H68.742L45.53,2H33.174a8.193,8.193,0,0,0-4.819,1.568L23,7.462" transform="translate(35.105 31.453)" fill="none" stroke="#0a5d49" stroke-linecap="round" stroke-linejoin="round" stroke-width="1.5"/>
      <path id="Path_24410" data-name="Path 24410" d="M65.462,29.674h-4.1A1.366,1.366,0,0,1,60,28.309V2.365A1.366,1.366,0,0,1,61.365,1h4.1Z" transform="translate(48.626 31.088)" fill="#cceef5" stroke="#0a5d49" stroke-linecap="round" stroke-linejoin="round" stroke-width="1.5"/>
      <path id="Path_24411" data-name="Path 24411" d="M31.252,50.3C14.208,41.428,3,21.809,3,21.809L26.83,1a27.945,27.945,0,0,0,7.992,13.654" transform="translate(27.796 31.088)" fill="none" stroke="#0a5d49" stroke-linecap="round" stroke-linejoin="round" stroke-width="1.5"/>
      <path id="Path_24412" data-name="Path 24412" d="M41.339,20.264c8.193,6.827,11.1,18.081,11.1,18.081l-6.1,5.167" transform="translate(41.807 38.128)" fill="none" stroke="#0a5d49" stroke-linecap="round" stroke-linejoin="round" stroke-width="1.5"/>
      <path id="Path_24413" data-name="Path 24413" d="M38.615,38.654l3.665-3s-1.09-3.455.093-5.728L37.173,25" transform="translate(40.284 39.859)" fill="none" stroke="#0a5d49" stroke-linecap="round" stroke-linejoin="round" stroke-width="1.5"/>
      <path id="Path_24414" data-name="Path 24414" d="M18.131,11.418,12.31,17.053a6.435,6.435,0,0,1-1.821,6.273s3.362,4.637,5.634,5.821" transform="translate(30.533 34.895)" fill="none" stroke="#0a5d49" stroke-linecap="round" stroke-linejoin="round" stroke-width="1.5"/>
      <path id="Path_24415" data-name="Path 24415" d="M25.61,19c-6.827,4.1-7.07,10.827-4.533,14.024s7.937,2.929,12.064-.6C36.678,29.4,37.9,23.1,36.533,20.365" transform="translate(33.86 37.666)" fill="none" stroke="#0a5d49" stroke-linecap="round" stroke-linejoin="round" stroke-width="1.5"/>
      <path id="Path_24431" data-name="Path 24431" d="M11790.642,205.014s-9.946-.742-11.26,3.4.795,7.265,5.9,7.384,19.292,0,19.292,0l-4.638-7.384Z" transform="translate(-11723.626 -159.272)" fill="#f7f7f7"/>
      <path id="Path_24432" data-name="Path 24432" d="M44.212,11H26.462a5.462,5.462,0,0,0,0,10.924h19.8s6.1,5.241,12.972,4.1c8.193-1.365,10.241-4.1,10.241-4.1h4.779" transform="translate(34.374 34.742)" fill="none" stroke="#0a5d49" stroke-linecap="round" stroke-linejoin="round" stroke-width="1.5"/>
      <path id="Path_24433" data-name="Path 24433" d="M11783.449,233.052s20.484-1.684,19.693,4.9-4.227,5.986-8.725,5.9S11783.449,233.052,11783.449,233.052Z" transform="translate(-11722 -149.077)" fill="#f7f7f7"/>
      <path id="Path_24434" data-name="Path 24434" d="M33.5,49.924H47.159a5.462,5.462,0,0,0,0-10.924h-22.1a8.2,8.2,0,0,0-4.546,1.376L5.464,50.411" transform="translate(28.696 44.975)" fill="none" stroke="#0a5d49" stroke-linecap="round" stroke-linejoin="round" stroke-width="1.5"/>
      <path id="Path_24436" data-name="Path 24436" d="M12629.785,698.523s18.486-73.97,119.619-68.965" transform="translate(-12625.228 -626.837)" fill="none" stroke="#0a5d49" stroke-linecap="round" stroke-width="1.4" stroke-dasharray="5"/>
      <g id="Group_5220" data-name="Group 5220" transform="translate(1.152)">
        <g id="Group_5218" data-name="Group 5218" transform="translate(0 14.736)">
          <path id="Path_24423" data-name="Path 24423" d="M38.41,29.641a14.82,14.82,0,1,1,14.819-14.82A14.838,14.838,0,0,1,38.41,29.641m0-28.229a13.409,13.409,0,1,0,13.407,13.41A13.426,13.426,0,0,0,38.41,1.411" transform="translate(-23.585 0)" fill="#2c5871"/>
          <path id="Path_24424" data-name="Path 24424" d="M52.165,14.892A13.684,13.684,0,1,1,38.48,1.211,13.686,13.686,0,0,1,52.165,14.892" transform="translate(-23.657 -0.071)" fill="#ffe9b0"/>
          <path id="Path_24425" data-name="Path 24425" d="M38.437,29.237a14.388,14.388,0,1,1,14.391-14.39,14.406,14.406,0,0,1-14.391,14.39m0-27.365A12.977,12.977,0,1,0,51.415,14.848,12.991,12.991,0,0,0,38.437,1.872" transform="translate(-23.613 -0.027)" fill="#0a5d49"/>
          <path id="Path_24426" data-name="Path 24426" d="M49.436,15.072A10.777,10.777,0,1,1,38.661,4.3,10.777,10.777,0,0,1,49.436,15.072" transform="translate(-23.838 -0.252)" fill="#ffe9b0"/>
          <path id="Path_24427" data-name="Path 24427" d="M38.617,26.511A11.481,11.481,0,1,1,50.1,15.028,11.5,11.5,0,0,1,38.617,26.511m0-21.552A10.07,10.07,0,1,0,48.686,15.028,10.082,10.082,0,0,0,38.617,4.959" transform="translate(-23.793 -0.208)" fill="#0a5d49"/>
          <path id="Path_24428" data-name="Path 24428" d="M8.234.364,6.041-2.947q-.465.029-.712.029H2.542V.364h-1V-9.786H5.33a4.424,4.424,0,0,1,2.94.878,3.082,3.082,0,0,1,1.038,2.49A3.5,3.5,0,0,1,8.7-4.312,3.182,3.182,0,0,1,6.956-3.136L9.4.364ZM5.33-3.818a3.377,3.377,0,0,0,2.236-.661A2.357,2.357,0,0,0,8.35-6.388a2.258,2.258,0,0,0-.784-1.859A3.457,3.457,0,0,0,5.33-8.886H2.542v5.068Z" transform="translate(9.355 19.534)" fill="#0a5d49"/>
        </g>
        <line id="Line_207" data-name="Line 207" y1="3.09" x2="4.499" transform="translate(33.287 14.736)" fill="none" stroke="#0a5d49" stroke-linecap="round" stroke-width="1.5"/>
        <line id="Line_208" data-name="Line 208" y1="8.299" x2="11.816" transform="translate(31.876 0)" fill="none" stroke="#0a5d49" stroke-linecap="round" stroke-width="1.5"/>
      </g>
      <line id="Line_209" data-name="Line 209" y1="3.09" x2="4.499" transform="translate(4.558 69.962)" fill="none" stroke="#0a5d49" stroke-linecap="round" stroke-width="1.5"/>
      <g id="Group_5219" data-name="Group 5219" transform="translate(2.027 67.32) rotate(41)">
        <line id="Line_210" data-name="Line 210" x1="4.499" y1="3.09" fill="none" stroke="#0a5d49" stroke-linecap="round" stroke-width="1.5"/>
      </g>
    </g>
  </g>
</svg>
