<svg xmlns="http://www.w3.org/2000/svg" xmlns:xlink="http://www.w3.org/1999/xlink" width="74" height="93" viewBox="0 0 74 93">
  <defs>
    <linearGradient id="linear-gradient" x1="0.5" x2="0.5" y2="1" gradientUnits="objectBoundingBox">
      <stop offset="0" stop-color="#60b848"/>
      <stop offset="1" stop-color="#009677"/>
    </linearGradient>
  </defs>
  <g id="Group_5274" data-name="Group 5274" transform="translate(-161)">
    <rect id="Rectangle_2636" data-name="Rectangle 2636" width="74" height="93" transform="translate(161)" fill="url(#linear-gradient)"/>
    <g id="Group_5273" data-name="Group 5273" transform="translate(-3085.124 1991.106)">
      <path id="Path_24438" data-name="Path 24438" d="M56.009,33.89a18.535,18.535,0,0,1,5.485,3.9,19.5,19.5,0,0,1,3.8,5.127c-.645,2.6-4.945,6.312-9.788,9.595-.011.651-.017,1.257-.017,1.759,0,.615.005,1.2.019,1.818,5.746-2.951,11.983-5.268,14.815-4.453a19.46,19.46,0,0,1,2.54,5.854,18.439,18.439,0,0,1,.631,6.7,14.363,14.363,0,0,0,3.588,3.4A61.627,61.627,0,0,0,78.2,56.013a60.825,60.825,0,0,0-1.559-13.839,60.621,60.621,0,0,0-11.2-8.275,61.559,61.559,0,0,0-10.575-4.817,14.362,14.362,0,0,0,1.152,4.808M39.886,33.9a60.633,60.633,0,0,0-11.2,8.275,60.958,60.958,0,0,0-1.558,13.839,61.626,61.626,0,0,0,1.115,11.576,14.361,14.361,0,0,0,3.587-3.4,18.512,18.512,0,0,1,.631-6.7A19.543,19.543,0,0,1,35,51.632c2.834-.815,9.07,1.5,14.816,4.453.015-.62.02-1.2.02-1.818,0-.5-.006-1.108-.017-1.759-4.843-3.283-9.143-7-9.788-9.595a19.539,19.539,0,0,1,3.8-5.127,18.54,18.54,0,0,1,5.486-3.9,14.3,14.3,0,0,0,1.15-4.808A61.612,61.612,0,0,0,39.886,33.9m8.463,6.123a4.314,4.314,0,0,0,2.108,3.71c-2.419.184-1.233,3.251.514,3.217.184,1.608.28,5.3.28,7.325,0,7.526-1.038,16.733-3.624,19.224a19.318,19.318,0,0,1-6.337-.727,18.466,18.466,0,0,1-6.115-2.8,14.265,14.265,0,0,0-4.738,1.4,61.3,61.3,0,0,0,9.457,6.753A63.1,63.1,0,0,0,52.66,83.706a64.18,64.18,0,0,0,12.766-5.577,61.421,61.421,0,0,0,9.458-6.753,14.278,14.278,0,0,0-4.739-1.4,18.469,18.469,0,0,1-6.116,2.8,19.468,19.468,0,0,1-6.338.726c-2.586-2.493-3.624-11.7-3.624-19.227,0-2.028.1-5.714.281-7.325,1.746.034,2.934-3.033.513-3.217a4.312,4.312,0,1,0-6.513-3.71m2.32,0a1.991,1.991,0,1,1,1.99,1.994,1.985,1.985,0,0,1-1.99-1.994m4.979,19.4c1.521.929,3.156,1.968,4,2.6-.9,1.495,1.159,4.054,2.529,2.053a4.313,4.313,0,1,0,2.2-3.816c1.052-2.19-2.2-2.7-3.04-1.165-1.319-.571-4.018-1.973-5.836-3,.024,1.13.071,2.216.141,3.328M65.5,65.743a1.99,1.99,0,1,1,1,.266,1.994,1.994,0,0,1-1-.266M43.977,59.092c-.844-1.531-4.092-1.025-3.041,1.165a4.312,4.312,0,1,0,2.2,3.816c1.371,2,3.433-.558,2.53-2.053.848-.633,2.483-1.672,4-2.6.071-1.113.118-2.2.141-3.328-1.819,1.028-4.517,2.43-5.835,3M37.1,65.014a1.991,1.991,0,1,1,2.72.729,2.007,2.007,0,0,1-1,.266,1.983,1.983,0,0,1-1.721-1" transform="translate(3230 -1999)" fill="#fff"/>
    </g>
  </g>
</svg>
