<svg width="249" height="219" viewBox="0 0 249 219" fill="none" xmlns="http://www.w3.org/2000/svg">
<g filter="url(#filter0_d_1_2369)">
<path d="M39.3945 195.633L43.6025 190.479L51.959 200.533L59.7402 202.561L70.1152 195.451L82.8975 196.234L89.835 190.352L124.751 191.904L126.667 188.695L134.286 190.488L139.195 184.945L157.435 181.725L200.2 143.926L218.662 112.83L230.955 104.936L239.098 77.7676L228.873 76.3281L225.112 83.625L213.398 81.4941L210.359 69.0625L218.662 59.8359L226.187 61.9277L228.873 34.332L222.97 23.4766L216.855 5.85352L197.738 2.20703L185.973 3.25781L182.128 7.83398L176.384 8.87109L167.984 17.4727L157.435 23.4766L155.468 31.9766L140.661 42.1074L134.286 56.4531L124.781 58.9766L112.855 56.4531L103.552 48.8848L98.2119 51.1816L95.709 59.8359L81.3525 74.248H64.9951L69.0312 63.2617L66.1543 54.0449L55.6367 43.4336L56.8799 101.059L50.5303 102.486L46.3516 108.605L22.3135 106.414L20.959 99.7051L14.1855 96.4336L13.2021 101.059L9.56055 106.414L37.2822 161.285L36.4941 169.02L32.0527 171.557L40.3311 188.043L37.2822 191.268L39.3945 195.633Z" fill="#EDEDED"/>
<path d="M39.3945 195.633L43.6025 190.479L51.959 200.533L59.7402 202.561L70.1152 195.451L82.8975 196.234L89.835 190.352L124.751 191.904L126.667 188.695L134.286 190.488L139.195 184.945L157.435 181.725L200.2 143.926L218.662 112.83L230.955 104.936L239.098 77.7676L228.873 76.3281L225.112 83.625L213.398 81.4941L210.359 69.0625L218.662 59.8359L226.187 61.9277L228.873 34.332L222.97 23.4766L216.855 5.85352L197.738 2.20703L185.973 3.25781L182.128 7.83398L176.384 8.87109L167.984 17.4727L157.435 23.4766L155.468 31.9766L140.661 42.1074L134.286 56.4531L124.781 58.9766L112.855 56.4531L103.552 48.8848L98.2119 51.1816L95.709 59.8359L81.3525 74.248H64.9951L69.0312 63.2617L66.1543 54.0449L55.6367 43.4336L56.8799 101.059L50.5303 102.486L46.3516 108.605L22.3135 106.414L20.959 99.7051L14.1855 96.4336L13.2021 101.059L9.56055 106.414L37.2822 161.285L36.4941 169.02L32.0527 171.557L40.3311 188.043L37.2822 191.268L39.3945 195.633Z" stroke="#159677" stroke-width="1.5"/>
</g>
<path d="M217.287 82.6055L213.481 81.5234L210.42 68.8594L218.732 59.8242L226.225 61.9307L228.97 34.4141L227.47 31.5723L216.949 31.7861L218.732 38.7109H210.136V44.082H203.657L200.184 51.9658H188.506L183.606 44.082L177.024 47.1357L181.525 47.624V55.4814H185.651L183.606 60.8193H179.22L176.002 64.6836L183.606 67.7744L174.896 75.5029L193.302 85.8838L217.287 82.6055Z" fill="url(#paint0_linear_1_2369)"/>
<mask id="mask0_1_2369" style="mask-type:alpha" maskUnits="userSpaceOnUse" x="174" y="31" width="55" height="55">
<path d="M217.287 82.6055L213.481 81.5234L210.42 68.8594L218.732 59.8242L226.225 61.9307L228.97 34.4141L227.47 31.5723L216.949 31.7861L218.732 38.7109H210.136V44.082H203.657L200.184 51.9658H188.506L183.606 44.082L177.024 47.1357L181.525 47.624V55.4814H185.651L183.606 60.8193H179.22L176.002 64.6836L183.606 67.7744L174.896 75.5029L193.302 85.8838L217.287 82.6055Z" fill="url(#paint1_linear_1_2369)"/>
</mask>
<g mask="url(#mask0_1_2369)">
<line x1="145.611" y1="34.957" x2="280.611" y2="34.957" stroke="#138C6B" stroke-width="1.5"/>
<line x1="145.611" y1="45.957" x2="280.611" y2="45.957" stroke="#138C6B" stroke-width="1.5"/>
<line x1="145.611" y1="56.957" x2="280.611" y2="56.957" stroke="#138C6B" stroke-width="1.5"/>
<line x1="145.611" y1="67.957" x2="280.611" y2="67.957" stroke="#138C6B" stroke-width="1.5"/>
<line x1="145.611" y1="78.957" x2="280.611" y2="78.957" stroke="#138C6B" stroke-width="1.5"/>
</g>
<defs>
<filter id="filter0_d_1_2369" x="0.691406" y="0.450684" width="247.375" height="217.922" filterUnits="userSpaceOnUse" color-interpolation-filters="sRGB">
<feFlood flood-opacity="0" result="BackgroundImageFix"/>
<feColorMatrix in="SourceAlpha" type="matrix" values="0 0 0 0 0 0 0 0 0 0 0 0 0 0 0 0 0 0 127 0" result="hardAlpha"/>
<feOffset dy="7"/>
<feGaussianBlur stdDeviation="4"/>
<feComposite in2="hardAlpha" operator="out"/>
<feColorMatrix type="matrix" values="0 0 0 0 0.172549 0 0 0 0 0.172549 0 0 0 0 0.172549 0 0 0 0.160784 0"/>
<feBlend mode="normal" in2="BackgroundImageFix" result="effect1_dropShadow_1_2369"/>
<feBlend mode="normal" in="SourceGraphic" in2="effect1_dropShadow_1_2369" result="shape"/>
</filter>
<linearGradient id="paint0_linear_1_2369" x1="228.97" y1="62.9111" x2="187.926" y2="62.9111" gradientUnits="userSpaceOnUse">
<stop stop-color="#009677"/>
<stop offset="1" stop-color="#50B848"/>
</linearGradient>
<linearGradient id="paint1_linear_1_2369" x1="228.97" y1="62.9111" x2="187.926" y2="62.9111" gradientUnits="userSpaceOnUse">
<stop stop-color="#009677"/>
<stop offset="1" stop-color="#50B848"/>
</linearGradient>
</defs>
</svg>
