<svg width="248" height="219" viewBox="0 0 248 219" fill="none" xmlns="http://www.w3.org/2000/svg">
<g filter="url(#filter0_d_200_62)">
<path d="M38.8237 195.432L43.0317 190.277L51.3877 200.332L59.1689 202.359L69.5439 195.25L82.3257 196.033L89.2637 190.15L124.18 191.703L126.096 188.494L133.715 190.287L138.624 184.744L156.863 181.523L199.629 143.723L218.091 112.623L230.384 104.729L238.527 77.5605L228.302 76.1211L224.541 83.4219L212.827 81.291L209.788 68.8574L218.088 59.6309L225.612 61.7227L228.299 34.123L222.399 23.2676L216.285 5.64453L197.168 2L185.402 3.05078L181.557 7.62695L175.813 8.66406L167.413 17.2637L156.863 23.2637L154.896 31.7637L140.089 41.8945L133.714 56.2402L124.214 58.7637L112.288 56.2402L102.988 48.6719L97.6479 50.9727L95.1479 59.627L80.792 74.0391H64.4351L68.4707 63.0527L65.5938 53.8359L55.0757 43.2246L56.3188 100.85L49.9688 102.277L45.79 108.396L21.752 106.205L20.3979 99.4961L13.625 96.2246L12.6421 100.85L9 106.205L36.7217 161.076L35.9341 168.811L31.4927 171.348L39.771 187.834L36.7217 191.059L38.8237 195.432Z" fill="#EDEDED"/>
<path d="M38.8237 195.432L43.0317 190.277L51.3877 200.332L59.1689 202.359L69.5439 195.25L82.3257 196.033L89.2637 190.15L124.18 191.703L126.096 188.494L133.715 190.287L138.624 184.744L156.863 181.523L199.629 143.723L218.091 112.623L230.384 104.729L238.527 77.5605L228.302 76.1211L224.541 83.4219L212.827 81.291L209.788 68.8574L218.088 59.6309L225.612 61.7227L228.299 34.123L222.399 23.2676L216.285 5.64453L197.168 2L185.402 3.05078L181.557 7.62695L175.813 8.66406L167.413 17.2637L156.863 23.2637L154.896 31.7637L140.089 41.8945L133.714 56.2402L124.214 58.7637L112.288 56.2402L102.988 48.6719L97.6479 50.9727L95.1479 59.627L80.792 74.0391H64.4351L68.4707 63.0527L65.5938 53.8359L55.0757 43.2246L56.3188 100.85L49.9688 102.277L45.79 108.396L21.752 106.205L20.3979 99.4961L13.625 96.2246L12.6421 100.85L9 106.205L36.7217 161.076L35.9341 168.811L31.4927 171.348L39.771 187.834L36.7217 191.059L38.8237 195.432Z" stroke="#159677" stroke-width="1.5"/>
</g>
<path d="M92.7361 62.9297L95.3232 67.2764L100.515 60.6094L103.676 61.3828L101.897 67.2764L106.963 68.8535L113.598 75.7002L114.898 87.1494L121.178 91.6777L124.591 86.04L127.951 87.1484L126.225 90.542L127.951 93.8496L138.094 86.04L149.057 82.1074V76.5156L163.475 71.916L158.694 68.8525L162.952 59.207L169.13 58.4189L170.316 50.1475H175.633L173.127 44.7393L163.879 46.1387L157.779 42.0527H151.737L148.051 38.1523L143.051 39.7842L140.169 42.0488L133.569 56.5312L124.114 58.8311L112.214 56.2236L102.785 48.6992L97.3743 51.2988L94.9331 60.6045L92.2803 62.9248L92.7361 62.9297Z" fill="url(#paint0_linear_200_62)"/>
<mask id="mask0_200_62" style="mask-type:luminance" maskUnits="userSpaceOnUse" x="92" y="38" width="84" height="56">
<path d="M92.7361 62.9297L95.3232 67.2764L100.515 60.6094L103.676 61.3828L101.897 67.2764L106.963 68.8535L113.598 75.7002L114.898 87.1494L121.178 91.6777L124.591 86.04L127.951 87.1484L126.225 90.542L127.951 93.8496L138.094 86.04L149.057 82.1074V76.5156L163.475 71.916L158.694 68.8525L162.952 59.207L169.13 58.4189L170.316 50.1475H175.633L173.127 44.7393L163.879 46.1387L157.779 42.0527H151.737L148.051 38.1523L143.051 39.7842L140.169 42.0488L133.569 56.5312L124.114 58.8311L112.214 56.2236L102.785 48.6992L97.3743 51.2988L94.9331 60.6045L92.2803 62.9248L92.7361 62.9297Z" fill="white"/>
</mask>
<g mask="url(#mask0_200_62)">
<mask id="mask1_200_62" style="mask-type:luminance" maskUnits="userSpaceOnUse" x="84" y="18" width="131" height="116">
<path d="M214.388 18.5928H84.9229V133.405H214.388V18.5928Z" fill="white"/>
</mask>
<g mask="url(#mask1_200_62)">
<path d="M84.9229 41.0928H219.923" stroke="#138C6B" stroke-width="1.5"/>
<path d="M84.9229 52.0928H219.923" stroke="#138C6B" stroke-width="1.5"/>
<path d="M84.9229 63.0928H219.923" stroke="#138C6B" stroke-width="1.5"/>
<path d="M84.9229 74.0928H219.923" stroke="#138C6B" stroke-width="1.5"/>
<path d="M84.9229 85.0928H219.923" stroke="#138C6B" stroke-width="1.5"/>
</g>
</g>
<defs>
<filter id="filter0_d_200_62" x="0.130859" y="0.243652" width="247.365" height="217.928" filterUnits="userSpaceOnUse" color-interpolation-filters="sRGB">
<feFlood flood-opacity="0" result="BackgroundImageFix"/>
<feColorMatrix in="SourceAlpha" type="matrix" values="0 0 0 0 0 0 0 0 0 0 0 0 0 0 0 0 0 0 127 0" result="hardAlpha"/>
<feOffset dy="7"/>
<feGaussianBlur stdDeviation="4"/>
<feComposite in2="hardAlpha" operator="out"/>
<feColorMatrix type="matrix" values="0 0 0 0 0.172549 0 0 0 0 0.172549 0 0 0 0 0.172549 0 0 0 0.16 0"/>
<feBlend mode="normal" in2="BackgroundImageFix" result="effect1_dropShadow_200_62"/>
<feBlend mode="normal" in="SourceGraphic" in2="effect1_dropShadow_200_62" result="shape"/>
</filter>
<linearGradient id="paint0_linear_200_62" x1="101.199" y1="68.6187" x2="159.725" y2="71.3597" gradientUnits="userSpaceOnUse">
<stop stop-color="#009677"/>
<stop offset="1" stop-color="#50B848"/>
</linearGradient>
</defs>
</svg>
