<svg width="249" height="218" viewBox="0 0 249 218" fill="none" xmlns="http://www.w3.org/2000/svg">
<g filter="url(#filter0_d_1_2399)">
<path d="M39.3945 195.26L43.6025 190.105L51.959 200.16L59.7402 202.188L70.1152 195.078L82.8975 195.861L89.835 189.979L124.751 191.531L126.667 188.322L134.286 190.115L139.195 184.572L157.435 181.352L200.2 143.553L218.662 112.457L230.955 104.562L239.098 77.3945L228.873 75.9551L225.112 83.252L213.398 81.1211L210.359 68.6895L218.662 59.4629L226.187 61.5547L228.873 33.959L222.97 23.1035L216.855 5.48047L197.738 1.83398L185.973 2.88477L182.128 7.46094L176.384 8.49805L167.984 17.0996L157.435 23.1035L155.468 31.6035L140.661 41.7344L134.286 56.0801L124.781 58.6035L112.855 56.0801L103.552 48.5117L98.2119 50.8086L95.709 59.4629L81.3525 73.875H64.9951L69.0312 62.8887L66.1543 53.6719L55.6367 43.0605L56.8799 100.686L50.5303 102.113L46.3516 108.232L22.3135 106.041L20.959 99.332L14.1855 96.0605L13.2021 100.686L9.56055 106.041L37.2822 160.912L36.4941 168.646L32.0527 171.184L40.3311 187.67L37.2822 190.895L39.3945 195.26Z" fill="#EDEDED"/>
<path d="M39.3945 195.26L43.6025 190.105L51.959 200.16L59.7402 202.188L70.1152 195.078L82.8975 195.861L89.835 189.979L124.751 191.531L126.667 188.322L134.286 190.115L139.195 184.572L157.435 181.352L200.2 143.553L218.662 112.457L230.955 104.562L239.098 77.3945L228.873 75.9551L225.112 83.252L213.398 81.1211L210.359 68.6895L218.662 59.4629L226.187 61.5547L228.873 33.959L222.97 23.1035L216.855 5.48047L197.738 1.83398L185.973 2.88477L182.128 7.46094L176.384 8.49805L167.984 17.0996L157.435 23.1035L155.468 31.6035L140.661 41.7344L134.286 56.0801L124.781 58.6035L112.855 56.0801L103.552 48.5117L98.2119 50.8086L95.709 59.4629L81.3525 73.875H64.9951L69.0312 62.8887L66.1543 53.6719L55.6367 43.0605L56.8799 100.686L50.5303 102.113L46.3516 108.232L22.3135 106.041L20.959 99.332L14.1855 96.0605L13.2021 100.686L9.56055 106.041L37.2822 160.912L36.4941 168.646L32.0527 171.184L40.3311 187.67L37.2822 190.895L39.3945 195.26Z" stroke="#159677" stroke-width="1.5"/>
</g>
<path d="M51.3527 200.875L42.7763 192.193L38.4586 197.463L36.293 190.603L39.4204 187.301L30.9263 170.441L35.4831 167.847L36.293 160.734L27.4023 143.143L27.8444 143.39L27.6498 143.041L36.009 133.496L44.624 138.179L43.0505 143.041L46.5604 156.945L51.6058 161.046L53.8635 168.007L63.6618 165.462L64.4472 172.748L70.9235 174.118L83.1904 161.046L87.6038 162.314L92.9164 150.856L103.707 155.881L112.029 151.911L119.301 154.088V160.131L106.916 165.462L100.314 181.594L110.464 182.893L114.193 191.64L114.114 191.628L114.15 191.648L90.2495 190.603L83.0997 196.477H69.9848L59.3378 203.75L51.3527 200.875Z" fill="url(#paint0_linear_1_2399)"/>
<mask id="mask0_1_2399" style="mask-type:alpha" maskUnits="userSpaceOnUse" x="27" y="133" width="93" height="71">
<path d="M51.3527 200.875L42.7763 192.193L38.4586 197.463L36.293 190.603L39.4204 187.301L30.9263 170.441L35.4831 167.847L36.293 160.734L27.4023 143.143L27.8444 143.39L27.6498 143.041L36.009 133.496L44.624 138.179L43.0505 143.041L46.5604 156.945L51.6058 161.046L53.8635 168.007L63.6618 165.462L64.4472 172.748L70.9235 174.118L83.1904 161.046L87.6038 162.314L92.9164 150.856L103.707 155.881L112.029 151.911L119.301 154.088V160.131L106.916 165.462L100.314 181.594L110.464 182.893L114.193 191.64L114.114 191.628L114.15 191.648L90.2495 190.603L83.0997 196.477H69.9848L59.3378 203.75L51.3527 200.875Z" fill="url(#paint1_linear_1_2399)"/>
</mask>
<g mask="url(#mask0_1_2399)">
<line x1="16.5859" y1="141.094" x2="151.586" y2="141.094" stroke="#138C6B" stroke-width="1.5"/>
<line x1="16.5859" y1="152.094" x2="151.586" y2="152.094" stroke="#138C6B" stroke-width="1.5"/>
<line x1="16.5859" y1="163.094" x2="151.586" y2="163.094" stroke="#138C6B" stroke-width="1.5"/>
<line x1="16.5859" y1="174.094" x2="151.586" y2="174.094" stroke="#138C6B" stroke-width="1.5"/>
<line x1="16.5859" y1="185.094" x2="151.586" y2="185.094" stroke="#138C6B" stroke-width="1.5"/>
<line x1="16.5859" y1="196.094" x2="151.586" y2="196.094" stroke="#138C6B" stroke-width="1.5"/>
</g>
<defs>
<filter id="filter0_d_1_2399" x="0.691406" y="0.0776367" width="247.375" height="217.922" filterUnits="userSpaceOnUse" color-interpolation-filters="sRGB">
<feFlood flood-opacity="0" result="BackgroundImageFix"/>
<feColorMatrix in="SourceAlpha" type="matrix" values="0 0 0 0 0 0 0 0 0 0 0 0 0 0 0 0 0 0 127 0" result="hardAlpha"/>
<feOffset dy="7"/>
<feGaussianBlur stdDeviation="4"/>
<feComposite in2="hardAlpha" operator="out"/>
<feColorMatrix type="matrix" values="0 0 0 0 0.172549 0 0 0 0 0.172549 0 0 0 0 0.172549 0 0 0 0.160784 0"/>
<feBlend mode="normal" in2="BackgroundImageFix" result="effect1_dropShadow_1_2399"/>
<feBlend mode="normal" in="SourceGraphic" in2="effect1_dropShadow_1_2399" result="shape"/>
</filter>
<linearGradient id="paint0_linear_1_2399" x1="104.042" y1="200.34" x2="40.6659" y2="200.34" gradientUnits="userSpaceOnUse">
<stop stop-color="#009677"/>
<stop offset="1" stop-color="#50B848"/>
</linearGradient>
<linearGradient id="paint1_linear_1_2399" x1="104.042" y1="200.34" x2="40.6659" y2="200.34" gradientUnits="userSpaceOnUse">
<stop stop-color="#008C6B"/>
<stop offset="1" stop-color="#42B139"/>
</linearGradient>
</defs>
</svg>
