<svg width="249" height="218" viewBox="0 0 249 218" fill="none" xmlns="http://www.w3.org/2000/svg">
<g filter="url(#filter0_d_1_2385)">
<path d="M39.3945 195.236L43.6025 190.082L51.959 200.137L59.7402 202.164L70.1152 195.055L82.8975 195.838L89.835 189.955L124.751 191.508L126.667 188.299L134.286 190.092L139.195 184.549L157.435 181.328L200.2 143.529L218.662 112.434L230.955 104.539L239.098 77.3711L228.873 75.9316L225.112 83.2285L213.398 81.0977L210.359 68.666L218.662 59.4395L226.187 61.5312L228.873 33.9355L222.97 23.0801L216.855 5.45703L197.738 1.81055L185.973 2.86133L182.128 7.4375L176.384 8.47461L167.984 17.0762L157.435 23.0801L155.468 31.5801L140.661 41.7109L134.286 56.0566L124.781 58.5801L112.855 56.0566L103.552 48.4883L98.2119 50.7852L95.709 59.4395L81.3525 73.8516H64.9951L69.0312 62.8652L66.1543 53.6484L55.6367 43.0371L56.8799 100.662L50.5303 102.09L46.3516 108.209L22.3135 106.018L20.959 99.3086L14.1855 96.0371L13.2021 100.662L9.56055 106.018L37.2822 160.889L36.4941 168.623L32.0527 171.16L40.3311 187.646L37.2822 190.871L39.3945 195.236Z" fill="#EDEDED"/>
<path d="M39.3945 195.236L43.6025 190.082L51.959 200.137L59.7402 202.164L70.1152 195.055L82.8975 195.838L89.835 189.955L124.751 191.508L126.667 188.299L134.286 190.092L139.195 184.549L157.435 181.328L200.2 143.529L218.662 112.434L230.955 104.539L239.098 77.3711L228.873 75.9316L225.112 83.2285L213.398 81.0977L210.359 68.666L218.662 59.4395L226.187 61.5312L228.873 33.9355L222.97 23.0801L216.855 5.45703L197.738 1.81055L185.973 2.86133L182.128 7.4375L176.384 8.47461L167.984 17.0762L157.435 23.0801L155.468 31.5801L140.661 41.7109L134.286 56.0566L124.781 58.5801L112.855 56.0566L103.552 48.4883L98.2119 50.7852L95.709 59.4395L81.3525 73.8516H64.9951L69.0312 62.8652L66.1543 53.6484L55.6367 43.0371L56.8799 100.662L50.5303 102.09L46.3516 108.209L22.3135 106.018L20.959 99.3086L14.1855 96.0371L13.2021 100.662L9.56055 106.018L37.2822 160.889L36.4941 168.623L32.0527 171.16L40.3311 187.646L37.2822 190.871L39.3945 195.236Z" stroke="#159677" stroke-width="1.5"/>
</g>
<path d="M175.987 50.0381H170.679L169.592 58.3848L163.32 59.1943L159.232 68.1123L164.427 72.1631H170.085L175.043 75.0762L183.422 67.4355L175.987 64.2422L179.183 60.4795H183.422L185.59 55.2188L181.624 54.9912L181.43 47.2002L175.987 50.0381Z" fill="url(#paint0_linear_1_2385)"/>
<mask id="mask0_1_2385" style="mask-type:alpha" maskUnits="userSpaceOnUse" x="159" y="47" width="27" height="29">
<path d="M175.986 50.0381H170.678L169.591 58.3848L163.319 59.1943L159.231 68.1123L164.426 72.1631H170.084L175.042 75.0762L183.421 67.4355L175.986 64.2422L179.182 60.4795H183.421L185.589 55.2188L181.623 54.9912L181.429 47.2002L175.986 50.0381Z" fill="url(#paint1_linear_1_2385)"/>
</mask>
<g mask="url(#mask0_1_2385)">
<line x1="152.494" y1="49.4824" x2="287.494" y2="49.4824" stroke="#138C6B" stroke-width="1.5"/>
<line x1="152.494" y1="60.4824" x2="287.494" y2="60.4824" stroke="#138C6B" stroke-width="1.5"/>
<line x1="152.494" y1="71.4824" x2="287.494" y2="71.4824" stroke="#138C6B" stroke-width="1.5"/>
</g>
<defs>
<filter id="filter0_d_1_2385" x="0.691406" y="0.0541992" width="247.375" height="217.922" filterUnits="userSpaceOnUse" color-interpolation-filters="sRGB">
<feFlood flood-opacity="0" result="BackgroundImageFix"/>
<feColorMatrix in="SourceAlpha" type="matrix" values="0 0 0 0 0 0 0 0 0 0 0 0 0 0 0 0 0 0 127 0" result="hardAlpha"/>
<feOffset dy="7"/>
<feGaussianBlur stdDeviation="4"/>
<feComposite in2="hardAlpha" operator="out"/>
<feColorMatrix type="matrix" values="0 0 0 0 0.172549 0 0 0 0 0.172549 0 0 0 0 0.172549 0 0 0 0.160784 0"/>
<feBlend mode="normal" in2="BackgroundImageFix" result="effect1_dropShadow_1_2385"/>
<feBlend mode="normal" in="SourceGraphic" in2="effect1_dropShadow_1_2385" result="shape"/>
</filter>
<linearGradient id="paint0_linear_1_2385" x1="192.802" y1="64.3955" x2="159.232" y2="64.3955" gradientUnits="userSpaceOnUse">
<stop stop-color="#009677"/>
<stop offset="1" stop-color="#50B848"/>
</linearGradient>
<linearGradient id="paint1_linear_1_2385" x1="192.802" y1="64.3955" x2="159.231" y2="64.3955" gradientUnits="userSpaceOnUse">
<stop stop-color="#ED1580"/>
<stop offset="1" stop-color="#F37021"/>
</linearGradient>
</defs>
</svg>
