<svg width="249" height="219" viewBox="0 0 249 219" fill="none" xmlns="http://www.w3.org/2000/svg">
<g filter="url(#filter0_d_1_2318)">
<path d="M39.3945 195.822L43.6025 190.668L51.959 200.723L59.7402 202.75L70.1152 195.641L82.8975 196.424L89.835 190.541L124.751 192.094L126.667 188.885L134.286 190.678L139.195 185.135L157.435 181.914L200.2 144.115L218.662 113.02L230.955 105.125L239.098 77.957L228.873 76.5176L225.112 83.8145L213.398 81.6836L210.359 69.252L218.662 60.0254L226.187 62.1172L228.873 34.5215L222.97 23.666L216.855 6.04297L197.738 2.39648L185.973 3.44727L182.128 8.02344L176.384 9.06055L167.984 17.6621L157.435 23.666L155.468 32.166L140.661 42.2969L134.286 56.6426L124.781 59.166L112.855 56.6426L103.552 49.0742L98.2119 51.3711L95.709 60.0254L81.3525 74.4375H64.9951L69.0312 63.4512L66.1543 54.2344L55.6367 43.623L56.8799 101.248L50.5303 102.676L46.3516 108.795L22.3135 106.604L20.959 99.8945L14.1855 96.623L13.2021 101.248L9.56055 106.604L37.2822 161.475L36.4941 169.209L32.0527 171.746L40.3311 188.232L37.2822 191.457L39.3945 195.822Z" fill="#EDEDED"/>
<path d="M39.3945 195.822L43.6025 190.668L51.959 200.723L59.7402 202.75L70.1152 195.641L82.8975 196.424L89.835 190.541L124.751 192.094L126.667 188.885L134.286 190.678L139.195 185.135L157.435 181.914L200.2 144.115L218.662 113.02L230.955 105.125L239.098 77.957L228.873 76.5176L225.112 83.8145L213.398 81.6836L210.359 69.252L218.662 60.0254L226.187 62.1172L228.873 34.5215L222.97 23.666L216.855 6.04297L197.738 2.39648L185.973 3.44727L182.128 8.02344L176.384 9.06055L167.984 17.6621L157.435 23.666L155.468 32.166L140.661 42.2969L134.286 56.6426L124.781 59.166L112.855 56.6426L103.552 49.0742L98.2119 51.3711L95.709 60.0254L81.3525 74.4375H64.9951L69.0312 63.4512L66.1543 54.2344L55.6367 43.623L56.8799 101.248L50.5303 102.676L46.3516 108.795L22.3135 106.604L20.959 99.8945L14.1855 96.623L13.2021 101.248L9.56055 106.604L37.2822 161.475L36.4941 169.209L32.0527 171.746L40.3311 188.232L37.2822 191.457L39.3945 195.822Z" stroke="#159677" stroke-width="1.5"/>
</g>
<path d="M119.301 154.795L127.021 147.4L134.653 142.293V134.139H152.115L160.998 129.688L169.664 136.303L175.405 127.411L184.205 125.256L186.075 136.303L200.459 143.9L157.628 181.748L139.296 185.131L133.994 190.974L126.451 188.796L124.583 192.244L113.81 191.744L110.434 183.513L100.281 182.245L106.824 166.051L119.301 160.76V155.332V154.795Z" fill="url(#paint0_linear_1_2318)"/>
<mask id="mask0_1_2318" style="mask-type:alpha" maskUnits="userSpaceOnUse" x="100" y="125" width="101" height="68">
<path d="M119.301 154.795L127.021 147.4L134.653 142.293V134.139H152.115L160.998 129.688L169.664 136.303L175.405 127.411L184.205 125.256L186.075 136.303L200.459 143.9L157.628 181.748L139.296 185.131L133.994 190.974L126.451 188.796L124.583 192.244L113.81 191.744L110.434 183.513L100.281 182.245L106.824 166.051L119.301 160.76V155.332V154.795Z" fill="url(#paint1_linear_1_2318)"/>
</mask>
<g mask="url(#mask0_1_2318)">
<line x1="90.8145" y1="129.183" x2="225.814" y2="129.183" stroke="#138C6B" stroke-width="1.5"/>
<line x1="90.8145" y1="140.183" x2="225.814" y2="140.183" stroke="#138C6B" stroke-width="1.5"/>
<line x1="90.8145" y1="151.183" x2="225.814" y2="151.183" stroke="#138C6B" stroke-width="1.5"/>
<line x1="90.8145" y1="162.183" x2="225.814" y2="162.183" stroke="#138C6B" stroke-width="1.5"/>
<line x1="90.8145" y1="173.183" x2="225.814" y2="173.183" stroke="#138C6B" stroke-width="1.5"/>
<line x1="90.8145" y1="184.183" x2="225.814" y2="184.183" stroke="#138C6B" stroke-width="1.5"/>
</g>
<defs>
<filter id="filter0_d_1_2318" x="0.691406" y="0.640137" width="247.375" height="217.922" filterUnits="userSpaceOnUse" color-interpolation-filters="sRGB">
<feFlood flood-opacity="0" result="BackgroundImageFix"/>
<feColorMatrix in="SourceAlpha" type="matrix" values="0 0 0 0 0 0 0 0 0 0 0 0 0 0 0 0 0 0 127 0" result="hardAlpha"/>
<feOffset dy="7"/>
<feGaussianBlur stdDeviation="4"/>
<feComposite in2="hardAlpha" operator="out"/>
<feColorMatrix type="matrix" values="0 0 0 0 0.172549 0 0 0 0 0.172549 0 0 0 0 0.172549 0 0 0 0.160784 0"/>
<feBlend mode="normal" in2="BackgroundImageFix" result="effect1_dropShadow_1_2318"/>
<feBlend mode="normal" in="SourceGraphic" in2="effect1_dropShadow_1_2318" result="shape"/>
</filter>
<linearGradient id="paint0_linear_1_2318" x1="191.239" y1="161.627" x2="116.862" y2="161.627" gradientUnits="userSpaceOnUse">
<stop stop-color="#009677"/>
<stop offset="1" stop-color="#50B848"/>
</linearGradient>
<linearGradient id="paint1_linear_1_2318" x1="191.239" y1="161.627" x2="116.862" y2="161.627" gradientUnits="userSpaceOnUse">
<stop stop-color="#009677"/>
<stop offset="1" stop-color="#50B848"/>
</linearGradient>
</defs>
</svg>
