<svg width="248" height="219" viewBox="0 0 248 219" fill="none" xmlns="http://www.w3.org/2000/svg">
<g filter="url(#filter0_d_200_96)">
<path d="M38.8237 195.432L43.0317 190.277L51.3877 200.332L59.1689 202.359L69.5439 195.25L82.3257 196.033L89.2637 190.15L124.18 191.703L126.096 188.494L133.715 190.287L138.624 184.744L156.863 181.523L199.629 143.723L218.091 112.623L230.384 104.729L238.527 77.5605L228.302 76.1211L224.541 83.4219L212.827 81.291L209.788 68.8574L218.088 59.6309L225.612 61.7227L228.299 34.123L222.399 23.2676L216.285 5.64453L197.168 2L185.402 3.05078L181.557 7.62695L175.813 8.66406L167.413 17.2637L156.863 23.2637L154.896 31.7637L140.089 41.8945L133.714 56.2402L124.214 58.7637L112.288 56.2402L102.988 48.6719L97.6479 50.9727L95.1479 59.627L80.792 74.0391H64.4351L68.4707 63.0527L65.5938 53.8359L55.0757 43.2246L56.3188 100.85L49.9688 102.277L45.79 108.396L21.752 106.205L20.3979 99.4961L13.625 96.2246L12.6421 100.85L9 106.205L36.7217 161.076L35.9341 168.811L31.4927 171.348L39.771 187.834L36.7217 191.059L38.8237 195.432Z" fill="#EDEDED"/>
<path d="M38.8237 195.432L43.0317 190.277L51.3877 200.332L59.1689 202.359L69.5439 195.25L82.3257 196.033L89.2637 190.15L124.18 191.703L126.096 188.494L133.715 190.287L138.624 184.744L156.863 181.523L199.629 143.723L218.091 112.623L230.384 104.729L238.527 77.5605L228.302 76.1211L224.541 83.4219L212.827 81.291L209.788 68.8574L218.088 59.6309L225.612 61.7227L228.299 34.123L222.399 23.2676L216.285 5.64453L197.168 2L185.402 3.05078L181.557 7.62695L175.813 8.66406L167.413 17.2637L156.863 23.2637L154.896 31.7637L140.089 41.8945L133.714 56.2402L124.214 58.7637L112.288 56.2402L102.988 48.6719L97.6479 50.9727L95.1479 59.627L80.792 74.0391H64.4351L68.4707 63.0527L65.5938 53.8359L55.0757 43.2246L56.3188 100.85L49.9688 102.277L45.79 108.396L21.752 106.205L20.3979 99.4961L13.625 96.2246L12.6421 100.85L9 106.205L36.7217 161.076L35.9341 168.811L31.4927 171.348L39.771 187.834L36.7217 191.059L38.8237 195.432Z" stroke="#159677" stroke-width="1.5"/>
</g>
<path d="M35.5173 133.302L43.9023 137.815L42.3325 142.875L45.7234 156.807L50.6523 160.448L53.2334 167.759L63.2043 165.188L63.8235 172.404L70.5105 173.753L82.8484 160.453L87.0264 161.939L92.3594 150.511L103.422 155.547L111.528 151.99L119.305 154.099L126.739 146.958L134.153 141.968V133.307L117.526 118.391L128.242 94.2588L126.261 90.3516L128.242 87.1396L124.742 86.0547L121.254 91.9092L114.686 87.1396L113.699 75.4502L107.183 68.9404L101.797 67.4336L103.427 61.4229L100.387 60.6328L95.3665 67.4326L92.3665 62.8174L80.7844 74.2061H64.3845L68.8184 62.8174L65.3884 53.5928L54.8154 42.7988L56.3413 100.753L50.2314 102.277L45.7244 108.678L21.5383 106.455L20.4724 99.5117L13.5383 96.3838L12.7263 100.755L9.26953 106.455L27.1794 142.146L35.5173 133.302Z" fill="url(#paint0_linear_200_96)"/>
<mask id="mask0_200_96" style="mask-type:luminance" maskUnits="userSpaceOnUse" x="9" y="42" width="126" height="132">
<path d="M35.5173 133.302L43.9023 137.815L42.3325 142.875L45.7234 156.807L50.6523 160.448L53.2334 167.759L63.2043 165.188L63.8235 172.404L70.5105 173.753L82.8484 160.453L87.0264 161.939L92.3594 150.511L103.422 155.547L111.528 151.99L119.305 154.099L126.739 146.958L134.153 141.968V133.307L117.526 118.391L128.242 94.2588L126.261 90.3516L128.242 87.1396L124.742 86.0547L121.254 91.9092L114.686 87.1396L113.699 75.4502L107.183 68.9404L101.797 67.4336L103.427 61.4229L100.387 60.6328L95.3665 67.4326L92.3665 62.8174L80.7844 74.2061H64.3845L68.8184 62.8174L65.3884 53.5928L54.8154 42.7988L56.3413 100.753L50.2314 102.277L45.7244 108.678L21.5383 106.455L20.4724 99.5117L13.5383 96.3838L12.7263 100.755L9.26953 106.455L27.1794 142.146L35.5173 133.302Z" fill="white"/>
</mask>
<g mask="url(#mask0_200_96)">
<mask id="mask1_200_96" style="mask-type:luminance" maskUnits="userSpaceOnUse" x="14" y="46" width="131" height="133">
<path d="M144.389 46.7783H14.9238V178.59H144.389V46.7783Z" fill="white"/>
</mask>
<g mask="url(#mask1_200_96)">
<path d="M14.9238 47.2783H149.924" stroke="#138C6B" stroke-width="1.5"/>
<path d="M14.9238 58.2783H149.924" stroke="#138C6B" stroke-width="1.5"/>
<path d="M14.9238 69.2783H149.924" stroke="#138C6B" stroke-width="1.5"/>
<path d="M14.9238 80.2783H149.924" stroke="#138C6B" stroke-width="1.5"/>
<path d="M14.9238 91.2783H149.924" stroke="#138C6B" stroke-width="1.5"/>
<path d="M14.9238 102.278H149.924" stroke="#138C6B" stroke-width="1.5"/>
<path d="M14.9238 113.278H149.924" stroke="#138C6B" stroke-width="1.5"/>
<path d="M14.9238 124.278H149.924" stroke="#138C6B" stroke-width="1.5"/>
<path d="M14.9238 135.278H149.924" stroke="#138C6B" stroke-width="1.5"/>
<path d="M14.9238 146.278H149.924" stroke="#138C6B" stroke-width="1.5"/>
<path d="M14.9238 157.278H149.924" stroke="#138C6B" stroke-width="1.5"/>
<path d="M14.9238 168.278H149.924" stroke="#138C6B" stroke-width="1.5"/>
</g>
</g>
<defs>
<filter id="filter0_d_200_96" x="0.130859" y="0.243652" width="247.365" height="217.928" filterUnits="userSpaceOnUse" color-interpolation-filters="sRGB">
<feFlood flood-opacity="0" result="BackgroundImageFix"/>
<feColorMatrix in="SourceAlpha" type="matrix" values="0 0 0 0 0 0 0 0 0 0 0 0 0 0 0 0 0 0 127 0" result="hardAlpha"/>
<feOffset dy="7"/>
<feGaussianBlur stdDeviation="4"/>
<feComposite in2="hardAlpha" operator="out"/>
<feColorMatrix type="matrix" values="0 0 0 0 0.172549 0 0 0 0 0.172549 0 0 0 0 0.172549 0 0 0 0.16 0"/>
<feBlend mode="normal" in2="BackgroundImageFix" result="effect1_dropShadow_200_96"/>
<feBlend mode="normal" in="SourceGraphic" in2="effect1_dropShadow_200_96" result="shape"/>
</filter>
<linearGradient id="paint0_linear_200_96" x1="15.7635" y1="122.157" x2="119.792" y2="121.919" gradientUnits="userSpaceOnUse">
<stop stop-color="#009677"/>
<stop offset="1" stop-color="#50B848"/>
</linearGradient>
</defs>
</svg>
