<svg width="249" height="219" viewBox="0 0 249 219" fill="none" xmlns="http://www.w3.org/2000/svg">
<g filter="url(#filter0_d_1_2352)">
<path d="M39.3945 196.029L43.6025 190.875L51.959 200.93L59.7402 202.957L70.1152 195.848L82.8975 196.631L89.835 190.748L124.751 192.301L126.667 189.092L134.286 190.885L139.195 185.342L157.435 182.121L200.2 144.322L218.662 113.227L230.955 105.332L239.098 78.1641L228.873 76.7246L225.112 84.0215L213.398 81.8906L210.359 69.459L218.662 60.2324L226.187 62.3242L228.873 34.7285L222.97 23.873L216.855 6.25L197.738 2.60352L185.973 3.6543L182.128 8.23047L176.384 9.26758L167.984 17.8691L157.435 23.873L155.468 32.373L140.661 42.5039L134.286 56.8496L124.781 59.373L112.855 56.8496L103.552 49.2812L98.2119 51.5781L95.709 60.2324L81.3525 74.6445H64.9951L69.0312 63.6582L66.1543 54.4414L55.6367 43.8301L56.8799 101.455L50.5303 102.883L46.3516 109.002L22.3135 106.811L20.959 100.102L14.1855 96.8301L13.2021 101.455L9.56055 106.811L37.2822 161.682L36.4941 169.416L32.0527 171.953L40.3311 188.439L37.2822 191.664L39.3945 196.029Z" fill="#EDEDED"/>
<path d="M39.3945 196.029L43.6025 190.875L51.959 200.93L59.7402 202.957L70.1152 195.848L82.8975 196.631L89.835 190.748L124.751 192.301L126.667 189.092L134.286 190.885L139.195 185.342L157.435 182.121L200.2 144.322L218.662 113.227L230.955 105.332L239.098 78.1641L228.873 76.7246L225.112 84.0215L213.398 81.8906L210.359 69.459L218.662 60.2324L226.187 62.3242L228.873 34.7285L222.97 23.873L216.855 6.25L197.738 2.60352L185.973 3.6543L182.128 8.23047L176.384 9.26758L167.984 17.8691L157.435 23.873L155.468 32.373L140.661 42.5039L134.286 56.8496L124.781 59.373L112.855 56.8496L103.552 49.2812L98.2119 51.5781L95.709 60.2324L81.3525 74.6445H64.9951L69.0312 63.6582L66.1543 54.4414L55.6367 43.8301L56.8799 101.455L50.5303 102.883L46.3516 109.002L22.3135 106.811L20.959 100.102L14.1855 96.8301L13.2021 101.455L9.56055 106.811L37.2822 161.682L36.4941 169.416L32.0527 171.953L40.3311 188.439L37.2822 191.664L39.3945 196.029Z" stroke="#159677" stroke-width="1.5"/>
</g>
<path d="M164.129 73.1631L149.591 77.7334V83.0127L138.112 86.6777L128.351 94.5898L118.033 118.949L134.563 134.371H152.148L161.004 129.99L156.042 118.949L167.698 106.367L178.727 101.665L181.524 106.367L193.06 97.2627V86.1494L170.427 73.1631H164.129Z" fill="url(#paint0_linear_1_2352)"/>
<mask id="mask0_1_2352" style="mask-type:alpha" maskUnits="userSpaceOnUse" x="118" y="73" width="76" height="62">
<path d="M164.129 73.1631L149.591 77.7334V83.0127L138.112 86.6777L128.351 94.5898L118.033 118.949L134.563 134.371H152.148L161.004 129.99L156.042 118.949L167.698 106.367L178.727 101.665L181.524 106.367L193.06 97.2627V86.1494L170.427 73.1631H164.129Z" fill="url(#paint1_linear_1_2352)"/>
</mask>
<g mask="url(#mask0_1_2352)">
<line x1="88.4941" y1="81.5078" x2="223.494" y2="81.5078" stroke="#138C6B" stroke-width="1.5"/>
<line x1="88.4941" y1="92.5078" x2="223.494" y2="92.5078" stroke="#138C6B" stroke-width="1.5"/>
<line x1="88.4941" y1="103.508" x2="223.494" y2="103.508" stroke="#138C6B" stroke-width="1.5"/>
<line x1="88.4941" y1="114.508" x2="223.494" y2="114.508" stroke="#138C6B" stroke-width="1.5"/>
<line x1="88.4941" y1="125.508" x2="223.494" y2="125.508" stroke="#138C6B" stroke-width="1.5"/>
</g>
<defs>
<filter id="filter0_d_1_2352" x="0.691406" y="0.847168" width="247.375" height="217.922" filterUnits="userSpaceOnUse" color-interpolation-filters="sRGB">
<feFlood flood-opacity="0" result="BackgroundImageFix"/>
<feColorMatrix in="SourceAlpha" type="matrix" values="0 0 0 0 0 0 0 0 0 0 0 0 0 0 0 0 0 0 127 0" result="hardAlpha"/>
<feOffset dy="7"/>
<feGaussianBlur stdDeviation="4"/>
<feComposite in2="hardAlpha" operator="out"/>
<feColorMatrix type="matrix" values="0 0 0 0 0.172549 0 0 0 0 0.172549 0 0 0 0 0.172549 0 0 0 0.160784 0"/>
<feBlend mode="normal" in2="BackgroundImageFix" result="effect1_dropShadow_1_2352"/>
<feBlend mode="normal" in="SourceGraphic" in2="effect1_dropShadow_1_2352" result="shape"/>
</filter>
<linearGradient id="paint0_linear_1_2352" x1="199.767" y1="111.419" x2="118.033" y2="111.419" gradientUnits="userSpaceOnUse">
<stop stop-color="#009677"/>
<stop offset="1" stop-color="#50B848"/>
</linearGradient>
<linearGradient id="paint1_linear_1_2352" x1="199.767" y1="111.419" x2="118.033" y2="111.419" gradientUnits="userSpaceOnUse">
<stop stop-color="#009677"/>
<stop offset="1" stop-color="#50B848"/>
</linearGradient>
</defs>
</svg>
