<svg width="249" height="219" viewBox="0 0 249 219" fill="none" xmlns="http://www.w3.org/2000/svg">
<g filter="url(#filter0_d_1_2335)">
<path d="M39.3945 195.426L43.6025 190.271L51.959 200.326L59.7402 202.354L70.1152 195.244L82.8975 196.027L89.835 190.145L124.751 191.697L126.667 188.488L134.286 190.281L139.195 184.738L157.435 181.518L200.2 143.719L218.662 112.623L230.955 104.729L239.098 77.5605L228.873 76.1211L225.112 83.418L213.398 81.2871L210.359 68.8555L218.662 59.6289L226.187 61.7207L228.873 34.125L222.97 23.2695L216.855 5.64648L197.738 2L185.973 3.05078L182.128 7.62695L176.384 8.66406L167.984 17.2656L157.435 23.2695L155.468 31.7695L140.661 41.9004L134.286 56.2461L124.781 58.7695L112.855 56.2461L103.552 48.6777L98.2119 50.9746L95.709 59.6289L81.3525 74.041H64.9951L69.0312 63.0547L66.1543 53.8379L55.6367 43.2266L56.8799 100.852L50.5303 102.279L46.3516 108.398L22.3135 106.207L20.959 99.498L14.1855 96.2266L13.2021 100.852L9.56055 106.207L37.2822 161.078L36.4941 168.812L32.0527 171.35L40.3311 187.836L37.2822 191.061L39.3945 195.426Z" fill="#EDEDED"/>
<path d="M39.3945 195.426L43.6025 190.271L51.959 200.326L59.7402 202.354L70.1152 195.244L82.8975 196.027L89.835 190.145L124.751 191.697L126.667 188.488L134.286 190.281L139.195 184.738L157.435 181.518L200.2 143.719L218.662 112.623L230.955 104.729L239.098 77.5605L228.873 76.1211L225.112 83.418L213.398 81.2871L210.359 68.8555L218.662 59.6289L226.187 61.7207L228.873 34.125L222.97 23.2695L216.855 5.64648L197.738 2L185.973 3.05078L182.128 7.62695L176.384 8.66406L167.984 17.2656L157.435 23.2695L155.468 31.7695L140.661 41.9004L134.286 56.2461L124.781 58.7695L112.855 56.2461L103.552 48.6777L98.2119 50.9746L95.709 59.6289L81.3525 74.041H64.9951L69.0312 63.0547L66.1543 53.8379L55.6367 43.2266L56.8799 100.852L50.5303 102.279L46.3516 108.398L22.3135 106.207L20.959 99.498L14.1855 96.2266L13.2021 100.852L9.56055 106.207L37.2822 161.078L36.4941 168.812L32.0527 171.35L40.3311 187.836L37.2822 191.061L39.3945 195.426Z" stroke="#159677" stroke-width="1.5"/>
</g>
<path d="M184.381 124.859L189.508 113.509L181.49 105.682L193.078 96.623V85.4834L215.989 82.6406H217.246L225.091 83.8389L228.916 76.1465L239.199 77.9502L230.911 105.041L218.824 112.774L200.439 143.239L186.122 135.861L184.381 124.859Z" fill="url(#paint0_linear_1_2335)"/>
<mask id="mask0_1_2335" style="mask-type:alpha" maskUnits="userSpaceOnUse" x="181" y="76" width="59" height="68">
<path d="M184.381 124.859L189.508 113.509L181.49 105.682L193.078 96.623V85.4834L215.989 82.6406H217.246L225.091 83.8389L228.916 76.1465L239.199 77.9502L230.911 105.041L218.824 112.774L200.439 143.239L186.122 135.861L184.381 124.859Z" fill="url(#paint1_linear_1_2335)"/>
</mask>
<g mask="url(#mask0_1_2335)">
<line x1="138.986" y1="80.8857" x2="273.986" y2="80.8857" stroke="#138C6B" stroke-width="1.5"/>
<line x1="138.986" y1="91.8857" x2="273.986" y2="91.8857" stroke="#138C6B" stroke-width="1.5"/>
<line x1="138.986" y1="102.886" x2="273.986" y2="102.886" stroke="#138C6B" stroke-width="1.5"/>
<line x1="138.986" y1="113.886" x2="273.986" y2="113.886" stroke="#138C6B" stroke-width="1.5"/>
<line x1="138.986" y1="124.886" x2="273.986" y2="124.886" stroke="#138C6B" stroke-width="1.5"/>
<line x1="138.986" y1="135.886" x2="273.986" y2="135.886" stroke="#138C6B" stroke-width="1.5"/>
</g>
<defs>
<filter id="filter0_d_1_2335" x="0.691406" y="0.243652" width="247.375" height="217.922" filterUnits="userSpaceOnUse" color-interpolation-filters="sRGB">
<feFlood flood-opacity="0" result="BackgroundImageFix"/>
<feColorMatrix in="SourceAlpha" type="matrix" values="0 0 0 0 0 0 0 0 0 0 0 0 0 0 0 0 0 0 127 0" result="hardAlpha"/>
<feOffset dy="7"/>
<feGaussianBlur stdDeviation="4"/>
<feComposite in2="hardAlpha" operator="out"/>
<feColorMatrix type="matrix" values="0 0 0 0 0.172549 0 0 0 0 0.172549 0 0 0 0 0.172549 0 0 0 0.160784 0"/>
<feBlend mode="normal" in2="BackgroundImageFix" result="effect1_dropShadow_1_2335"/>
<feBlend mode="normal" in="SourceGraphic" in2="effect1_dropShadow_1_2335" result="shape"/>
</filter>
<linearGradient id="paint0_linear_1_2335" x1="239.199" y1="116.157" x2="188.682" y2="116.157" gradientUnits="userSpaceOnUse">
<stop stop-color="#009677"/>
<stop offset="1" stop-color="#50B848"/>
</linearGradient>
<linearGradient id="paint1_linear_1_2335" x1="239.199" y1="116.157" x2="188.682" y2="116.157" gradientUnits="userSpaceOnUse">
<stop stop-color="#009677"/>
<stop offset="1" stop-color="#50B848"/>
</linearGradient>
</defs>
</svg>
