<svg width="248" height="219" viewBox="0 0 248 219" fill="none" xmlns="http://www.w3.org/2000/svg">
<g filter="url(#filter0_d_200_28)">
<path d="M38.8237 195.439L43.0317 190.285L51.3877 200.34L59.1689 202.367L69.5439 195.258L82.3257 196.041L89.2637 190.158L124.18 191.711L126.096 188.502L133.715 190.295L138.624 184.752L156.863 181.531L199.629 143.73L218.091 112.631L230.384 104.736L238.527 77.5684L228.302 76.1289L224.541 83.4297L212.827 81.2988L209.788 68.8652L218.088 59.6387L225.612 61.7305L228.299 34.1309L222.399 23.2754L216.285 5.65234L197.168 2.00781L185.402 3.05859L181.557 7.63477L175.813 8.67188L167.413 17.2715L156.863 23.2715L154.896 31.7715L140.089 41.9023L133.714 56.248L124.214 58.7715L112.288 56.248L102.988 48.6797L97.6479 50.9805L95.1479 59.6348L80.792 74.0469H64.4351L68.4707 63.0605L65.5938 53.8438L55.0757 43.2324L56.3188 100.857L49.9688 102.285L45.79 108.404L21.752 106.213L20.3979 99.5039L13.625 96.2324L12.6421 100.857L9 106.213L36.7217 161.084L35.9341 168.818L31.4927 171.355L39.771 187.842L36.7217 191.066L38.8237 195.439Z" fill="#EDEDED"/>
<path d="M38.8237 195.439L43.0317 190.285L51.3877 200.34L59.1689 202.367L69.5439 195.258L82.3257 196.041L89.2637 190.158L124.18 191.711L126.096 188.502L133.715 190.295L138.624 184.752L156.863 181.531L199.629 143.73L218.091 112.631L230.384 104.736L238.527 77.5684L228.302 76.1289L224.541 83.4297L212.827 81.2988L209.788 68.8652L218.088 59.6387L225.612 61.7305L228.299 34.1309L222.399 23.2754L216.285 5.65234L197.168 2.00781L185.402 3.05859L181.557 7.63477L175.813 8.67188L167.413 17.2715L156.863 23.2715L154.896 31.7715L140.089 41.9023L133.714 56.248L124.214 58.7715L112.288 56.248L102.988 48.6797L97.6479 50.9805L95.1479 59.6348L80.792 74.0469H64.4351L68.4707 63.0605L65.5938 53.8438L55.0757 43.2324L56.3188 100.857L49.9688 102.285L45.79 108.404L21.752 106.213L20.3979 99.5039L13.625 96.2324L12.6421 100.857L9 106.213L36.7217 161.084L35.9341 168.818L31.4927 171.355L39.771 187.842L36.7217 191.066L38.8237 195.439Z" stroke="#159677" stroke-width="1.5"/>
</g>
<path d="M157.049 23.4141L154.934 32.2822L147.92 37.9326L151.662 41.9746H157.64L164.006 46.1904L173.364 44.7539L175.82 50.1924L180.745 47.4795L176.745 46.6299L183.383 43.7373L188.133 51.709H199.862L203.385 43.7373H209.733V37.9307H218.128L216.464 30.9971H226.854L222.436 23.4102L216.202 5.55762L197.439 2L185.289 3.04199L181.611 7.72949L175.511 8.69141L167.391 17.3916L157.049 23.4141Z" fill="url(#paint0_linear_200_28)"/>
<mask id="mask0_200_28" style="mask-type:luminance" maskUnits="userSpaceOnUse" x="147" y="2" width="80" height="50">
<path d="M157.049 23.4141L154.934 32.2822L147.92 37.9326L151.662 41.9746H157.64L164.006 46.1904L173.364 44.7539L175.82 50.1924L180.745 47.4795L176.745 46.6299L183.383 43.7373L188.133 51.709H199.862L203.385 43.7373H209.733V37.9307H218.128L216.464 30.9971H226.854L222.436 23.4102L216.202 5.55762L197.439 2L185.289 3.04199L181.611 7.72949L175.511 8.69141L167.391 17.3916L157.049 23.4141Z" fill="white"/>
</mask>
<g mask="url(#mask0_200_28)">
<mask id="mask1_200_28" style="mask-type:luminance" maskUnits="userSpaceOnUse" x="141" y="-23" width="131" height="116">
<path d="M271.388 -22.0635H141.923V92.7485H271.388V-22.0635Z" fill="white"/>
</mask>
<g mask="url(#mask1_200_28)">
<path d="M141.923 11.4365H276.923" stroke="#138C6B" stroke-width="1.5"/>
<path d="M141.923 22.4365H276.923" stroke="#138C6B" stroke-width="1.5"/>
<path d="M141.923 33.4365H276.923" stroke="#138C6B" stroke-width="1.5"/>
<path d="M141.923 44.4365H276.923" stroke="#138C6B" stroke-width="1.5"/>
</g>
</g>
<defs>
<filter id="filter0_d_200_28" x="0.130859" y="0.251472" width="247.365" height="217.928" filterUnits="userSpaceOnUse" color-interpolation-filters="sRGB">
<feFlood flood-opacity="0" result="BackgroundImageFix"/>
<feColorMatrix in="SourceAlpha" type="matrix" values="0 0 0 0 0 0 0 0 0 0 0 0 0 0 0 0 0 0 127 0" result="hardAlpha"/>
<feOffset dy="7"/>
<feGaussianBlur stdDeviation="4"/>
<feComposite in2="hardAlpha" operator="out"/>
<feColorMatrix type="matrix" values="0 0 0 0 0.172549 0 0 0 0 0.172549 0 0 0 0 0.172549 0 0 0 0.16 0"/>
<feBlend mode="normal" in2="BackgroundImageFix" result="effect1_dropShadow_200_28"/>
<feBlend mode="normal" in="SourceGraphic" in2="effect1_dropShadow_200_28" result="shape"/>
</filter>
<linearGradient id="paint0_linear_200_28" x1="157.313" y1="26.8545" x2="219.671" y2="26.8545" gradientUnits="userSpaceOnUse">
<stop stop-color="#009677"/>
<stop offset="1" stop-color="#50B848"/>
</linearGradient>
</defs>
</svg>
