<svg width="249" height="219" viewBox="0 0 249 219" fill="none" xmlns="http://www.w3.org/2000/svg">
<g filter="url(#filter0_d_199_3)">
<path d="M39.3945 195.426L43.6025 190.271L51.959 200.326L59.7402 202.354L70.1152 195.244L82.8975 196.027L89.835 190.145L124.751 191.697L126.667 188.488L134.286 190.281L139.195 184.738L157.435 181.518L200.2 143.719L218.662 112.623L230.955 104.729L239.098 77.5605L228.873 76.1211L225.112 83.418L213.398 81.2871L210.359 68.8555L218.662 59.6289L226.187 61.7207L228.873 34.125L222.97 23.2695L216.855 5.64648L197.738 2L185.973 3.05078L182.128 7.62695L176.384 8.66406L167.984 17.2656L157.435 23.2695L155.468 31.7695L140.661 41.9004L134.286 56.2461L124.781 58.7695L112.855 56.2461L103.552 48.6777L98.2119 50.9746L95.709 59.6289L81.3525 74.041H64.9951L69.0312 63.0547L66.1543 53.8379L55.6367 43.2266L56.8799 100.852L50.5303 102.279L46.3516 108.398L22.3135 106.207L20.959 99.498L14.1855 96.2266L13.2021 100.852L9.56055 106.207L37.2822 161.078L36.4941 168.812L32.0527 171.35L40.3311 187.836L37.2822 191.061L39.3945 195.426Z" fill="#EDEDED"/>
<path d="M39.3945 195.426L43.6025 190.271L51.959 200.326L59.7402 202.354L70.1152 195.244L82.8975 196.027L89.835 190.145L124.751 191.697L126.667 188.488L134.286 190.281L139.195 184.738L157.435 181.518L200.2 143.719L218.662 112.623L230.955 104.729L239.098 77.5605L228.873 76.1211L225.112 83.418L213.398 81.2871L210.359 68.8555L218.662 59.6289L226.187 61.7207L228.873 34.125L222.97 23.2695L216.855 5.64648L197.738 2L185.973 3.05078L182.128 7.62695L176.384 8.66406L167.984 17.2656L157.435 23.2695L155.468 31.7695L140.661 41.9004L134.286 56.2461L124.781 58.7695L112.855 56.2461L103.552 48.6777L98.2119 50.9746L95.709 59.6289L81.3525 74.041H64.9951L69.0312 63.0547L66.1543 53.8379L55.6367 43.2266L56.8799 100.852L50.5303 102.279L46.3516 108.398L22.3135 106.207L20.959 99.498L14.1855 96.2266L13.2021 100.852L9.56055 106.207L37.2822 161.078L36.4941 168.812L32.0527 171.35L40.3311 187.836L37.2822 191.061L39.3945 195.426Z" stroke="#159677" stroke-width="1.5"/>
</g>
<defs>
<filter id="filter0_d_199_3" x="0.691406" y="0.243652" width="247.375" height="217.922" filterUnits="userSpaceOnUse" color-interpolation-filters="sRGB">
<feFlood flood-opacity="0" result="BackgroundImageFix"/>
<feColorMatrix in="SourceAlpha" type="matrix" values="0 0 0 0 0 0 0 0 0 0 0 0 0 0 0 0 0 0 127 0" result="hardAlpha"/>
<feOffset dy="7"/>
<feGaussianBlur stdDeviation="4"/>
<feComposite in2="hardAlpha" operator="out"/>
<feColorMatrix type="matrix" values="0 0 0 0 0.172549 0 0 0 0 0.172549 0 0 0 0 0.172549 0 0 0 0.160784 0"/>
<feBlend mode="normal" in2="BackgroundImageFix" result="effect1_dropShadow_199_3"/>
<feBlend mode="normal" in="SourceGraphic" in2="effect1_dropShadow_199_3" result="shape"/>
</filter>
</defs>
</svg>
