<svg xmlns="http://www.w3.org/2000/svg" width="19.211" height="164.994" viewBox="0 0 19.211 164.994">
  <g id="Group_5275" data-name="Group 5275" transform="translate(-3311.504 3433.664) rotate(-90)">
    <path id="Path_24440" data-name="Path 24440" d="M41.67,134.161v-.052a9.594,9.594,0,0,1,19.188-.055c.029.028.029.028,0,.055a9.594,9.594,0,0,1-19.188.052m16.985,0v-.052a7.429,7.429,0,0,0-7.419-7.669,7.339,7.339,0,0,0-7.364,7.614v.055a7.428,7.428,0,0,0,7.421,7.667,7.339,7.339,0,0,0,7.362-7.615" transform="translate(3227 3187)" fill="#fff"/>
    <path id="Path_24441" data-name="Path 24441" d="M72.495,124.958H74.62V141.6H85.206v1.937H72.495Z" transform="translate(3217.762 3186.864)" fill="#fff"/>
    <path id="Path_24442" data-name="Path 24442" d="M94.226,124.959h6.53c5.913,0,10,4.006,10,9.232v.055c0,5.227-4.086,9.286-10,9.286h-6.53Zm6.53,16.637c4.759,0,7.8-3.184,7.8-7.3v-.053c0-4.112-3.036-7.35-7.8-7.35H96.349v14.7Z" transform="translate(3211.249 3186.864)" fill="#fff"/>
    <path id="Path_24443" data-name="Path 24443" d="M121.464,124.958h4.462l4.946,7.855,4.946-7.855h4.46v18.574h-4.109V131.406l-5.3,7.932h-.106l-5.243-7.851v12.045h-4.059Z" transform="translate(3203.086 3186.864)" fill="#fff"/>
    <path id="Path_24444" data-name="Path 24444" d="M151.928,135.573V124.958h4.14v10.507c0,3.024,1.531,4.591,4.058,4.591s4.057-1.514,4.057-4.459v-10.64h4.142v10.48c0,5.626-3.2,8.387-8.25,8.387s-8.146-2.785-8.146-8.252" transform="translate(3193.957 3186.864)" fill="#fff"/>
    <path id="Path_24445" data-name="Path 24445" d="M184.087,128.725h-5.725v-3.767h15.589v3.767h-5.727v14.807h-4.137Z" transform="translate(3186.034 3186.864)" fill="#fff"/>
    <path id="Path_24446" data-name="Path 24446" d="M203.64,135.573V124.958h4.143v10.507c0,3.024,1.531,4.591,4.059,4.591s4.057-1.514,4.057-4.459v-10.64h4.138v10.48c0,5.626-3.2,8.387-8.251,8.387s-8.146-2.785-8.146-8.252" transform="translate(3178.459 3186.864)" fill="#fff"/>
    <path id="Path_24447" data-name="Path 24447" d="M234.879,124.769H238.7l8.065,18.707h-4.328l-1.721-4.166h-7.956l-1.718,4.166h-4.221Zm4.354,10.932-2.5-6.023-2.5,6.023Z" transform="translate(3171.513 3186.921)" fill="#fff"/>
    <path id="Path_24448" data-name="Path 24448" d="M257.969,124.958h4.136v14.859h9.382v3.714H257.969Z" transform="translate(3162.177 3186.864)" fill="#fff"/>
  </g>
</svg>
