<svg xmlns="http://www.w3.org/2000/svg" xmlns:xlink="http://www.w3.org/1999/xlink" width="158.801" height="128.456" viewBox="0 0 158.801 128.456">
  <defs>
    <linearGradient id="linear-gradient" x1="0.5" y1="0.5" x2="0.5" y2="1" gradientUnits="objectBoundingBox">
      <stop offset="0" stop-color="#8dba78"/>
      <stop offset="1" stop-color="#648f4f"/>
    </linearGradient>
  </defs>
  <g id="Group_5297" data-name="Group 5297" transform="translate(-844.088 -338.077)">
    <path id="Path_22834" data-name="Path 22834" d="M8.73,147.332a.879.879,0,0,1-.372-.083l-7.85-3.662a.88.88,0,0,1,0-1.6l7.85-3.664a.878.878,0,0,1,1.194.485,11.158,11.158,0,0,1,.757,3.977,11.175,11.175,0,0,1-.757,3.975.879.879,0,0,1-.491.5.89.89,0,0,1-.331.064M2.96,142.79,8.2,145.237a9.1,9.1,0,0,0,.344-2.448,9.1,9.1,0,0,0-.343-2.448Z" transform="translate(844.088 315.159)" fill="#2c5871"/>
    <path id="Path_22835" data-name="Path 22835" d="M188.409,138.689h0l-3.614,0a.88.88,0,0,1-.879-.88v-3.516a.879.879,0,0,1,.879-.879h0l3.611,0a.88.88,0,0,1,.879.878l0,3.515a.88.88,0,0,1-.88.881m-2.734-1.761h1.854l0-1.756h-1.852Z" transform="translate(813.6 315.96)" fill="#2c5871"/>
    <path id="Path_22836" data-name="Path 22836" d="M188.406,147.748H184.8a.88.88,0,0,1-.879-.88v-8.361a.88.88,0,0,1,.879-.88l3.614,0a.881.881,0,0,1,.88.88l0,8.361a.88.88,0,0,1-.88.879m-2.73-1.76h1.852l0-6.6h-1.854Z" transform="translate(813.6 315.262)" fill="#2c5871"/>
    <path id="Path_22837" data-name="Path 22837" d="M188.409,152.924H184.8a.879.879,0,0,1-.879-.879V148.53a.88.88,0,0,1,.879-.88h3.611a.881.881,0,0,1,.88.879l0,3.514a.88.88,0,0,1-.88.88m-2.734-1.759h1.854l0-1.754h-1.852Z" transform="translate(813.6 313.6)" fill="#2c5871"/>
    <g id="Group_5296" data-name="Group 5296">
      <path id="Path_22829" data-name="Path 22829" d="M157.541,138.687H23.5a.861.861,0,0,1-.138-.011A4.688,4.688,0,0,1,19.8,134.4a.88.88,0,0,1,.873-.988l136.871,0a.882.882,0,0,1,.88.881l0,3.515a.88.88,0,0,1-.88.878M23.578,136.927H156.662l0-1.756-134.875,0a2.609,2.609,0,0,0,1.789,1.753" transform="translate(840.807 315.96)" fill="#2c5871"/>
      <path id="Path_22830" data-name="Path 22830" d="M157.534,147.748H23.492a.881.881,0,0,1-.322-.061l-.023-.008c-1.951-.434-3.4-2.533-3.407-4.989s1.453-4.56,3.409-4.995l.023-.008a1.919,1.919,0,0,1,.321-.06h134.04a.88.88,0,0,1,.88.879l0,8.364a.88.88,0,0,1-.88.879m-133.859-1.76H156.654l0-6.6H23.673l-.037.007c-1.2.186-2.135,1.634-2.137,3.3s.941,3.107,2.135,3.293l.041.007" transform="translate(840.816 315.262)" fill="#2c5871"/>
      <path id="Path_22831" data-name="Path 22831" d="M157.543,152.925H20.673a.88.88,0,0,1-.873-.986,4.683,4.683,0,0,1,3.565-4.277.836.836,0,0,1,.138-.011H157.543a.88.88,0,0,1,.88.88v3.515a.88.88,0,0,1-.88.879m-135.756-1.76H156.664V149.41H23.578a2.612,2.612,0,0,0-1.791,1.755" transform="translate(840.807 313.6)" fill="#2c5871"/>
      <path id="Path_22832" data-name="Path 22832" d="M17.566,149.865a3.8,3.8,0,0,1,2.83-3.523h0c-.014,0-.028-.01-.038-.013a.134.134,0,0,0,.041,0c-1.619-.254-2.873-2.016-2.878-4.163S18.781,138.25,20.4,138l-.043,0c.013,0,.024-.011.038-.013h0a3.805,3.805,0,0,1-2.831-3.524l-16.51,7.706Z" transform="translate(843.914 315.787)" fill="#fff"/>
      <path id="Path_22833" data-name="Path 22833" d="M17.391,150.57a.876.876,0,0,1-.372-.083l-16.512-7.7a.881.881,0,0,1,0-1.6l16.51-7.7a.881.881,0,0,1,1.246.692,2.959,2.959,0,0,0,2.083,2.759.889.889,0,0,1,.018,1.757c-1.2.186-2.135,1.634-2.136,3.3s.941,3.107,2.134,3.293a.889.889,0,0,1-.049,1.764,2.974,2.974,0,0,0-2.048,2.751.879.879,0,0,1-.873.775m-14.43-8.583,13.813,6.444a5.055,5.055,0,0,1,1.487-2.273,5.749,5.749,0,0,1,0-8.344,5.066,5.066,0,0,1-1.487-2.274Z" transform="translate(844.088 315.962)" fill="#2c5871"/>
      <path id="Path_22838" data-name="Path 22838" d="M139.728,62.185A48.26,48.26,0,1,1,91.467,13.924a48.262,48.262,0,0,1,48.261,48.261" transform="translate(836.926 335.768)" fill="#f0edda"/>
      <path id="Path_22839" data-name="Path 22839" d="M91.3,111.111A49.094,49.094,0,1,1,140.4,62.019,49.149,49.149,0,0,1,91.3,111.111m0-96.519a47.425,47.425,0,1,0,47.427,47.427A47.479,47.479,0,0,0,91.3,14.592" transform="translate(837.092 335.934)" fill="#2c5871"/>
      <path id="Path_22840" data-name="Path 22840" d="M44.8,56.986a48.316,48.316,0,0,0,31.323,58.1A48.329,48.329,0,0,0,44.8,56.986" transform="translate(836.926 328.63)" fill="url(#linear-gradient)"/>
      <path id="Path_22841" data-name="Path 22841" d="M76.539,115.949l-.845-.283A49.151,49.151,0,0,1,43.83,56.561l.227-.862.844.283a49.159,49.159,0,0,1,31.864,59.106ZM45.222,57.858A47.484,47.484,0,0,0,75.374,113.79a47.7,47.7,0,0,0,1.342-11.25A47.377,47.377,0,0,0,45.222,57.858" transform="translate(837.092 328.843)" fill="#2c5871"/>
      <path id="Path_22842" data-name="Path 22842" d="M117.541,102.753a48.365,48.365,0,0,0,1.592,12.335,48.3,48.3,0,0,0,31.321-58.1,48.279,48.279,0,0,0-32.913,45.767" transform="translate(824.604 328.63)" fill="url(#linear-gradient)"/>
      <path id="Path_22843" data-name="Path 22843" d="M118.387,115.949l-.227-.862a49.159,49.159,0,0,1,31.863-59.106l.844-.283.227.862a49.135,49.135,0,0,1-31.862,59.106ZM149.7,57.858a47.494,47.494,0,0,0-30.15,55.932A47.467,47.467,0,0,0,149.7,57.858" transform="translate(824.768 328.843)" fill="#2c5871"/>
      <path id="Path_22844" data-name="Path 22844" d="M28.416,5.917H27.329L27,10.981l-.873,13.431,1.747-7.352,1.745,7.352-.871-13.431Z" transform="translate(839.758 337.096)" fill="#66cde1"/>
      <path id="Path_22845" data-name="Path 22845" d="M26.771,24.439l-1.644-.246L26.383,4.917h2.649l1.252,19.276-1.644.246-.933-3.933Zm.515-7.737h.841l-.42-6.47Z" transform="translate(839.922 337.261)" fill="#2c5871"/>
      <rect id="Rectangle_2219" data-name="Rectangle 2219" width="127.253" height="4.314" transform="translate(864.768 338.911)" fill="#009677"/>
      <path id="Path_22846" data-name="Path 22846" d="M152.709,5.982H23.788V0H152.709ZM25.456,4.314H151.041V1.668H25.456Z" transform="translate(840.145 338.077)" fill="#2c5871"/>
      <path id="Path_22847" data-name="Path 22847" d="M121.019,15.875H71.2q1.186-4.855,2.374-9.705h45.074q1.19,4.85,2.374,9.705" transform="translate(832.285 337.054)" fill="#009677"/>
      <path id="Path_22848" data-name="Path 22848" d="M121.871,16.544H69.924L72.706,5.17h46.383l.155.636q1.191,4.85,2.375,9.706ZM72.05,14.875h47.7q-.981-4.019-1.966-8.037H74.015Z" transform="translate(832.496 337.219)" fill="#2c5871"/>
      <path id="Path_22849" data-name="Path 22849" d="M67.862,142.422a3.071,3.071,0,0,1-6.142,0v-7.843a3.071,3.071,0,0,1,6.142,0Z" transform="translate(833.855 316.269)" fill="#f0edda"/>
      <path id="Path_22850" data-name="Path 22850" d="M64.624,146.119a3.889,3.889,0,0,1-3.905-3.864v-7.843a3.906,3.906,0,0,1,7.811,0v7.843a3.89,3.89,0,0,1-3.906,3.864m0-13.9a2.219,2.219,0,0,0-2.237,2.2v7.843a2.237,2.237,0,0,0,4.474,0v-7.843a2.22,2.22,0,0,0-2.237-2.2" transform="translate(834.021 316.435)" fill="#2c5871"/>
      <path id="Path_22851" data-name="Path 22851" d="M74.837,142.422a3.071,3.071,0,0,1-6.142,0v-7.843a3.071,3.071,0,0,1,6.142,0Z" transform="translate(832.699 316.269)" fill="#f0edda"/>
      <path id="Path_22852" data-name="Path 22852" d="M71.6,146.119a3.89,3.89,0,0,1-3.907-3.864v-7.843a3.906,3.906,0,0,1,7.812,0v7.843a3.889,3.889,0,0,1-3.905,3.864m0-13.9a2.22,2.22,0,0,0-2.238,2.2v7.843a2.238,2.238,0,0,0,4.475,0v-7.843a2.219,2.219,0,0,0-2.237-2.2" transform="translate(832.865 316.435)" fill="#2c5871"/>
      <path id="Path_22853" data-name="Path 22853" d="M81.816,142.422a3.072,3.072,0,0,1-6.144,0v-7.843a3.072,3.072,0,0,1,6.144,0Z" transform="translate(831.543 316.269)" fill="#f0edda"/>
      <path id="Path_22854" data-name="Path 22854" d="M78.578,146.119a3.89,3.89,0,0,1-3.907-3.864v-7.843a3.907,3.907,0,0,1,7.813,0v7.843a3.89,3.89,0,0,1-3.907,3.864m0-13.9a2.22,2.22,0,0,0-2.238,2.2v7.843a2.239,2.239,0,0,0,4.476,0v-7.843a2.22,2.22,0,0,0-2.238-2.2" transform="translate(831.709 316.435)" fill="#2c5871"/>
      <path id="Path_22855" data-name="Path 22855" d="M125.224,142.422a3.072,3.072,0,0,1-6.144,0v-7.843a3.072,3.072,0,0,1,6.144,0Z" transform="translate(824.348 316.269)" fill="#f0edda"/>
      <path id="Path_22856" data-name="Path 22856" d="M121.987,146.119a3.89,3.89,0,0,1-3.907-3.864v-7.843a3.907,3.907,0,0,1,7.813,0v7.843a3.89,3.89,0,0,1-3.907,3.864m0-13.9a2.22,2.22,0,0,0-2.238,2.2v7.843a2.239,2.239,0,0,0,4.476,0v-7.843a2.22,2.22,0,0,0-2.238-2.2" transform="translate(824.514 316.435)" fill="#2c5871"/>
      <path id="Path_22857" data-name="Path 22857" d="M132.2,142.422a3.071,3.071,0,0,1-6.142,0v-7.843a3.071,3.071,0,0,1,6.142,0Z" transform="translate(823.191 316.269)" fill="#f0edda"/>
      <path id="Path_22858" data-name="Path 22858" d="M128.964,146.119a3.89,3.89,0,0,1-3.908-3.864v-7.843a3.906,3.906,0,0,1,7.812,0v7.843a3.889,3.889,0,0,1-3.9,3.864m0-13.9a2.221,2.221,0,0,0-2.239,2.2v7.843a2.238,2.238,0,0,0,4.475,0v-7.843a2.219,2.219,0,0,0-2.236-2.2" transform="translate(823.357 316.435)" fill="#2c5871"/>
      <path id="Path_22859" data-name="Path 22859" d="M139.176,142.422a3.071,3.071,0,0,1-6.142,0v-7.843a3.071,3.071,0,0,1,6.142,0Z" transform="translate(822.035 316.269)" fill="#f0edda"/>
      <path id="Path_22860" data-name="Path 22860" d="M135.939,146.119a3.889,3.889,0,0,1-3.9-3.864v-7.843a3.906,3.906,0,0,1,7.811,0v7.843a3.89,3.89,0,0,1-3.906,3.864m0-13.9a2.219,2.219,0,0,0-2.237,2.2v7.843a2.237,2.237,0,0,0,4.474,0v-7.843a2.22,2.22,0,0,0-2.237-2.2" transform="translate(822.199 316.435)" fill="#2c5871"/>
      <path id="Path_22861" data-name="Path 22861" d="M47.469,50.865c.377-.007.757-.011,1.136-.011,17.3,0,32.733,6.185,42.867,15.868,10.134-9.683,25.572-15.868,42.865-15.868.38,0,.762,0,1.14.011.136-.526.269-1.051.4-1.581,2.973-12.5,4.25-23,3.715-31.533-12.571-1.135-23.152-1.477-31.186,1.109-8,2.346-13.529,7.536-16.933,15.575-3.4-8.039-8.93-13.229-16.931-15.575-8.036-2.586-18.617-2.244-31.188-1.109-.536,8.534.74,19.03,3.717,31.533.128.53.262,1.054.4,1.581" transform="translate(836.922 335.276)" fill="#8dba78"/>
      <path id="Path_22862" data-name="Path 22862" d="M91.306,67.709l-.576-.55c-10.4-9.937-25.816-15.637-42.291-15.637q-.562,0-1.122.011l-.657.011-.164-.637c-.138-.53-.272-1.059-.4-1.593-3.054-12.827-4.277-23.222-3.738-31.782l.045-.714.712-.064c6.584-.594,11.421-.859,15.686-.859a52.134,52.134,0,0,1,15.832,2c7.611,2.232,13.086,6.935,16.676,14.349A25.865,25.865,0,0,1,108,17.893a52.08,52.08,0,0,1,15.81-2c4.265,0,9.1.265,15.685.859l.713.064.044.715c.538,8.555-.684,18.949-3.736,31.778-.131.539-.264,1.067-.4,1.6l-.165.637-.657-.011c-.374-.007-.75-.011-1.125-.011-16.475,0-31.888,5.7-42.289,15.637ZM48.438,49.854c16.6,0,32.171,5.66,42.867,15.557,10.8-9.995,26.594-15.674,43.36-15.554.079-.312.157-.623.234-.937,2.926-12.3,4.149-22.316,3.733-30.569-6.167-.544-10.762-.788-14.818-.788a50.5,50.5,0,0,0-15.32,1.925c-7.708,2.261-13.073,7.2-16.42,15.107l-.768,1.814-.768-1.814c-3.349-7.908-8.713-12.847-16.4-15.1A50.538,50.538,0,0,0,58.8,17.562c-4.057,0-8.652.244-14.819.789-.418,8.256.807,18.269,3.736,30.573q.114.465.232.932l.491,0" transform="translate(837.088 335.442)" fill="#2c5871"/>
      <path id="Path_22863" data-name="Path 22863" d="M91.194,44.824a24.5,24.5,0,1,1-24.5-24.5,24.5,24.5,0,0,1,24.5,24.5" transform="translate(837.094 334.707)" fill="#fff"/>
      <path id="Path_22864" data-name="Path 22864" d="M66.527,69.993A25.335,25.335,0,1,1,91.862,44.659,25.364,25.364,0,0,1,66.527,69.993m0-49A23.666,23.666,0,1,0,90.193,44.659,23.694,23.694,0,0,0,66.527,20.992" transform="translate(837.26 334.873)" fill="#2c5871"/>
      <path id="Path_22865" data-name="Path 22865" d="M77.991,48.1a8.024,8.024,0,1,1-8.024-8.028A8.024,8.024,0,0,1,77.991,48.1" transform="translate(833.82 331.434)" fill="#00c0e8"/>
      <path id="Path_22866" data-name="Path 22866" d="M69.8,56.79a8.86,8.86,0,1,1,8.857-8.858A8.869,8.869,0,0,1,69.8,56.79m0-16.051a7.191,7.191,0,1,0,7.189,7.194A7.2,7.2,0,0,0,69.8,40.738" transform="translate(833.986 331.6)" fill="#2c5871"/>
      <path id="Path_22867" data-name="Path 22867" d="M72.137,46.732a2.967,2.967,0,1,1-2.967-2.967,2.966,2.966,0,0,1,2.967,2.967" transform="translate(833.113 330.821)" fill="#fff"/>
      <path id="Path_22868" data-name="Path 22868" d="M69,50.366a3.8,3.8,0,1,1,3.8-3.8,3.805,3.805,0,0,1-3.8,3.8m0-5.933a2.132,2.132,0,1,0,2.133,2.132A2.135,2.135,0,0,0,69,44.433" transform="translate(833.279 330.987)" fill="#2c5871"/>
      <path id="Path_22869" data-name="Path 22869" d="M150.187,44.824a24.5,24.5,0,1,1-24.5-24.5,24.5,24.5,0,0,1,24.5,24.5" transform="translate(827.314 334.707)" fill="#fff"/>
      <path id="Path_22870" data-name="Path 22870" d="M125.521,69.993a25.335,25.335,0,1,1,25.335-25.335,25.364,25.364,0,0,1-25.335,25.335m0-49a23.666,23.666,0,1,0,23.666,23.666,23.695,23.695,0,0,0-23.666-23.666" transform="translate(827.48 334.873)" fill="#2c5871"/>
      <path id="Path_22871" data-name="Path 22871" d="M136.984,48.1a8.026,8.026,0,1,1-8.024-8.028,8.024,8.024,0,0,1,8.024,8.028" transform="translate(824.041 331.434)" fill="#00c0e8"/>
      <path id="Path_22872" data-name="Path 22872" d="M128.795,56.79a8.86,8.86,0,1,1,8.858-8.858,8.87,8.87,0,0,1-8.858,8.858m0-16.051a7.191,7.191,0,1,0,7.189,7.194,7.2,7.2,0,0,0-7.189-7.194" transform="translate(824.207 331.6)" fill="#2c5871"/>
      <path id="Path_22873" data-name="Path 22873" d="M130.309,46.732a2.966,2.966,0,1,1-2.966-2.967,2.966,2.966,0,0,1,2.966,2.967" transform="translate(823.469 330.821)" fill="#fff"/>
      <path id="Path_22874" data-name="Path 22874" d="M127.179,50.366a3.8,3.8,0,1,1,3.8-3.8,3.805,3.805,0,0,1-3.8,3.8m0-5.933a2.132,2.132,0,1,0,2.131,2.132,2.135,2.135,0,0,0-2.131-2.132" transform="translate(823.635 330.987)" fill="#2c5871"/>
      <rect id="Rectangle_2220" data-name="Rectangle 2220" width="158.801" height="128.456" transform="translate(844.088 338.077)" fill="none"/>
    </g>
  </g>
</svg>
