<svg width="376" height="161" viewBox="0 0 376 161" fill="none" xmlns="http://www.w3.org/2000/svg">
<path d="M37.1925 127.273C35.5405 125.66 33.6328 124.402 31.4695 123.497C29.3061 122.592 27.0641 122.14 24.7435 122.14C21.5575 122.14 18.6271 122.907 15.9525 124.441C13.3171 125.975 11.2128 128.079 9.63947 130.754C8.10547 133.389 7.33847 136.28 7.33847 139.427C7.33847 142.574 8.10547 145.465 9.63947 148.1C11.2128 150.735 13.3171 152.839 15.9525 154.413C18.6271 155.947 21.5575 156.714 24.7435 156.714C27.0248 156.714 29.2471 156.281 31.4105 155.416C33.5738 154.511 35.5011 153.272 37.1925 151.699L39.6705 154.354C37.6251 156.242 35.2848 157.736 32.6495 158.838C30.0141 159.939 27.3198 160.49 24.5665 160.49C20.6725 160.49 17.0931 159.546 13.8285 157.658C10.5638 155.77 7.9678 153.213 6.04047 149.988C4.15247 146.763 3.20847 143.242 3.20847 139.427C3.20847 135.612 4.17214 132.111 6.09947 128.925C8.0268 125.739 10.6228 123.221 13.8875 121.373C17.1915 119.485 20.7905 118.541 24.6845 118.541C27.4771 118.541 30.1715 119.072 32.7675 120.134C35.3635 121.157 37.6448 122.592 39.6115 124.441L37.1925 127.273Z" fill="#50B848"/>
<path d="M78.0348 160.136L73.1378 149.162H50.2458L45.4078 160.136H41.0418L59.6268 118.895H63.8748L82.4598 160.136H78.0348ZM51.8388 145.504H71.5448L61.6328 123.202L51.8388 145.504Z" fill="#50B848"/>
<path d="M88.0597 118.895H92.1307V156.478H110.303V160.136H88.0597V118.895Z" fill="#50B848"/>
<path d="M147.101 127.273C145.449 125.66 143.541 124.402 141.378 123.497C139.214 122.592 136.972 122.14 134.652 122.14C131.466 122.14 128.535 122.907 125.861 124.441C123.225 125.975 121.121 128.079 119.548 130.754C118.014 133.389 117.247 136.28 117.247 139.427C117.247 142.574 118.014 145.465 119.548 148.1C121.121 150.735 123.225 152.839 125.861 154.413C128.535 155.947 131.466 156.714 134.652 156.714C136.933 156.714 139.155 156.281 141.319 155.416C143.482 154.511 145.409 153.272 147.101 151.699L149.579 154.354C147.533 156.242 145.193 157.736 142.558 158.838C139.922 159.939 137.228 160.49 134.475 160.49C130.581 160.49 127.001 159.546 123.737 157.658C120.472 155.77 117.876 153.213 115.949 149.988C114.061 146.763 113.117 143.242 113.117 139.427C113.117 135.612 114.08 132.111 116.008 128.925C117.935 125.739 120.531 123.221 123.796 121.373C127.1 119.485 130.699 118.541 134.593 118.541C137.385 118.541 140.08 119.072 142.676 120.134C145.272 121.157 147.553 122.592 149.52 124.441L147.101 127.273Z" fill="#50B848"/>
<path d="M160.445 143.38C160.445 147.628 161.586 150.932 163.867 153.292C166.188 155.652 169.393 156.832 173.484 156.832C177.575 156.832 180.761 155.652 183.042 153.292C185.323 150.932 186.464 147.628 186.464 143.38V118.836H190.535V143.38C190.535 148.729 189.021 152.918 185.992 155.947C183.003 158.976 178.833 160.49 173.484 160.49C168.135 160.49 163.946 158.976 160.917 155.947C157.888 152.918 156.374 148.729 156.374 143.38V118.836H160.445V143.38Z" fill="#50B848"/>
<path d="M201.367 118.895H205.438V156.478H223.61V160.136H201.367V118.895Z" fill="#50B848"/>
<path d="M261.695 160.136L256.798 149.162H233.906L229.068 160.136H224.702L243.287 118.895H247.535L266.12 160.136H261.695ZM235.499 145.504H255.205L245.293 123.202L235.499 145.504Z" fill="#50B848"/>
<path d="M262.019 118.836H293.348V122.553H279.719V160.136H275.648V122.553H262.019V118.836Z" fill="#50B848"/>
<path d="M314.106 118.541C318.04 118.541 321.639 119.485 324.903 121.373C328.207 123.221 330.823 125.739 332.75 128.925C334.678 132.111 335.641 135.612 335.641 139.427C335.641 143.242 334.678 146.763 332.75 149.988C330.823 153.213 328.207 155.77 324.903 157.658C321.639 159.546 318.04 160.49 314.106 160.49C310.173 160.49 306.554 159.546 303.25 157.658C299.986 155.77 297.39 153.213 295.462 149.988C293.535 146.763 292.571 143.242 292.571 139.427C292.571 135.612 293.535 132.111 295.462 128.925C297.39 125.739 299.986 123.221 303.25 121.373C306.554 119.485 310.173 118.541 314.106 118.541ZM314.165 122.199C311.019 122.199 308.108 122.966 305.433 124.5C302.759 126.034 300.635 128.118 299.061 130.754C297.488 133.389 296.701 136.28 296.701 139.427C296.701 142.574 297.488 145.484 299.061 148.159C300.635 150.833 302.759 152.958 305.433 154.531C308.108 156.065 311.019 156.832 314.165 156.832C317.273 156.832 320.144 156.065 322.779 154.531C325.454 152.958 327.578 150.833 329.151 148.159C330.725 145.484 331.511 142.574 331.511 139.427C331.511 136.28 330.725 133.389 329.151 130.754C327.578 128.118 325.454 126.034 322.779 124.5C320.144 122.966 317.273 122.199 314.165 122.199Z" fill="#50B848"/>
<path d="M370.655 160.136L361.746 146.684C360.487 146.763 359.524 146.802 358.855 146.802H347.527V160.136H343.456V118.895H358.855C364.008 118.895 367.98 120.095 370.773 122.494C373.605 124.854 375.021 128.217 375.021 132.583C375.021 136.005 374.195 138.856 372.543 141.138C370.891 143.419 368.531 145.012 365.463 145.917L375.375 160.136H370.655ZM358.855 143.144C362.788 143.144 365.817 142.259 367.941 140.489C370.065 138.679 371.127 136.084 371.127 132.701C371.127 129.397 370.065 126.88 367.941 125.149C365.817 123.418 362.788 122.553 358.855 122.553H347.527V143.144H358.855Z" fill="#50B848"/>
<path d="M20.9168 8.93394C19.226 8.93394 17.8928 9.33498 16.9173 10.1371C15.9418 10.9391 15.4541 12.0013 15.4541 13.3237C15.4541 14.646 16.0502 15.6974 17.2425 16.4778C18.4348 17.2582 21.1878 18.1795 25.5017 19.2417C29.8155 20.3039 33.1647 21.8972 35.5493 24.0216C37.9338 26.146 39.1261 29.2459 39.1261 33.3214C39.1261 37.3968 37.5978 40.7026 34.5413 43.2389C31.4847 45.7752 27.4635 47.0433 22.4776 47.0433C15.2807 47.0433 8.79902 44.377 3.03275 39.0443L9.08083 31.6305C13.98 35.9227 18.5106 38.0688 22.6727 38.0688C24.537 38.0688 26.0003 37.6677 27.0625 36.8657C28.1247 36.0636 28.6558 34.9797 28.6558 33.614C28.6558 32.2483 28.0922 31.1644 26.9649 30.3624C25.8377 29.5603 23.6049 28.7474 20.2665 27.9236C14.9772 26.6663 11.1077 25.0296 8.65811 23.0136C6.20853 20.9976 4.98374 17.8326 4.98374 13.5188C4.98374 9.20492 6.5337 5.87739 9.63361 3.5362C12.7335 1.19501 16.603 0.0244141 21.242 0.0244141C24.2769 0.0244141 27.3118 0.544678 30.3466 1.58521C33.3815 2.62574 36.0262 4.09982 38.2807 6.00745L33.1431 13.4212C29.1977 10.4297 25.1223 8.93394 20.9168 8.93394ZM76.8453 46.5231L72.6182 36.7031H53.5635L49.3363 46.5231H38.5408L58.1808 1.06494H68.0008L87.6408 46.5231H76.8453ZM63.1233 14.5918L57.4004 27.7935H68.7812L63.1233 14.5918ZM104.094 30.0047L115.67 1.06494H126.661L108.386 46.5231H99.802L81.5277 1.06494H92.5183L104.094 30.0047ZM129.262 1.06494H139.407V46.5231H129.262V1.06494ZM179.598 1.06494H189.743V46.5231H179.598L157.942 18.0386V46.5231H147.796V1.06494H157.291L179.598 30.3298V1.06494ZM227.657 23.3713H237.867V39.4995C233.358 44.5287 227.115 47.0433 219.138 47.0433C212.461 47.0433 206.857 44.8322 202.327 40.41C197.796 35.9877 195.531 30.4057 195.531 23.6639C195.531 16.9222 197.839 11.2968 202.457 6.78785C207.074 2.27889 212.645 0.0244141 219.17 0.0244141C225.695 0.0244141 231.364 2.1705 236.176 6.46269L230.909 14.0716C228.871 12.294 226.996 11.0692 225.283 10.3972C223.571 9.72518 221.717 9.38918 219.723 9.38918C215.864 9.38918 212.613 10.7007 209.968 13.3237C207.323 15.9467 206.001 19.4043 206.001 23.6965C206.001 27.9886 207.269 31.4246 209.805 34.0042C212.342 36.5839 215.366 37.8737 218.878 37.8737C222.389 37.8737 225.316 37.2017 227.657 35.8576V23.3713ZM258.743 8.93394C257.052 8.93394 255.719 9.33498 254.743 10.1371C253.768 10.9391 253.28 12.0013 253.28 13.3237C253.28 14.646 253.876 15.6974 255.069 16.4778C256.261 17.2582 259.014 18.1795 263.328 19.2417C267.642 20.3039 270.991 21.8972 273.375 24.0216C275.76 26.146 276.952 29.2459 276.952 33.3214C276.952 37.3968 275.424 40.7026 272.367 43.2389C269.311 45.7752 265.29 47.0433 260.304 47.0433C253.107 47.0433 246.625 44.377 240.859 39.0443L246.907 31.6305C251.806 35.9227 256.337 38.0688 260.499 38.0688C262.363 38.0688 263.826 37.6677 264.888 36.8657C265.951 36.0636 266.482 34.9797 266.482 33.614C266.482 32.2483 265.918 31.1644 264.791 30.3624C263.664 29.5603 261.431 28.7474 258.093 27.9236C252.803 26.6663 248.934 25.0296 246.484 23.0136C244.035 20.9976 242.81 17.8326 242.81 13.5188C242.81 9.20492 244.36 5.87739 247.46 3.5362C250.56 1.19501 254.429 0.0244141 259.068 0.0244141C262.103 0.0244141 265.138 0.544678 268.173 1.58521C271.208 2.62574 273.852 4.09982 276.107 6.00745L270.969 13.4212C267.024 10.4297 262.948 8.93394 258.743 8.93394ZM23.0629 87.5339L34.6388 58.5942H45.6294L27.3551 104.052H18.7708L0.49646 58.5942H11.4871L23.0629 87.5339ZM62.2779 66.4632C60.587 66.4632 59.2539 66.8643 58.2784 67.6663C57.3029 68.4684 56.8151 69.5306 56.8151 70.853C56.8151 72.1753 57.4113 73.2267 58.6035 74.0071C59.7958 74.7875 62.5489 75.7087 66.8627 76.771C71.1766 77.8332 74.5258 79.4265 76.9103 81.5509C79.2949 83.6753 80.4872 86.7752 80.4872 90.8506C80.4872 94.926 78.9589 98.2319 75.9023 100.768C72.8458 103.304 68.8246 104.573 63.8387 104.573C56.6417 104.573 50.1601 101.906 44.3938 96.5735L50.4419 89.1598C55.341 93.4519 59.8717 95.598 64.0338 95.598C65.8981 95.598 67.3613 95.197 68.4235 94.3949C69.4857 93.5929 70.0168 92.509 70.0168 91.1433C70.0168 89.7776 69.4532 88.6937 68.326 87.8916C67.1987 87.0895 64.9659 86.2766 61.6276 85.4529C56.3382 84.1956 52.4687 82.5589 50.0192 80.5429C47.5696 78.5269 46.3448 75.3619 46.3448 71.048C46.3448 66.7342 47.8947 63.4067 50.9947 61.0655C54.0946 58.7243 57.964 57.5537 62.6031 57.5537C65.6379 57.5537 68.6728 58.074 71.7077 59.1145C74.7426 60.155 77.3873 61.6291 79.6417 63.5367L74.5041 70.9505C70.5588 67.959 66.4834 66.4632 62.2779 66.4632ZM100.712 104.052V58.5942H110.858V95.0127H130.237V104.052H100.712ZM168.412 81.0957C168.412 77.0203 167.111 73.5518 164.51 70.6904C161.909 67.8289 158.711 66.3982 154.918 66.3982C151.124 66.3982 147.926 67.8289 145.325 70.6904C142.724 73.5518 141.423 77.0094 141.423 81.0631C141.423 85.1169 142.724 88.5636 145.325 91.4034C147.926 94.2432 151.124 95.6631 154.918 95.6631C158.711 95.6631 161.909 94.2432 164.51 91.4034C167.111 88.5636 168.412 85.1277 168.412 81.0957ZM171.859 97.8092C167.263 102.275 161.605 104.508 154.885 104.508C148.165 104.508 142.507 102.264 137.911 97.7767C133.316 93.2894 131.018 87.7074 131.018 81.0306C131.018 74.3539 133.316 68.7719 137.911 64.2846C142.507 59.7973 148.165 57.5537 154.885 57.5537C161.605 57.5537 167.263 59.7973 171.859 64.2846C176.454 68.7719 178.752 74.3539 178.752 81.0306C178.752 87.7074 176.454 93.3002 171.859 97.8092ZM215.561 104.052L211.334 94.2323H192.279L188.052 104.052H177.256L196.896 58.5942H206.716L226.356 104.052H215.561ZM201.839 72.1211L196.116 85.3228H207.497L201.839 72.1211ZM260.629 58.5942H270.774V104.052H260.629L238.973 75.5678V104.052H228.828V58.5942H238.322L260.629 87.8591V58.5942ZM293.796 66.4632C292.105 66.4632 290.772 66.8643 289.796 67.6663C288.821 68.4684 288.333 69.5306 288.333 70.853C288.333 72.1753 288.929 73.2267 290.121 74.0071C291.314 74.7875 294.067 75.7087 298.381 76.771C302.694 77.8332 306.044 79.4265 308.428 81.5509C310.813 83.6753 312.005 86.7752 312.005 90.8506C312.005 94.926 310.477 98.2319 307.42 100.768C304.364 103.304 300.342 104.573 295.357 104.573C288.16 104.573 281.678 101.906 275.912 96.5735L281.96 89.1598C286.859 93.4519 291.389 95.598 295.552 95.598C297.416 95.598 298.879 95.197 299.941 94.3949C301.004 93.5929 301.535 92.509 301.535 91.1433C301.535 89.7776 300.971 88.6937 299.844 87.8916C298.717 87.0895 296.484 86.2766 293.145 85.4529C287.856 84.1956 283.987 82.5589 281.537 80.5429C279.087 78.5269 277.863 75.3619 277.863 71.048C277.863 66.7342 279.413 63.4067 282.512 61.0655C285.612 58.7243 289.482 57.5537 294.121 57.5537C297.156 57.5537 300.191 58.074 303.225 59.1145C306.26 60.155 308.905 61.6291 311.16 63.5367L306.022 70.9505C302.077 67.959 298.001 66.4632 293.796 66.4632Z" fill="url(#paint0_linear_26_2)"/>
<defs>
<linearGradient id="paint0_linear_26_2" x1="140.017" y1="96.3121" x2="141.918" y2="-7.89366" gradientUnits="userSpaceOnUse">
<stop stop-color="#50B848"/>
<stop offset="1" stop-color="#009677"/>
</linearGradient>
</defs>
</svg>
