<svg xmlns="http://www.w3.org/2000/svg" width="238" height="142" viewBox="0 0 238 142"><rect width="100%" height="100%" fill="#DDDDDD"/><path fill="#999999" d="M56.15 78.885h5.94q.64 0 1.02.36.37.36.37.95v2.37H47.61v-1.31q0-.4.17-.84.17-.44.53-.79l7.03-7.04q.88-.9 1.57-1.72.7-.81 1.16-1.61.47-.8.72-1.63.24-.82.24-1.73 0-.83-.24-1.47-.24-.63-.68-1.06-.44-.43-1.05-.65-.62-.21-1.39-.21-.7 0-1.3.2-.6.2-1.06.56-.47.36-.79.84-.32.48-.48 1.05-.27.74-.7.98-.43.24-1.25.11l-2.08-.37q.24-1.66.93-2.92.69-1.25 1.72-2.09 1.03-.84 2.37-1.27 1.33-.42 2.87-.42 1.6 0 2.93.47 1.32.47 2.27 1.34.94.86 1.47 2.08.53 1.21.53 2.7 0 1.28-.38 2.37-.37 1.09-1.01 2.08-.63.99-1.48 1.92-.84.93-1.77 1.89l-5.22 5.32q.75-.22 1.5-.34.74-.12 1.41-.12Zm12.61-12.64-2.08-.37q.24-1.66.93-2.92.69-1.25 1.72-2.09 1.03-.84 2.37-1.27 1.33-.42 2.87-.42 1.6 0 2.89.45 1.29.46 2.2 1.27.91.81 1.4 1.89.49 1.09.49 2.36 0 1.1-.25 1.94-.25.84-.71 1.46-.47.63-1.16 1.06-.68.43-1.55.72 2.08.66 3.11 2 1.02 1.34 1.02 3.38 0 1.72-.64 3.05-.64 1.33-1.73 2.23-1.09.91-2.52 1.37-1.43.47-3.03.47-1.74 0-3.04-.4t-2.26-1.19q-.96-.78-1.63-1.92-.67-1.13-1.15-2.62l1.74-.72q.69-.29 1.29-.15.6.13.87.64.29.56.64 1.11.34.54.82.97.48.42 1.13.68.65.27 1.54.27 1.01 0 1.76-.33t1.26-.86q.5-.52.75-1.17.25-.65.25-1.31 0-.83-.18-1.51-.17-.68-.73-1.16-.56-.48-1.61-.75t-2.81-.27v-2.82q1.46-.01 2.42-.27t1.52-.71q.57-.46.8-1.1.22-.64.22-1.41 0-1.63-.91-2.48-.91-.84-2.43-.84-.71 0-1.3.2-.59.2-1.06.56-.48.36-.8.84-.32.48-.48 1.05-.27.74-.71.98-.44.24-1.24.11Zm24.03 13.49q.98 0 1.72-.28.73-.28 1.24-.78.5-.49.76-1.18.25-.69.25-1.49 0-1.9-1.05-2.88-1.06-.98-2.92-.98-1.85 0-2.91.98-1.05.98-1.05 2.88 0 .8.25 1.49.26.69.76 1.18.51.5 1.24.78.74.28 1.71.28Zm0-17.59q-.88 0-1.52.28-.64.27-1.06.72-.42.46-.62 1.05-.2.59-.2 1.25 0 .69.16 1.34.17.64.57 1.15.4.5 1.06.81.65.3 1.61.3.96 0 1.62-.3.66-.31 1.06-.81.4-.51.56-1.15.17-.65.17-1.34 0-.66-.21-1.25-.2-.59-.62-1.05-.42-.45-1.06-.72-.64-.28-1.52-.28Zm3.91 8.36q2.11.68 3.12 2.1 1.01 1.42 1.01 3.46 0 1.54-.59 2.79-.58 1.25-1.64 2.13-1.05.88-2.53 1.36-1.48.48-3.28.48-1.79 0-3.27-.48t-2.53-1.36q-1.06-.88-1.64-2.13-.59-1.25-.59-2.79 0-2.04 1.01-3.46t3.12-2.1q-1.68-.71-2.52-2-.84-1.3-.84-3.12 0-1.32.54-2.45.53-1.14 1.49-1.98.96-.84 2.3-1.31 1.33-.47 2.93-.47t2.94.47q1.34.47 2.3 1.31.96.84 1.49 1.98.54 1.13.54 2.45 0 1.82-.84 3.12-.84 1.29-2.52 2Zm29.98 6.76-2.09 2.07-5.43-5.43-5.47 5.46-2.1-2.06 5.48-5.49-5.22-5.22 2.08-2.08 5.22 5.22 5.18-5.19 2.11 2.08-5.2 5.2 5.44 5.44Zm21.91 2.34h4.16v2.96h-12.8v-2.96h4.68v-13.49q0-.8.05-1.65l-3.33 2.79q-.28.22-.56.28-.28.05-.53.01-.25-.05-.44-.17-.19-.12-.29-.27l-1.25-1.71 7.06-6h3.25v20.21Zm10.51-5.76h7.04v-7.57q0-1.07.14-2.37l-7.18 9.94Zm10.48 0h2.91v2.29q0 .32-.21.55-.21.23-.59.23h-2.11v5.65h-3.44v-5.65h-9.76q-.4 0-.71-.25-.3-.24-.38-.61l-.42-2 10.96-14.64h3.75v14.43Zm13.49 5.04H189q.64 0 1.02.36.37.36.37.95v2.37h-15.87v-1.31q0-.4.17-.84.17-.44.54-.79l7.02-7.04q.88-.9 1.58-1.72.69-.81 1.16-1.61.46-.8.71-1.63.25-.82.25-1.73 0-.83-.24-1.47-.24-.63-.68-1.06-.44-.43-1.06-.65-.62-.21-1.38-.21-.71 0-1.31.2-.6.2-1.06.56-.47.36-.79.84-.32.48-.48 1.05-.27.74-.7.98-.43.24-1.25.11l-2.08-.37q.24-1.66.93-2.92.69-1.25 1.72-2.09 1.03-.84 2.37-1.27 1.33-.42 2.87-.42 1.6 0 2.93.47t2.27 1.34q.94.86 1.47 2.08.53 1.21.53 2.7 0 1.28-.38 2.37-.37 1.09-1 2.08-.64.99-1.48 1.92-.85.93-1.78 1.89l-5.22 5.32q.76-.22 1.5-.34.74-.12 1.42-.12Z"/></svg>