<svg xmlns="http://www.w3.org/2000/svg" xmlns:xlink="http://www.w3.org/1999/xlink" width="223.275" height="125.814" viewBox="0 0 223.275 125.814">
  <defs>
    <linearGradient id="linear-gradient" x1="0.639" y1="0.61" x2="0.937" y2="0.871" gradientUnits="objectBoundingBox">
      <stop offset="0" stop-color="#8dba78"/>
      <stop offset="1" stop-color="#638e4e"/>
    </linearGradient>
    <linearGradient id="linear-gradient-2" x1="0.5" x2="1.16" gradientUnits="objectBoundingBox">
      <stop offset="0" stop-color="#9cc687"/>
      <stop offset="1" stop-color="#638e4e"/>
    </linearGradient>
    <linearGradient id="linear-gradient-3" x1="0.524" y1="0.385" x2="0.925" y2="0.742" gradientUnits="objectBoundingBox">
      <stop offset="0" stop-color="#b8d4a3"/>
      <stop offset="1" stop-color="#94b779"/>
    </linearGradient>
    <linearGradient id="linear-gradient-4" x1="0.5" x2="0.721" y2="0.905" gradientUnits="objectBoundingBox">
      <stop offset="0" stop-color="#77aa5b"/>
      <stop offset="1" stop-color="#538339"/>
    </linearGradient>
  </defs>
  <g id="Group_5305" data-name="Group 5305" transform="translate(-1094.691 -2888.727)">
    <g id="Group_5144" data-name="Group 5144" transform="translate(1094.691 2888.727)">
      <path id="Path_22911" data-name="Path 22911" d="M-2067.642-9828.042s-27.6-50.093-22.386-65.106,13.979-48.352,79.109-33.366c35.645,8.249,66.755,12.428,104.516,17.535s53.985,58.443,21.761,80.938C-1884.6-9827.934-2067.642-9828.042-2067.642-9828.042Z" transform="translate(2090.683 9930.3)" fill="#f7f7f7"/>
      <g id="Rectangle_2051" data-name="Rectangle 2051" transform="translate(65.891 60.219)" fill="#f5f5f5" stroke="#27785d" stroke-width="1.5">
        <rect width="98.604" height="49.302" stroke="none"/>
        <rect x="0.75" y="0.75" width="97.104" height="47.802" fill="none"/>
      </g>
      <rect id="Rectangle_2213" data-name="Rectangle 2213" width="95.83" height="3.309" transform="translate(67.225 62.624)" fill="#d9d9d9"/>
      <rect id="Rectangle_2209" data-name="Rectangle 2209" width="3.15" height="33.67" transform="translate(133.54 62.624)" fill="#d9d9d9"/>
      <rect id="Rectangle_2210" data-name="Rectangle 2210" width="3.15" height="33.67" transform="translate(122.718 62.624)" fill="#d9d9d9"/>
      <rect id="Rectangle_2211" data-name="Rectangle 2211" width="3.15" height="33.67" transform="translate(111.896 62.624)" fill="#d9d9d9"/>
      <rect id="Rectangle_2212" data-name="Rectangle 2212" width="3.15" height="33.67" transform="translate(101.072 62.624)" fill="#d9d9d9"/>
      <path id="Path_22367" data-name="Path 22367" d="M0,18.037V0" transform="translate(115.593 17.531)" fill="none" stroke="#27785d" stroke-width="1.5"/>
      <path id="Path_22368" data-name="Path 22368" d="M3648.133,16471.256a4.994,4.994,0,0,0,5.012,0c2.431-1.572,6.968-1.658,8.071,0,.06-.111,0,9.992,0,9.992s-4-1.961-7.315,0a5.122,5.122,0,0,1-5.768,0Z" transform="translate(-3532.02 -16451.965)" fill="#8dba78" stroke="#27785d" stroke-width="1.5"/>
      <g id="Rectangle_2053" data-name="Rectangle 2053" transform="translate(95.061 61.422)" fill="#8dba78" stroke="#27785d" stroke-width="1.5">
        <rect width="6.012" height="37.277" stroke="none"/>
        <rect x="0.75" y="0.75" width="4.512" height="35.777" fill="none"/>
      </g>
      <g id="Rectangle_2055" data-name="Rectangle 2055" transform="translate(105.883 61.422)" fill="#8dba78" stroke="#27785d" stroke-width="1.5">
        <rect width="6.012" height="37.277" stroke="none"/>
        <rect x="0.75" y="0.75" width="4.512" height="35.777" fill="none"/>
      </g>
      <g id="Rectangle_2056" data-name="Rectangle 2056" transform="translate(116.705 61.422)" fill="#8dba78" stroke="#27785d" stroke-width="1.5">
        <rect width="6.012" height="37.277" stroke="none"/>
        <rect x="0.75" y="0.75" width="4.512" height="35.777" fill="none"/>
      </g>
      <g id="Rectangle_2057" data-name="Rectangle 2057" transform="translate(127.527 61.422)" fill="#8dba78" stroke="#27785d" stroke-width="1.5">
        <rect width="6.012" height="37.277" stroke="none"/>
        <rect x="0.75" y="0.75" width="4.512" height="35.777" fill="none"/>
      </g>
      <g id="Rectangle_2058" data-name="Rectangle 2058" transform="translate(61.08 102.307)" fill="#b8d4a3" stroke="#27785d" stroke-width="1.5">
        <rect width="108.224" height="7.215" stroke="none"/>
        <rect x="0.75" y="0.75" width="106.724" height="5.715" fill="none"/>
      </g>
      <g id="Rectangle_2059" data-name="Rectangle 2059" transform="translate(65.891 96.294)" fill="#f5f5f5" stroke="#27785d" stroke-width="1.5">
        <rect width="98.604" height="7.215" stroke="none"/>
        <rect x="0.75" y="0.75" width="97.104" height="5.715" fill="none"/>
      </g>
      <g id="Polygon_25" data-name="Polygon 25" transform="translate(66.202 34.967)" fill="url(#linear-gradient)">
        <path d="M 95.20188903808594 22.09733009338379 L 3.402163028717041 22.09733009338379 L 49.30202484130859 0.8266140222549438 L 95.20188903808594 22.09733009338379 Z" stroke="none"/>
        <path d="M 49.30202484130859 1.653230667114258 L 6.804328918457031 21.34733009338379 L 91.79972076416016 21.34733009338379 L 49.30202484130859 1.653230667114258 M 49.30202484130859 -1.9073486328125e-06 L 98.60404968261719 22.84733009338379 L 0 22.84733009338379 L 49.30202484130859 -1.9073486328125e-06 Z" stroke="none" fill="#27785d"/>
      </g>
      <g id="Rectangle_2060" data-name="Rectangle 2060" transform="translate(61.08 55.409)" fill="#f5f5f5" stroke="#27785d" stroke-width="1.5">
        <rect width="108.224" height="7.215" stroke="none"/>
        <rect x="0.75" y="0.75" width="106.724" height="5.715" fill="none"/>
      </g>
      <path id="Path_22381" data-name="Path 22381" d="M3570.453,17034.621s3.521-2.031,6.034-.99c.388-.062,1.841-8.107,7.91-5.947.372.227,6.437-7.258,13.074,4.984-.094.113,3.734-5.793,7.363-1.533" transform="translate(-3529.569 -17009.588)" fill="none" stroke="#8dba78" stroke-width="1"/>
      <path id="Path_22382" data-name="Path 22382" d="M3570.453,17034.621s3.521-2.031,6.034-.99c.388-.062,1.841-8.107,7.91-5.947.372.227,6.437-7.258,13.074,4.984-.094.113,3.734-5.793,7.363-1.533" transform="translate(-3416.534 -17009.588)" fill="none" stroke="#8dba78" stroke-width="1"/>
      <path id="Path_22383" data-name="Path 22383" d="M3731.02,17033.551s.253-7.082,7.1-5.139c.013-.02,8.214-7.187,11.25,3.947" transform="translate(-3591.933 -17013.012)" fill="none" stroke="#8dba78" stroke-width="1"/>
      <path id="Path_22384" data-name="Path 22384" d="M3641.766,16362.168s6.509-4.674,8.083,0c.081.16,1.481-3.072,6.4,0" transform="translate(-3577.497 -16322.008)" fill="none" stroke="#27785d" stroke-linecap="round" stroke-width="1.5"/>
      <g id="Group_4952" data-name="Group 4952" transform="translate(172.474 99.794)">
        <line id="Line_79" data-name="Line 79" x2="15.18" transform="translate(0)" fill="none" stroke="#27785d" stroke-linecap="round" stroke-width="2"/>
        <line id="Line_80" data-name="Line 80" x2="11.186" transform="translate(21.572)" fill="none" stroke="#27785d" stroke-linecap="round" stroke-width="2"/>
      </g>
      <g id="Group_4954" data-name="Group 4954" transform="translate(183.696 76.346)">
        <g id="Group_4937" data-name="Group 4937" transform="translate(0 2.733)">
          <line id="Line_85" data-name="Line 85" x2="5.466" fill="none" stroke="#27785d" stroke-linecap="round" stroke-width="2"/>
        </g>
        <g id="Group_4938" data-name="Group 4938" transform="translate(2.732 0) rotate(90)">
          <line id="Line_85-2" data-name="Line 85" x2="5.466" transform="translate(0)" fill="none" stroke="#27785d" stroke-linecap="round" stroke-width="2"/>
        </g>
      </g>
      <g id="Ellipse_97" data-name="Ellipse 97" transform="translate(212.635 52.661)" fill="#fff" stroke="#8dba78" stroke-width="2">
        <circle cx="3.196" cy="3.196" r="3.196" stroke="none"/>
        <circle cx="3.196" cy="3.196" r="2.196" fill="none"/>
      </g>
      <g id="Ellipse_98" data-name="Ellipse 98" transform="translate(31.269 78.228)" fill="#fff" stroke="#8dba78" stroke-width="2">
        <circle cx="3.196" cy="3.196" r="3.196" stroke="none"/>
        <circle cx="3.196" cy="3.196" r="2.196" fill="none"/>
      </g>
      <line id="Line_99" data-name="Line 99" x2="35.069" transform="translate(131.218 124.184)" fill="none" stroke="#27785d" stroke-linecap="round" stroke-width="2"/>
      <line id="Line_100" data-name="Line 100" x2="5.466" transform="translate(171.488 124.184)" fill="none" stroke="#27785d" stroke-linecap="round" stroke-width="2"/>
      <line id="Line_101" data-name="Line 101" x2="23.37" transform="translate(102.648 124.184)" fill="none" stroke="#27785d" stroke-linecap="round" stroke-width="2"/>
      <line id="Line_102" data-name="Line 102" x2="35.069" transform="translate(20.298 99.794)" fill="none" stroke="#27785d" stroke-linecap="round" stroke-width="2"/>
      <line id="Line_103" data-name="Line 103" x2="5.466" transform="translate(60.568 99.794)" fill="none" stroke="#27785d" stroke-linecap="round" stroke-width="2"/>
      <rect id="Rectangle_2097" data-name="Rectangle 2097" width="103.866" height="5.593" rx="2.796" transform="translate(68.82 110.985)" fill="#e5e5e5"/>
      <g id="Group_5053" data-name="Group 5053" transform="translate(75.521 66.941)">
        <rect id="Rectangle_2043" data-name="Rectangle 2043" width="4.81" height="4.81" transform="translate(0 0)" fill="#27785d"/>
        <rect id="Rectangle_2044" data-name="Rectangle 2044" width="4.81" height="4.81" transform="translate(6.013 0)" fill="#27785d"/>
        <rect id="Rectangle_2045" data-name="Rectangle 2045" width="4.81" height="4.81" transform="translate(0 6.013)" fill="#27785d"/>
        <rect id="Rectangle_2046" data-name="Rectangle 2046" width="4.81" height="4.81" transform="translate(6.013 6.013)" fill="#27785d"/>
        <g id="Group_5034" data-name="Group 5034" transform="translate(0 0)">
          <rect id="Rectangle_2201" data-name="Rectangle 2201" width="1.614" height="4.81" transform="translate(0 6.013)" fill="#195843"/>
          <rect id="Rectangle_2202" data-name="Rectangle 2202" width="1.614" height="4.81" transform="translate(0 7.627) rotate(-90)" fill="#195843"/>
          <rect id="Rectangle_2203" data-name="Rectangle 2203" width="1.614" height="4.81" transform="translate(6.013 6.013)" fill="#195843"/>
          <rect id="Rectangle_2204" data-name="Rectangle 2204" width="1.614" height="4.81" transform="translate(6.013 7.627) rotate(-90)" fill="#195843"/>
          <rect id="Rectangle_2205" data-name="Rectangle 2205" width="1.614" height="4.81" fill="#195843"/>
          <rect id="Rectangle_2206" data-name="Rectangle 2206" width="1.614" height="4.81" transform="translate(0 1.614) rotate(-90)" fill="#195843"/>
          <rect id="Rectangle_2207" data-name="Rectangle 2207" width="1.614" height="4.81" transform="translate(6.013)" fill="#195843"/>
          <rect id="Rectangle_2208" data-name="Rectangle 2208" width="1.614" height="4.81" transform="translate(6.013 1.614) rotate(-90)" fill="#195843"/>
        </g>
      </g>
      <g id="Group_5054" data-name="Group 5054" transform="translate(75.521 82.921)">
        <rect id="Rectangle_2043-2" data-name="Rectangle 2043" width="4.81" height="4.81" transform="translate(0 0)" fill="#27785d"/>
        <rect id="Rectangle_2044-2" data-name="Rectangle 2044" width="4.81" height="4.81" transform="translate(6.013 0)" fill="#27785d"/>
        <rect id="Rectangle_2045-2" data-name="Rectangle 2045" width="4.81" height="4.81" transform="translate(0 6.013)" fill="#27785d"/>
        <rect id="Rectangle_2046-2" data-name="Rectangle 2046" width="4.81" height="4.81" transform="translate(6.013 6.013)" fill="#27785d"/>
        <g id="Group_5034-2" data-name="Group 5034" transform="translate(0 0)">
          <rect id="Rectangle_2201-2" data-name="Rectangle 2201" width="1.614" height="4.81" transform="translate(0 6.013)" fill="#195843"/>
          <rect id="Rectangle_2202-2" data-name="Rectangle 2202" width="1.614" height="4.81" transform="translate(0 7.627) rotate(-90)" fill="#195843"/>
          <rect id="Rectangle_2203-2" data-name="Rectangle 2203" width="1.614" height="4.81" transform="translate(6.013 6.013)" fill="#195843"/>
          <rect id="Rectangle_2204-2" data-name="Rectangle 2204" width="1.614" height="4.81" transform="translate(6.013 7.627) rotate(-90)" fill="#195843"/>
          <rect id="Rectangle_2205-2" data-name="Rectangle 2205" width="1.614" height="4.81" fill="#195843"/>
          <rect id="Rectangle_2206-2" data-name="Rectangle 2206" width="1.614" height="4.81" transform="translate(0 1.614) rotate(-90)" fill="#195843"/>
          <rect id="Rectangle_2207-2" data-name="Rectangle 2207" width="1.614" height="4.81" transform="translate(6.013)" fill="#195843"/>
          <rect id="Rectangle_2208-2" data-name="Rectangle 2208" width="1.614" height="4.81" transform="translate(6.013 1.614) rotate(-90)" fill="#195843"/>
        </g>
      </g>
      <g id="Group_5055" data-name="Group 5055" transform="translate(142.85 66.941)">
        <rect id="Rectangle_2043-3" data-name="Rectangle 2043" width="4.81" height="4.81" transform="translate(0 0)" fill="#27785d"/>
        <rect id="Rectangle_2044-3" data-name="Rectangle 2044" width="4.81" height="4.81" transform="translate(6.013 0)" fill="#27785d"/>
        <rect id="Rectangle_2045-3" data-name="Rectangle 2045" width="4.81" height="4.81" transform="translate(0 6.013)" fill="#27785d"/>
        <rect id="Rectangle_2046-3" data-name="Rectangle 2046" width="4.81" height="4.81" transform="translate(6.013 6.013)" fill="#27785d"/>
        <g id="Group_5034-3" data-name="Group 5034" transform="translate(0 0)">
          <rect id="Rectangle_2201-3" data-name="Rectangle 2201" width="1.614" height="4.81" transform="translate(0 6.013)" fill="#195843"/>
          <rect id="Rectangle_2202-3" data-name="Rectangle 2202" width="1.614" height="4.81" transform="translate(0 7.627) rotate(-90)" fill="#195843"/>
          <rect id="Rectangle_2203-3" data-name="Rectangle 2203" width="1.614" height="4.81" transform="translate(6.013 6.013)" fill="#195843"/>
          <rect id="Rectangle_2204-3" data-name="Rectangle 2204" width="1.614" height="4.81" transform="translate(6.013 7.627) rotate(-90)" fill="#195843"/>
          <rect id="Rectangle_2205-3" data-name="Rectangle 2205" width="1.614" height="4.81" fill="#195843"/>
          <rect id="Rectangle_2206-3" data-name="Rectangle 2206" width="1.614" height="4.81" transform="translate(0 1.614) rotate(-90)" fill="#195843"/>
          <rect id="Rectangle_2207-3" data-name="Rectangle 2207" width="1.614" height="4.81" transform="translate(6.013)" fill="#195843"/>
          <rect id="Rectangle_2208-3" data-name="Rectangle 2208" width="1.614" height="4.81" transform="translate(6.013 1.614) rotate(-90)" fill="#195843"/>
        </g>
      </g>
      <g id="Group_5056" data-name="Group 5056" transform="translate(142.85 82.921)">
        <rect id="Rectangle_2043-4" data-name="Rectangle 2043" width="4.81" height="4.81" transform="translate(0 0)" fill="#27785d"/>
        <rect id="Rectangle_2044-4" data-name="Rectangle 2044" width="4.81" height="4.81" transform="translate(6.013 0)" fill="#27785d"/>
        <rect id="Rectangle_2045-4" data-name="Rectangle 2045" width="4.81" height="4.81" transform="translate(0 6.013)" fill="#27785d"/>
        <rect id="Rectangle_2046-4" data-name="Rectangle 2046" width="4.81" height="4.81" transform="translate(6.013 6.013)" fill="#27785d"/>
        <g id="Group_5034-4" data-name="Group 5034" transform="translate(0 0)">
          <rect id="Rectangle_2201-4" data-name="Rectangle 2201" width="1.614" height="4.81" transform="translate(0 6.013)" fill="#195843"/>
          <rect id="Rectangle_2202-4" data-name="Rectangle 2202" width="1.614" height="4.81" transform="translate(0 7.627) rotate(-90)" fill="#195843"/>
          <rect id="Rectangle_2203-4" data-name="Rectangle 2203" width="1.614" height="4.81" transform="translate(6.013 6.013)" fill="#195843"/>
          <rect id="Rectangle_2204-4" data-name="Rectangle 2204" width="1.614" height="4.81" transform="translate(6.013 7.627) rotate(-90)" fill="#195843"/>
          <rect id="Rectangle_2205-4" data-name="Rectangle 2205" width="1.614" height="4.81" fill="#195843"/>
          <rect id="Rectangle_2206-4" data-name="Rectangle 2206" width="1.614" height="4.81" transform="translate(0 1.614) rotate(-90)" fill="#195843"/>
          <rect id="Rectangle_2207-4" data-name="Rectangle 2207" width="1.614" height="4.81" transform="translate(6.013)" fill="#195843"/>
          <rect id="Rectangle_2208-4" data-name="Rectangle 2208" width="1.614" height="4.81" transform="translate(6.013 1.614) rotate(-90)" fill="#195843"/>
        </g>
      </g>
      <g id="Group_5057" data-name="Group 5057" transform="translate(195.323 70.275)">
        <path id="Path_22387" data-name="Path 22387" d="M5796.112,17061.566s-7.295-.783-6.118-7.66.518-4.883,0-6.463-.547-4.176.8-7.359.5-3.865,0-5.031.985-6.66,5.314-6.279,5.427,4.58,4.818,7.975,1.427,3.994,1.992,4.656,1.642,3.609,0,7.3-.866,5.941-.866,5.941,1.988,5.543-5.261,6.92A2.983,2.983,0,0,0,5796.112,17061.566Z" transform="translate(-5789.663 -17028.754)" fill="url(#linear-gradient-2)"/>
        <path id="Path_22388" data-name="Path 22388" d="M5803.5,17080.98v-36.07" transform="translate(-5796.433 -17036.66)" fill="none" stroke="#27785d" stroke-width="0.8"/>
        <line id="Line_57" data-name="Line 57" y1="3.575" x2="3.575" transform="translate(7.067 19.278)" fill="none" stroke="#27785d" stroke-width="0.5"/>
        <line id="Line_58" data-name="Line 58" x1="3.575" y1="3.064" transform="translate(2.981 13.15)" fill="none" stroke="#27785d" stroke-width="0.5"/>
        <line id="Line_59" data-name="Line 59" x1="3.575" y1="3.064" transform="translate(2.981 24.895)" fill="none" stroke="#27785d" stroke-width="0.5"/>
        <line id="Line_60" data-name="Line 60" y2="1.532" transform="translate(9.109 5.489)" fill="none" stroke="#27785d" stroke-width="0.5"/>
        <line id="Line_61" data-name="Line 61" y2="1.532" transform="translate(6.556 2.935)" fill="none" stroke="#27785d" stroke-width="0.5"/>
        <line id="Line_62" data-name="Line 62" y2="2.043" transform="translate(5.024 4.467)" fill="none" stroke="#27785d" stroke-width="0.5"/>
        <line id="Line_63" data-name="Line 63" y2="1.532" transform="translate(4.002 10.085)" fill="none" stroke="#27785d" stroke-width="0.5"/>
        <line id="Line_64" data-name="Line 64" y2="1.532" transform="translate(10.641 13.66)" fill="none" stroke="#27785d" stroke-width="0.5"/>
        <line id="Line_65" data-name="Line 65" y2="1.021" transform="translate(12.173 16.214)" fill="none" stroke="#27785d" stroke-width="0.5"/>
        <line id="Line_66" data-name="Line 66" y2="1.532" transform="translate(9.109 16.724)" fill="none" stroke="#27785d" stroke-width="0.5"/>
        <line id="Line_67" data-name="Line 67" y2="1.532" transform="translate(4.002 17.746)" fill="none" stroke="#27785d" stroke-width="0.5"/>
        <line id="Line_68" data-name="Line 68" y2="0.511" transform="translate(1.96 16.214)" fill="none" stroke="#27785d" stroke-width="0.5"/>
        <line id="Line_69" data-name="Line 69" y2="1.021" transform="translate(2.981 22.853)" fill="none" stroke="#27785d" stroke-width="0.5"/>
        <line id="Line_70" data-name="Line 70" y2="1.021" transform="translate(10.641 25.405)" fill="none" stroke="#27785d" stroke-width="0.5"/>
        <line id="Line_71" data-name="Line 71" y2="1.532" transform="translate(9.109 28.47)" fill="none" stroke="#27785d" stroke-width="0.5"/>
        <line id="Line_72" data-name="Line 72" y2="1.021" transform="translate(2.981 29.491)" fill="none" stroke="#27785d" stroke-width="0.5"/>
      </g>
      <g id="Group_5059" data-name="Group 5059" transform="translate(26.469 107.342)">
        <path id="Path_22388-2" data-name="Path 22388" d="M5822.63,16764.131s8.208-11.828,14.684-7.369,4.768-9.877,8.992-7.381,4.629,9.57,7.457,9.457,10.167-3.7,11.989,0,4.839,6.064,2.746,7.535-33.941,1.064-41.407,0S5822.63,16764.131,5822.63,16764.131Z" transform="translate(-5822.032 -16749.086)" fill="url(#linear-gradient-3)"/>
        <path id="Path_22389" data-name="Path 22389" d="M5822.63,16758.387s8.208-6.033,14.684-3.762,4.768-3.7,8.992-2.424,4.629,3.543,7.457,3.486,10.167-1.891,11.989,0,4.839,3.09,2.746,3.84-33.941.541-41.407,0S5822.63,16758.387,5822.63,16758.387Z" transform="translate(-5819.603 -16741.541)" fill="url(#linear-gradient-4)"/>
        <line id="Line_153" data-name="Line 153" y2="1.598" transform="translate(11.071 9.483)" fill="none" stroke="#77aa5b" stroke-width="1"/>
        <line id="Line_154" data-name="Line 154" y2="2.397" transform="translate(21.458 7.885)" fill="none" stroke="#77aa5b" stroke-width="1"/>
        <line id="Line_155" data-name="Line 155" y2="0.799" transform="translate(23.055 3.89)" fill="none" stroke="#77aa5b" stroke-width="1"/>
        <line id="Line_156" data-name="Line 156" y2="1.598" transform="translate(25.452 4.689)" fill="none" stroke="#77aa5b" stroke-width="1"/>
        <line id="Line_157" data-name="Line 157" y2="1.598" transform="translate(38.236 11.081)" fill="none" stroke="#77aa5b" stroke-width="1"/>
        <line id="Line_158" data-name="Line 158" y2="0.799" transform="translate(35.04 10.282)" fill="none" stroke="#77aa5b" stroke-width="1"/>
        <line id="Line_159" data-name="Line 159" y2="1.598" transform="translate(25.452 14.277)" fill="none" stroke="#94b779" stroke-width="1"/>
        <line id="Line_160" data-name="Line 160" y2="2.397" transform="translate(27.05 12.679)" fill="none" stroke="#94b779" stroke-width="1"/>
        <line id="Line_161" data-name="Line 161" y2="2.397" transform="translate(12.669 14.277)" fill="none" stroke="#94b779" stroke-width="1"/>
        <line id="Line_162" data-name="Line 162" y2="0.799" transform="translate(43.03 15.875)" fill="none" stroke="#94b779" stroke-width="1"/>
      </g>
    </g>
  </g>
</svg>
