<svg width="63" height="77" viewBox="0 0 63 77" fill="none" xmlns="http://www.w3.org/2000/svg">
<path d="M35.7095 49.9228L36.8663 49.7998C44.845 48.9423 50.8623 41.7352 50.8623 33.0322C50.8623 32.7061 50.8509 32.3832 50.834 32.0618L50.7788 31.0737H35.7095V49.9228ZM48.7716 33.163C48.7157 40.3063 44.0924 46.2685 37.7991 47.5425V33.163H48.7716Z" fill="#F4DA80"/>
<path d="M35.7094 50.2812C35.6213 50.2812 35.536 50.2486 35.4697 50.1891C35.3941 50.121 35.3511 50.0243 35.3511 49.9229V31.0738C35.3511 30.876 35.5113 30.7155 35.7094 30.7155H50.7788C50.9687 30.7155 51.1261 30.8638 51.1364 31.0538L51.1916 32.0418C51.2117 32.4195 51.2207 32.7341 51.2207 33.0323C51.2207 41.9173 45.0661 49.2792 36.9046 50.1562L35.7471 50.2791C35.7345 50.2805 35.722 50.2812 35.7094 50.2812ZM36.0678 31.4322V49.5243L36.8286 49.4434C44.6246 48.6059 50.5039 41.5503 50.5039 33.0323C50.5039 32.7467 50.4953 32.4442 50.476 32.0805L50.4398 31.4322H36.0678ZM37.7991 47.9009C37.717 47.9009 37.6367 47.8726 37.5722 47.82C37.4891 47.7519 37.4407 47.6501 37.4407 47.5426V33.1631C37.4407 32.9653 37.6009 32.8047 37.7991 32.8047H48.7716C48.8673 32.8047 48.959 32.8427 49.026 32.9108C49.0934 32.9785 49.1307 33.0703 49.13 33.166C49.0733 40.3906 44.3379 46.5847 37.87 47.8938C37.8467 47.8988 37.8227 47.9009 37.7991 47.9009ZM38.1575 33.5215V47.0961C43.9677 45.697 48.2061 40.0925 48.4064 33.5215H38.1575Z" fill="#2C5871"/>
<path d="M31.6074 49.9226V31.0729H16.5334L16.4818 32.0638C16.465 32.3852 16.4546 32.7067 16.4546 33.0321C16.4546 41.735 22.4719 48.9428 30.4513 49.7997L31.6074 49.9226ZM29.5182 33.1622V47.5424C23.2245 46.2684 18.6005 40.3062 18.5453 33.1622H29.5182Z" fill="#F4DA80"/>
<path d="M31.6087 50.2811C31.5962 50.2811 31.5833 50.2804 31.5708 50.2789L30.4147 50.156C22.2521 49.2798 16.0972 41.9179 16.0972 33.0322C16.0972 32.7258 16.1065 32.4029 16.1251 32.0449L16.1764 31.0543C16.1868 30.8637 16.3437 30.7146 16.5344 30.7146H31.6087C31.8066 30.7146 31.9671 30.8751 31.9671 31.073V49.9227C31.9671 50.0241 31.9241 50.1209 31.8485 50.189C31.7822 50.2485 31.6969 50.2811 31.6087 50.2811ZM16.8745 31.4313L16.8411 32.0821C16.8229 32.428 16.8139 32.7383 16.8139 33.0322C16.8139 41.5509 22.6936 48.6064 30.4906 49.4436L31.2504 49.5242V31.4313H16.8745ZM29.5195 47.9008C29.4954 47.9008 29.4718 47.8987 29.4481 47.8936C22.9796 46.5845 18.2441 40.3902 18.1879 33.1651C18.1875 33.0694 18.2248 32.9777 18.2922 32.9096C18.3592 32.8419 18.4509 32.8039 18.5462 32.8039H29.5195C29.7173 32.8039 29.8778 32.9644 29.8778 33.1622V47.5424C29.8778 47.65 29.8294 47.7517 29.7459 47.8198C29.6818 47.8725 29.6012 47.9008 29.5195 47.9008ZM18.9118 33.5206C19.1114 40.092 23.3502 45.6965 29.1611 47.0959V33.5206H18.9118Z" fill="#2C5871"/>
<path d="M44.6296 35.7177C44.6296 33.7355 44.3304 31.8269 43.7813 30.0289H23.5343C22.9856 31.8269 22.686 33.7355 22.686 35.7177C22.686 42.8101 26.4718 48.9934 32.09 52.2878V62.1605H35.2246V52.2878C40.8424 48.9934 44.6296 42.8101 44.6296 35.7177Z" fill="url(#paint0_linear_2_2408)"/>
<path d="M35.226 62.5188H32.0914C31.8932 62.5188 31.733 62.3583 31.733 62.1604V52.4917C25.9268 49.0016 22.3291 42.594 22.3291 35.7176C22.3291 33.7513 22.6197 31.8025 23.1931 29.9243C23.239 29.7734 23.3784 29.6705 23.5357 29.6705H43.7828C43.9404 29.6705 44.0795 29.7734 44.1254 29.9243C44.6987 31.801 44.9894 33.7502 44.9894 35.7176C44.9894 42.5932 41.391 49.0009 35.5844 52.4917V62.1604C35.5844 62.3583 35.4242 62.5188 35.226 62.5188ZM32.4498 61.8021H34.8677V52.2878C34.8677 52.1606 34.9354 52.043 35.0447 51.9785C40.7366 48.6403 44.2726 42.4098 44.2726 35.7176C44.2726 33.9097 44.0182 32.1178 43.5158 30.3873H23.8031C23.3006 32.1189 23.0458 33.9107 23.0458 35.7176C23.0458 42.4101 26.5811 48.6411 32.2727 51.9785C32.3824 52.043 32.4498 52.1606 32.4498 52.2878V61.8021Z" fill="#2C5871"/>
<path d="M37.5085 48.3203L37.0107 47.8046C40.2586 44.6707 42.1214 40.2653 42.1214 35.7176C42.1214 34.5547 42.0014 33.3889 41.7648 32.2522L42.4662 32.106C42.7131 33.2907 42.8382 34.5059 42.8382 35.7176C42.8382 40.4588 40.8954 45.0523 37.5085 48.3203Z" fill="#2C5871"/>
<rect x="22.9902" y="63.1263" width="21.334" height="10.5188" fill="url(#paint1_linear_2_2408)"/>
<path d="M44.3255 74.0036H22.9912C22.7934 74.0036 22.6328 73.8431 22.6328 73.6452V63.1264C22.6328 62.9286 22.7934 62.7681 22.9912 62.7681H44.3255C44.5233 62.7681 44.6839 62.9286 44.6839 63.1264V73.6452C44.6839 73.8431 44.5233 74.0036 44.3255 74.0036ZM23.3495 73.2869H43.9668V63.4848H23.3495V73.2869Z" fill="#2C5871"/>
<path d="M41.8202 71.4989H25.4966C25.2984 71.4989 25.1382 71.3387 25.1382 71.1405V65.6306C25.1382 65.4328 25.2984 65.2722 25.4966 65.2722H41.8202C42.0184 65.2722 42.1786 65.4328 42.1786 65.6306V71.1405C42.1786 71.3387 42.0184 71.4989 41.8202 71.4989ZM25.8549 70.7821H41.4622V65.989H25.8549V70.7821Z" fill="#2C5871"/>
<rect x="22.1504" y="73.1666" width="23.0176" height="2.55014" fill="#F4DA80"/>
<path d="M45.1671 76.0752H22.1499C21.9517 76.0752 21.7915 75.9147 21.7915 75.7168V73.1667C21.7915 72.9689 21.9517 72.8083 22.1499 72.8083H45.1671C45.3653 72.8083 45.5255 72.9689 45.5255 73.1667V75.7168C45.5255 75.9147 45.3653 76.0752 45.1671 76.0752ZM22.5082 75.3585H44.8091V73.5251H22.5082V75.3585Z" fill="#2C5871"/>
<rect x="28.7803" y="59.8544" width="9.75261" height="3.30845" fill="#F4DA80"/>
<path d="M38.5333 63.5215H28.7807C28.5829 63.5215 28.4224 63.361 28.4224 63.1632V59.8544C28.4224 59.6565 28.5829 59.496 28.7807 59.496H38.5333C38.7315 59.496 38.8917 59.6565 38.8917 59.8544V63.1632C38.8917 63.361 38.7315 63.5215 38.5333 63.5215ZM29.1391 62.8048H38.175V60.2131H29.1391V62.8048Z" fill="#2C5871"/>
<path d="M25.1426 63.2495V62.2006C25.1426 61.5082 25.6142 60.942 26.1883 60.942H41.1272C41.7017 60.942 42.1708 61.5082 42.1708 62.2006V63.2495H25.1426Z" fill="#F4DA80"/>
<path d="M42.1722 63.608H25.144C24.9458 63.608 24.7856 63.4475 24.7856 63.2496V62.2007C24.7856 61.3091 25.4157 60.5837 26.1897 60.5837H41.1286C41.9016 60.5837 42.5306 61.3091 42.5306 62.2007V63.2496C42.5306 63.4475 42.37 63.608 42.1722 63.608ZM25.5024 62.8913H41.8138V62.2007C41.8138 61.713 41.4999 61.3005 41.1286 61.3005H26.1897C25.817 61.3005 25.5024 61.713 25.5024 62.2007V62.8913Z" fill="#2C5871"/>
<path d="M52.3691 26.7845H36.8174C36.6195 26.7845 36.459 26.6239 36.459 26.4261V13.7481C36.459 13.5503 36.6195 13.3898 36.8174 13.3898H52.3691C52.5672 13.3898 52.7274 13.5503 52.7274 13.7481V26.4261C52.7274 26.6239 52.5672 26.7845 52.3691 26.7845ZM37.1757 26.0677H52.0103V14.1065H37.1757V26.0677Z" fill="#2C5871"/>
<path d="M50.0739 16.5394H39.1132C38.9151 16.5394 38.7549 16.3788 38.7549 16.181C38.7549 15.9832 38.9151 15.8226 39.1132 15.8226H50.0739C50.2721 15.8226 50.4323 15.9832 50.4323 16.181C50.4323 16.3788 50.2721 16.5394 50.0739 16.5394Z" fill="#2C5871"/>
<path d="M47.6688 19.3293H41.5156C41.3174 19.3293 41.1572 19.1687 41.1572 18.9709C41.1572 18.7731 41.3174 18.6125 41.5156 18.6125H47.6688C47.8669 18.6125 48.0271 18.7731 48.0271 18.9709C48.0271 19.1687 47.8669 19.3293 47.6688 19.3293Z" fill="#2C5871"/>
<path d="M49.0869 17.9339H40.0991C39.9009 17.9339 39.7407 17.7733 39.7407 17.5755C39.7407 17.3777 39.9009 17.2172 40.0991 17.2172H49.0869C49.2851 17.2172 49.4453 17.3777 49.4453 17.5755C49.4453 17.7733 49.2851 17.9339 49.0869 17.9339Z" fill="#2C5871"/>
<path d="M44.59 22.4758H39.3872C39.1894 22.4758 39.0288 22.3152 39.0288 22.1174C39.0288 21.9196 39.1894 21.759 39.3872 21.759H44.59C44.7881 21.759 44.9483 21.9196 44.9483 22.1174C44.9483 22.3152 44.7881 22.4758 44.59 22.4758Z" fill="#2C5871"/>
<path d="M42.6175 23.84H39.3872C39.1894 23.84 39.0288 23.6795 39.0288 23.4817C39.0288 23.2838 39.1894 23.1233 39.3872 23.1233H42.6175C42.8157 23.1233 42.9759 23.2838 42.9759 23.4817C42.9759 23.6795 42.8157 23.84 42.6175 23.84Z" fill="#2C5871"/>
<path d="M48.2405 23.9889C47.1844 23.9889 46.3247 23.1291 46.3247 22.0727C46.3247 21.0155 47.1844 20.1558 48.2405 20.1558C49.2977 20.1558 50.1578 21.0155 50.1578 22.0727C50.1578 23.1291 49.2977 23.9889 48.2405 23.9889ZM48.2405 20.8725C47.5794 20.8725 47.0414 21.4108 47.0414 22.0727C47.0414 22.7339 47.5794 23.2721 48.2405 23.2721C48.9025 23.2721 49.4411 22.7339 49.4411 22.0727C49.4411 21.4108 48.9025 20.8725 48.2405 20.8725Z" fill="#2C5871"/>
<path d="M48.7573 24.0235C48.7239 24.0235 48.6906 24.0188 48.6576 24.0095L48.2401 23.8884L47.8226 24.0095C47.6818 24.0504 47.5295 24.0009 47.4395 23.8848L47.1729 23.5411L46.7644 23.3935C46.6264 23.3437 46.5325 23.2147 46.5278 23.0684L46.5135 22.6337L46.2698 22.2739C46.1874 22.1525 46.1874 21.9933 46.2698 21.8719L46.5135 21.5117L46.5278 21.077C46.5325 20.9304 46.6264 20.8014 46.7644 20.7516L47.1733 20.6039L47.4395 20.2606C47.5298 20.1442 47.6825 20.0951 47.8226 20.1359L48.2401 20.2571L48.658 20.1359C48.7985 20.0947 48.9508 20.1442 49.0407 20.2606L49.307 20.6043L49.7162 20.7516C49.8546 20.8011 49.9481 20.9301 49.9528 21.077L49.9675 21.5113L50.2115 21.8719C50.2936 21.9933 50.2936 22.1528 50.2111 22.2739L49.9671 22.6337L49.9524 23.0688C49.9478 23.2154 49.8542 23.3444 49.7159 23.3942L49.307 23.5415L49.0404 23.8848C48.9716 23.974 48.8662 24.0235 48.7573 24.0235ZM47.2363 22.8022L47.5141 22.9025C47.5779 22.9258 47.6338 22.9663 47.6757 23.0197L47.8563 23.253L48.1401 23.1709C48.2054 23.1519 48.2745 23.1519 48.3397 23.1709L48.6236 23.253L48.8046 23.0197C48.8461 22.9663 48.902 22.9255 48.9662 22.9025L49.2446 22.8022L49.2543 22.5065C49.2565 22.4388 49.2776 22.3732 49.3159 22.3169L49.4819 22.0725L49.3159 21.8274C49.278 21.7715 49.2568 21.7059 49.2547 21.6386L49.245 21.3436L48.9662 21.2433C48.902 21.22 48.8461 21.1795 48.8046 21.1254L48.6236 20.8921L48.3397 20.9745C48.2745 20.9935 48.2054 20.9935 48.1401 20.9745L47.8567 20.8921L47.6761 21.1254C47.6341 21.1791 47.5782 21.2196 47.5144 21.2426L47.2363 21.3433L47.2267 21.6386C47.2245 21.7063 47.203 21.7719 47.1654 21.8281L46.9995 22.0729L47.1654 22.3177C47.203 22.3739 47.2245 22.4395 47.2267 22.5069L47.2363 22.8022Z" fill="#2C5871"/>
<path d="M49.4267 24.9464C49.3177 24.9464 49.2099 24.897 49.1396 24.8034L48.5458 24.0129C48.4272 23.8545 48.4591 23.6298 48.6171 23.5112C48.7759 23.3922 49.0006 23.4237 49.1192 23.5821L49.713 24.3727C49.8316 24.5311 49.7997 24.7558 49.6417 24.8744C49.5772 24.9231 49.5016 24.9464 49.4267 24.9464Z" fill="#2C5871"/>
<path d="M47.0514 24.9464C46.9765 24.9464 46.9009 24.9231 46.8364 24.8744C46.6783 24.7558 46.6464 24.5311 46.765 24.3727L47.3588 23.5821C47.4775 23.4237 47.7029 23.3922 47.8609 23.5112C48.019 23.6298 48.0509 23.8545 47.9322 24.0129L47.3384 24.8034C47.2678 24.897 47.1603 24.9464 47.0514 24.9464Z" fill="#2C5871"/>
<path d="M18.7167 20.5076C18.669 20.5076 18.621 20.498 18.5762 20.479C18.4887 20.4417 18.4199 20.3711 18.3841 20.2829L17.5613 18.2359C17.4871 18.0525 17.5763 17.8439 17.7598 17.7701L24.0083 15.2558C24.1018 15.2181 24.2065 15.2217 24.2964 15.2651L25.6446 15.9109C25.8123 15.9908 25.8912 16.1857 25.826 16.3595L25.3009 17.7604C25.2655 17.8546 25.1924 17.9295 25.0995 17.9672L18.8507 20.4818C18.808 20.499 18.7622 20.5076 18.7167 20.5076ZM18.3601 18.3012L18.9156 19.683L24.6849 17.3612L25.0397 16.4154L24.1294 15.9793L18.3601 18.3012Z" fill="#2C5871"/>
<path d="M19.4047 24.0043C19.3513 24.0043 19.2987 23.9928 19.2496 23.9691L17.9017 23.3219C17.7344 23.2417 17.6559 23.0471 17.7211 22.8733L18.2454 21.4735C18.2805 21.3792 18.3536 21.3043 18.4472 21.2667L24.6957 18.752C24.8777 18.6786 25.0874 18.7671 25.1616 18.9506L25.9854 20.9968C26.0209 21.085 26.0202 21.1839 25.9826 21.2713C25.9457 21.3588 25.8751 21.428 25.7865 21.4634L19.5384 23.9785C19.4958 23.996 19.4503 24.0043 19.4047 24.0043ZM18.507 22.8177L19.4173 23.2546L25.187 20.9323L24.6305 19.5508L18.8611 21.8727L18.507 22.8177Z" fill="#2C5871"/>
<path d="M23.6883 25.5138C23.5467 25.5138 23.4123 25.4288 23.3557 25.2891L22.2462 22.5329C22.1724 22.349 22.2612 22.1404 22.4447 22.0663C22.6268 21.9924 22.8368 22.0813 22.911 22.2648L24.0208 25.0214C24.0947 25.2048 24.0058 25.4138 23.8219 25.4876C23.7782 25.5052 23.7331 25.5138 23.6883 25.5138Z" fill="#2C5871"/>
<path d="M20.3175 17.1405C20.176 17.1405 20.0416 17.056 19.9853 16.9162L19.8119 16.4869C19.7377 16.3034 19.8262 16.0945 20.0097 16.0203C20.1928 15.9468 20.4017 16.035 20.4759 16.2181L20.6497 16.6474C20.7239 16.8313 20.6354 17.0402 20.4519 17.1144C20.4078 17.1319 20.3623 17.1405 20.3175 17.1405Z" fill="#2C5871"/>
<path d="M21.6457 20.4392C21.5034 20.4392 21.369 20.3542 21.3128 20.2145L21.0411 19.5386C20.9673 19.3547 21.0562 19.1462 21.24 19.0723C21.4242 18.9982 21.6328 19.0878 21.7062 19.2712L21.9779 19.9468C22.0517 20.1306 21.9628 20.3395 21.779 20.413C21.7353 20.4309 21.6898 20.4392 21.6457 20.4392Z" fill="#2C5871"/>
<path d="M51.5456 55.4907C51.4682 55.4907 51.3904 55.466 51.3249 55.4144C51.169 55.2922 51.1417 55.0668 51.2639 54.9112L53.2203 52.4163C53.3425 52.2607 53.5675 52.2335 53.7234 52.3553L56.2187 54.3117C56.3746 54.4339 56.4018 54.6589 56.2796 54.8148C56.1574 54.9703 55.9324 54.9983 55.7765 54.8757L53.5632 53.1405L51.828 55.3535C51.7574 55.4438 51.652 55.4907 51.5456 55.4907Z" fill="#2C5871"/>
<path d="M51.5452 55.4902C51.4653 55.4902 51.3875 55.4637 51.3241 55.4143L47.028 52.0459C46.9531 51.9875 46.9047 51.9012 46.8932 51.8069C46.8818 51.7127 46.9083 51.6177 46.9671 51.5428L53.6603 43.0061C53.7191 42.9316 53.8051 42.8832 53.8993 42.8718C53.9921 42.8599 54.0889 42.8868 54.1638 42.9456L60.9545 48.2702C61.11 48.3924 61.1376 48.6178 61.0154 48.7733L56.2789 54.8147C56.2201 54.8892 56.1344 54.9376 56.0399 54.9491L51.5882 55.4877C51.5739 55.4895 51.5595 55.4902 51.5452 55.4902ZM47.7522 51.703L51.6495 54.7584L55.8066 54.2556L60.2299 48.6132L54.0033 43.7304L47.7522 51.703Z" fill="#2C5871"/>
<path d="M56.5513 48.1791C56.4739 48.1791 56.3961 48.1543 56.3306 48.1027L53.8876 46.1869C53.732 46.0651 53.7048 45.8396 53.8267 45.6838C53.9489 45.5282 54.1736 45.5006 54.3302 45.6228L56.7728 47.5387C56.9287 47.6609 56.9559 47.8863 56.8337 48.0418C56.7631 48.1321 56.6578 48.1791 56.5513 48.1791Z" fill="#2C5871"/>
<path d="M57.3745 50.4474C57.2971 50.4474 57.2193 50.4227 57.1537 50.3711L53.0995 47.1924C52.944 47.0702 52.9167 46.8448 53.0386 46.6892C53.1608 46.5337 53.3854 46.5061 53.5421 46.6283L57.5959 49.807C57.7518 49.9292 57.779 50.1547 57.6568 50.3102C57.5862 50.4005 57.4809 50.4474 57.3745 50.4474Z" fill="#2C5871"/>
<path d="M56.5869 51.4526C56.5095 51.4526 56.4317 51.4279 56.3661 51.3762L52.3119 48.1975C52.1564 48.0753 52.1291 47.8499 52.251 47.6944C52.3732 47.5388 52.5979 47.5112 52.7545 47.6335L56.8083 50.8122C56.9642 50.9344 56.9915 51.1598 56.8693 51.3153C56.7987 51.4056 56.6933 51.4526 56.5869 51.4526Z" fill="#2C5871"/>
<path d="M53.4416 50.6098C53.3642 50.6098 53.2864 50.5851 53.2208 50.5335L51.5236 49.2025C51.3677 49.0803 51.3405 48.8553 51.4627 48.6994C51.5845 48.5439 51.8092 48.5162 51.9658 48.6385L53.663 49.9694C53.8189 50.0916 53.8462 50.3171 53.724 50.4726C53.6534 50.5629 53.548 50.6098 53.4416 50.6098Z" fill="#2C5871"/>
<path d="M6.49921 25.617C6.44868 25.617 6.39815 25.613 6.34726 25.6048C6.09748 25.5646 5.87816 25.4295 5.72944 25.2242L0.666781 18.2299C0.550669 18.0694 0.586506 17.8454 0.747055 17.7293C0.906887 17.6132 1.13087 17.6494 1.24769 17.8096L6.31035 24.8038C6.34654 24.8544 6.39994 24.8873 6.46086 24.897C6.52107 24.9067 6.58271 24.8923 6.6336 24.8558L11.846 21.0829C11.9493 21.008 11.9726 20.8629 11.8977 20.7593L7.62161 14.8513C7.58506 14.8011 7.53167 14.7681 7.47074 14.7584C7.40839 14.7477 7.34854 14.7635 7.29873 14.7996C7.13782 14.9161 6.91456 14.8799 6.79845 14.7197C6.68233 14.5595 6.71781 14.3356 6.87836 14.2195C7.08371 14.0707 7.336 14.0116 7.58399 14.0507C7.83413 14.0908 8.05345 14.2255 8.20181 14.4309L12.4782 20.3389C12.785 20.7629 12.6896 21.3571 12.2661 21.6635L7.0536 25.4363C6.88983 25.555 6.69739 25.617 6.49921 25.617Z" fill="#2C5871"/>
<path d="M1.61556 18.6028C1.20487 18.6028 0.800271 18.4128 0.541888 18.0559C0.334393 17.7695 0.250894 17.4198 0.307157 17.0707C0.363062 16.7213 0.551205 16.4153 0.837899 16.2078L6.22452 12.3087C6.38471 12.1926 6.60905 12.2285 6.7248 12.389C6.84091 12.5492 6.80507 12.7732 6.64453 12.8893L1.25791 16.7887C1.12674 16.8837 1.04038 17.0241 1.01457 17.184C0.98913 17.3442 1.02712 17.5044 1.12208 17.6355C1.31847 17.9068 1.69798 17.9674 1.96926 17.7713L6.80615 14.2708C6.96634 14.1543 7.19032 14.1905 7.30679 14.3507C7.42254 14.5113 7.3867 14.7353 7.22616 14.8514L2.38927 18.3519C2.15562 18.521 1.88433 18.6028 1.61556 18.6028Z" fill="#2C5871"/>
<path d="M5.74614 21.9974C5.63183 21.9974 5.5236 21.9426 5.45587 21.8494L2.79499 18.1733C2.67852 18.0127 2.71436 17.7888 2.87491 17.6726C3.0351 17.5565 3.25943 17.5924 3.37519 17.7529L5.71461 20.9843L5.99772 20.5016C6.04861 20.4152 6.13318 20.354 6.23137 20.3328L6.77824 20.2145L4.43954 16.9828C4.32343 16.8226 4.35926 16.5986 4.51981 16.4825C4.67964 16.366 4.90362 16.4026 5.02045 16.5628L7.68061 20.2386C7.75157 20.3367 7.76841 20.464 7.72469 20.5769C7.68169 20.6901 7.58421 20.7736 7.46595 20.799L6.53634 21.0001L6.05506 21.8204C5.99378 21.9247 5.88447 21.991 5.76335 21.9971C5.75761 21.9974 5.75188 21.9974 5.74614 21.9974Z" fill="#2C5871"/>
<path d="M28.7225 8.16647C27.8717 8.16647 27.1797 7.47447 27.1797 6.62442C27.1797 5.77366 27.8717 5.08093 28.7225 5.08093C29.5729 5.08093 30.2656 5.77366 30.2656 6.62442C30.2656 7.47447 29.5729 8.16647 28.7225 8.16647ZM28.7225 5.79767C28.267 5.79767 27.8964 6.16858 27.8964 6.62442C27.8964 7.0799 28.267 7.44974 28.7225 7.44974C29.1776 7.44974 29.5489 7.0799 29.5489 6.62442C29.5489 6.16858 29.1776 5.79767 28.7225 5.79767Z" fill="#2C5871"/>
<path d="M33.1124 3.24716C32.2165 3.24716 31.4883 2.5186 31.4883 1.62304C31.4883 0.728202 32.2165 0 33.1124 0C34.0072 0 34.7355 0.728202 34.7355 1.62304C34.7355 2.5186 34.0072 3.24716 33.1124 3.24716ZM33.1124 0.716734C32.6121 0.716734 32.205 1.12348 32.205 1.62304C32.205 2.12333 32.6121 2.53043 33.1124 2.53043C33.612 2.53043 34.0187 2.12333 34.0187 1.62304C34.0187 1.12348 33.612 0.716734 33.1124 0.716734Z" fill="#2C5871"/>
<path d="M30.7628 5.04218C30.5646 5.04218 30.4044 4.88164 30.4044 4.68382L30.4048 3.27508L28.9961 3.27543C28.7986 3.27543 28.6377 3.11524 28.6377 2.91743C28.6377 2.71961 28.7982 2.5587 28.9961 2.5587L30.7632 2.55798C30.8585 2.55798 30.9495 2.59597 31.0165 2.66299C31.0839 2.73036 31.1215 2.82138 31.1215 2.91635L31.1212 4.68382C31.1212 4.88164 30.9606 5.04218 30.7628 5.04218Z" fill="#2C5871"/>
<path d="M28.9996 5.75974C28.9631 5.75974 28.9262 5.75401 28.8896 5.74219C28.7011 5.68162 28.5979 5.4795 28.6584 5.291C28.9183 4.48539 29.3555 3.77152 29.9582 3.16911C30.0855 3.04153 30.2231 2.91718 30.3668 2.79999C30.5209 2.67492 30.7466 2.69857 30.8714 2.85159C30.9961 3.00498 30.9731 3.23075 30.8198 3.35582C30.6947 3.45724 30.5754 3.5651 30.4653 3.67548C29.9435 4.19726 29.5651 4.81473 29.3408 5.5114C29.2917 5.66299 29.1512 5.75974 28.9996 5.75974Z" fill="#2C5871"/>
<path d="M30.6566 10.7178C29.3503 10.7178 28.0444 10.2207 27.0503 9.22659C26.0867 8.2633 25.5566 6.9825 25.5566 5.61963C25.5566 4.25676 26.0874 2.97559 27.051 2.0123C28.3655 0.69817 30.2932 0.203982 32.0818 0.722181C32.2717 0.777369 32.381 0.976263 32.3262 1.1662C32.271 1.35649 32.0725 1.46579 31.8822 1.4106C30.3437 0.964437 28.687 1.38982 27.5578 2.51939C26.7296 3.34722 26.2734 4.44812 26.2734 5.61963C26.2734 6.79077 26.7289 7.89203 27.557 8.71986C29.2657 10.4289 32.0481 10.4286 33.7575 8.71914C35.4365 7.04019 35.4798 4.36498 33.8561 2.62905C33.721 2.48427 33.7281 2.25778 33.8733 2.12232C34.0173 1.98793 34.2442 1.99474 34.3796 2.13952C36.2686 4.15928 36.2184 7.27241 34.2643 9.22587C33.2694 10.2203 31.9628 10.7178 30.6566 10.7178Z" fill="#2C5871"/>
<path d="M32.1475 7.51259C32.0558 7.51259 31.964 7.47747 31.8941 7.40759C31.754 7.26746 31.754 7.04098 31.8941 6.90085L33.2556 5.53942C33.3953 5.3993 33.6222 5.3993 33.7623 5.53942C33.9021 5.67954 33.9021 5.90639 33.7623 6.04615L32.4009 7.40759C32.331 7.47747 32.2393 7.51259 32.1475 7.51259Z" fill="#2C5871"/>
<path d="M33.5092 7.51259C33.4174 7.51259 33.3257 7.47747 33.2558 7.40759L31.8944 6.04615C31.7546 5.90639 31.7546 5.67954 31.8944 5.53942C32.0345 5.3993 32.2613 5.3993 32.4011 5.53942L33.7625 6.90085C33.9027 7.04098 33.9027 7.26746 33.7625 7.40759C33.6927 7.47747 33.6009 7.51259 33.5092 7.51259Z" fill="#2C5871"/>
<path d="M9.18067 61.1658C9.14448 61.1658 9.10829 61.1601 9.07209 61.149C8.88359 61.0888 8.7793 60.8873 8.83915 60.6985L11.714 51.6565C11.7609 51.5089 11.8978 51.4082 12.0526 51.4067C12.2153 51.4153 12.3461 51.5042 12.3952 51.6508L15.4213 60.6433C15.4844 60.8307 15.3833 61.0343 15.1955 61.0974C15.0074 61.1608 14.8045 61.0594 14.7418 60.8719L12.0655 52.9173L9.5222 60.916C9.47346 61.0683 9.33262 61.1658 9.18067 61.1658Z" fill="#2C5871"/>
<path d="M8.55858 61.1705C8.36183 61.1705 8.202 61.0121 8.20021 60.815C8.19842 60.6171 8.35753 60.4555 8.55535 60.4537L9.96338 60.4419H9.96553C10.1633 60.4419 10.3232 60.6003 10.325 60.7974C10.3268 60.9952 10.1673 61.1568 9.96983 61.1586L8.5618 61.1705H8.55858Z" fill="#2C5871"/>
<path d="M14.2969 61.1224C14.1001 61.1224 13.9403 60.964 13.9385 60.7669C13.9367 60.5691 14.0958 60.4074 14.2936 60.4056L15.7017 60.3938H15.7049C15.9016 60.3938 16.0615 60.5522 16.0633 60.749C16.065 60.9471 15.9056 61.1087 15.7081 61.1105L14.3001 61.1224H14.2969Z" fill="#2C5871"/>
<path d="M10.2207 58.3753C10.0239 58.3753 9.86411 58.2169 9.86232 58.0198C9.86053 57.822 10.0196 57.6604 10.2175 57.6586L13.99 57.6267H13.9932C14.19 57.6267 14.3498 57.7855 14.3516 57.9822C14.3534 58.18 14.1943 58.3417 13.9964 58.3434L10.2239 58.3753H10.2207Z" fill="#2C5871"/>
<path d="M16.0224 56.3857C15.6185 56.3857 15.2834 56.2624 15.0257 56.0195C14.7573 55.769 14.6186 55.4568 14.6158 55.0927C14.6129 54.7344 14.7398 54.4341 14.9824 54.2248C15.178 54.0506 15.3988 53.9262 15.6346 53.8592C15.8195 53.8076 16.1532 53.7284 16.6312 53.6188C17.1003 53.5098 17.4358 53.4156 17.6572 53.3296C17.7669 53.2876 17.8905 53.3013 17.9876 53.3676C18.0851 53.4335 18.1439 53.5431 18.145 53.6611L18.1471 53.909C18.1532 54.5763 18.0668 55.0594 17.8826 55.3848C17.7242 55.6772 17.4687 55.9227 17.1261 56.1091C16.7972 56.2886 16.4305 56.3818 16.0367 56.3857H16.0224ZM17.4279 54.1563C17.2458 54.2076 17.0347 54.261 16.7925 54.3172C16.3291 54.4233 16.0055 54.5 15.8292 54.5491C15.698 54.5867 15.5744 54.6569 15.4544 54.7637C15.3992 54.8114 15.3307 54.8931 15.3325 55.087C15.3339 55.2533 15.3902 55.3798 15.516 55.4966C15.6396 55.6131 15.8045 55.669 16.0224 55.669V56.0274L16.031 55.669C16.3083 55.6661 16.5549 55.6041 16.7832 55.4794C17.0025 55.3604 17.1613 55.2117 17.2559 55.0375C17.3297 54.9071 17.4118 54.6548 17.4279 54.1563Z" fill="#2C5871"/>
<path d="M17.8461 56.3304C17.6494 56.3304 17.4895 56.172 17.4877 55.9749L17.4648 53.2316C17.4605 52.7163 17.071 52.2999 16.595 52.2999H16.5879L16.299 52.3024C15.9518 52.3052 15.6407 52.5303 15.5056 52.8765C15.4336 53.061 15.225 53.1514 15.0415 53.08C14.857 53.008 14.7656 52.8001 14.8376 52.6156C15.0799 51.9953 15.6511 51.5907 16.2929 51.5856L16.5818 51.5831H16.5954C17.4634 51.5831 18.1737 52.3171 18.1815 53.2255L18.2045 55.9692C18.2063 56.167 18.0472 56.329 17.849 56.3304H17.8461Z" fill="#2C5871"/>
<path d="M61.6206 20.0417C61.4224 20.0417 61.2622 19.8812 61.2622 19.6833V17.7768C61.2622 17.579 61.4224 17.4185 61.6206 17.4185C61.8188 17.4185 61.9789 17.579 61.9789 17.7768V19.6833C61.9789 19.8812 61.8188 20.0417 61.6206 20.0417Z" fill="#2C5871"/>
<path d="M62.5732 19.0886H60.666C60.4678 19.0886 60.3076 18.928 60.3076 18.7302C60.3076 18.5324 60.4678 18.3718 60.666 18.3718H62.5732C62.7714 18.3718 62.9316 18.5324 62.9316 18.7302C62.9316 18.928 62.7714 19.0886 62.5732 19.0886Z" fill="#2C5871"/>
<path d="M16.833 5.29634C16.6348 5.29634 16.4746 5.13579 16.4746 4.93798V3.03146C16.4746 2.83329 16.6348 2.6731 16.833 2.6731C17.0312 2.6731 17.1913 2.83329 17.1913 3.03146V4.93798C17.1913 5.13579 17.0312 5.29634 16.833 5.29634Z" fill="#2C5871"/>
<path d="M17.7861 4.3432H15.8789C15.6807 4.3432 15.5205 4.18265 15.5205 3.98483C15.5205 3.78701 15.6807 3.62646 15.8789 3.62646H17.7861C17.9843 3.62646 18.1445 3.78701 18.1445 3.98483C18.1445 4.18265 17.9843 4.3432 17.7861 4.3432Z" fill="#2C5871"/>
<path d="M14.1953 45.3615C13.9971 45.3615 13.8369 45.201 13.8369 45.0032V43.0966C13.8369 42.8985 13.9971 42.7383 14.1953 42.7383C14.3935 42.7383 14.5536 42.8985 14.5536 43.0966V45.0032C14.5536 45.201 14.3935 45.3615 14.1953 45.3615Z" fill="#2C5871"/>
<path d="M15.1494 44.4084H13.2422C13.044 44.4084 12.8838 44.2478 12.8838 44.05C12.8838 43.8522 13.044 43.6917 13.2422 43.6917H15.1494C15.3472 43.6917 15.5078 43.8522 15.5078 44.05C15.5078 44.2478 15.3472 44.4084 15.1494 44.4084Z" fill="#2C5871"/>
<path d="M57.636 33.3013C57.5443 33.3013 57.4526 33.2662 57.3827 33.1963L56.0345 31.8481C55.8947 31.7084 55.8947 31.4815 56.0345 31.3414C56.1746 31.2016 56.4015 31.2016 56.5412 31.3414L57.8894 32.6896C58.0295 32.8297 58.0295 33.0562 57.8894 33.1963C57.8195 33.2662 57.7278 33.3013 57.636 33.3013Z" fill="#2C5871"/>
<path d="M56.287 28.961C56.1949 28.961 56.1032 28.9258 56.0333 28.856C55.8932 28.7162 55.8932 28.4893 56.0333 28.3492L57.3822 27.0003C57.5216 26.8606 57.7485 26.8606 57.8886 27.0003C58.0283 27.1401 58.0283 27.3673 57.8886 27.5071L56.54 28.856C56.4702 28.9258 56.3784 28.961 56.287 28.961Z" fill="#2C5871"/>
<path d="M58.9902 30.4367H57.083C56.8848 30.4367 56.7246 30.2762 56.7246 30.0783C56.7246 29.8805 56.8848 29.72 57.083 29.72H58.9902C59.1884 29.72 59.3486 29.8805 59.3486 30.0783C59.3486 30.2762 59.1884 30.4367 58.9902 30.4367Z" fill="#2C5871"/>
<path d="M4.20965 43.8865C4.11469 43.8865 4.0233 43.8489 3.95593 43.7815C3.88354 43.7092 3.84591 43.6092 3.85165 43.507L3.9588 41.6872C3.96381 41.5994 4.00144 41.517 4.06308 41.455L9.48697 36.0304C9.55435 35.963 9.64501 35.9254 9.74034 35.9254C9.83566 35.9254 9.92669 35.963 9.9937 36.0304L11.7056 37.7423C11.773 37.8093 11.8106 37.9007 11.8106 37.9957C11.8106 38.0907 11.773 38.1821 11.7056 38.2491L6.28209 43.6747C6.2201 43.7367 6.13695 43.774 6.04951 43.779L4.23044 43.8858C4.22363 43.8862 4.21646 43.8865 4.20965 43.8865ZM4.66621 41.8653L4.59096 43.1469L5.8714 43.0716L10.9455 37.9961L9.74034 36.7905L4.66621 41.8653Z" fill="#2C5871"/>
<path d="M10.4863 39.1482C10.3945 39.1482 10.3028 39.1131 10.2329 39.0432L8.69298 37.5037C8.55286 37.3639 8.55286 37.1371 8.69298 36.9969C8.8331 36.8568 9.05995 36.8568 9.19971 36.9969L10.7396 38.5365C10.8797 38.6762 10.8797 38.9031 10.7396 39.0432C10.6697 39.1131 10.578 39.1482 10.4863 39.1482Z" fill="#2C5871"/>
<path d="M5.45611 42.6394C5.36437 42.6394 5.27263 42.6043 5.20275 42.5344C5.06263 42.3943 5.06263 42.1678 5.20275 42.0277L9.43686 37.7932C9.57698 37.6531 9.80383 37.6531 9.94359 37.7932C10.0837 37.933 10.0837 38.1598 9.94359 38.2999L5.70948 42.5344C5.6396 42.6043 5.54785 42.6394 5.45611 42.6394Z" fill="#2C5871"/>
<path d="M4.41201 42.6367C4.38764 42.6367 4.36291 42.6382 4.33783 42.6403C4.31417 42.6432 4.29303 42.65 4.2701 42.6539L4.21777 43.5369L5.06495 43.4857C5.07248 43.4534 5.08036 43.4212 5.08538 43.3879C5.12301 42.9585 4.82771 42.6367 4.41201 42.6367Z" fill="#2C5871"/>
<defs>
<linearGradient id="paint0_linear_2_2408" x1="28.1719" y1="38.0618" x2="28.1719" y2="38.0618" gradientUnits="userSpaceOnUse">
<stop stop-color="#F4DA80"/>
<stop offset="1" stop-color="#B29636"/>
</linearGradient>
<linearGradient id="paint1_linear_2_2408" x1="28.3237" y1="65.756" x2="28.3237" y2="65.756" gradientUnits="userSpaceOnUse">
<stop stop-color="#8DBA78"/>
<stop offset="1" stop-color="#648F4F"/>
</linearGradient>
</defs>
</svg>
