<svg width="74" height="74" viewBox="0 0 74 74" fill="none" xmlns="http://www.w3.org/2000/svg">
<path d="M27.9753 50.6161C25.1465 50.6161 22.8426 48.33 22.8144 45.5072L22.8148 44.6936L22.0892 44.5072C20.4977 44.0979 19.3866 42.6683 19.3866 41.0305C19.3866 40.2067 19.6615 39.4303 20.1814 38.7827L20.925 37.8568L19.8659 37.3169C18.7311 36.7397 18.0259 35.5951 18.0259 34.3319C18.0259 33.1259 18.7149 31.9866 19.8234 31.359L20.8938 30.7528L20.0511 29.8563C19.3602 29.1213 18.9792 28.1657 18.9792 27.1646C18.9792 25.3464 20.2168 23.7756 21.9879 23.3456L23.2786 23.032L22.5825 21.9002C22.244 21.3508 22.0655 20.7224 22.0655 20.0861C22.0655 18.3007 23.4586 16.7781 25.238 16.6199L25.9918 16.5522L26.107 15.8036C26.4903 13.31 28.6797 11.4301 31.199 11.4301C34.0447 11.4301 36.3599 13.7449 36.3599 16.5902V45.4556C36.3599 48.3013 34.0447 50.6161 31.199 50.6161H27.9753Z" fill="#CCEEF5"/>
<path d="M31.1992 50.9922H27.9754C24.9524 50.9922 22.4689 48.5332 22.438 45.5106L22.4384 44.9853L21.996 44.8716C20.2384 44.4194 19.0106 42.8396 19.0106 41.03C19.0106 40.1204 19.3141 39.2619 19.8883 38.5465L20.342 37.9818L19.6951 37.652C18.4338 37.0104 17.6499 35.7381 17.6499 34.3315C17.6499 32.9907 18.4116 31.7256 19.6379 31.0309L20.2915 30.6608L19.7772 30.1141C19.02 29.3084 18.6032 28.2609 18.6032 27.1641C18.6032 25.1713 19.9583 23.4506 21.8996 22.9796L22.6873 22.7883L22.2622 22.0974C21.8876 21.4886 21.6892 20.7931 21.6892 20.0857C21.6892 18.1071 23.2336 16.4199 25.2047 16.2445L25.6648 16.2031L25.7352 15.746C26.1463 13.0705 28.495 11.0531 31.1992 11.0531C34.2523 11.0531 36.7365 13.537 36.7365 16.5897V45.4552C36.7365 48.5084 34.2523 50.9922 31.1992 50.9922ZM31.1992 11.8061C28.8636 11.8061 26.8346 13.549 26.4795 15.8604L26.3191 16.9004L25.2721 16.9945C23.6851 17.1357 22.4422 18.4934 22.4422 20.0857C22.4422 20.6538 22.6018 21.2126 22.9034 21.7024L23.871 23.2755L22.077 23.7111C20.4753 24.1001 19.3563 25.5199 19.3563 27.1641C19.3563 28.0685 19.7008 28.933 20.3258 29.5979L21.4967 30.8442L20.0088 31.6861C19.0182 32.2475 18.4029 33.261 18.4029 34.3315C18.4029 35.4531 19.0291 36.4682 20.037 36.9806L21.5092 37.7314L20.4753 39.0183C20.0095 39.5981 19.7637 40.2936 19.7637 41.03C19.7637 42.4958 20.7584 43.7756 22.1835 44.1423L23.1914 44.4013L23.1911 45.5068C23.2174 48.1145 25.3636 50.2392 27.9754 50.2392H31.1992C33.8374 50.2392 35.9835 48.0931 35.9835 45.4552V16.5897C35.9835 13.9523 33.8374 11.8061 31.1992 11.8061Z" fill="#2C5871"/>
<path d="M32.1733 20.4487C31.9651 20.4487 31.7968 20.28 31.7968 20.0722C31.7968 18.4279 30.459 17.0905 28.8148 17.0905H25.5474C25.3396 17.0905 25.1709 16.9219 25.1709 16.714C25.1709 16.5062 25.3396 16.3375 25.5474 16.3375H28.8148C30.8743 16.3375 32.5498 18.013 32.5498 20.0722C32.5498 20.28 32.3815 20.4487 32.1733 20.4487Z" fill="#2C5871"/>
<path d="M31.1991 50.8688H27.9754C24.8888 50.8688 22.5615 48.3367 22.5615 44.9794C22.5615 44.7715 22.7298 44.6028 22.938 44.6028C23.1459 44.6028 23.3146 44.7715 23.3146 44.9794C23.3146 47.9075 25.3184 50.1158 27.9754 50.1158H31.1991C33.7696 50.1158 35.8608 48.025 35.8608 45.4553V16.5898C35.8608 14.0197 33.7696 11.9286 31.1991 11.9286C28.6291 11.9286 26.5383 14.0197 26.5383 16.5898C26.5383 16.7976 26.37 16.9663 26.1618 16.9663C25.9535 16.9663 25.7852 16.7976 25.7852 16.5898C25.7852 13.6044 28.2138 11.1755 31.1991 11.1755C34.1849 11.1755 36.6138 13.6044 36.6138 16.5898V45.4553C36.6138 48.4403 34.1849 50.8688 31.1991 50.8688Z" fill="#2C5871"/>
<path d="M25.5478 23.82C23.4879 23.82 21.812 22.1449 21.812 20.0861C21.812 18.0262 23.4879 16.3503 25.5478 16.3503H26.2511C26.4593 16.3503 26.6276 16.519 26.6276 16.7269C26.6276 16.9347 26.4593 17.1034 26.2511 17.1034H25.5478C23.9032 17.1034 22.565 18.4415 22.565 20.0861C22.565 21.7296 23.9032 23.067 25.5478 23.067C25.756 23.067 25.9243 23.2357 25.9243 23.4435C25.9243 23.6513 25.756 23.82 25.5478 23.82Z" fill="#2C5871"/>
<path d="M22.9136 31.3536H22.8518C22.8431 31.3536 22.8341 31.3533 22.8255 31.3529C20.5566 31.3058 18.7256 29.4447 18.7256 27.1642C18.7256 24.855 20.6044 22.9766 22.9136 22.9766H24.5484C24.7566 22.9766 24.9249 23.1452 24.9249 23.3531C24.9249 23.5609 24.7566 23.7296 24.5484 23.7296H22.9136C21.0197 23.7296 19.4786 25.2703 19.4786 27.1642C19.4786 29.0592 21.0197 30.6006 22.9136 30.6006C23.1218 30.6006 23.2901 30.7693 23.2901 30.9771C23.2901 31.1849 23.1218 31.3536 22.9136 31.3536Z" fill="#2C5871"/>
<path d="M28.7011 44.8787H22.9826C20.8606 44.8787 19.1343 43.1524 19.1343 41.03C19.1343 38.908 20.8606 37.1813 22.9826 37.1813C23.1908 37.1813 23.3591 37.3496 23.3591 37.5578C23.3591 37.7656 23.1908 37.9343 22.9826 37.9343C21.2759 37.9343 19.8873 39.3229 19.8873 41.03C19.8873 42.7371 21.2759 44.1257 22.9826 44.1257H28.7011C28.9093 44.1257 29.0776 44.2944 29.0776 44.5022C29.0776 44.7101 28.9093 44.8787 28.7011 44.8787Z" fill="#2C5871"/>
<path d="M24.7256 37.9344H21.3765C19.3892 37.9344 17.7725 36.318 17.7725 34.3319C17.7725 32.3688 19.5297 30.6466 21.5323 30.6466H23.1871C23.3953 30.6466 23.5636 30.8153 23.5636 31.0231C23.5636 31.2313 23.3953 31.3996 23.1871 31.3996H21.5323C19.9306 31.3996 18.5255 32.7698 18.5255 34.3319C18.5255 35.9031 19.8045 37.1814 21.3765 37.1814H24.7256C24.9338 37.1814 25.1021 37.3501 25.1021 37.5579C25.1021 37.7657 24.9338 37.9344 24.7256 37.9344Z" fill="#2C5871"/>
<path d="M30.2664 41.428H23.1875C22.9793 41.428 22.811 41.2593 22.811 41.0515C22.811 40.8437 22.9793 40.675 23.1875 40.675H30.2664C31.26 40.675 32.068 39.867 32.068 38.8741V32.1119C32.068 31.1179 31.26 30.3095 30.2664 30.3095C30.0582 30.3095 29.8899 30.1409 29.8899 29.933C29.8899 29.7248 30.0582 29.5565 30.2664 29.5565C31.6749 29.5565 32.8211 30.703 32.8211 32.1119V38.8741C32.8211 40.2823 31.6749 41.428 30.2664 41.428Z" fill="#2C5871"/>
<path d="M30.335 47.601C30.1268 47.601 29.9585 47.4323 29.9585 47.2245C29.9585 47.0167 30.1268 46.848 30.335 46.848C31.2906 46.848 32.0685 46.0701 32.0685 45.1141V37.8982C32.0685 37.6904 32.2368 37.5217 32.445 37.5217C32.6528 37.5217 32.8215 37.6904 32.8215 37.8982V45.1141C32.8215 46.4854 31.7063 47.601 30.335 47.601Z" fill="#2C5871"/>
<path d="M27.1809 27.724H22.7339C22.5261 27.724 22.3574 27.5553 22.3574 27.3475C22.3574 27.1397 22.5261 26.971 22.7339 26.971H27.1809C27.8745 26.971 28.4385 26.4066 28.4385 25.7131V21.356C28.4385 20.6629 27.8745 20.0989 27.1809 20.0989H26.0013C25.7931 20.0989 25.6248 19.9302 25.6248 19.7223C25.6248 19.5145 25.7931 19.3458 26.0013 19.3458H27.1809C28.2894 19.3458 29.1915 20.2476 29.1915 21.356V25.7131C29.1915 26.8219 28.2894 27.724 27.1809 27.724Z" fill="#2C5871"/>
<path d="M32.4127 25.5813C32.2045 25.5813 32.0362 25.4127 32.0362 25.2048C32.0362 24.5109 31.4718 23.9461 30.7779 23.9461H29.0967C28.8889 23.9461 28.7202 23.7778 28.7202 23.5696C28.7202 23.3618 28.8889 23.1931 29.0967 23.1931H30.7779C31.8871 23.1931 32.7892 24.0956 32.7892 25.2048C32.7892 25.4127 32.6209 25.5813 32.4127 25.5813Z" fill="#2C5871"/>
<path d="M30.8118 34.894H22.7344C22.5262 34.894 22.3579 34.7253 22.3579 34.5174C22.3579 34.3096 22.5262 34.1409 22.7344 34.1409H30.8118C31.5057 34.1409 32.0701 33.5765 32.0701 32.8826V32.3385C32.0701 32.1307 32.2384 31.962 32.4466 31.962C32.6548 31.962 32.8231 32.1307 32.8231 32.3385V32.8826C32.8231 33.9918 31.9206 34.894 30.8118 34.894Z" fill="#2C5871"/>
<path d="M29.2689 41.1905C29.0607 41.1905 28.8924 41.0218 28.8924 40.814V39.1351C28.8924 38.4416 28.3284 37.8775 27.6348 37.8775C27.4266 37.8775 27.2583 37.7089 27.2583 37.501C27.2583 37.2932 27.4266 37.1245 27.6348 37.1245C28.7437 37.1245 29.6454 38.0266 29.6454 39.1351V40.814C29.6454 41.0218 29.4771 41.1905 29.2689 41.1905Z" fill="#2C5871"/>
<path d="M27.8178 34.7457C27.6092 34.7457 27.4412 34.577 27.4412 34.3691V32.691C27.4412 31.9971 26.8765 31.4327 26.1822 31.4327C25.974 31.4327 25.8057 31.264 25.8057 31.0562C25.8057 30.8484 25.974 30.6797 26.1822 30.6797C27.2918 30.6797 28.1943 31.5822 28.1943 32.691V34.3691C28.1943 34.577 28.0256 34.7457 27.8178 34.7457Z" fill="#2C5871"/>
<path d="M25.6387 49.7709C25.4305 49.7709 25.2622 49.6022 25.2622 49.3944C25.2622 48.2859 26.164 47.3838 27.2728 47.3838C27.481 47.3838 27.6493 47.5525 27.6493 47.7603C27.6493 47.9681 27.481 48.1368 27.2728 48.1368C26.5793 48.1368 26.0152 48.7008 26.0152 49.3944C26.0152 49.6022 25.8469 49.7709 25.6387 49.7709Z" fill="#2C5871"/>
<path d="M46.3281 50.6161C49.1572 50.6161 51.4611 48.33 51.489 45.5072V44.6936L52.2141 44.5072C53.8057 44.0979 54.9167 42.6683 54.9167 41.0305C54.9167 40.2067 54.6419 39.4303 54.1227 38.7827L53.3787 37.8568L54.4378 37.3169C55.5726 36.7397 56.2771 35.5951 56.2771 34.3319C56.2771 33.1259 55.5888 31.9866 54.4796 31.359L53.4096 30.7528L54.2526 29.8563C54.9439 29.1213 55.3245 28.1657 55.3245 27.1646C55.3245 25.3464 54.0873 23.7756 52.3154 23.3456L51.0251 23.032L51.7205 21.9002C52.059 21.3508 52.2375 20.7224 52.2375 20.0861C52.2375 18.3007 50.8447 16.7781 49.0657 16.6199L48.3123 16.5522L48.1967 15.8036C47.8134 13.31 45.6236 11.4301 43.104 11.4301C40.259 11.4301 37.9438 13.7449 37.9438 16.5902V45.4556C37.9438 48.3013 40.259 50.6161 43.104 50.6161H46.3281Z" fill="#CCEEF5"/>
<path d="M46.3281 50.9922H43.104C40.0512 50.9922 37.5674 48.5084 37.5674 45.4552V16.5897C37.5674 13.537 40.0512 11.0531 43.104 11.0531C45.8085 11.0531 48.1576 13.0705 48.5688 15.746L48.6392 16.2031L49.0996 16.2445C51.0699 16.4199 52.614 18.1071 52.614 20.0857C52.614 20.7931 52.4156 21.4886 52.041 22.0974L51.6163 22.7883L52.4043 22.9796C54.3452 23.4502 55.7011 25.1713 55.7011 27.1641C55.7011 28.2613 55.2843 29.3088 54.5267 30.1141L54.0124 30.6612L54.6649 31.0309C55.8916 31.7252 56.6533 32.9899 56.6533 34.3315C56.6533 35.7385 55.8698 37.0107 54.6084 37.652L53.962 37.9814L54.416 38.5465C54.9898 39.2623 55.2933 40.1211 55.2933 41.03C55.2933 42.8396 54.0655 44.4194 52.3075 44.8716L51.8651 44.9853V45.5068C51.8354 48.5332 49.3515 50.9922 46.3281 50.9922ZM43.104 11.8061C40.4662 11.8061 38.3204 13.9523 38.3204 16.5897V45.4552C38.3204 48.0931 40.4662 50.2392 43.104 50.2392H46.3281C48.9404 50.2392 51.0865 48.1145 51.1121 45.503V44.4013L52.12 44.1423C53.5448 43.7756 54.5403 42.4958 54.5403 41.03C54.5403 40.2943 54.2944 39.5985 53.8287 39.0179L52.7948 37.7318L54.2666 36.981C55.2745 36.4686 55.9002 35.4535 55.9002 34.3315C55.9002 33.2607 55.2846 32.2471 54.294 31.6861L52.806 30.8438L53.9781 29.5979C54.6035 28.933 54.948 28.0685 54.948 27.1641C54.948 25.5199 53.8287 24.1001 52.2266 23.7111L50.4333 23.2755L51.3998 21.7028C51.7014 21.2126 51.861 20.6538 51.861 20.0857C51.861 18.4934 50.6185 17.1357 49.0322 16.9945L47.9848 16.9004L47.8244 15.8608C47.4693 13.549 45.4399 11.8061 43.104 11.8061Z" fill="#2C5871"/>
<path d="M42.1299 20.507C41.9217 20.507 41.7534 20.3384 41.7534 20.1305C41.7534 18.0714 43.4289 16.3959 45.4884 16.3959H48.7558C48.9637 16.3959 49.1324 16.5645 49.1324 16.7724C49.1324 16.9802 48.9637 17.1489 48.7558 17.1489H45.4884C43.8442 17.1489 42.5064 18.4863 42.5064 20.1305C42.5064 20.3384 42.3381 20.507 42.1299 20.507Z" fill="#2C5871"/>
<path d="M46.3283 50.8688H43.1042C40.1188 50.8688 37.6899 48.4403 37.6899 45.4553V16.5898C37.6899 13.6044 40.1188 11.1755 43.1042 11.1755C46.0896 11.1755 48.5185 13.6044 48.5185 16.5898C48.5185 16.7976 48.3502 16.9663 48.142 16.9663C47.9342 16.9663 47.7655 16.7976 47.7655 16.5898C47.7655 14.0197 45.6747 11.9286 43.1042 11.9286C40.5338 11.9286 38.443 14.0197 38.443 16.5898V45.4553C38.443 48.025 40.5338 50.1158 43.1042 50.1158H46.3283C48.9858 50.1158 50.9896 47.9075 50.9896 44.9794C50.9896 44.7715 51.1579 44.6028 51.3661 44.6028C51.5743 44.6028 51.7426 44.7715 51.7426 44.9794C51.7426 48.3367 49.415 50.8688 46.3283 50.8688Z" fill="#2C5871"/>
<path d="M48.7559 23.82C48.5476 23.82 48.3793 23.6513 48.3793 23.4435C48.3793 23.2357 48.5476 23.067 48.7559 23.067C50.4008 23.067 51.739 21.7296 51.739 20.0861C51.739 18.4415 50.4008 17.1034 48.7559 17.1034H48.0533C47.8451 17.1034 47.6768 16.9347 47.6768 16.7269C47.6768 16.519 47.8451 16.3503 48.0533 16.3503H48.7559C50.8161 16.3503 52.492 18.0262 52.492 20.0861C52.492 22.1449 50.8161 23.82 48.7559 23.82Z" fill="#2C5871"/>
<path d="M51.452 31.3536H51.3895C51.1813 31.3536 51.013 31.1849 51.013 30.9771C51.013 30.7693 51.1813 30.6006 51.3895 30.6006C53.2837 30.6006 54.8252 29.0592 54.8252 27.1642C54.8252 25.2703 53.2837 23.7296 51.3895 23.7296H49.7554C49.5472 23.7296 49.3789 23.5609 49.3789 23.3531C49.3789 23.1452 49.5472 22.9766 49.7554 22.9766H51.3895C53.6994 22.9766 55.5782 24.855 55.5782 27.1642C55.5782 29.4443 53.7476 31.3051 51.4787 31.3529C51.4701 31.3533 51.461 31.3536 51.452 31.3536Z" fill="#2C5871"/>
<path d="M51.3207 44.8787H45.6026C45.3948 44.8787 45.2261 44.7101 45.2261 44.5022C45.2261 44.2944 45.3948 44.1257 45.6026 44.1257H51.3207C53.0275 44.1257 54.4164 42.7371 54.4164 41.03C54.4164 39.3229 53.0275 37.9343 51.3207 37.9343C51.1125 37.9343 50.9442 37.7656 50.9442 37.5578C50.9442 37.3496 51.1125 37.1813 51.3207 37.1813C53.4431 37.1813 55.1694 38.908 55.1694 41.03C55.1694 43.1524 53.4431 44.8787 51.3207 44.8787Z" fill="#2C5871"/>
<path d="M52.9273 37.9344H49.5782C49.37 37.9344 49.2017 37.7657 49.2017 37.5579C49.2017 37.3501 49.37 37.1814 49.5782 37.1814H52.9273C54.4996 37.1814 55.7782 35.9031 55.7782 34.3319C55.7782 32.7698 54.3735 31.3996 52.7714 31.3996H51.1166C50.9088 31.3996 50.7401 31.2313 50.7401 31.0231C50.7401 30.8153 50.9088 30.6466 51.1166 30.6466H52.7714C54.7741 30.6466 56.5313 32.3688 56.5313 34.3319C56.5313 36.318 54.9145 37.9344 52.9273 37.9344Z" fill="#2C5871"/>
<path d="M51.1158 41.428H44.0373C42.6284 41.428 41.4819 40.2823 41.4819 38.8741V32.1119C41.4819 30.703 42.6284 29.5565 44.0373 29.5565C44.2455 29.5565 44.4139 29.7248 44.4139 29.933C44.4139 30.1409 44.2455 30.3095 44.0373 30.3095C43.0437 30.3095 42.235 31.1179 42.235 32.1119V38.8741C42.235 39.867 43.0437 40.675 44.0373 40.675H51.1158C51.324 40.675 51.4923 40.8437 51.4923 41.0515C51.4923 41.2593 51.324 41.428 51.1158 41.428Z" fill="#2C5871"/>
<path d="M43.9684 47.601C42.5972 47.601 41.4819 46.4854 41.4819 45.1141V37.8982C41.4819 37.6904 41.6506 37.5217 41.8584 37.5217C42.0667 37.5217 42.235 37.6904 42.235 37.8982V45.1141C42.235 46.0701 43.0128 46.848 43.9684 46.848C44.1767 46.848 44.3449 47.0167 44.3449 47.2245C44.3449 47.4323 44.1767 47.601 43.9684 47.601Z" fill="#2C5871"/>
<path d="M51.5698 27.724H47.1224C46.0136 27.724 45.1118 26.8219 45.1118 25.7131V21.356C45.1118 20.2476 46.0136 19.3458 47.1224 19.3458H48.3013C48.5095 19.3458 48.6778 19.5145 48.6778 19.7223C48.6778 19.9302 48.5095 20.0989 48.3013 20.0989H47.1224C46.4292 20.0989 45.8648 20.6629 45.8648 21.356V25.7131C45.8648 26.4066 46.4292 26.971 47.1224 26.971H51.5698C51.7776 26.971 51.9463 27.1397 51.9463 27.3475C51.9463 27.5553 51.7776 27.724 51.5698 27.724Z" fill="#2C5871"/>
<path d="M41.8912 25.5813C41.683 25.5813 41.5146 25.4127 41.5146 25.2048C41.5146 24.0956 42.4164 23.1931 43.5256 23.1931H45.2071C45.415 23.1931 45.5836 23.3618 45.5836 23.5696C45.5836 23.7778 45.415 23.9461 45.2071 23.9461H43.5256C42.8321 23.9461 42.2677 24.5109 42.2677 25.2048C42.2677 25.4127 42.0994 25.5813 41.8912 25.5813Z" fill="#2C5871"/>
<path d="M51.57 34.894H43.4915C42.3831 34.894 41.481 33.9918 41.481 32.8826V32.3385C41.481 32.1307 41.6496 31.962 41.8575 31.962C42.0657 31.962 42.234 32.1307 42.234 32.3385V32.8826C42.234 33.5765 42.798 34.1409 43.4915 34.1409H51.57C51.7779 34.1409 51.9466 34.3096 51.9466 34.5174C51.9466 34.7253 51.7779 34.894 51.57 34.894Z" fill="#2C5871"/>
<path d="M45.0347 41.1905C44.8265 41.1905 44.6582 41.0218 44.6582 40.814V39.1351C44.6582 38.0266 45.5603 37.1245 46.6692 37.1245C46.8774 37.1245 47.0457 37.2932 47.0457 37.501C47.0457 37.7089 46.8774 37.8775 46.6692 37.8775C45.9756 37.8775 45.4112 38.4416 45.4112 39.1351V40.814C45.4112 41.0218 45.2429 41.1905 45.0347 41.1905Z" fill="#2C5871"/>
<path d="M46.4864 34.7457C46.2778 34.7457 46.1099 34.577 46.1099 34.3691V32.691C46.1099 31.5822 47.0124 30.6797 48.1216 30.6797C48.3294 30.6797 48.4981 30.8484 48.4981 31.0562C48.4981 31.264 48.3294 31.4327 48.1216 31.4327C47.4277 31.4327 46.8629 31.9971 46.8629 32.691V34.3691C46.8629 34.577 46.6942 34.7457 46.4864 34.7457Z" fill="#2C5871"/>
<path d="M48.6648 49.7709C48.4566 49.7709 48.2883 49.6022 48.2883 49.3944C48.2883 48.7008 47.7239 48.1368 47.0303 48.1368C46.8225 48.1368 46.6538 47.9681 46.6538 47.7603C46.6538 47.5525 46.8225 47.3838 47.0303 47.3838C48.1395 47.3838 49.0413 48.2859 49.0413 49.3944C49.0413 49.6022 48.873 49.7709 48.6648 49.7709Z" fill="#2C5871"/>
<path d="M18.281 34.4708C18.2434 34.9607 18.2178 35.4531 18.2178 35.9528C18.2178 36.5725 18.6707 45.3329 25.8091 54.5255C27.9006 57.3008 27.5568 62.8792 27.538 62.8792H35.8281H38.5187H46.8468C46.8272 62.8792 46.4462 57.3008 48.5279 54.5255C55.6772 45.3216 56.1211 36.5725 56.1211 35.9528C56.1211 35.4531 56.0963 34.9607 56.0582 34.4708H18.281Z" fill="url(#paint0_linear_2_2407)"/>
<path d="M46.8468 63.2556H27.5381V62.8791L27.1664 62.8238C27.1721 62.7726 27.514 57.4133 25.5083 54.7521C18.0503 45.1468 17.8413 36.0419 17.8413 35.9523C17.8413 35.496 17.8624 35.002 17.9057 34.4417L17.9324 34.0942H56.4069L56.4337 34.4417C56.4766 34.9986 56.4977 35.4926 56.4977 35.9523C56.4977 36.0419 56.2887 45.1479 48.8254 54.7562C47.0087 57.1783 47.136 62.1536 47.2181 62.8204L46.8468 62.8791V63.2556ZM27.9278 62.5026H46.4549C46.3743 60.9845 46.438 56.684 48.2268 54.2991C55.5402 44.8844 55.7446 36.0393 55.7446 35.9523C55.7446 35.6097 55.7326 35.2456 55.7074 34.8473H18.632C18.6064 35.2486 18.5943 35.6063 18.5943 35.9523C18.5943 36.0389 18.7988 44.8836 26.1065 54.2942C27.9138 56.6926 28 60.9868 27.9278 62.5026Z" fill="#2C5871"/>
<path d="M47.2082 65.7817H27.1309C26.9231 65.7817 26.7544 65.613 26.7544 65.4052C26.7544 65.1974 26.9231 65.0287 27.1309 65.0287H47.2082C47.416 65.0287 47.5847 65.1974 47.5847 65.4052C47.5847 65.613 47.416 65.7817 47.2082 65.7817Z" fill="#2C5871"/>
<path d="M47.2082 68.266H27.1309C26.9231 68.266 26.7544 68.0973 26.7544 67.8895C26.7544 67.6816 26.9231 67.5129 27.1309 67.5129H47.2082C47.416 67.5129 47.5847 67.6816 47.5847 67.8895C47.5847 68.0973 47.416 68.266 47.2082 68.266Z" fill="#2C5871"/>
<path d="M47.2082 70.752H27.1309C26.9231 70.752 26.7544 70.5834 26.7544 70.3755C26.7544 70.1677 26.9231 69.999 27.1309 69.999H47.2082C47.416 69.999 47.5847 70.1677 47.5847 70.3755C47.5847 70.5834 47.416 70.752 47.2082 70.752Z" fill="#2C5871"/>
<path d="M44.7794 73.5605H29.5591C29.3509 73.5605 29.1826 73.3918 29.1826 73.184C29.1826 72.9762 29.3509 72.8075 29.5591 72.8075H44.7794C44.9876 72.8075 45.1559 72.9762 45.1559 73.184C45.1559 73.3918 44.9876 73.5605 44.7794 73.5605Z" fill="#2C5871"/>
<rect x="40" y="62.5919" width="19.8575" height="1" transform="rotate(-80.6178 40 62.5919)" fill="#2C5871"/>
<rect width="19.8575" height="1" transform="matrix(-0.163019 -0.986623 -0.986623 0.163019 34.2236 62.5919)" fill="#2C5871"/>
<path d="M41.7322 46.7087C41.0933 46.7087 40.8192 46.0942 40.5993 45.6006C40.4747 45.3212 40.3049 44.9391 40.1546 44.9391C40.0059 44.9391 39.8361 45.3208 39.7122 45.5999C39.4924 46.0938 39.219 46.7087 38.5808 46.7087C37.9426 46.7087 37.6697 46.0938 37.4498 45.5999C37.3255 45.3208 37.1557 44.9391 37.007 44.9391C36.859 44.9391 36.6885 45.3212 36.5646 45.6002C36.3451 46.0942 36.0721 46.7087 35.4339 46.7087C34.7961 46.7087 34.5231 46.0938 34.3036 45.5999C34.1794 45.3208 34.0099 44.9391 33.8623 44.9391C33.7144 44.9391 33.5449 45.3208 33.4214 45.5999C33.2027 46.0938 32.9297 46.7087 32.293 46.7087C31.6548 46.7087 31.3819 46.0942 31.1624 45.6002C31.0389 45.3212 30.8687 44.9391 30.7207 44.9391V44.186C31.3585 44.186 31.6311 44.8005 31.8506 45.2945C31.9749 45.5735 32.1443 45.9557 32.293 45.9557C32.4402 45.9557 32.6093 45.5735 32.7336 45.2949C32.9527 44.8009 33.2249 44.186 33.8623 44.186C34.4998 44.186 34.7728 44.8005 34.9923 45.2941C35.1158 45.5731 35.2859 45.9557 35.4339 45.9557C35.583 45.9557 35.7524 45.5735 35.8767 45.2945C36.0962 44.8005 36.3692 44.186 37.007 44.186C37.6452 44.186 37.9182 44.8005 38.1377 45.2941C38.2615 45.5731 38.4317 45.9557 38.5808 45.9557C38.7295 45.9557 38.9001 45.5731 39.0244 45.2941C39.2439 44.8005 39.5165 44.186 40.1546 44.186C40.7932 44.186 41.0669 44.8005 41.2868 45.2941C41.4118 45.5731 41.582 45.9557 41.7322 45.9557C41.8817 45.9557 42.0523 45.5731 42.1769 45.2941C42.3968 44.8005 42.6698 44.186 43.3083 44.186V44.9391C43.1589 44.9391 42.9887 45.3212 42.8641 45.6002C42.6442 46.0942 42.3708 46.7087 41.7322 46.7087Z" fill="#2C5871"/>
<path d="M37.1705 8.36785C36.9622 8.36785 36.7939 8.19917 36.7939 7.99133V0.815723C36.7939 0.607887 36.9622 0.439209 37.1705 0.439209C37.3787 0.439209 37.547 0.607887 37.547 0.815723V7.99133C37.547 8.19917 37.3787 8.36785 37.1705 8.36785Z" fill="#2C5871"/>
<path d="M73.6237 37.6456H66.4473C66.2395 37.6456 66.0708 37.4769 66.0708 37.2691C66.0708 37.0613 66.2395 36.8926 66.4473 36.8926H73.6237C73.8319 36.8926 74.0002 37.0613 74.0002 37.2691C74.0002 37.4769 73.8319 37.6456 73.6237 37.6456Z" fill="#2C5871"/>
<path d="M7.89284 37.6456H0.716846C0.509011 37.6456 0.340332 37.4769 0.340332 37.2691C0.340332 37.0613 0.509011 36.8926 0.716846 36.8926H7.89284C8.10105 36.8926 8.26935 37.0613 8.26935 37.2691C8.26935 37.4769 8.10105 37.6456 7.89284 37.6456Z" fill="#2C5871"/>
<path d="M57.8727 16.9426C57.7763 16.9426 57.6799 16.9057 57.6065 16.8323C57.4593 16.685 57.4593 16.4467 57.6065 16.2999L62.6808 11.2263C62.8276 11.0795 63.066 11.0795 63.2132 11.2263C63.36 11.3736 63.36 11.6119 63.2132 11.7587L58.1389 16.8323C58.0655 16.9057 57.9691 16.9426 57.8727 16.9426Z" fill="#2C5871"/>
<path d="M11.3937 63.4217C11.2973 63.4217 11.2009 63.3848 11.1275 63.3114C10.9803 63.1642 10.9803 62.9258 11.1275 62.779L16.2018 57.7055C16.3486 57.5586 16.587 57.5586 16.7342 57.7055C16.881 57.8527 16.881 58.091 16.7342 58.2379L11.6599 63.3114C11.5865 63.3848 11.4901 63.4217 11.3937 63.4217Z" fill="#2C5871"/>
<path d="M62.9467 63.4217C62.8503 63.4217 62.7539 63.3848 62.6805 63.3114L57.6062 58.2379C57.4594 58.091 57.4594 57.8527 57.6062 57.7055C57.7534 57.5586 57.9918 57.5586 58.1386 57.7055L63.2129 62.779C63.3601 62.9258 63.3601 63.1642 63.2129 63.3114C63.1395 63.3848 63.0431 63.4217 62.9467 63.4217Z" fill="#2C5871"/>
<path d="M16.4682 16.9426C16.3718 16.9426 16.2754 16.9057 16.202 16.8323L11.1277 11.7587C10.9809 11.6119 10.9809 11.3736 11.1277 11.2263C11.2749 11.0795 11.5133 11.0795 11.6601 11.2263L16.7344 16.2999C16.8816 16.4467 16.8816 16.685 16.7344 16.8323C16.661 16.9057 16.5646 16.9426 16.4682 16.9426Z" fill="#2C5871"/>
<defs>
<linearGradient id="paint0_linear_2_2407" x1="37" y1="70.5" x2="37" y2="42" gradientUnits="userSpaceOnUse">
<stop stop-color="#B29636"/>
<stop offset="1" stop-color="#F4DA80"/>
</linearGradient>
</defs>
</svg>
