<svg width="242" height="74" viewBox="0 0 242 74" fill="none" xmlns="http://www.w3.org/2000/svg">
<path d="M5.46104 41.14C6.16304 42.004 7.10804 42.436 8.29604 42.436C9.48404 42.436 10.42 42.004 11.104 41.14C11.806 40.258 12.157 39.061 12.157 37.549V27.127H16.369V37.684C16.369 40.42 15.613 42.526 14.101 44.002C12.589 45.46 10.654 46.189 8.29604 46.189C5.93804 46.189 3.99404 45.451 2.46404 43.975C0.952043 42.499 0.196043 40.402 0.196043 37.684V27.127H4.40804V37.549C4.40804 39.061 4.75904 40.258 5.46104 41.14ZM33.9454 27.127H38.1574V46H33.9454L24.9544 34.174V46H20.7424V27.127H24.6844L33.9454 39.277V27.127ZM50.8037 30.772V46H46.5917V30.772H41.2457V27.127H56.1497V30.772H50.8037ZM59.2385 27.127H63.4505V46H59.2385V27.127ZM68.0979 46V27.127H72.3099V42.247H80.3559V46H68.0979ZM98.6897 46H94.4777V38.548L87.9437 27.127H92.5067L96.5837 34.147L100.661 27.127H105.224L98.6897 38.548V46ZM121.013 36.469C121.013 34.777 120.473 33.337 119.393 32.149C118.313 30.961 116.981 30.367 115.397 30.367C113.831 30.367 112.508 30.961 111.428 32.149C110.348 33.337 109.808 34.777 109.808 36.469C109.808 38.143 110.348 39.574 111.428 40.762C112.508 41.932 113.831 42.517 115.397 42.517C116.981 42.517 118.313 41.932 119.393 40.762C120.473 39.574 121.013 38.143 121.013 36.469ZM122.444 43.408C120.536 45.262 118.187 46.189 115.397 46.189C112.607 46.189 110.258 45.262 108.35 43.408C106.442 41.536 105.488 39.214 105.488 36.442C105.488 33.67 106.442 31.357 108.35 29.503C110.258 27.631 112.607 26.695 115.397 26.695C118.187 26.695 120.536 27.631 122.444 29.503C124.352 31.357 125.306 33.67 125.306 36.442C125.306 39.214 124.352 41.536 122.444 43.408ZM133.869 41.14C134.571 42.004 135.516 42.436 136.704 42.436C137.892 42.436 138.828 42.004 139.512 41.14C140.214 40.258 140.565 39.061 140.565 37.549V27.127H144.777V37.684C144.777 40.42 144.021 42.526 142.509 44.002C140.997 45.46 139.062 46.189 136.704 46.189C134.346 46.189 132.402 45.451 130.872 43.975C129.36 42.499 128.604 40.402 128.604 37.684V27.127H132.816V37.549C132.816 39.061 133.167 40.258 133.869 41.14ZM162.345 30.394C161.643 30.394 161.085 30.565 160.671 30.907C160.275 31.231 160.077 31.672 160.077 32.23C160.077 32.77 160.32 33.202 160.806 33.526C161.31 33.85 162.453 34.237 164.235 34.687C166.035 35.119 167.43 35.776 168.42 36.658C169.41 37.54 169.905 38.827 169.905 40.519C169.905 42.211 169.266 43.588 167.988 44.65C166.728 45.694 165.063 46.216 162.993 46.216C160.005 46.216 157.314 45.109 154.92 42.895L157.431 39.817C159.465 41.599 161.346 42.49 163.074 42.49C163.848 42.49 164.451 42.328 164.883 42.004C165.333 41.662 165.558 41.212 165.558 40.654C165.558 40.078 165.324 39.628 164.856 39.304C164.388 38.962 163.461 38.62 162.075 38.278C159.879 37.756 158.268 37.081 157.242 36.253C156.234 35.407 155.73 34.093 155.73 32.311C155.73 30.511 156.369 29.125 157.647 28.153C158.943 27.181 160.554 26.695 162.48 26.695C163.74 26.695 165 26.911 166.26 27.343C167.52 27.775 168.618 28.387 169.554 29.179L167.421 32.257C165.783 31.015 164.091 30.394 162.345 30.394ZM181.321 30.772V46H177.109V30.772H171.763V27.127H186.667V30.772H181.321ZM201.831 46L200.076 41.923H192.165L190.41 46H185.928L194.082 27.127H198.159L206.313 46H201.831ZM196.134 32.743L193.758 38.224H198.483L196.134 32.743ZM223.812 33.391C223.812 36.415 222.615 38.368 220.221 39.25L225 46H219.816L215.631 39.979H212.715V46H208.503V27.127H215.658C218.592 27.127 220.68 27.622 221.922 28.612C223.182 29.602 223.812 31.195 223.812 33.391ZM215.793 36.334C217.233 36.334 218.214 36.1 218.736 35.632C219.258 35.164 219.519 34.426 219.519 33.418C219.519 32.392 219.249 31.69 218.709 31.312C218.169 30.934 217.224 30.745 215.874 30.745H212.715V36.334H215.793ZM235.743 30.772V46H231.531V30.772H226.185V27.127H241.089V30.772H235.743ZM45.4774 54.127V57.88H36.0814V61.768H44.5324V65.359H36.0814V69.274H45.7744V73H31.8694V54.127H45.4774ZM56.2044 54.127C59.5704 54.127 62.1534 54.955 63.9534 56.611C65.7534 58.249 66.6534 60.535 66.6534 63.469C66.6534 66.403 65.7714 68.725 64.0074 70.435C62.2614 72.145 59.5884 73 55.9884 73H49.5354V54.127H56.2044ZM56.4204 69.274C58.3464 69.274 59.8224 68.788 60.8484 67.816C61.8924 66.844 62.4144 65.431 62.4144 63.577C62.4144 61.723 61.8924 60.301 60.8484 59.311C59.8224 58.303 58.2384 57.799 56.0964 57.799H53.7474V69.274H56.4204ZM75.2814 68.14C75.9834 69.004 76.9284 69.436 78.1164 69.436C79.3044 69.436 80.2404 69.004 80.9244 68.14C81.6264 67.258 81.9774 66.061 81.9774 64.549V54.127H86.1894V64.684C86.1894 67.42 85.4334 69.526 83.9214 71.002C82.4094 72.46 80.4744 73.189 78.1164 73.189C75.7584 73.189 73.8144 72.451 72.2844 70.975C70.7724 69.499 70.0164 67.402 70.0164 64.684V54.127H74.2284V64.549C74.2284 66.061 74.5794 67.258 75.2814 68.14ZM99.2297 69.274C101.3 69.274 102.992 68.455 104.306 66.817L107.006 69.598C104.864 72.01 102.335 73.216 99.4187 73.216C96.5207 73.216 94.1267 72.298 92.2367 70.462C90.3647 68.626 89.4287 66.313 89.4287 63.523C89.4287 60.715 90.3827 58.375 92.2907 56.503C94.2167 54.631 96.5657 53.695 99.3377 53.695C102.434 53.695 105.026 54.874 107.114 57.232L104.495 60.202C103.163 58.546 101.507 57.718 99.5267 57.718C97.9427 57.718 96.5837 58.24 95.4497 59.284C94.3337 60.31 93.7757 61.705 93.7757 63.469C93.7757 65.215 94.3067 66.619 95.3687 67.681C96.4307 68.743 97.7177 69.274 99.2297 69.274ZM123.652 73L121.897 68.923H113.986L112.231 73H107.749L115.903 54.127H119.98L128.134 73H123.652ZM117.955 59.743L115.579 65.224H120.304L117.955 59.743ZM136.945 57.772V73H132.733V57.772H127.387V54.127H142.291V57.772H136.945ZM145.38 54.127H149.592V73H145.38V54.127ZM168.684 63.469C168.684 61.777 168.144 60.337 167.064 59.149C165.984 57.961 164.652 57.367 163.068 57.367C161.502 57.367 160.179 57.961 159.099 59.149C158.019 60.337 157.479 61.777 157.479 63.469C157.479 65.143 158.019 66.574 159.099 67.762C160.179 68.932 161.502 69.517 163.068 69.517C164.652 69.517 165.984 68.932 167.064 67.762C168.144 66.574 168.684 65.143 168.684 63.469ZM170.115 70.408C168.207 72.262 165.858 73.189 163.068 73.189C160.278 73.189 157.929 72.262 156.021 70.408C154.113 68.536 153.159 66.214 153.159 63.442C153.159 60.67 154.113 58.357 156.021 56.503C157.929 54.631 160.278 53.695 163.068 53.695C165.858 53.695 168.207 54.631 170.115 56.503C172.023 58.357 172.977 60.67 172.977 63.442C172.977 66.214 172.023 68.536 170.115 70.408ZM189.749 54.127H193.961V73H189.749L180.758 61.174V73H176.546V54.127H180.488L189.749 66.277V54.127ZM205.23 67.384H201.126V65.359C201.126 64.621 201.216 64.072 201.396 63.712C201.594 63.334 201.999 62.83 202.611 62.2L204.447 60.31C204.717 59.986 204.852 59.572 204.852 59.068C204.852 58.546 204.708 58.114 204.42 57.772C204.132 57.43 203.754 57.259 203.286 57.259C202.818 57.259 202.422 57.466 202.098 57.88C201.792 58.276 201.603 58.807 201.531 59.473H197.238C197.436 57.673 198.093 56.26 199.209 55.234C200.325 54.208 201.72 53.695 203.394 53.695C205.086 53.695 206.454 54.154 207.498 55.072C208.56 55.99 209.091 57.259 209.091 58.879C209.091 59.599 209.001 60.139 208.821 60.499C208.641 60.841 208.515 61.093 208.443 61.255C208.371 61.399 208.2 61.624 207.93 61.93C207.678 62.236 207.507 62.434 207.417 62.524C206.985 62.956 206.571 63.361 206.175 63.739C205.797 64.117 205.545 64.432 205.419 64.684C205.293 64.918 205.23 65.278 205.23 65.764V67.384ZM201.531 72.541C201.081 72.073 200.856 71.506 200.856 70.84C200.856 70.174 201.081 69.616 201.531 69.166C201.999 68.698 202.566 68.464 203.232 68.464C203.898 68.464 204.456 68.698 204.906 69.166C205.374 69.616 205.608 70.174 205.608 70.84C205.608 71.506 205.374 72.073 204.906 72.541C204.456 72.991 203.898 73.216 203.232 73.216C202.566 73.216 201.999 72.991 201.531 72.541Z" fill="white"/>
<path d="M57.9382 1.127L50.6752 13.277V20H48.8122V13.277L41.4412 1.127H43.3852L49.7572 11.279L55.9942 1.127H57.9382ZM61.0721 1.127H73.7081V2.801H62.9351V9.551H72.5741V11.225H62.9351V18.326H74.0591V20H61.0721V1.127ZM92.7266 20L90.4856 14.978H80.0096L77.7956 20H75.7976L84.3026 1.127H86.2466L94.7516 20H92.7266ZM80.7386 13.304H89.7566L85.2206 3.098L80.7386 13.304ZM110.301 20L106.224 13.844C105.648 13.88 105.207 13.898 104.901 13.898H99.7173V20H97.8543V1.127H104.901C107.259 1.127 109.077 1.676 110.355 2.774C111.651 3.854 112.299 5.393 112.299 7.391C112.299 8.957 111.921 10.262 111.165 11.306C110.409 12.35 109.329 13.079 107.925 13.493L112.461 20H110.301ZM104.901 12.224C106.701 12.224 108.087 11.819 109.059 11.009C110.031 10.181 110.517 8.993 110.517 7.445C110.517 5.933 110.031 4.781 109.059 3.989C108.087 3.197 106.701 2.801 104.901 2.801H99.7173V12.224H104.901ZM127.842 4.205C127.068 3.719 126.222 3.35 125.304 3.098C124.386 2.828 123.522 2.693 122.712 2.693C121.416 2.693 120.372 2.954 119.58 3.476C118.806 3.98 118.419 4.673 118.419 5.555C118.419 6.329 118.635 6.959 119.067 7.445C119.499 7.931 120.03 8.318 120.66 8.606C121.29 8.876 122.154 9.182 123.252 9.524C124.53 9.902 125.556 10.28 126.33 10.658C127.122 11.018 127.788 11.549 128.328 12.251C128.886 12.953 129.165 13.88 129.165 15.032C129.165 16.04 128.877 16.931 128.301 17.705C127.743 18.479 126.951 19.082 125.925 19.514C124.899 19.928 123.72 20.135 122.388 20.135C121.074 20.135 119.787 19.874 118.527 19.352C117.285 18.83 116.214 18.137 115.314 17.273L116.178 15.734C117.024 16.562 118.005 17.21 119.121 17.678C120.237 18.146 121.335 18.38 122.415 18.38C123.855 18.38 124.998 18.092 125.844 17.516C126.69 16.922 127.113 16.13 127.113 15.14C127.113 14.348 126.897 13.7 126.465 13.196C126.033 12.692 125.502 12.305 124.872 12.035C124.242 11.765 123.36 11.45 122.226 11.09C120.948 10.694 119.922 10.325 119.148 9.983C118.374 9.623 117.717 9.101 117.177 8.417C116.637 7.715 116.367 6.806 116.367 5.69C116.367 4.736 116.637 3.899 117.177 3.179C117.717 2.459 118.473 1.91 119.445 1.532C120.417 1.136 121.542 0.937999 122.82 0.937999C123.846 0.937999 124.872 1.091 125.898 1.397C126.942 1.703 127.86 2.108 128.652 2.612L127.842 4.205ZM141.228 1.127H143.091V18.326H151.407V20H141.228V1.127ZM155.071 1.127H167.707V2.801H156.934V9.551H166.573V11.225H156.934V18.326H168.058V20H155.071V1.127ZM172.632 1.127H184.458V2.801H174.495V10.064H183.378V11.738H174.495V20H172.632V1.127ZM185.067 1.1H199.404V2.801H193.167V20H191.304V2.801H185.067V1.1Z" fill="white"/>
</svg>
