<svg width="53" height="69" viewBox="0 0 53 69" fill="none" xmlns="http://www.w3.org/2000/svg">
<path d="M18.7898 29.3214C19.0986 30.1081 18.7118 30.9969 17.9262 31.308L7.43721 35.4452C6.65052 35.7551 5.76025 31.5608 5.44992 30.7745C5.13958 29.9878 5.52645 29.0975 6.31277 28.7876L16.8022 28.4578C17.5896 28.1486 18.4791 28.5347 18.7898 29.3214Z" fill="#CCEEF5"/>
<path d="M7.35326 35.8423C6.61683 35.8423 6.15685 34.6402 5.40404 31.9462C5.27534 31.4858 5.16453 31.0879 5.09599 30.9147C4.70873 29.9334 5.19233 28.8204 6.17322 28.4331L6.23491 28.4091L6.30116 28.4068L16.7281 28.0794C16.9333 28.007 17.1462 27.9705 17.3632 27.9705C18.1545 27.9705 18.8536 28.4457 19.1442 29.1817C19.5287 30.1622 19.0459 31.2745 18.0665 31.6621L7.57716 35.7997C7.50481 35.8279 7.42942 35.8423 7.35326 35.8423ZM6.39598 29.1657C5.84422 29.4182 5.5792 30.0636 5.80424 30.6352C5.88725 30.845 5.99768 31.2402 6.13743 31.7413C6.36932 32.5699 6.9721 34.7282 7.36659 35.0637L17.7867 30.9535C18.3757 30.7205 18.6674 30.0507 18.4355 29.4605C18.2607 29.0184 17.84 28.732 17.3632 28.732C17.2193 28.732 17.0773 28.7594 16.9417 28.8124L16.88 28.8367L16.8142 28.8386L6.39598 29.1657Z" fill="#2C5871"/>
<path d="M18.9098 24.4173C19.2198 25.2033 18.8336 26.0928 18.0466 26.4039L7.5568 30.5403C6.77048 30.8506 5.88022 26.6552 5.56988 25.8696C5.25992 25.0829 5.64642 24.1927 6.43235 23.8835L16.9225 23.5545C17.7092 23.2438 18.5991 23.6306 18.9098 24.4173Z" fill="#CCEEF5"/>
<path d="M7.47279 30.9374C6.73674 30.9374 6.27676 29.7357 5.52395 27.0424C5.39563 26.5813 5.28444 26.1834 5.2159 26.0097C5.02856 25.5341 5.03731 25.0144 5.24103 24.546C5.44437 24.0773 5.8183 23.7159 6.29313 23.5289L6.35444 23.5049L6.42069 23.503L16.848 23.1759C17.0536 23.1032 17.2669 23.0663 17.4843 23.0663C18.2748 23.0663 18.9735 23.5415 19.2637 24.2775C19.6506 25.2577 19.1677 26.3703 18.1865 26.758L7.69669 30.8948C7.62434 30.9229 7.54895 30.9374 7.47279 30.9374ZM6.51551 24.2619C6.25696 24.3796 6.05362 24.586 5.93939 24.8491C5.81715 25.1313 5.81144 25.4443 5.92415 25.7302C6.00717 25.94 6.11759 26.3361 6.25772 26.8375C6.48961 27.6657 7.09201 29.8232 7.4865 30.1587L17.907 26.0493C18.4972 25.8163 18.7881 25.1469 18.5554 24.557C18.3807 24.1142 17.9603 23.8278 17.4843 23.8278C17.3404 23.8278 17.1983 23.8553 17.0624 23.9086L17.0007 23.9333L16.9345 23.9356L6.51551 24.2619Z" fill="#2C5871"/>
<path d="M20.0127 15.8669C20.3235 16.6528 19.937 17.5431 19.1499 17.8534L8.66088 21.9906C7.87419 22.3005 6.98392 21.914 6.67434 21.1277C6.36363 20.341 6.74974 19.4508 7.53681 19.1408L18.0262 15.0032C18.8133 14.6941 19.7028 15.0809 20.0127 15.8669Z" fill="#CCEEF5"/>
<path d="M8.09957 22.4784C7.30831 22.4784 6.60957 22.0032 6.31942 21.2671C6.13207 20.7923 6.14083 20.2725 6.34455 19.8042C6.54789 19.335 6.92143 18.9737 7.39703 18.7863L17.886 14.6491C18.1111 14.5608 18.3464 14.5159 18.5863 14.5159C19.3776 14.5159 20.0763 14.9915 20.3668 15.7271C20.5542 16.2016 20.5458 16.721 20.3421 17.1893C20.1387 17.6588 19.7648 18.0202 19.2892 18.2075L8.80021 22.3451C8.57517 22.4335 8.33946 22.4784 8.09957 22.4784ZM18.5863 15.2774C18.4424 15.2774 18.3007 15.3045 18.1655 15.3578L7.67652 19.495C7.39017 19.6077 7.16551 19.8247 7.0429 20.1073C6.92029 20.3894 6.91534 20.702 7.02805 20.988C7.20245 21.4309 7.62283 21.7168 8.09957 21.7168C8.24351 21.7168 8.38516 21.6898 8.52072 21.6361L19.0097 17.4989C19.2961 17.3862 19.5211 17.1688 19.6433 16.8866C19.766 16.6045 19.7709 16.2922 19.6586 16.007C19.4838 15.5638 19.0626 15.2774 18.5863 15.2774Z" fill="#2C5871"/>
<path d="M52.2542 36.98C52.2542 37.4514 51.8715 37.8337 51.4008 37.8337L26.7486 41.6415L2.08353 37.8337C1.61364 37.8337 1.23096 37.4514 1.23096 36.98V2.30228C1.23096 1.83201 1.61364 1.44971 2.08353 1.44971L26.6215 6.01908L51.4008 1.44971C51.8715 1.44971 52.2542 1.83201 52.2542 2.30228V36.98Z" fill="#F4DA80"/>
<path d="M26.7486 42.0269L2.05146 38.2142C1.38624 38.197 0.850098 37.6499 0.850098 36.9801V2.30194C0.850098 1.62224 1.40337 1.06897 2.08345 1.06897L2.15313 1.07544L26.6218 5.63187L51.3657 1.06897H51.4007C52.0812 1.06897 52.6348 1.62224 52.6348 2.30194V36.9801C52.6348 37.6499 52.0983 38.197 51.4327 38.2142L26.7486 42.0269ZM2.05337 1.83167C1.80738 1.84691 1.61166 2.05215 1.61166 2.30194V36.9801C1.61166 37.2405 1.82299 37.453 2.08345 37.453L2.14133 37.4576L26.7486 41.2562L51.4007 37.453C51.6612 37.453 51.8733 37.2405 51.8733 36.9801V2.30194C51.8733 2.05215 51.6772 1.84691 51.4304 1.83167L26.621 6.40638L26.5517 6.39343L2.05337 1.83167Z" fill="#2C5871"/>
<path d="M50.9452 36.5539L26.6213 40.3617L2.53955 36.5539V33.286L26.7485 37.0938L50.9452 33.286V36.5539Z" fill="#CCEEF5"/>
<path d="M26.6209 40.7471L26.5618 40.7376L2.15869 36.8791V32.8406L26.7484 36.7082L51.326 32.8406V36.8795L26.6209 40.7471ZM2.92025 36.2284L26.6216 39.976L50.5644 36.228V33.7312L26.7484 37.4793L2.92025 33.7312V36.2284Z" fill="#2C5871"/>
<path d="M26.7339 39.2568V7.42727C26.7484 7.3991 26.7605 7.36787 26.7605 7.3336C26.7605 7.24526 26.7529 7.15882 26.7468 7.07201C26.8805 5.50128 28.1995 4.26374 29.8037 4.26374L50.9451 0.455933V33.5904L29.8037 37.3982C28.4299 37.6636 27.315 38.1533 26.7339 39.2568Z" fill="white"/>
<path d="M27.0713 39.4338L26.3535 39.2564V7.33511L26.3794 7.28485C26.3779 7.23915 26.3745 7.1946 26.371 7.14967L26.3653 7.06856L26.368 7.03924C26.5176 5.2808 28.008 3.90084 29.7691 3.88257L51.3263 0.00012207V33.9087L29.8716 37.7729C28.3907 38.0592 27.5252 38.5717 27.0713 39.4338ZM27.1151 7.50075V38.1552C27.8763 37.469 28.8758 37.1899 29.7318 37.0242L50.5648 33.272V0.910951L29.8042 4.64413C28.4295 4.64413 27.2602 5.70956 27.1292 7.07542L27.1307 7.09446C27.1364 7.17366 27.1417 7.25286 27.1417 7.33359C27.1417 7.38956 27.133 7.44516 27.1151 7.50075Z" fill="#2C5871"/>
<path d="M26.7512 39.2568V7.42727C26.7348 7.3991 26.7241 7.36787 26.7241 7.3336C26.7241 7.24526 26.7302 7.15882 26.7371 7.07201C26.6038 5.50128 25.284 4.26374 23.6809 4.26374L2.53955 0.455933V33.5904L23.6809 37.3982C25.0502 37.7112 26.1693 38.1533 26.7512 39.2568Z" fill="white"/>
<path d="M26.4141 39.4342C25.9065 38.4712 24.9207 38.0722 23.5963 37.7694L2.15869 33.9087V0.00012207L23.7159 3.88257C25.4774 3.90084 26.9677 5.2808 27.1166 7.03962L27.1193 7.07009L27.117 7.10131C27.1124 7.16109 27.1079 7.2205 27.106 7.28104L27.1319 7.32673V39.2568L26.4141 39.4342ZM2.92025 33.272L23.7486 37.0235C24.7097 37.2428 25.659 37.5402 26.3703 38.1666V7.50303C26.3524 7.44782 26.3436 7.39109 26.3436 7.33359C26.3436 7.24601 26.3486 7.16033 26.3551 7.07427C26.2241 5.70918 25.0555 4.64413 23.6808 4.64413L23.6134 4.63842L2.92025 0.911331V33.272Z" fill="#2C5871"/>
<path d="M26.7373 7.07155C26.6444 5.973 25.97 5.03894 25.0249 4.57629V37.6738C25.7659 37.9876 26.3771 38.5477 26.751 39.2563V7.4272C26.735 7.39865 26.7243 7.36742 26.7243 7.33315C26.7243 7.24481 26.7304 7.15875 26.7373 7.07155Z" fill="#CCEEF5"/>
<path d="M26.4139 39.4346C26.0815 38.8044 25.5358 38.304 24.8763 38.0245L24.644 37.9263V3.96631L25.192 4.23438C26.2776 4.76595 27.0152 5.84051 27.1165 7.03959L27.1191 7.07044L27.1168 7.10128C27.1123 7.16106 27.1077 7.22046 27.1058 7.28101L27.1317 7.3267V39.2567L26.4139 39.4346ZM25.4056 37.4309C25.762 37.6106 26.0872 37.8437 26.3701 38.1197V7.503C26.3522 7.44779 26.3435 7.39105 26.3435 7.33356C26.3435 7.24636 26.3488 7.1603 26.3553 7.07424C26.2875 6.37132 25.9387 5.72476 25.4056 5.2762V37.4309Z" fill="#2C5871"/>
<path d="M16.5685 8.16568L5.58984 5.50021V4.54065L16.5685 7.20612V8.16568Z" fill="#CCEEF5"/>
<path d="M16.9492 8.65L5.20898 5.79948V4.05664L16.9492 6.90679V8.65ZM5.97055 5.20089L16.1877 7.68168V7.50576L5.97055 5.02497V5.20089Z" fill="#2C5871"/>
<rect x="5.01367" y="9.78162" width="1" height="18.3078" transform="rotate(-77.9955 5.01367 9.78162)" fill="#2C5871"/>
<rect x="5.01367" y="11.661" width="1" height="18.3078" transform="rotate(-77.9955 5.01367 11.661)" fill="#2C5871"/>
<rect x="5.01367" y="13.5396" width="1" height="18.3078" transform="rotate(-77.9955 5.01367 13.5396)" fill="#2C5871"/>
<rect x="5.01367" y="15.4189" width="1" height="18.3078" transform="rotate(-77.9955 5.01367 15.4189)" fill="#2C5871"/>
<rect x="5.01367" y="17.2983" width="1" height="18.3078" transform="rotate(-77.9955 5.01367 17.2983)" fill="#2C5871"/>
<rect x="5.01367" y="19.1777" width="1" height="18.3078" transform="rotate(-77.9955 5.01367 19.1777)" fill="#2C5871"/>
<rect x="5.01367" y="21.0563" width="1" height="18.3078" transform="rotate(-77.9955 5.01367 21.0563)" fill="#2C5871"/>
<rect x="5.01367" y="22.9357" width="1" height="18.3078" transform="rotate(-77.9955 5.01367 22.9357)" fill="#2C5871"/>
<rect x="5.01367" y="24.8151" width="1" height="18.3078" transform="rotate(-77.9955 5.01367 24.8151)" fill="#2C5871"/>
<rect x="5.01367" y="26.6936" width="1" height="18.3078" transform="rotate(-77.9955 5.01367 26.6936)" fill="#2C5871"/>
<rect x="5.01367" y="28.573" width="1" height="18.3078" transform="rotate(-77.9955 5.01367 28.573)" fill="#2C5871"/>
<rect x="5.01367" y="30.4524" width="1" height="18.3078" transform="rotate(-77.9955 5.01367 30.4524)" fill="#2C5871"/>
<rect x="30.4829" y="8.70728" width="18.3081" height="1" transform="rotate(-12.0008 30.4829 8.70728)" fill="#2C5871"/>
<rect x="30.4829" y="10.5867" width="18.3081" height="1" transform="rotate(-12.0008 30.4829 10.5867)" fill="#2C5871"/>
<rect x="30.4829" y="12.4653" width="18.3081" height="1" transform="rotate(-12.0008 30.4829 12.4653)" fill="#2C5871"/>
<rect x="30.4829" y="14.3447" width="18.3081" height="1" transform="rotate(-12.0008 30.4829 14.3447)" fill="#2C5871"/>
<rect x="30.4829" y="16.2241" width="18.3081" height="1" transform="rotate(-12.0008 30.4829 16.2241)" fill="#2C5871"/>
<rect x="30.4829" y="18.1034" width="18.3081" height="1" transform="rotate(-12.0008 30.4829 18.1034)" fill="#2C5871"/>
<rect x="30.4829" y="19.9821" width="18.3081" height="1" transform="rotate(-12.0008 30.4829 19.9821)" fill="#2C5871"/>
<rect x="30.4829" y="21.8615" width="18.3081" height="1" transform="rotate(-12.0008 30.4829 21.8615)" fill="#2C5871"/>
<rect x="30.4829" y="23.7407" width="18.3081" height="1" transform="rotate(-12.0008 30.4829 23.7407)" fill="#2C5871"/>
<rect x="30.4829" y="25.6194" width="18.3081" height="1" transform="rotate(-12.0008 30.4829 25.6194)" fill="#2C5871"/>
<rect x="30.4829" y="27.4988" width="18.3081" height="1" transform="rotate(-12.0008 30.4829 27.4988)" fill="#2C5871"/>
<rect x="30.4829" y="29.3782" width="18.3081" height="1" transform="rotate(-12.0008 30.4829 29.3782)" fill="#2C5871"/>
<path d="M41.6689 45.3542C38.8523 44.0363 35.3971 44.5302 33.0716 46.8564C30.7447 49.1837 30.2516 52.6367 31.5687 55.4537C34.3853 56.7716 37.8386 56.2773 40.166 53.9515C42.4922 51.6253 42.9868 48.1712 41.6689 45.3542Z" fill="#CCEEF5"/>
<path d="M34.8023 56.5526C33.6352 56.5526 32.4609 56.2917 31.4069 55.799C31.3261 55.7609 31.2614 55.6962 31.2233 55.6155C29.8038 52.5795 30.4385 48.9514 32.8021 46.5875C34.3054 45.0834 36.3056 44.2556 38.4338 44.2556C39.6021 44.2556 40.7764 44.5161 41.83 45.0096C41.9107 45.0473 41.9758 45.1124 42.0139 45.1931C43.4335 48.2283 42.7991 51.8568 40.4348 54.221C38.9304 55.7247 36.9301 56.5526 34.8023 56.5526ZM31.8558 55.1665C32.7762 55.5751 33.7921 55.791 34.8019 55.791C36.7268 55.791 38.5359 55.0424 39.8964 53.6822C42.0021 51.5765 42.5904 48.362 41.3814 45.6417C40.4607 45.2327 39.4448 45.0172 38.4338 45.0172C36.509 45.0172 34.7002 45.7662 33.3405 47.1259C31.2355 49.2313 30.6468 52.4458 31.8558 55.1665Z" fill="#2C5871"/>
<path d="M31.874 55.5291C31.7766 55.5291 31.6791 55.4918 31.6048 55.4175C31.4559 55.2686 31.4559 55.028 31.6048 54.8791L41.3997 45.085C41.5482 44.9365 41.7892 44.9365 41.9381 45.085C42.0866 45.2339 42.0866 45.4749 41.9381 45.6234L32.1432 55.4175C32.069 55.4918 31.9715 55.5291 31.874 55.5291Z" fill="#2C5871"/>
<path d="M26.9341 60.4701C26.8366 60.4701 26.7391 60.4328 26.6649 60.3585C26.516 60.2096 26.516 59.969 26.6649 59.8201L31.2792 55.2061C31.4281 55.0573 31.6691 55.0573 31.8176 55.2061C31.9665 55.3546 31.9665 55.5957 31.8176 55.7446L27.2033 60.3585C27.1291 60.4328 27.0316 60.4701 26.9341 60.4701Z" fill="#2C5871"/>
<path d="M41.8789 50.7781C41.8728 50.7781 41.8671 50.7781 41.8613 50.7777L37.0951 50.5614C36.8853 50.5515 36.7223 50.374 36.7318 50.1638C36.7417 49.9533 36.9378 49.7827 37.1294 49.8006L41.8956 50.0169C42.1058 50.0264 42.2684 50.2042 42.2589 50.4144C42.2497 50.6189 42.081 50.7781 41.8789 50.7781Z" fill="#2C5871"/>
<path d="M40.2124 54.0432C40.2063 54.0432 40.2005 54.0432 40.1945 54.0428L33.9131 53.7573C33.7033 53.7477 33.5407 53.5695 33.5502 53.3593C33.5597 53.1491 33.7364 52.9846 33.9481 52.9964L40.2295 53.282C40.4393 53.2915 40.6019 53.4697 40.5924 53.68C40.5832 53.884 40.4146 54.0432 40.2124 54.0432Z" fill="#2C5871"/>
<path d="M36.8418 50.2917C36.6392 50.2917 36.4705 50.1326 36.4614 49.9281L36.2451 45.1607C36.2352 44.9509 36.3981 44.7731 36.6083 44.7632C36.806 44.7449 36.9963 44.9163 37.0059 45.1268L37.2225 49.8938C37.2317 50.104 37.0691 50.2818 36.8589 50.2914C36.8532 50.2917 36.8475 50.2917 36.8418 50.2917Z" fill="#2C5871"/>
<path d="M33.6944 53.5224C33.4922 53.5224 33.3235 53.3628 33.3144 53.1588L33.0307 46.8789C33.0211 46.6687 33.1837 46.4909 33.3939 46.4814C33.6049 46.4627 33.782 46.6344 33.7915 46.8446L34.0752 53.1245C34.0843 53.3347 33.9221 53.5125 33.7119 53.522C33.7058 53.5224 33.7005 53.5224 33.6944 53.5224Z" fill="#2C5871"/>
<path d="M11.7856 45.3542C14.6019 44.0363 18.0575 44.5302 20.3833 46.8564C22.7099 49.1837 23.203 52.6367 21.8859 55.4537C19.0696 56.7716 15.6159 56.2773 13.2886 53.9515C10.9624 51.6253 10.4678 48.1712 11.7856 45.3542Z" fill="#CCEEF5"/>
<path d="M18.6526 56.5522C16.5248 56.5522 14.5245 55.7244 13.0197 54.2207C10.6554 51.8564 10.021 48.2283 11.441 45.1927C11.4787 45.112 11.5438 45.0469 11.6245 45.0096C12.6785 44.5161 13.8528 44.2552 15.0207 44.2552C17.1493 44.2552 19.1495 45.0835 20.6528 46.5872C23.0164 48.951 23.6507 52.5791 22.2316 55.6151C22.1935 55.6958 22.1284 55.7609 22.0477 55.7986C20.994 56.2917 19.8201 56.5522 18.6526 56.5522ZM12.0735 45.6417C10.8641 48.362 11.4524 51.5765 13.5581 53.6823C14.919 55.042 16.7281 55.7906 18.6526 55.7906C19.6632 55.7906 20.6787 55.5755 21.5991 55.1665C22.8077 52.4458 22.2198 49.2313 20.1144 47.1256C18.755 45.7658 16.9459 45.0168 15.0207 45.0168C14.0101 45.0168 12.9942 45.2327 12.0735 45.6417Z" fill="#2C5871"/>
<path d="M21.5802 55.5291C21.4827 55.5291 21.3853 55.4918 21.311 55.4175L11.5162 45.6234C11.3677 45.4749 11.3677 45.2339 11.5162 45.085C11.665 44.9365 11.9061 44.9365 12.0546 45.085L21.8494 54.8791C21.9983 55.028 21.9983 55.2686 21.8494 55.4175C21.7752 55.4918 21.6777 55.5291 21.5802 55.5291Z" fill="#2C5871"/>
<path d="M26.5211 60.4701C26.4236 60.4701 26.3261 60.4328 26.2519 60.3585L21.6375 55.7446C21.4887 55.5957 21.4887 55.3546 21.6375 55.2061C21.7864 55.0573 22.0271 55.0573 22.176 55.2061L26.7903 59.8201C26.9392 59.969 26.9392 60.2096 26.7903 60.3585C26.716 60.4328 26.6185 60.4701 26.5211 60.4701Z" fill="#2C5871"/>
<path d="M11.5757 50.778C11.3735 50.778 11.2049 50.6188 11.1957 50.4144C11.1862 50.2042 11.3488 50.0264 11.559 50.0168L16.3256 49.8006C16.3309 49.8002 16.337 49.8002 16.3431 49.8002C16.5453 49.8002 16.7136 49.9594 16.7231 50.1638C16.7327 50.374 16.5697 50.5515 16.3595 50.5614L11.5932 50.7776C11.5875 50.778 11.5818 50.778 11.5757 50.778Z" fill="#2C5871"/>
<path d="M13.2422 54.0432C13.04 54.0432 12.8714 53.884 12.8622 53.6799C12.8527 53.4697 13.0153 53.2915 13.2251 53.282L19.5069 52.9964C19.7178 52.9835 19.8956 53.1491 19.9048 53.3593C19.9143 53.5695 19.7517 53.7477 19.5419 53.7572L13.2601 54.0428C13.254 54.0432 13.2483 54.0432 13.2422 54.0432Z" fill="#2C5871"/>
<path d="M16.6131 50.2918C16.6067 50.2918 16.601 50.2918 16.5952 50.2915C16.3851 50.2819 16.2225 50.1041 16.2324 49.8939L16.4483 45.1269C16.4582 44.9164 16.6478 44.7461 16.8458 44.7633C17.056 44.7732 17.219 44.951 17.2091 45.1608L16.9928 49.9282C16.9836 50.1327 16.815 50.2918 16.6131 50.2918Z" fill="#2C5871"/>
<path d="M19.7601 53.5224C19.754 53.5224 19.7487 53.5224 19.7426 53.522C19.5324 53.5125 19.3698 53.3346 19.3793 53.1244L19.6634 46.8446C19.6729 46.6344 19.8492 46.4638 20.0609 46.4813C20.2711 46.4909 20.4337 46.6687 20.4242 46.8789L20.1401 53.1587C20.131 53.3628 19.9623 53.5224 19.7601 53.5224Z" fill="#2C5871"/>
<path d="M26.7353 68.6973C26.5243 68.6973 26.3545 68.527 26.3545 68.3165V39.3013C26.3545 39.0907 26.5243 38.9205 26.7353 38.9205C26.9455 38.9205 27.1161 39.0907 27.1161 39.3013V68.3165C27.1161 68.527 26.9455 68.6973 26.7353 68.6973Z" fill="#2C5871"/>
</svg>
