<svg width="70" height="64" viewBox="0 0 70 64" fill="none" xmlns="http://www.w3.org/2000/svg">
<path d="M51.748 20.389C53.772 22.4139 53.9291 25.7142 52.4052 28.6273C53.2869 28.1667 54.1338 27.5532 54.8987 26.7886C58.1886 23.4987 58.7168 18.6949 56.0802 16.0571C53.4425 13.4203 48.638 13.9485 45.3485 17.2386C44.5841 18.003 43.9703 18.8499 43.5098 19.7315C46.4229 18.2077 49.7235 18.3648 51.748 20.389Z" fill="#F4DA80"/>
<path d="M51.6152 29.4176L52.1093 28.4725C53.6215 25.5815 53.3872 22.5015 51.5116 20.6254C50.4786 19.5926 49.0774 19.0464 47.4599 19.0464C46.2041 19.0464 44.8918 19.3858 43.6645 20.0277L42.7197 20.5221L43.2138 19.5767C43.7043 18.6376 44.3433 17.7715 45.1121 17.0024C46.9915 15.123 49.4249 14.045 51.7888 14.045C53.5631 14.045 55.1711 14.6759 56.3164 15.8212C59.0792 18.5849 58.5495 23.6109 55.1352 27.0249C54.3658 27.794 53.4997 28.433 52.5603 28.9238L51.6152 29.4176ZM47.4599 18.3781C49.233 18.3781 50.8398 19.0084 51.9842 20.1528C53.8543 22.0235 54.2742 24.9387 53.1525 27.7952C53.6897 27.4355 54.1952 27.0198 54.6626 26.5524C57.816 23.3987 58.346 18.7965 55.8439 16.2937C54.8102 15.2601 53.4075 14.7136 51.7888 14.7136C49.6008 14.7136 47.3398 15.72 45.5849 17.475C45.1169 17.943 44.7003 18.4491 44.34 18.9872C45.3682 18.5867 46.4301 18.3781 47.4599 18.3781Z" fill="#2C5871"/>
<path d="M57.1023 17.4729L52.7668 21.8084C53.7598 23.7749 53.611 26.3211 52.4053 28.6272C53.2866 28.1667 54.1336 27.5535 54.8988 26.7885C57.6622 24.0248 58.4765 20.1915 57.1023 17.4729Z" fill="#F4DA80"/>
<path d="M51.6152 29.4173L52.1093 28.4725C53.2717 26.2498 53.4057 23.815 52.4684 21.9592L52.3595 21.7432L57.1924 16.9103L57.4007 17.3221C58.871 20.2307 57.9391 24.2205 55.1352 27.0249C54.3658 27.7938 53.4997 28.4327 52.5603 28.9235L51.6152 29.4173ZM53.1705 21.8775C53.9606 23.6127 53.945 25.7513 53.1493 27.7977C53.688 27.437 54.1943 27.0205 54.6627 26.5524C57.1284 24.0861 58.0486 20.661 56.9976 18.0505L53.1705 21.8775Z" fill="#2C5871"/>
<path d="M53.1354 23.3625L65.9555 10.54C65.3698 10.083 64.6345 10.0019 64.1592 10.3467L52.1406 22.3653L53.1354 23.3625Z" fill="url(#paint0_linear_1_1982)"/>
<path d="M53.1352 23.6968C53.0466 23.6968 52.9613 23.6615 52.8988 23.5987L51.904 22.6015C51.7735 22.471 51.7735 22.2594 51.904 22.1293L63.9226 10.1103C63.9352 10.0981 63.9487 10.0864 63.963 10.0762C64.546 9.65396 65.4725 9.73955 66.1606 10.2767C66.2363 10.3357 66.283 10.4243 66.2887 10.5197C66.2946 10.6152 66.2593 10.7089 66.1917 10.7765L53.3716 23.599C53.3088 23.6615 53.2238 23.6968 53.1352 23.6968ZM52.6127 22.3657L53.1355 22.8897L65.4217 10.6014C65.0515 10.4288 64.6397 10.4249 64.3748 10.6035L52.6127 22.3657Z" fill="#2C5871"/>
<path d="M49.771 19.997L52.1403 22.3654L64.1589 10.3468C64.1625 10.3423 64.1628 10.3378 64.1658 10.3333L64.1523 10.3441C64.5402 9.81317 64.3957 8.95726 63.7884 8.34855C63.1791 7.74194 62.3244 7.59739 61.7935 7.98464C61.7959 7.98015 61.8007 7.97566 61.8043 7.97177C61.8004 7.97417 61.7944 7.97566 61.7899 7.97866L49.771 19.997Z" fill="url(#paint1_linear_1_1982)"/>
<path d="M52.1403 22.6996C52.0547 22.6996 51.9694 22.667 51.9042 22.6017L49.5349 20.2333C49.472 20.1708 49.437 20.0855 49.437 19.9969C49.437 19.9083 49.472 19.8233 49.5346 19.7605L61.5541 7.74158C61.5861 7.70955 61.6229 7.68561 61.6624 7.66915L61.6639 7.66855C61.9018 7.51563 62.1868 7.43542 62.4938 7.43542C63.0346 7.43542 63.5924 7.68202 64.0243 8.11177C64.7147 8.80428 64.8978 9.80174 64.4699 10.4712C64.4678 10.476 64.4654 10.4811 64.463 10.4859L64.4621 10.4874C64.4462 10.5218 64.4241 10.5541 64.396 10.5822L64.3947 10.5834L52.3767 22.6017C52.3112 22.667 52.2259 22.6996 52.1403 22.6996ZM50.2435 19.9969L52.1403 21.8928L63.8737 10.1591C63.8767 10.1552 63.8791 10.151 63.8824 10.1468C64.1736 9.74847 64.0282 9.06195 63.5517 8.58461C63.2497 8.28385 62.8541 8.10369 62.4938 8.10369C62.2996 8.10369 62.1257 8.15606 61.9904 8.25482C61.9859 8.25781 61.9818 8.26081 61.9772 8.2635L50.2435 19.9969Z" fill="#2C5871"/>
<path d="M61.7905 7.97802C62.1358 7.50218 62.0541 6.76688 61.5965 6.18091L48.7759 19.0016L49.7709 19.9969L61.7905 7.97802Z" fill="url(#paint2_linear_1_1982)"/>
<path d="M49.7708 20.3313C49.6822 20.3313 49.5972 20.2959 49.5343 20.2334L48.5393 19.238C48.4088 19.1075 48.4088 18.8957 48.5393 18.7652L61.3599 5.94483C61.4279 5.8772 61.5233 5.84398 61.6167 5.84727C61.7122 5.85325 61.8008 5.89994 61.8597 5.97536C62.4083 6.67774 62.4909 7.58183 62.0608 8.17438C62.0503 8.18875 62.039 8.20191 62.0267 8.21448L50.0072 20.2334C49.9443 20.2959 49.8593 20.3313 49.7708 20.3313ZM49.2482 19.0016L49.7708 19.5244L61.5338 7.76229C61.7182 7.48906 61.7125 7.09282 61.5353 6.71455L49.2482 19.0016Z" fill="#2C5871"/>
<path d="M61.5942 6.17848C62.0542 6.76415 62.1365 7.50125 61.7906 7.97799C61.7951 7.97499 61.8004 7.97409 61.8043 7.9717C61.8007 7.97559 61.7959 7.97978 61.7936 7.98457C62.3245 7.59732 63.1792 7.74186 63.7885 8.34848C64.3957 8.95719 64.5402 9.8128 64.1524 10.344C64.1569 10.3407 64.162 10.3362 64.1659 10.3332C64.1629 10.3374 64.162 10.3428 64.1584 10.3473C64.6348 10.0004 65.3725 10.0833 65.9588 10.543L68.4529 3.68408L61.5942 6.17848Z" fill="#F0EDDA"/>
<path d="M66.1154 11.0904L65.7524 10.8061C65.296 10.4479 64.6987 10.3668 64.3557 10.617L64.2851 10.52L64.0418 10.2946L63.8544 10.2102L63.8862 10.1504L63.8826 10.1471C64.1738 9.74847 64.0283 9.06225 63.5519 8.58462C63.2499 8.28385 62.854 8.10399 62.4937 8.10399C62.2997 8.10399 62.1259 8.15607 61.9906 8.25482L61.9654 8.23358L61.9795 8.25662L61.9218 8.28505L61.8679 8.15128L61.4944 7.83525L61.5225 7.78348L61.5201 7.78168C61.7772 7.42795 61.6994 6.85365 61.3316 6.385L61.0464 6.02228L69.0117 3.12537L66.1154 11.0904ZM64.8552 9.79935C65.1676 9.79935 65.4881 9.88195 65.7871 10.037L67.8939 4.24313L62.1001 6.35028C62.2832 6.70731 62.3611 7.08947 62.3282 7.44351C62.9072 7.38695 63.5483 7.63743 64.0244 8.11177C64.5107 8.59928 64.7453 9.23822 64.6921 9.80713C64.7457 9.80204 64.7998 9.79935 64.8552 9.79935Z" fill="#2C5871"/>
<path d="M65.1919 4.87008C65.3987 5.33126 65.6746 5.74754 66.0319 6.10546C66.3878 6.46129 66.8064 6.73871 67.2673 6.94551L68.4527 3.68408L65.1919 4.87008Z" fill="#66CDE1"/>
<path d="M67.2669 7.27948C67.2202 7.27948 67.1735 7.2696 67.1301 7.25015C66.6171 7.02031 66.1682 6.71446 65.7951 6.34157C65.4216 5.96719 65.116 5.51829 64.8868 5.00684C64.8488 4.92214 64.8476 4.82518 64.8838 4.73989C64.92 4.6543 64.99 4.58786 65.0771 4.55614L68.3383 3.37014C68.4609 3.32585 68.5971 3.35577 68.6887 3.44765C68.7806 3.53952 68.8108 3.67629 68.7668 3.79809L67.5811 7.05952C67.5491 7.1469 67.4826 7.21693 67.3973 7.25314C67.3554 7.2708 67.3112 7.27948 67.2669 7.27948ZM65.6583 5.05592C65.8283 5.36057 66.0327 5.6332 66.2682 5.86933C66.5031 6.10455 66.7755 6.30865 67.081 6.47864L67.8938 4.2428L65.6583 5.05592Z" fill="#2C5871"/>
<rect x="51.5269" y="23.7867" width="1.44713" height="1.40819" transform="rotate(-44.9829 51.5269 23.7867)" fill="#66CDE1"/>
<path d="M52.0994 24.7308C52.0141 24.7308 51.9285 24.6985 51.8633 24.6332L50.8664 23.6384C50.8036 23.5759 50.7686 23.4906 50.7686 23.402C50.7686 23.3131 50.8036 23.2281 50.8664 23.1653L51.8911 22.1424C52.0213 22.0116 52.2326 22.0119 52.3636 22.1424L53.359 23.1384C53.4216 23.2012 53.4569 23.2862 53.4566 23.3748C53.4566 23.4637 53.4216 23.5484 53.3587 23.6112L52.3355 24.6332C52.2703 24.6985 52.1847 24.7308 52.0994 24.7308ZM51.5754 23.4017L52.0994 23.9245L52.6501 23.3745L52.1269 22.8511L51.5754 23.4017Z" fill="#2C5871"/>
<rect x="49.1587" y="23.3596" width="1.44713" height="3.34954" transform="rotate(-45.0073 49.1587 23.3596)" fill="#66CDE1"/>
<path d="M51.1023 23.736C51.0167 23.736 50.9311 23.7034 50.8659 23.6381L48.4987 21.2688C48.3682 21.1384 48.3682 20.9265 48.499 20.7963L49.5219 19.774C49.6521 19.6435 49.8637 19.6432 49.9941 19.774L52.3631 22.1424C52.426 22.205 52.4613 22.2902 52.461 22.3788C52.461 22.4674 52.426 22.5524 52.3631 22.6152L51.3385 23.6385C51.2732 23.7034 51.1876 23.736 51.1023 23.736ZM49.2077 21.0327L51.1026 22.9292L51.6542 22.3785L49.758 20.4827L49.2077 21.0327Z" fill="#2C5871"/>
<rect x="48.1631" y="20.4221" width="1.44702" height="1.40745" transform="rotate(-44.9742 48.1631 20.4221)" fill="#66CDE1"/>
<path d="M48.7347 21.3667C48.6494 21.3667 48.5638 21.3343 48.4986 21.2691L47.5026 20.2743C47.4398 20.2118 47.4048 20.1268 47.4048 20.0382C47.4045 19.9496 47.4398 19.8643 47.5026 19.8015L48.5267 18.778C48.5893 18.7157 48.6743 18.6804 48.7629 18.6804C48.8517 18.6804 48.9367 18.7157 48.9993 18.7783L49.9941 19.7742C50.1245 19.9047 50.1245 20.1163 49.9937 20.2468L48.9708 21.2691C48.9056 21.3343 48.8203 21.3667 48.7347 21.3667ZM48.2116 20.0379L48.7347 20.5604L49.2851 20.0101L48.7626 19.4872L48.2116 20.0379Z" fill="#2C5871"/>
<path d="M34.7122 21.9209C34.6266 21.9209 34.5413 21.8883 34.4758 21.8231C34.3453 21.6926 34.3453 21.481 34.4761 21.3505L35.66 20.1669C35.7904 20.0362 36.0017 20.0362 36.1325 20.1669C36.263 20.2974 36.263 20.509 36.1322 20.6395L34.9483 21.8231C34.8831 21.8883 34.7978 21.9209 34.7122 21.9209Z" fill="#2C5871"/>
<path d="M35.8964 21.9209C35.8108 21.9209 35.7255 21.8883 35.6603 21.823L34.4761 20.6391C34.3453 20.5086 34.3453 20.297 34.4758 20.1666C34.6065 20.0358 34.8178 20.0358 34.9483 20.1666L36.1325 21.3505C36.263 21.481 36.263 21.6925 36.1328 21.823C36.0673 21.8883 35.982 21.9209 35.8964 21.9209Z" fill="#2C5871"/>
<path d="M64.3817 24.295C64.296 24.295 64.2108 24.2624 64.1452 24.1972C64.0147 24.0667 64.0147 23.8551 64.1452 23.7246L65.3291 22.5407C65.4602 22.4099 65.6712 22.4099 65.802 22.5407C65.9325 22.6712 65.9325 22.8828 65.802 23.0133L64.618 24.1972C64.5525 24.2624 64.4672 24.295 64.3817 24.295Z" fill="#2C5871"/>
<path d="M65.5659 24.2953C65.4803 24.2953 65.395 24.2627 65.3294 24.1975L64.1452 23.0133C64.0147 22.8828 64.0147 22.6712 64.1452 22.5407C64.276 22.4099 64.487 22.4099 64.618 22.5407L65.8022 23.7249C65.9327 23.8554 65.9327 24.067 65.8022 24.1975C65.7367 24.2627 65.6514 24.2953 65.5659 24.2953Z" fill="#2C5871"/>
<path d="M59.0432 37.3503C58.9576 37.3503 58.8723 37.3179 58.8068 37.2524C58.6763 37.1219 58.6763 36.9103 58.8071 36.7799L59.991 35.5962C60.1212 35.4655 60.3328 35.4655 60.4636 35.5962C60.5941 35.7267 60.5941 35.9383 60.4633 36.0688L59.2793 37.2527C59.2141 37.3179 59.1288 37.3503 59.0432 37.3503Z" fill="#2C5871"/>
<path d="M60.2271 37.3509C60.1416 37.3509 60.0562 37.3185 59.9907 37.253L58.8068 36.0688C58.6763 35.9383 58.6763 35.7267 58.8071 35.5962C58.9376 35.4655 59.1486 35.4655 59.2796 35.5962L60.4636 36.7808C60.5941 36.9109 60.5941 37.1225 60.4633 37.2533C60.398 37.3185 60.3127 37.3509 60.2271 37.3509Z" fill="#2C5871"/>
<path d="M38.1213 6.34317C38.0358 6.34317 37.9505 6.31055 37.8852 6.24531C37.7545 6.11483 37.7545 5.90325 37.8849 5.77277L39.0688 4.58856C39.1999 4.45778 39.4112 4.45778 39.5414 4.58856C39.6722 4.71904 39.6722 4.93063 39.5417 5.06111L38.3578 6.24531C38.2922 6.31055 38.2069 6.34317 38.1213 6.34317Z" fill="#2C5871"/>
<path d="M39.3059 6.34337C39.2203 6.34337 39.135 6.31075 39.0697 6.24551L37.8852 5.06161C37.7545 4.93112 37.7545 4.71954 37.8849 4.58906C38.0157 4.45858 38.2273 4.45828 38.3575 4.58906L39.542 5.77297C39.6728 5.90315 39.6728 6.11473 39.5423 6.24551C39.4767 6.31075 39.3914 6.34337 39.3059 6.34337Z" fill="#2C5871"/>
<path d="M66.3098 60.3463C66.2243 60.3463 66.1389 60.314 66.0734 60.2485C65.9429 60.118 65.9429 59.9064 66.0737 59.7759L67.2579 58.5923C67.3884 58.4618 67.5997 58.4615 67.7305 58.5926C67.861 58.7228 67.861 58.9344 67.7302 59.0652L66.5459 60.2488C66.4807 60.314 66.3954 60.3463 66.3098 60.3463Z" fill="#2C5871"/>
<path d="M67.4942 60.3464C67.4087 60.3464 67.3234 60.3141 67.2578 60.2486L66.0739 59.0644C65.9434 58.9339 65.9434 58.7223 66.0742 58.5918C66.2044 58.4614 66.4157 58.4611 66.5467 58.5921L67.7307 59.7763C67.8611 59.9065 67.8611 60.1181 67.7303 60.2489C67.6651 60.3141 67.5798 60.3464 67.4942 60.3464Z" fill="#2C5871"/>
<path d="M17.3508 20.5829C17.2653 20.5829 17.18 20.5503 17.1144 20.4851C16.9839 20.3546 16.9839 20.143 17.1147 20.0125L18.2986 18.8289C18.4291 18.6981 18.6404 18.6981 18.7712 18.8289C18.9017 18.9594 18.9017 19.171 18.7709 19.3015L17.587 20.4851C17.5217 20.5503 17.4364 20.5829 17.3508 20.5829Z" fill="#2C5871"/>
<path d="M18.5349 20.5832C18.4493 20.5832 18.364 20.5505 18.2987 20.4853L17.1142 19.3011C16.9835 19.1706 16.9835 18.959 17.1139 18.8286C17.2447 18.6978 17.4563 18.6978 17.5865 18.8286L18.771 20.0128C18.9018 20.1432 18.9018 20.3548 18.7713 20.4853C18.7057 20.5505 18.6205 20.5832 18.5349 20.5832Z" fill="#2C5871"/>
<path d="M26.5261 39.2449C25.4413 39.2449 24.3564 38.8319 23.5301 38.006C22.7296 37.2057 22.2891 36.1418 22.2891 35.01C22.2891 33.8782 22.7299 32.8139 23.5307 32.0137L24.0033 32.4863C23.3287 33.1605 22.9573 34.0568 22.9573 35.01C22.957 35.9632 23.3284 36.8592 24.0024 37.5331C25.3943 38.925 27.6576 38.925 29.0492 37.5331L45.7718 20.8103L46.2446 21.2829L29.5218 38.006C28.6958 38.8319 27.6109 39.2449 26.5261 39.2449Z" fill="#2C5871"/>
<path d="M24.2202 58.2626C22.8382 56.8806 22.0771 55.0431 22.0771 53.0891C22.0774 51.1352 22.8385 49.298 24.2208 47.916L44.929 27.2075L45.4018 27.6801L24.6934 48.3888C23.4373 49.6443 22.7454 51.3136 22.7454 53.0891C22.7454 54.8647 23.437 56.5343 24.6927 57.7903L24.2202 58.2626Z" fill="#2C5871"/>
<path d="M45.5286 63.1942C42.0454 63.1942 38.7711 61.8379 36.3081 59.3746C35.7805 58.8476 35.2948 58.2715 34.8647 57.6631L35.4106 57.2773C35.8188 57.8549 36.2797 58.4014 36.781 58.9021C39.1174 61.239 42.2238 62.5259 45.5283 62.5259C48.8325 62.5262 51.9392 61.2394 54.2756 58.9027L54.7484 59.3755C52.2858 61.8379 49.0115 63.1942 45.5286 63.1942Z" fill="#2C5871"/>
<path d="M33.1577 50.0393L32.4897 50.033C32.5221 46.5962 33.8781 43.3653 36.3075 40.9356L52.0754 25.1683L52.5482 25.6409L36.7803 41.4084C34.4751 43.7134 33.1888 46.7785 33.1577 50.0393Z" fill="#2C5871"/>
<path d="M53.572 57.3534L53.0992 56.8806C57.0148 52.965 57.0148 46.5938 53.0992 42.6782C51.2024 40.7811 48.6805 39.7367 45.9979 39.7367C43.3155 39.7367 40.7936 40.7811 38.8971 42.6782C34.9812 46.5938 34.9812 52.965 38.8971 56.8806L38.4243 57.3534C34.2486 53.1771 34.2486 46.3817 38.4243 42.2054C40.4473 40.1823 43.1368 39.0681 45.9979 39.0681C48.8592 39.0681 51.5487 40.1823 53.572 42.2054C57.7477 46.3817 57.7477 53.1771 53.572 57.3534Z" fill="#2C5871"/>
<path d="M45.9983 57.1646C41.9268 57.1634 38.6139 53.8508 38.6133 49.7796H39.2815C39.2821 53.4821 42.2952 56.4955 45.9983 56.4967C49.7021 56.496 52.7151 53.4827 52.7151 49.7796C52.7151 47.9852 52.0163 46.2982 50.748 45.0299C49.4797 43.7616 47.793 43.0628 45.9995 43.0628H45.9983V42.3945C47.9714 42.3945 49.826 43.1625 51.2206 44.557C52.6152 45.9519 53.3834 47.8065 53.3834 49.7796C53.3834 53.8514 50.0705 57.164 45.9983 57.1646Z" fill="#2C5871"/>
<path d="M14.5907 46.5633C11.3948 46.5633 8.2318 45.1436 6.12255 42.431C2.49841 37.7684 3.34265 31.0259 8.00465 27.4006C10.2635 25.6445 13.0728 24.8735 15.9092 25.2288C18.7484 25.5843 21.2787 27.0241 23.0345 29.2833L22.5066 29.6933C20.8606 27.5753 18.488 26.2253 15.8263 25.8919C13.1661 25.5595 10.5329 26.2816 8.41495 27.9279C4.04383 31.3273 3.25197 37.6493 6.65046 42.0207C10.0493 46.3924 16.3719 47.1843 20.7436 43.7846L21.1539 44.3122C19.2036 45.8286 16.8887 46.5633 14.5907 46.5633Z" fill="#2C5871"/>
<path d="M14.5874 43.5996C12.2761 43.5996 9.98851 42.5728 8.46254 40.6117C5.84154 37.2392 6.45235 32.3629 9.82421 29.7414C11.4576 28.4713 13.4867 27.9119 15.5411 28.1705C17.5941 28.4273 19.4241 29.4684 20.6939 31.1018L20.1663 31.5121C19.0061 30.0197 17.3341 29.0683 15.4579 28.8337C13.583 28.5988 11.7273 29.1084 10.2345 30.269C7.15353 32.6643 6.5957 37.1201 8.99045 40.2014C11.387 43.2827 15.8428 43.8399 18.9232 41.4443L19.3335 41.9722C17.9236 43.0687 16.2492 43.5996 14.5874 43.5996Z" fill="#2C5871"/>
<path d="M25.767 40.7506C24.9144 40.7506 24.0687 40.5486 23.2882 40.149C21.9906 39.4853 21.0293 38.3558 20.5816 36.9684C20.1333 35.5825 20.2521 34.1044 20.9162 32.8068C21.5803 31.5095 22.7094 30.5482 24.0962 30.1002C25.4839 29.6525 26.9611 29.7713 28.2588 30.4351C29.5561 31.0992 30.5173 32.2286 30.9647 33.616L30.3288 33.821C29.9362 32.6039 29.0928 31.6127 27.9544 31.03C26.8163 30.4474 25.5192 30.3432 24.3018 30.7361C23.085 31.1291 22.0938 31.9727 21.5111 33.1114C20.9285 34.2498 20.824 35.5469 21.2176 36.7631C21.6105 37.9805 22.4538 38.9717 23.5922 39.5541C24.731 40.1362 26.0283 40.2406 27.2451 39.8474L27.4507 40.4833C26.898 40.662 26.3312 40.7506 25.767 40.7506Z" fill="#2C5871"/>
<path d="M9.45281 58.8144C7.69251 58.8144 6.03756 58.1291 4.7929 56.8841C2.22338 54.3143 2.22338 50.1332 4.7926 47.5637L5.26544 48.0366C2.95659 50.3454 2.95659 54.1024 5.26574 56.4119C6.38381 57.5303 7.87118 58.1465 9.45281 58.1461C11.0347 58.1461 12.5221 57.53 13.6408 56.411L14.1136 56.8839C12.8684 58.1288 11.2134 58.8144 9.45281 58.8144Z" fill="#2C5871"/>
<path d="M9.01092 61.9801C8.12718 61.9801 7.23955 61.8416 6.37436 61.562C4.20227 60.8609 2.43329 59.3552 1.39334 57.3229C0.353678 55.2912 0.167533 52.976 0.869318 50.8042L1.50526 51.0095C0.858544 53.0117 1.03002 55.1457 1.98828 57.0189C2.94684 58.892 4.57755 60.2794 6.57996 60.9261C8.58207 61.5731 10.7158 61.4013 12.5887 60.4431C14.4618 59.4845 15.8495 57.8538 16.4965 55.8511C17.8307 51.7179 15.5538 47.2696 11.4215 45.9352L11.6265 45.2992C16.1102 46.7468 18.58 51.5725 17.1325 56.0567C16.4307 58.2294 14.9251 59.9984 12.8933 61.038C11.6708 61.6635 10.3454 61.9801 9.01092 61.9801Z" fill="#2C5871"/>
<path d="M27.8638 63.5324C26.2019 63.5324 24.5895 63.0057 23.2263 62.0023C21.5384 60.7588 20.4356 58.9333 20.1211 56.8608L20.7822 56.7603C21.0698 58.6565 22.0786 60.3267 23.6228 61.4639C25.1668 62.6011 27.0614 63.0692 28.9573 62.781C32.8711 62.1872 35.572 58.52 34.978 54.6065C34.3836 50.692 30.7158 47.9908 26.8023 48.5855L26.7017 47.925C30.9777 47.2726 34.9891 50.227 35.6388 54.5059C36.2882 58.7842 33.3359 62.7927 29.0579 63.4421C28.6586 63.5025 28.2597 63.5324 27.8638 63.5324Z" fill="#2C5871"/>
<path d="M55.9682 16.1687C54.7116 16.4883 52.7849 17.7728 50.9297 19.6285C49.0746 21.4828 47.7898 23.4098 47.4702 24.6667C48.7268 24.3468 50.6538 23.062 52.509 21.2075C54.3644 19.352 55.6486 17.4256 55.9682 16.1687Z" fill="#F4DA80"/>
<path d="M47.0078 25.1288L47.1464 24.5842C47.4926 23.2222 48.8519 21.2326 50.6936 19.3918C52.535 17.5504 54.5245 16.1912 55.8859 15.8446L56.4306 15.7061L56.292 16.251C55.9458 17.6121 54.5868 19.6019 52.7457 21.4436C50.9037 23.285 48.9136 24.644 47.5525 24.9903L47.0078 25.1288ZM55.4256 16.7113C54.2229 17.2299 52.6296 18.401 51.1664 19.8647C49.7024 21.3275 48.5317 22.9208 48.0128 24.1236C49.2155 23.6052 50.8091 22.4342 52.2731 20.9711C53.7363 19.5074 54.907 17.9138 55.4256 16.7113Z" fill="#2C5871"/>
<path d="M32.6759 14.4794C28.9866 14.4794 25.9957 11.4882 25.9957 7.79881C25.9957 4.25906 28.7486 1.36424 32.2303 1.1344C31.4238 0.896185 30.5712 0.766602 29.6875 0.766602C24.7355 0.766602 20.7217 4.78069 20.7217 9.73238C20.7217 14.6844 24.7355 18.6985 29.6875 18.6985C34.2274 18.6985 37.9769 15.3233 38.5695 10.9456C37.4445 13.0483 35.2275 14.4794 32.6759 14.4794Z" fill="#F0EDDA"/>
<path d="M29.6874 18.9977C24.5786 18.9977 20.4224 14.8411 20.4224 9.73233C20.4224 4.62352 24.5786 0.467285 29.6874 0.467285C30.5771 0.467285 31.4612 0.595073 32.315 0.847356L32.25 1.43302C28.9105 1.65329 26.2949 4.44965 26.2949 7.79876C26.2949 11.3176 29.1577 14.1801 32.6759 14.1801C35.0341 14.1801 37.1913 12.8866 38.3058 10.8046L38.8663 10.986C38.248 15.5534 34.3018 18.9977 29.6874 18.9977ZM29.6874 1.06582C24.9087 1.06582 21.0209 4.95362 21.0209 9.73233C21.0209 14.5114 24.9087 18.3991 29.6874 18.3991C33.4884 18.3991 36.8049 15.9006 37.9371 12.3865C36.6275 13.8895 34.7208 14.7786 32.6759 14.7786C28.8273 14.7786 25.6964 11.6474 25.6964 7.79876C25.6964 4.6759 27.7754 1.99295 30.6517 1.11969C30.3317 1.08378 30.01 1.06582 29.6874 1.06582Z" fill="#2C5871"/>
<defs>
<linearGradient id="paint0_linear_1_1982" x1="55.5943" y1="13.441" x2="55.5943" y2="13.441" gradientUnits="userSpaceOnUse">
<stop stop-color="#8DBA78"/>
<stop offset="1" stop-color="#648F4F"/>
</linearGradient>
<linearGradient id="paint1_linear_1_1982" x1="53.4202" y1="11.4186" x2="53.4202" y2="11.4186" gradientUnits="userSpaceOnUse">
<stop stop-color="#8DBA78"/>
<stop offset="1" stop-color="#648F4F"/>
</linearGradient>
<linearGradient id="paint2_linear_1_1982" x1="52.0828" y1="9.63491" x2="52.0828" y2="9.63491" gradientUnits="userSpaceOnUse">
<stop stop-color="#8DBA78"/>
<stop offset="1" stop-color="#648F4F"/>
</linearGradient>
</defs>
</svg>
