<svg width="56" height="64" viewBox="0 0 56 64" fill="none" xmlns="http://www.w3.org/2000/svg">
<rect x="2.20605" y="36.6111" width="14.5716" height="20.4008" fill="#DAD8C6"/>
<path d="M17.1084 57.3425H1.87549V36.2804H17.1084V57.3425ZM2.53681 56.6812H16.4471V36.9417H2.53681V56.6812Z" fill="#2C5871"/>
<path d="M41.0375 0.830566H10.3468C9.1098 0.830566 8.10889 1.83412 8.10889 3.06947V43.473C8.10889 44.707 9.1098 45.7089 10.3468 45.7089H41.0375C42.2709 45.7089 43.2728 44.707 43.2728 43.473V3.06947C43.2728 1.83412 42.2709 0.830566 41.0375 0.830566Z" fill="url(#paint0_linear_1_1979)"/>
<path d="M41.0371 46.0396H10.3464C8.93019 46.0396 7.77783 44.8882 7.77783 43.473V3.06945C7.77783 1.65256 8.93019 0.499878 10.3464 0.499878H41.0371C42.452 0.499878 43.603 1.65256 43.603 3.06945V43.473C43.603 44.8882 42.452 46.0396 41.0371 46.0396ZM10.3464 1.1612C9.29458 1.1612 8.43916 2.01728 8.43916 3.06945V43.473C8.43916 44.5235 9.29458 45.3782 10.3464 45.3782H41.0371C42.0873 45.3782 42.9417 44.5235 42.9417 43.473V3.06945C42.9417 2.01728 42.0873 1.1612 41.0371 1.1612H10.3464Z" fill="#2C5871"/>
<path d="M25.6902 44.5667C25.1943 44.5667 24.7915 44.1636 24.7915 43.6676C24.7915 43.168 25.1943 42.7689 25.6902 42.7689C26.1872 42.7689 26.5916 43.168 26.5916 43.6676C26.5916 44.1636 26.1872 44.5667 25.6902 44.5667Z" fill="white"/>
<rect x="12.0986" y="5.16846" width="27.1827" height="36.2021" fill="white"/>
<path d="M39.2814 41.7012H12.0987C11.9159 41.7012 11.7681 41.5534 11.7681 41.3706V5.16843C11.7681 4.98557 11.9159 4.83777 12.0987 4.83777H39.2814C39.4639 4.83777 39.6121 4.98557 39.6121 5.16843V41.3706C39.6121 41.5534 39.4639 41.7012 39.2814 41.7012ZM12.4294 41.0399H38.9508V5.49909H12.4294V41.0399Z" fill="#2C5871"/>
<path d="M2.04785 32.1947L3.22897 29.5203L3.19657 29.519L4.43358 26.7944L5.53203 24.3078L5.55584 24.322L5.58295 24.2628L13.4491 24.3822C13.451 24.4371 13.4577 24.4906 13.456 24.5469L13.4355 25.8559C13.4001 28.0261 11.6126 29.7561 9.44343 29.7207L8.58338 29.6929L7.36687 33.3444C9.83725 35.1667 11.5071 38.6439 11.5071 42.6363C11.5071 45.7036 10.5214 48.4656 8.94512 50.4082H2.07298V32.203L2.04785 32.1947Z" fill="#F0EDDA"/>
<path d="M9.10244 50.7389H1.74191V32.4415L1.62354 32.4021L1.74489 32.0612L2.7296 29.8315L2.72431 29.8312L2.89493 29.3825L4.13226 26.6579L5.37985 23.833L5.54551 23.9315L13.7681 24.0565L13.782 24.4193C13.7849 24.4646 13.7876 24.5099 13.7863 24.5562L13.7658 25.8613C13.7281 28.172 11.8185 30.0514 9.50849 30.0518L8.8184 30.0313L7.75466 33.2245C10.2786 35.2035 11.8373 38.7832 11.8373 42.6364C11.8373 45.6877 10.9012 48.5215 9.2013 50.6166L9.10244 50.7389ZM2.40323 50.0776H8.78566C10.3064 48.1366 11.176 45.4348 11.176 42.6364C11.176 38.892 9.64108 35.4336 7.17005 33.6103L6.97661 33.4678L8.34721 29.3544L9.50849 29.3904C11.4597 29.3901 13.0727 27.8026 13.1044 25.8504L13.1223 24.7079L5.79384 24.5965L5.70324 24.7946L5.6834 24.783L4.73572 26.928L3.67165 29.2714L3.53112 29.654L2.40323 32.2073V50.0776Z" fill="#2C5871"/>
<rect x="0.369141" y="50.5994" width="18.3084" height="13.0958" fill="#F4DA80"/>
<path d="M19.0083 63.6956H18.347V50.9304H0.699897V63.6956H0.0385742V50.269H19.0083V63.6956Z" fill="#2C5871"/>
<rect x="10.3643" y="51.1549" width="7.4832" height="11.9852" fill="#F0CA67"/>
<rect x="15.0044" y="7.89246" width="14.0551" height="1.22841" fill="#CCEEF5"/>
<path d="M29.3903 9.4515H14.6738V7.56177H29.3903V9.4515ZM15.3352 8.79017H28.7289V8.22309H15.3352V8.79017Z" fill="#2C5871"/>
<rect x="14.6348" y="12.0916" width="22.9258" height="1" fill="#2C5871"/>
<rect x="14.6348" y="14.498" width="22.9258" height="1" fill="#2C5871"/>
<rect x="14.6348" y="16.903" width="22.9258" height="1" fill="#2C5871"/>
<rect x="14.6348" y="19.3088" width="22.9258" height="1" fill="#2C5871"/>
<rect x="14.6348" y="21.7151" width="22.9258" height="1" fill="#2C5871"/>
<rect x="14.6348" y="24.1207" width="22.9258" height="1" fill="#2C5871"/>
<rect x="14.6348" y="26.5266" width="22.9258" height="1" fill="#2C5871"/>
<rect x="14.6348" y="28.9321" width="22.9258" height="1" fill="#2C5871"/>
<rect x="14.6348" y="31.3376" width="22.9258" height="1" fill="#2C5871"/>
<rect x="14.6348" y="33.7435" width="22.9258" height="1" fill="#2C5871"/>
<rect x="14.6348" y="36.1492" width="22.9258" height="1" fill="#2C5871"/>
<rect x="14.6348" y="38.5551" width="22.9258" height="1" fill="#2C5871"/>
<path d="M32.3641 51.2769V47.717C32.4044 47.7147 32.4421 47.71 32.4828 47.71H33.4295C34.9994 47.71 36.2712 48.9831 36.2712 50.5524V54.397L37.1587 55.2835V50.4869C37.1587 50.4142 37.1663 50.3431 37.1702 50.2713V36.4798C37.1702 35.4174 38.0323 34.5547 39.094 34.5547C40.1571 34.5547 41.0198 35.4174 41.0198 36.4798V45.6239C41.319 45.5535 41.6289 45.5115 41.9473 45.4993V42.4297C41.9473 41.3666 42.809 40.5053 43.8721 40.5053C44.9342 40.5053 45.7962 41.3666 45.7962 42.4297V45.4877H46.7234V44.1839C46.7234 43.1208 47.5861 42.2581 48.6482 42.2581C49.7109 42.2581 50.5739 43.1208 50.5739 44.1839V45.5026C50.8963 45.5221 51.2104 45.5697 51.514 45.6467C51.7498 44.8502 52.4855 44.2685 53.3581 44.2685C54.4215 44.2685 55.2829 45.1312 55.2829 46.1936V50.4869V55.2713V58.6116C55.2829 60.2921 54.4516 61.7754 53.1805 62.6827V63.432H40.8426C40.0357 63.2105 39.3093 62.7958 38.7197 62.236L32.3452 55.9977V51.2736C32.3512 51.2742 32.3574 51.2756 32.3641 51.2769Z" fill="#F0EDDA"/>
<path d="M53.5113 63.7626L40.755 63.7507C39.9079 63.5183 39.1255 63.0775 38.492 62.4757L32.0146 56.1369V50.9042L32.0335 50.9062V47.4068L32.343 47.3873C32.4105 47.382 32.4458 47.3794 32.4829 47.3794H33.4292C35.1787 47.3794 36.6019 48.8029 36.6019 50.5524V54.2601L36.8281 54.4856V50.4873C36.8281 50.4304 36.8317 50.3745 36.8357 50.3189L36.84 50.2535L36.8397 36.4798C36.8397 35.2358 37.8508 34.224 39.0941 34.224C40.3384 34.224 41.3502 35.2358 41.3502 36.4798V45.2241C41.4385 45.2106 41.5275 45.1996 41.6167 45.1907V42.4297C41.6167 41.1864 42.6286 40.1746 43.8718 40.1746C45.1151 40.1746 46.127 41.1864 46.127 42.4297V45.157H46.3925V44.1838C46.3925 42.9396 47.4043 41.9274 48.6482 41.9274C49.8922 41.9274 50.9047 42.9396 50.9047 44.1838V45.2C51.0399 45.2155 51.1738 45.2364 51.3058 45.2618C51.6672 44.4689 52.4717 43.9378 53.3582 43.9378C54.6021 43.9378 55.6136 44.9497 55.6136 46.1936V58.6116C55.6136 60.2702 54.831 61.8415 53.5113 62.8497V63.7626ZM40.8876 63.1013H52.85V62.5127L52.9885 62.4139C54.2179 61.536 54.9523 60.1145 54.9523 58.6116V46.1936C54.9523 45.3144 54.2371 44.5992 53.3582 44.5992C52.6582 44.5992 52.0299 45.0687 51.8312 45.7406L51.7409 46.0452L51.4331 45.9674C51.152 45.8963 50.8564 45.8507 50.5542 45.8325L50.2434 45.814V44.1838C50.2434 43.3043 49.5278 42.5887 48.6482 42.5887C47.7693 42.5887 47.0538 43.3043 47.0538 44.1838V45.8183H45.4656V42.4297C45.4656 41.5508 44.7507 40.8359 43.8718 40.8359C42.9929 40.8359 42.2781 41.5508 42.2781 42.4297V45.8173L41.96 45.8299C41.666 45.8411 41.375 45.8801 41.0953 45.9459L40.6889 46.0415V36.4798C40.6889 35.6005 39.9733 34.8853 39.0941 34.8853C38.2155 34.8853 37.501 35.6005 37.501 36.4798L37.4954 50.3666C37.4924 50.4062 37.4894 50.4462 37.4894 50.4873V56.0814L35.9406 54.5339V50.5524C35.9406 49.1673 34.814 48.0407 33.4292 48.0407H32.6948V51.6803L32.676 51.6763V55.8588L38.9509 61.9995C39.4916 62.5131 40.1618 62.8947 40.8876 63.1013Z" fill="#2C5871"/>
<defs>
<linearGradient id="paint0_linear_1_1979" x1="16.8999" y1="12.0502" x2="16.8999" y2="12.0502" gradientUnits="userSpaceOnUse">
<stop stop-color="#8DBA78"/>
<stop offset="1" stop-color="#648F4F"/>
</linearGradient>
</defs>
</svg>
