<svg width="56" height="52" viewBox="0 0 56 52" fill="none" xmlns="http://www.w3.org/2000/svg">
<path d="M4.5918 6.11693L47.9153 49.4389C48.3115 48.9308 48.3817 48.2938 48.083 47.8818L5.45566 5.25452L4.5918 6.11693Z" fill="#F0EDDA"/>
<path d="M47.9152 49.7447C47.8341 49.7447 47.7567 49.7125 47.6991 49.6552L4.37565 6.33288C4.31829 6.27552 4.28613 6.19788 4.28613 6.11677C4.28613 6.03566 4.31829 5.95802 4.37594 5.90066L5.2398 5.03825C5.35915 4.91948 5.55238 4.91918 5.67173 5.03854L48.299 47.6658C48.3104 47.6774 48.3208 47.6896 48.3301 47.7026C48.7066 48.2218 48.6351 49.0129 48.1559 49.6268C48.1021 49.696 48.0212 49.7386 47.9338 49.7441C47.9277 49.7444 47.9213 49.7447 47.9152 49.7447ZM5.02398 6.11706L47.857 48.9492C47.9986 48.6334 48.0007 48.3061 47.848 48.0792L5.45533 5.68658L5.02398 6.11706Z" fill="#2C5871"/>
<path d="M7.50968 3.20068L5.45605 5.2546L48.0834 47.8819C48.0871 47.8848 48.0912 47.8848 48.0956 47.8874C48.0924 47.8842 48.0883 47.8796 48.0854 47.8755C48.546 48.2119 49.2876 48.0873 49.8154 47.5606C50.3415 47.0319 50.4664 46.2915 50.1309 45.8315C50.135 45.8332 50.1387 45.837 50.1425 45.8404C50.1402 45.837 50.1387 45.832 50.1361 45.828L7.50968 3.20068Z" fill="#F0EDDA"/>
<path d="M48.6935 48.3679C48.4258 48.3679 48.177 48.2983 47.969 48.1659L47.9591 48.1613C47.9473 48.1561 47.9354 48.15 47.9244 48.1431L47.9232 48.1425L47.9221 48.1416L47.9212 48.141L47.9197 48.1402L47.9186 48.1396C47.9012 48.1286 47.885 48.1155 47.8693 48.1002L47.8682 48.099L47.8673 48.0982L47.865 48.0964L5.23969 5.47057C5.12063 5.3515 5.12063 5.15799 5.23969 5.03864L7.29332 2.98472C7.40803 2.87 7.61053 2.87 7.72554 2.98472L50.3526 45.6123C50.3558 45.6158 50.3592 45.6193 50.3621 45.6227C50.3957 45.6555 50.4215 45.696 50.4369 45.7415C50.7877 46.3267 50.624 47.1807 50.0316 47.776C49.6544 48.1526 49.1666 48.3679 48.6935 48.3679ZM48.2543 47.6213C48.2581 47.6236 48.2616 47.6263 48.2653 47.6289C48.5944 47.8687 49.2016 47.7407 49.5994 47.3444C50.0055 46.9362 50.131 46.3502 49.8839 46.0112C49.881 46.0077 49.8781 46.0037 49.8757 45.9996L7.50943 3.63276L5.88773 5.25475L48.2543 47.6213Z" fill="#2C5871"/>
<path d="M50.1368 45.8285C50.549 46.1278 51.1866 46.0571 51.6942 45.6599L8.37247 2.33765L7.50977 3.20064L50.1368 45.8285Z" fill="#F0EDDA"/>
<path d="M50.7403 46.3184C50.4471 46.3184 50.1759 46.2344 49.9572 46.0756C49.9442 46.066 49.932 46.0559 49.9204 46.0446L7.2934 3.41644C7.17434 3.29737 7.17434 3.10386 7.2934 2.98451L8.1561 2.1218C8.27111 2.00709 8.47361 2.00709 8.58861 2.1218L51.91 45.4435C51.9717 45.5055 52.0045 45.591 51.999 45.6781C51.9935 45.7656 51.9512 45.8465 51.8822 45.9003C51.5378 46.1698 51.1322 46.3184 50.7403 46.3184ZM50.3338 45.5936C50.4451 45.6683 50.5847 45.7077 50.74 45.7077C50.8926 45.7077 51.0514 45.6712 51.2047 45.6023L8.37221 2.76956L7.94144 3.20062L50.3338 45.5936Z" fill="#2C5871"/>
<path d="M51.6968 45.6581C51.1895 46.0569 50.5499 46.1283 50.137 45.8284L50.1362 45.8278C50.1391 45.8319 50.1405 45.8368 50.1429 45.8403C50.1391 45.8368 50.135 45.833 50.1312 45.8313C50.4667 46.2913 50.3416 47.0318 49.8158 47.5602C49.288 48.0871 48.5463 48.2114 48.0857 47.8754C48.0886 47.8794 48.0927 47.884 48.0956 47.8872C48.0915 47.8846 48.0869 47.884 48.0828 47.8811C48.3832 48.2943 48.312 48.9336 47.9131 49.4417L53.8593 51.604L51.6968 45.6581Z" fill="white"/>
<path d="M53.859 51.9097C53.8237 51.9097 53.7883 51.9039 53.7545 51.8914L47.8085 49.7289C47.7164 49.6955 47.6463 49.6197 47.6191 49.5258C47.5924 49.4316 47.6121 49.3302 47.6724 49.2532C47.9864 48.8534 48.0542 48.365 47.8381 48.0646C47.772 47.9756 47.7596 47.8583 47.803 47.7587C47.8187 47.7219 47.8407 47.6877 47.8705 47.6587C47.9774 47.5527 48.1446 47.5402 48.2657 47.6289C48.5947 47.8688 49.2017 47.7407 49.5994 47.3444C50.0058 46.9362 50.131 46.3502 49.8842 46.0112C49.8031 45.9 49.806 45.7488 49.8917 45.641C49.9126 45.615 49.9369 45.5932 49.9638 45.5756C50.0652 45.5063 50.2005 45.504 50.3059 45.5738C50.6252 45.8055 51.1191 45.7236 51.5073 45.418C51.5852 45.3577 51.6869 45.338 51.7802 45.3647C51.8744 45.3913 51.95 45.4617 51.9836 45.5538L54.1461 51.4997C54.1864 51.6113 54.1589 51.7364 54.0751 51.8204C54.0163 51.8787 53.9384 51.9097 53.859 51.9097ZM48.3737 49.2842L53.348 51.0933L51.5392 46.1196C51.242 46.2702 50.9172 46.3403 50.6156 46.3134C50.655 46.8062 50.4502 47.3557 50.0319 47.776C49.6202 48.1868 49.0643 48.4024 48.5666 48.3627C48.5904 48.6619 48.5246 48.9829 48.3737 49.2842Z" fill="#2C5871"/>
<path d="M52.8306 48.777C52.4308 48.9569 52.0695 49.195 51.7595 49.5052C51.4507 49.8141 51.2109 50.1768 51.0312 50.5763L53.8587 51.6044L52.8306 48.777Z" fill="#F0EDDA"/>
<path d="M53.8585 51.9098C53.8235 51.9098 53.7881 51.904 53.7542 51.8915L50.9268 50.8634C50.8472 50.8344 50.7828 50.7736 50.7498 50.6951C50.7165 50.6172 50.7177 50.5285 50.7524 50.4509C50.9535 50.0042 51.2197 49.6134 51.5433 49.2895C51.8666 48.9659 52.2577 48.6997 52.7053 48.4984C52.7829 48.4639 52.8715 48.4627 52.9492 48.4955C53.0277 48.5288 53.0885 48.5928 53.1178 48.6728L54.1456 51.4999C54.1862 51.6114 54.1584 51.7365 54.0746 51.8205C54.0161 51.8788 53.9382 51.9098 53.8585 51.9098ZM51.4587 50.4069L53.3475 51.0934L52.6609 49.2049C52.4031 49.3501 52.1737 49.5233 51.9755 49.7214C51.7774 49.9196 51.6041 50.1493 51.4587 50.4069Z" fill="#2C5871"/>
<rect x="4.05176" y="5.61035" width="1.22056" height="1.25456" transform="rotate(-44.9903 4.05176 5.61035)" fill="#F0EDDA"/>
<path d="M4.58094 6.41136C4.49982 6.41136 4.42219 6.37921 4.36483 6.32185L3.47895 5.43452C3.35988 5.31546 3.35988 5.12223 3.47895 5.00288L4.34107 4.13902C4.45492 4.0243 4.65799 4.0243 4.77329 4.13902L5.66062 5.02663C5.77968 5.14628 5.77968 5.3395 5.66033 5.45885L4.79705 6.32185C4.73969 6.37921 4.66205 6.41136 4.58094 6.41136ZM4.1267 5.2187L4.58122 5.67381L5.01258 5.24274L4.55718 4.78735L4.1267 5.2187Z" fill="#2C5871"/>
<rect x="5.4082" y="3.55688" width="2.90386" height="1.25446" transform="rotate(-45 5.4082 3.55688)" fill="#F0EDDA"/>
<path d="M5.44461 5.54844C5.3635 5.54844 5.28586 5.51599 5.2285 5.45864L4.34147 4.57102C4.28411 4.51366 4.25195 4.43602 4.25195 4.35491C4.25195 4.27379 4.28411 4.19616 4.34176 4.1388L6.39567 2.08633C6.51532 1.96727 6.70854 1.96727 6.82789 2.08662L7.71406 2.97337C7.83313 3.09301 7.83313 3.28623 7.71406 3.40559L5.66073 5.45864C5.60337 5.51599 5.52573 5.54844 5.44461 5.54844ZM4.98951 4.3552L5.44461 4.81059L7.06602 3.18948L6.6115 2.73466L4.98951 4.3552Z" fill="#2C5871"/>
<rect x="6.96875" y="2.69409" width="1.22035" height="1.25436" transform="rotate(-44.9999 6.96875 2.69409)" fill="#F0EDDA"/>
<path d="M7.49843 3.49511C7.41732 3.49511 7.33968 3.46267 7.28232 3.4056L6.39615 2.51856C6.2768 2.3995 6.2768 2.20598 6.39615 2.08663L7.25799 1.22335C7.31506 1.16599 7.39298 1.13383 7.4741 1.13354C7.55521 1.13354 7.63285 1.16599 7.69021 1.22306L8.57754 2.11068C8.6966 2.23003 8.6966 2.42325 8.57754 2.54261L7.71454 3.4056C7.65719 3.46267 7.57955 3.49511 7.49843 3.49511ZM7.0439 2.30245L7.49843 2.75727L7.92949 2.3265L7.47439 1.87139L7.0439 2.30245Z" fill="#2C5871"/>
<path d="M4.26317 44.4617C5.05143 45.9736 4.25593 48.5519 2.28516 50.7941L2.55834 51.0699L2.58615 51.0444L7.14242 46.518C7.02046 46.2842 7.05436 45.9898 7.25106 45.7932C7.49382 45.5533 7.88664 45.5559 8.12651 45.7969C8.3684 46.038 8.36637 46.4313 8.12477 46.6724C7.9272 46.8682 7.63258 46.9015 7.3988 46.7781L2.8431 51.3017L2.81558 51.3295L3.09021 51.6044C5.34546 49.6495 7.9301 48.8737 9.43563 49.6704C9.96026 48.7787 10.6063 47.8514 11.3624 46.9343C12.1144 46.024 12.8945 45.2216 13.6634 44.5408C12.9119 43.9944 12.1364 43.3319 11.3798 42.5674C10.6228 41.8053 9.96374 41.0245 9.4223 40.2708C8.73747 41.0347 7.92836 41.8093 7.01293 42.5538C6.09142 43.3029 5.15832 43.944 4.26317 44.4617Z" fill="white"/>
<path d="M3.07652 51.9999L2.40762 51.3302L2.40849 51.3293L1.88965 50.8058L2.0681 50.6028C3.94212 48.4706 4.73906 46.0001 4.00672 44.5954L3.87867 44.3495L4.11854 44.211C5.03136 43.6829 5.94389 43.0496 6.83064 42.3289C7.70782 41.6157 8.50709 40.8581 9.20669 40.0774L9.44743 39.8088L9.65803 40.1017C10.2102 40.8703 10.8588 41.631 11.5856 42.3631C12.3076 43.0922 13.0642 43.746 13.8342 44.3066L14.126 44.5186L13.856 44.7577C13.0668 45.4561 12.3032 46.2507 11.5862 47.1187C10.8617 47.9973 10.2224 48.9052 9.68613 49.8171L9.54534 50.0558L9.30084 49.9263C8.95466 49.7432 8.53634 49.6505 8.05661 49.6505C6.63538 49.6505 4.84972 50.4629 3.28046 51.8232L3.07652 51.9999ZM7.47259 47.1134L4.06611 50.4959C5.42505 49.5894 6.85149 49.0712 8.05661 49.0712C8.52389 49.0712 8.948 49.1474 9.32112 49.298C9.8443 48.4359 10.455 47.5798 11.1392 46.7498C11.7954 45.9555 12.4895 45.2212 13.2073 44.5624C12.5112 44.0331 11.8284 43.4317 11.1743 42.7709C10.5167 42.1087 9.9202 41.4224 9.39818 40.7269C8.73739 41.4372 7.9981 42.1261 7.19623 42.7782C6.35873 43.459 5.49834 44.0638 4.63535 44.5789C5.17852 45.9471 4.70227 47.9167 3.40879 49.8192L6.80717 46.4428C6.73301 46.1395 6.81905 45.8159 7.04675 45.5882C7.39351 45.2452 7.99085 45.2493 8.3324 45.5925C8.50274 45.7623 8.59718 45.9897 8.59718 46.2325C8.59718 46.4761 8.50245 46.7052 8.32979 46.8773C8.10615 47.0989 7.77706 47.1879 7.47259 47.1134ZM7.44768 46.4758L7.53459 46.5216C7.65974 46.5882 7.82109 46.5659 7.92133 46.4665C7.98332 46.4046 8.0178 46.3214 8.0178 46.2325C8.0178 46.145 7.9839 46.0633 7.92249 46.0019C7.79734 45.8764 7.57978 45.8759 7.45521 45.999C7.35498 46.0992 7.33209 46.2542 7.39959 46.3837L7.44768 46.4758Z" fill="#2C5871"/>
<path d="M42.306 15.4248C46.3556 11.4015 42.7292 7.75172 38.6787 11.7741C31.7786 18.4428 16.3551 33.6368 9.45605 40.3053C10.8466 41.7062 12.2385 43.1066 13.6294 44.5081C20.4238 37.5769 35.6422 22.2224 42.306 15.4248Z" fill="#CCEEF5"/>
<path d="M13.6309 44.9205L9.04395 40.301L9.25513 40.0971C12.6961 36.7711 18.3538 31.2299 23.8255 25.8712C29.3288 20.4815 35.0189 14.9084 38.4778 11.5656C39.6641 10.388 40.944 9.73767 42.0796 9.73767C43.057 9.73767 43.8432 10.2307 44.1836 11.0564C44.7169 12.3498 44.0918 14.0596 42.5109 15.6303C39.2006 19.0067 33.6689 24.607 28.3192 30.0228C22.8791 35.5304 17.2532 41.2254 13.8366 44.7107L13.6309 44.9205ZM9.86928 40.3094L13.6286 44.0954C17.0632 40.5933 22.574 35.0147 27.9073 29.6155C33.2561 24.2003 38.7875 18.6002 42.0998 15.2218C43.7609 13.5715 43.9883 12.1024 43.6482 11.2774C43.3965 10.667 42.8249 10.3171 42.0796 10.3171C41.0981 10.3171 39.9628 10.9074 38.8834 11.9796C35.423 15.3238 29.7332 20.8963 24.2308 26.2852C18.8691 31.5364 13.3285 36.9626 9.86928 40.3094Z" fill="#2C5871"/>
<rect x="9.04004" y="46.2847" width="1" height="6.12864" transform="rotate(-44.7816 9.04004 46.2847)" fill="#CCEEF5"/>
<path d="M13.0655 45.6207L8.33887 40.8581L9.39074 39.8179L14.1147 44.5778L13.0655 45.6207ZM9.1587 40.8622L13.0684 44.8008L13.2955 44.5749L9.38668 40.6366L9.1587 40.8622Z" fill="#2C5871"/>
<path d="M35.5407 23.5967L53.0074 6.23406C54.1714 5.0779 54.2887 3.30672 53.2684 2.2786L51.9966 0.997296C50.9749 -0.030531 49.2043 0.0734684 48.0383 1.23021L30.5713 18.5923L35.5407 23.5967Z" fill="#CCEEF5"/>
<path d="M35.5397 24.0068L30.1621 18.591L47.8345 1.02493C48.4909 0.373413 49.3667 0 50.2372 0C50.9962 0 51.6941 0.28187 52.2025 0.793177L53.4748 2.07477C54.6058 3.21442 54.4879 5.17274 53.212 6.43985L35.5397 24.0068ZM30.9814 18.5936L35.5426 23.1869L52.8036 6.02878C53.8529 4.98676 53.9696 3.39606 53.0634 2.48295L51.7914 1.20164C51.3928 0.800419 50.8409 0.579384 50.2372 0.579384C49.5182 0.579384 48.7916 0.891672 48.2427 1.436L30.9814 18.5936Z" fill="#2C5871"/>
<path d="M33.6725 14.4344L33.2646 14.0227L45.2069 2.19342C45.7104 1.69341 46.1305 1.29653 46.5688 1.11924C47.1041 0.902553 47.6006 1.03523 48.0873 1.5251L53.2774 6.62107L52.8716 7.03446L47.6789 1.93588C47.2797 1.53408 47.014 1.56392 46.786 1.65633C46.448 1.79307 46.0717 2.15113 45.6151 2.60478L33.6725 14.4344Z" fill="#2C5871"/>
<path d="M28.2176 15.4659C25.5223 15.4888 22.829 15.5108 20.1349 15.5334C16.6728 15.6244 13.8889 17.6149 13.9222 19.9466C13.9422 22.3371 13.9619 24.7277 13.9818 27.1182C14.0146 29.4398 15.1739 31.1924 20.0474 33.4494C22.9522 34.7953 25.7294 35.7896 28.3923 36.3406L28.2176 15.4659Z" fill="url(#paint0_linear_89_3)"/>
<path d="M28.3927 36.6303C28.373 36.6303 28.3533 36.6283 28.3339 36.6242C25.7518 36.09 23.0015 35.1372 19.9258 33.7122C14.7792 31.3287 13.725 29.4233 13.6928 27.1223L13.6331 19.949C13.5972 17.4501 16.5107 15.3388 20.1278 15.2441L28.2154 15.1763C28.2872 15.1737 28.3663 15.2056 28.4211 15.2594C28.4761 15.3133 28.5071 15.3866 28.5077 15.4634L28.6824 36.338C28.6832 36.4258 28.6441 36.5089 28.5766 36.5643C28.5242 36.6074 28.459 36.6303 28.3927 36.6303ZM27.9309 15.758L20.1379 15.8232C16.8415 15.9095 14.181 17.7575 14.2125 19.9423L14.2722 27.1157C14.3017 29.244 15.2763 30.9205 20.1695 33.1864C23.0646 34.528 25.6635 35.4443 28.0998 35.9817L27.9309 15.758Z" fill="#2C5871"/>
<path d="M28.2002 15.4657C30.894 15.4428 33.5888 15.4211 36.2832 15.3982C39.7456 15.4309 42.5623 17.3745 42.5678 19.7065C42.588 22.097 42.6077 24.4879 42.6283 26.8775C42.6356 29.1994 41.5046 30.9706 36.6708 33.3081C33.7892 34.7041 31.0282 35.745 28.3752 36.3403L28.2002 15.4657Z" fill="url(#paint1_linear_89_3)"/>
<path d="M28.3748 36.6299C28.3099 36.6299 28.2462 36.6082 28.1947 36.5673C28.126 36.5129 28.086 36.4303 28.0851 36.3428L27.9102 15.4682C27.9087 15.308 28.0376 15.1773 28.1973 15.1759L36.2805 15.1084C39.9034 15.1429 42.8513 17.2049 42.8571 19.7055L42.9177 26.8751C42.9249 29.1773 41.9035 31.0994 36.7968 33.569C33.7466 35.0464 31.0122 36.0456 28.438 36.6229C28.4171 36.6279 28.396 36.6299 28.3748 36.6299ZM28.4922 15.753L28.6613 35.9766C31.0898 35.3984 33.673 34.4384 36.5444 33.0473C41.3991 30.6996 42.3449 29.0075 42.3383 26.8783L42.2777 19.7087C42.2725 17.5221 39.5822 15.7191 36.2802 15.6878L28.4922 15.753Z" fill="#2C5871"/>
<path d="M28.2479 29.8016L1.25293 19.6429L1.45108 17.9905L55.1365 17.5951L55.0705 19.1919L28.2479 29.8016Z" fill="#8DBA78"/>
<path d="M28.2486 30.0915C28.2141 30.0915 28.1793 30.0854 28.1463 30.073L1.15135 19.9143C1.02679 19.8674 0.950017 19.7411 0.96595 19.6087L1.16381 17.956C1.18148 17.8115 1.30373 17.7023 1.44945 17.7011L55.1349 17.3057C55.2267 17.3062 55.2902 17.337 55.3455 17.394C55.4005 17.4511 55.4301 17.5281 55.4266 17.6075L55.3603 19.2043C55.3556 19.3187 55.2841 19.4195 55.1778 19.4616L28.3552 30.0712C28.321 30.0848 28.2848 30.0915 28.2486 30.0915ZM1.56822 19.452L28.246 29.4913L54.7893 18.992L54.8351 17.8874L1.70872 18.2785L1.56822 19.452Z" fill="#2C5871"/>
<path d="M28.3143 28.206L1.31934 18.0473L28.1402 7.43506L55.1375 17.5951L28.3143 28.206Z" fill="#8DBA78"/>
<path d="M28.3137 28.4957C28.2792 28.4957 28.2447 28.4894 28.2117 28.4772L1.21674 18.3183C1.10463 18.2763 1.03047 18.1694 1.02931 18.0497C1.02815 17.9301 1.10115 17.822 1.21211 17.778L28.033 7.16571C28.0996 7.13906 28.1737 7.13877 28.2418 7.16397L55.2391 17.324C55.3509 17.366 55.4254 17.4729 55.4265 17.5929C55.4277 17.7125 55.3547 17.8206 55.2435 17.8646L28.4203 28.4752C28.3861 28.4888 28.3499 28.4957 28.3137 28.4957ZM2.12348 18.0405L28.3111 27.8955L54.3324 17.6019L28.1422 7.74538L2.12348 18.0405Z" fill="#2C5871"/>
<path d="M45.2155 28.6331C45.0565 28.6331 44.9273 28.505 44.9258 28.3457L44.872 21.929L27.8595 15.5254C27.7097 15.4692 27.6341 15.302 27.6906 15.1522C27.7465 15.0025 27.9137 14.9274 28.0637 14.9831L45.2619 21.4568C45.374 21.4991 45.4484 21.6057 45.4496 21.7256L45.5052 28.341C45.5067 28.5009 45.378 28.6316 45.2181 28.6331H45.2155Z" fill="#2C5871"/>
<path d="M31.1705 15.0479C31.1771 15.8741 29.8625 16.5522 28.2353 16.5664C26.6078 16.5798 25.2839 15.9225 25.2764 15.0977C25.2697 14.2741 26.582 13.5965 28.2107 13.5826C29.8376 13.569 31.1644 14.2251 31.1705 15.0479Z" fill="url(#paint2_linear_89_3)"/>
<path d="M28.1866 16.8563C26.3711 16.8563 24.9953 16.1014 24.9864 15.1002C24.9782 14.1022 26.3934 13.3085 28.2077 13.2931L28.261 13.2928C30.0768 13.2928 31.4523 14.0466 31.4598 15.0458C31.4679 16.0452 30.0525 16.8404 28.2376 16.8563H28.1866ZM28.261 13.8722L28.2129 13.8725C26.6472 13.8858 25.5611 14.5278 25.5657 15.0953C25.571 15.6541 26.6483 16.277 28.1866 16.277H28.2326C29.799 16.2633 30.8854 15.6197 30.8804 15.0504C30.8761 14.493 29.7993 13.8722 28.261 13.8722Z" fill="#2C5871"/>
<path d="M46.0834 29.9531C46.0881 30.4317 45.7022 30.8248 45.2234 30.8283C44.7436 30.8326 44.3531 30.4465 44.3494 29.9679L44.3233 26.8754C44.3195 26.3972 44.7022 26.0058 45.1828 26.0003C45.6625 25.9968 46.0533 26.3824 46.0574 26.8615L46.0834 29.9531Z" fill="#66CDE1"/>
<path d="M45.2152 31.118C44.5831 31.118 44.0645 30.6032 44.0593 29.9702L44.0332 26.8777C44.0283 26.241 44.5425 25.7175 45.1793 25.7106C45.8224 25.7106 46.3412 26.2256 46.3467 26.8589L46.3728 29.9505C46.3757 30.2593 46.2575 30.551 46.0405 30.7721C45.8236 30.9928 45.5342 31.1156 45.2253 31.118H45.2152ZM45.1891 26.2899C44.8673 26.2934 44.61 26.555 44.6126 26.8731L44.6387 29.9653C44.641 30.2813 44.9 30.5386 45.2152 30.5386V30.8283L45.2204 30.5386C45.3748 30.5374 45.5194 30.476 45.6277 30.3659C45.7361 30.2555 45.7948 30.1098 45.7934 29.9557L45.7674 26.8638C45.7647 26.5475 45.5055 26.2899 45.1891 26.2899Z" fill="#2C5871"/>
<path d="M48.1022 36.1119C47.4211 35.5134 47.2534 34.1707 46.8392 30.5472C46.7033 29.6784 46.0393 28.9722 45.2267 28.9791C45.2198 28.9785 45.2128 28.9808 45.2073 28.9817C45.2004 28.9814 45.1963 28.9791 45.1891 28.9791C44.3767 28.9861 43.7273 29.7036 43.605 30.5733C43.2493 34.2051 43.1065 35.5508 42.4355 36.1582C42.2136 36.9992 43.4709 37.9546 45.2638 37.9491C45.2719 37.948 45.2803 37.9491 45.2896 37.948C45.2939 37.948 45.2983 37.9485 45.3035 37.9491C47.0964 37.9242 48.3369 36.9465 48.1022 36.1119Z" fill="url(#paint3_linear_89_3)"/>
<path d="M45.2888 38.239L45.2757 38.2381L45.2473 38.2387C44.0405 38.2387 42.9266 37.8053 42.4098 37.1344C42.154 36.8027 42.0636 36.4299 42.1546 36.0843L42.1766 36.0011L42.2403 35.9435C42.8406 35.3997 42.9895 33.8786 43.316 30.5451C43.464 29.4897 44.2673 28.6971 45.1859 28.689L45.2215 28.6887L45.2239 28.6893C46.152 28.6893 46.9632 29.4689 47.1248 30.5022C47.5376 34.1115 47.7097 35.3815 48.2929 35.8942L48.3572 35.9507L48.3807 36.0333C48.4771 36.3771 48.3919 36.7517 48.1408 37.0881C47.6315 37.7703 46.5191 38.2216 45.3067 38.2387L45.2888 38.239ZM42.7018 36.303C42.6824 36.4907 42.7786 36.6637 42.8687 36.7807C43.205 37.2175 44.0697 37.6582 45.243 37.6593L45.3258 37.659C46.493 37.6362 47.3467 37.1831 47.6767 36.7413C47.7653 36.6225 47.8595 36.4478 47.8369 36.2607C47.1184 35.5454 46.947 34.0454 46.5507 30.5798C46.4342 29.8374 45.8696 29.2687 45.2384 29.2687L45.1625 29.269C44.5416 29.2901 43.9967 29.8629 43.891 30.6134C43.5425 34.1769 43.4046 35.5866 42.7018 36.303Z" fill="#2C5871"/>
<path d="M46.777 26.8287C46.7842 27.7041 46.08 28.42 45.2034 28.4278C44.3271 28.435 43.6112 27.7314 43.6046 26.8551C43.5965 25.9785 44.3004 25.2632 45.1764 25.2557C46.0534 25.2487 46.7698 25.9524 46.777 26.8287Z" fill="url(#paint4_linear_89_3)"/>
<path d="M45.1903 28.7174C44.1639 28.7174 43.3226 27.8829 43.3145 26.8571C43.3102 26.3562 43.5011 25.8834 43.8522 25.5262C44.2033 25.1693 44.6726 24.9703 45.1735 24.9659C46.2158 24.9659 47.0579 25.8002 47.0663 26.8261C47.0753 27.8597 46.2404 28.7082 45.2059 28.7174H45.1903ZM45.1891 25.5453C44.8325 25.5482 44.5078 25.6855 44.2656 25.9326C44.0228 26.1792 43.891 26.5059 43.8939 26.8521C43.8994 27.5616 44.4811 28.1381 45.1903 28.1381V28.4278L45.201 28.1381C45.916 28.1317 46.493 27.5454 46.4869 26.831C46.4812 26.1221 45.8989 25.5453 45.1891 25.5453Z" fill="#2C5871"/>
<defs>
<linearGradient id="paint0_linear_89_3" x1="17.5395" y1="20.6846" x2="17.5395" y2="20.6846" gradientUnits="userSpaceOnUse">
<stop stop-color="#8DBA78"/>
<stop offset="1" stop-color="#648F4F"/>
</linearGradient>
<linearGradient id="paint1_linear_89_3" x1="31.8072" y1="20.6337" x2="31.8072" y2="20.6337" gradientUnits="userSpaceOnUse">
<stop stop-color="#8DBA78"/>
<stop offset="1" stop-color="#648F4F"/>
</linearGradient>
<linearGradient id="paint2_linear_89_3" x1="26.7499" y1="14.3285" x2="26.7499" y2="14.3285" gradientUnits="userSpaceOnUse">
<stop stop-color="#009677"/>
<stop offset="1" stop-color="#0C745A"/>
</linearGradient>
<linearGradient id="paint3_linear_89_3" x1="43.8403" y1="31.2215" x2="43.8403" y2="31.2215" gradientUnits="userSpaceOnUse">
<stop stop-color="#8DBA78"/>
<stop offset="1" stop-color="#648F4F"/>
</linearGradient>
<linearGradient id="paint4_linear_89_3" x1="44.3976" y1="26.0487" x2="44.3976" y2="26.0487" gradientUnits="userSpaceOnUse">
<stop stop-color="#8DBA78"/>
<stop offset="1" stop-color="#648F4F"/>
</linearGradient>
</defs>
</svg>
